<?xml version="1.0" encoding="utf-8"?>
<!-- Generator: Adobe Illustrator 22.1.0, SVG Export Plug-In . SVG Version: 6.00 Build 0)  -->
<svg version="1.1" id="Layer_1" xmlns="http://www.w3.org/2000/svg" xmlns:xlink="http://www.w3.org/1999/xlink" x="0px" y="0px"
	 viewBox="0 0 60 60" style="enable-background:new 0 0 60 60;" xml:space="preserve">
<style type="text/css">
	.st0{fill:#E2E2E2;}
	.st1{opacity:0.9;}
	.st2{fill:#C6C6C6;}
</style>
<path class="st0" d="M30,0.3C13.6,0.3,0.3,13.6,0.3,30c0,16.4,13.3,29.7,29.7,29.7S59.7,46.4,59.7,30C59.7,13.6,46.4,0.3,30,0.3z
	 M8.2,21.2c-0.8,1.3-2.2,1.9-3.3,1.3c-1-0.6-1.3-2.2-0.5-3.5c0.8-1.3,2.2-1.9,3.3-1.3C8.8,18.3,9,19.9,8.2,21.2z M13.9,14.9
	c0.3-0.6,0.9-0.9,1.2-0.7c0.3,0.2,0.3,0.8,0,1.4c-0.3,0.6-0.9,0.9-1.2,0.7S13.6,15.5,13.9,14.9z M11.9,51.4
	c-0.4,0.3-1.3-0.1-1.9-0.9c-0.6-0.8-0.7-1.7-0.2-2s1.3,0.1,1.9,0.9C12.2,50.2,12.3,51.1,11.9,51.4z M16.4,42.6
	c-1.2,0.5-2.7-0.3-3.4-1.9s-0.3-3.2,0.8-3.8c1.2-0.5,2.7,0.3,3.4,1.9C17.9,40.4,17.6,42,16.4,42.6z M20.7,34c0-0.7,0.6-1.3,1.3-1.3
	s1.3,0.6,1.3,1.3c0,0.7-0.6,1.3-1.3,1.3S20.7,34.7,20.7,34z M25.6,54c-1.8,0-3.2-1-3.2-2.2c0-1.2,1.5-2.2,3.2-2.2s3.2,1,3.2,2.2
	C28.8,53,27.4,54,25.6,54z M31.2,22.5c-2.9,0-5.2-2.3-5.2-5.2s2.3-5.2,5.2-5.2c2.9,0,5.2,2.3,5.2,5.2S34,22.5,31.2,22.5z M43.2,11.3
	c-1.2-1.6-1.3-3.4-0.3-4.2c1-0.7,2.7,0,3.9,1.6c1.2,1.6,1.3,3.4,0.3,4.2C46.1,13.5,44.3,12.8,43.2,11.3z M50.4,22.9
	c-1.4,0.1-2.6-1.2-2.8-3s0.8-3.3,2.1-3.5c1.4-0.1,2.6,1.2,2.8,3C52.8,21.2,51.8,22.8,50.4,22.9z"/>
<g class="st1">
	<ellipse transform="matrix(0.3827 -0.9239 0.9239 0.3827 3.2258 39.4944)" class="st2" cx="31.2" cy="17.3" rx="5.2" ry="5.2"/>
	<path class="st2" d="M52.6,19.4c-0.2-1.8-1.5-3.1-2.8-3c-1.4,0.1-2.3,1.7-2.1,3.5s1.5,3.1,2.8,3S52.8,21.2,52.6,19.4z"/>
	<path class="st2" d="M46.7,8.7c-1.2-1.6-2.9-2.3-3.9-1.6c-1,0.7-0.8,2.6,0.3,4.2s2.9,2.3,3.9,1.6C48,12.1,47.9,10.2,46.7,8.7z"/>
	<ellipse class="st2" cx="25.6" cy="51.8" rx="3.2" ry="2.2"/>
	<path class="st2" d="M9.8,48.5c-0.4,0.3-0.3,1.2,0.2,2c0.6,0.8,1.4,1.2,1.9,0.9s0.3-1.2-0.2-2C11.1,48.6,10.2,48.2,9.8,48.5z"/>
	<path class="st2" d="M15.1,15.6c0.3-0.6,0.4-1.2,0-1.4c-0.3-0.2-0.9,0.2-1.2,0.7c-0.3,0.6-0.4,1.2,0,1.4S14.7,16.2,15.1,15.6z"/>
	<path class="st2" d="M7.7,17.7c-1-0.6-2.5,0-3.3,1.3c-0.8,1.3-0.6,2.9,0.5,3.5c1,0.6,2.5,0,3.3-1.3C9,19.9,8.8,18.3,7.7,17.7z"/>
	<path class="st2" d="M13.8,36.9c-1.2,0.5-1.5,2.2-0.8,3.8s2.2,2.4,3.4,1.9c1.2-0.5,1.5-2.2,0.8-3.8C16.5,37.3,15,36.4,13.8,36.9z"
		/>
	<path class="st2" d="M23.2,34c0-0.7-0.6-1.3-1.3-1.3s-1.3,0.6-1.3,1.3c0,0.7,0.6,1.3,1.3,1.3S23.2,34.7,23.2,34z"/>
</g>
</svg>
