<?xml version="1.0" encoding="utf-8"?>
<!-- Generator: Adobe Illustrator 22.1.0, SVG Export Plug-In . SVG Version: 6.00 Build 0)  -->
<svg version="1.1" id="Layer_1" xmlns="http://www.w3.org/2000/svg" xmlns:xlink="http://www.w3.org/1999/xlink" x="0px" y="0px"
	 viewBox="0 0 200 400" style="enable-background:new 0 0 200 400;" xml:space="preserve">
<style type="text/css">
	.st0{fill:#FAFBFB;}
	.st1{opacity:0.87;fill:#FAFBFB;enable-background:new    ;}
	.st2{opacity:0.55;fill:#FAFBFB;enable-background:new    ;}
	.st3{opacity:0.7;fill:#FAFBFB;enable-background:new    ;}
	.st4{opacity:0.36;}
	.st5{opacity:0.64;}
	.st6{fill:#666666;}
	.st7{opacity:0.3;fill:#666666;}
	.st8{opacity:0.35;fill:#666666;enable-background:new    ;}
	.st9{opacity:0.55;fill:#666666;enable-background:new    ;}
	.st10{opacity:0.7;fill:#666666;enable-background:new    ;}
	.st11{opacity:0.65;}
	.st12{opacity:0.5;}
</style>
<g>
	<path class="st0" d="M70.4,283.9c-0.4,2.9-0.6,5.8-0.6,8.7c0,34.4,28.7,63.1,63.1,63.1c7.1,0,14-1.3,20.5-3.5
		c-2.1,1.9-4.3,3.6-6.6,5.2c18.1-12.3,28.4-33.6,28.4-57.9c0-38-25.3-67.9-67.9-68.8c-0.2,0-0.4,0-0.6,0c-1.4,0.8-2.7,1.7-4,2.7
		C84.7,243.6,72,262.4,70.4,283.9z M119.2,340.5c-1.5-1.5-2.7-3.4-3.7-5.7c4.3,4.8,10.5,7.8,17.3,7.8c4.3,0,8.3-1.2,11.8-3.3
		C136.2,351.7,126.2,347.3,119.2,340.5z M147.1,267.7c1.5-0.3,3.3,1.9,4,4.9c0.7,3.1,0,5.8-1.5,6.1c-1.5,0.3-3.3-1.9-4-4.9
		C144.9,270.8,145.5,268.1,147.1,267.7z M147.7,283c0.3,0.3,0.5,0.7,0.6,1.1c1.1,3-1.6,6.7-6,8.2c-4.3,1.5-8.7,0.3-9.8-2.7
		c-0.2-0.6-0.3-1.2-0.2-1.8C137.8,288.6,141.6,289.3,147.7,283z M113.6,273.3c1.5-0.3,3.3,1.9,4,4.9c0.7,3.1,0,5.8-1.5,6.1
		s-3.3-1.9-4-4.9C111.4,276.4,112.1,273.6,113.6,273.3z M114.2,301.7c1.3,0.6,10.2,3.1,18.7,2.8c8.5-0.3,20-7.2,23.7-10.9
		c0.9,3.5,1.6,13.5-7.9,31.1c-0.6,1.2-1.3,2.2-1.9,3.2c0,0,0,0,0,0c0,0-0.1,0.1-0.1,0.1c-0.8,1.2-1.7,2.3-2.5,3.2
		c-3,3.4-5.8,5-10.9,5.2c-5.9,0.3-16.4-2.8-20.1-15c0-0.1-0.1-0.2-0.1-0.3c0,0,0-0.1,0-0.1l0,0c-2.1-6.7-2.5-14.2-3.1-15.8
		C110.1,305.2,113.2,304.2,114.2,301.7z"/>
	<path class="st1" d="M116.2,368c0.5,0,0.9-0.1,1.4-0.2c0.7-0.1,1.3-0.1,2-0.2c0.5-0.1,1-0.1,1.5-0.2c0.6-0.1,1.2-0.2,1.8-0.3
		c0.5-0.1,1-0.2,1.6-0.3c0.5-0.1,1.1-0.2,1.6-0.4c0.5-0.1,1.1-0.3,1.6-0.4c0.5-0.1,1-0.3,1.4-0.4c0.6-0.2,1.1-0.3,1.7-0.5
		c0.4-0.1,0.7-0.2,1.1-0.4c3.5-1.2,6.8-2.6,9.8-4.3c0,0,0,0,0.1,0c0.8-0.4,1.6-0.9,2.3-1.4c0.1,0,0.1-0.1,0.2-0.1
		c0.8-0.5,1.5-1,2.3-1.5c0,0,0.1-0.1,0.1-0.1c2.3-1.6,4.5-3.3,6.6-5.2c-6.5,2.3-13.4,3.5-20.5,3.5c-34.4,0-63.1-28.7-63.1-63.1
		c0-3,0.2-5.9,0.6-8.7c1.6-21.5,14.3-40.3,32.3-50.5c1.3-1,2.6-1.9,4-2.7c0,0,0,0,0,0c-12.3-0.2-23.7,2.9-33.3,8.8c0,0,0,0,0,0
		c-0.9,0.5-1.7,1.1-2.6,1.7c0,0,0,0,0,0c-0.8,0.6-1.6,1.2-2.4,1.8c0,0-0.1,0.1-0.1,0.1c-0.8,0.6-1.5,1.2-2.3,1.9
		c-0.1,0-0.1,0.1-0.2,0.1c-0.7,0.6-1.4,1.3-2.1,1.9c-0.1,0.1-0.1,0.1-0.2,0.2c-0.7,0.6-1.3,1.3-2,2c-0.1,0.1-0.2,0.2-0.3,0.3
		c-0.6,0.7-1.2,1.3-1.8,2c-0.1,0.1-0.2,0.3-0.3,0.4c-0.6,0.7-1.1,1.4-1.7,2.1c-0.1,0.2-0.2,0.3-0.4,0.5c-0.5,0.7-1,1.4-1.5,2.1
		c-0.1,0.2-0.3,0.4-0.4,0.6c-0.5,0.7-0.9,1.4-1.4,2.1c-0.1,0.2-0.3,0.5-0.4,0.7c-0.4,0.7-0.8,1.4-1.2,2.1c-0.2,0.3-0.3,0.6-0.4,0.8
		c-0.4,0.7-0.7,1.4-1.1,2.1c-0.2,0.3-0.3,0.6-0.4,1c-0.3,0.7-0.6,1.3-0.9,2c-0.2,0.4-0.3,0.7-0.5,1.1c-0.3,0.7-0.5,1.3-0.8,2
		c-0.2,0.4-0.3,0.9-0.4,1.3c-0.2,0.6-0.5,1.3-0.7,1.9c-0.2,0.5-0.3,1-0.4,1.4c-0.2,0.6-0.4,1.2-0.6,1.9c-0.1,0.5-0.3,1.1-0.4,1.6
		c-0.2,0.6-0.3,1.2-0.5,1.9c-0.1,0.6-0.2,1.2-0.3,1.7c-0.1,0.6-0.2,1.2-0.4,1.8c-0.1,0.6-0.2,1.3-0.3,1.9c-0.1,0.6-0.2,1.1-0.3,1.7
		c-0.1,0.7-0.2,1.5-0.2,2.2c-0.1,0.5-0.1,1-0.2,1.5c-0.1,0.8-0.1,1.7-0.2,2.5c0,0.4-0.1,0.9-0.1,1.3c-0.1,1.3-0.1,2.6-0.1,3.9
		c0,3.5,0.3,7.2,0.9,10.8c4.6,27.9,26.9,58,65.1,58c1.2,0,2.4,0,3.6-0.1c0.4,0,0.8-0.1,1.2-0.1C114.7,368.1,115.5,368.1,116.2,368z"
		/>
	<path class="st2" d="M115.5,334.8c1,2.3,2.3,4.2,3.7,5.7c6.9,6.8,16.9,11.2,25.3-1.2c-3.5,2.1-7.5,3.3-11.8,3.3
		C126,342.6,119.8,339.5,115.5,334.8z"/>
	<path class="st0" d="M149,304.5c-0.2-0.3-0.5-3.3-0.5-3.3c-7.9,4.4-21.1,7.4-33.6,2.1c-2,2.1-3.1,3.5-3.1,3.5
		C114.7,308.5,130,316.3,149,304.5z"/>
	<path class="st3" d="M124.2,320.3c2.8,0.9,10,5.9,10.1,6.5c0.4,2-2.4,0.2-2.4,0.2c-8.5-7.3-16.2-7.1-18.7-6.1c0,0,0,0.1,0,0.1
		c0,0.1,0.1,0.2,0.1,0.3c3.7,12.3,14.2,15.3,20.1,15c5.1-0.3,7.8-1.8,10.9-5.2c0.8-0.9,1.6-2,2.5-3.2c0,0,0.1-0.1,0.1-0.1
		C140.2,319.3,129.6,318.2,124.2,320.3z"/>
	<path class="st2" d="M142.3,292.4c4.3-1.5,7-5.2,6-8.2c-0.1-0.4-0.4-0.8-0.6-1.1c-6.1,6.3-9.9,5.6-15.3,4.9c-0.1,0.6,0,1.2,0.2,1.8
		C133.6,292.7,138,293.9,142.3,292.4z"/>
	<g class="st4">
		<path class="st0" d="M43.2,299.5L43.2,299.5c0-1.3,0-2.6,0.1-3.9c0-0.4,0.1-0.9,0.1-1.3c0-0.8,0.1-1.5,0.1-2.3
			c-1.2-1.7-2.2-3.3-2.7-4.3c-0.5-0.9-1.7-1.7-3-2.4c-1,4.6-1.5,9.3-1.5,14.1c0,5.6,0.7,11,2,16.2c1.7-2.2,3.6-5.2,5.5-7.9
			C43.4,305,43.2,302.2,43.2,299.5z"/>
		<path class="st0" d="M68.3,243C68.3,243,68.3,243,68.3,243c0.6-0.5,1.1-0.8,1.6-1.2c0-0.1,0-0.3,0.1-0.4c-0.9,0.6-1.9,1.1-2.8,1.7
			c0.2,0.1,0.3,0.2,0.5,0.4C67.9,243.3,68.1,243.2,68.3,243z"/>
		<path class="st0" d="M73.6,357.7c-0.6-0.4-1.1-0.8-1.7-1.2c-0.1,0.1-0.1,0.2-0.3,0.3c-0.6,0.3-1.2,0.5-1.7,0.7
			c0.9,0.5,1.9,1.1,2.8,1.6c0.2-0.4,0.4-0.9,0.7-1.3C73.5,357.8,73.6,357.8,73.6,357.7z"/>
		<path class="st0" d="M49.3,267.8c0.3-0.7,0.6-1.4,0.9-2c0.2-0.3,0.3-0.7,0.4-1c0.3-0.6,0.6-1.3,1-1.9c-0.6-1.2-1.1-2.5-1.6-3.9
			c-2.9,3.8-5.5,7.9-7.5,12.3c2.1-1,4.3-1.8,6.3-2.5C49,268.4,49.2,268.1,49.3,267.8z"/>
		<path class="st0" d="M52.2,333.7c-1.5,0.8-3.4,1.5-5.2,1.9c1.9,3,4.1,5.8,6.5,8.5c0.7-2,1.2-4,1.4-5.8
			C53.9,336.8,53,335.3,52.2,333.7z"/>
	</g>
	<g class="st5">
		<path class="st0" d="M112.3,230.9c2.7-4.5-1.7-10.8-3-13.3c-1.4-2.6-12.5-14.1-15.1-15.1c0,0,1.6,13.4,1.5,16.5
			c-0.2,3.9-4,10.6-4.9,13.4c5.3-1.3,10.9-1.9,16.7-1.7C109.1,230.7,110.7,230.8,112.3,230.9"/>
		<path class="st0" d="M135.7,230.1c-0.9-3.1-2.6-10.6-5.2-15.1c-2.8,2.4-4.5,9.1-7.8,11.3c-3,2-3.7,2.7-5.2,5.1
			c6.5,0.9,12.5,2.5,18,4.8C136,234.4,136.3,231.9,135.7,230.1"/>
		<path class="st0" d="M156.1,249.9c0.2-0.6,0.3-1.2,0.4-1.8c0.4-3.2,1.8-10.8,1.2-15.9c-3.1,2.6-11.1,5.8-15.8,7.2
			C147.3,242.2,152,245.7,156.1,249.9"/>
		<path class="st0" d="M176,271.4c-0.5-2-5.4-5.1-8.9-6.7c1.4,2.7,2.7,5.5,3.8,8.4C172.5,272.7,174.4,272.1,176,271.4"/>
		<path class="st0" d="M180.5,289.3c-1.9-0.7-4.7-1.8-6.1-2.3c0.5,3,0.8,6,0.9,9.1C177.8,295.1,181.1,291.7,180.5,289.3"/>
		<path class="st0" d="M177.5,333.1l-4.5-14c-1,4-2.4,7.9-4,11.5C171.4,331.7,174.7,332.6,177.5,333.1"/>
		<path class="st0" d="M149.4,355.7c6.2,3.9,14.4,0.3,18.4-4.4c-3.8,0.4-5.7-4.2-6.6-7.4C157.8,348.4,153.9,352.3,149.4,355.7"/>
		<path class="st0" d="M124.9,367.1c8.5,5.7,10.6,14.4,11.8,16.3c1.2,1.9,1.2,1.2,3.1-0.5c4.6-6.3,6.6-17.7,5.2-24.1
			c-5.9,3.6-12.5,6.3-19.8,7.9C125,366.8,125,366.9,124.9,367.1"/>
		<path class="st0" d="M99.7,367.7c-1.1,4.9-4.3,16.8,13.2,27.7c0.7-4.5-1.7-5.2-0.5-10.4c1.2-5.2,3.8-7.1,6.4-10.8
			c1.8-2.6,2.9-4.9,2.7-6.8c-3.9,0.6-7.9,1-12.1,1C106,368.3,102.8,368.1,99.7,367.7"/>
		<path class="st0" d="M69.9,241.8c0,0.1,0,0.1,0,0.2c5.6-4.1,11.9-7.1,18.8-9c-0.4-1.6-1.6-6-3.8-11.3c-1.8-4.4-13-7.8-22.4-8.7
			c-2.4-0.5,8,6.6,9.4,11.3c1.1,3.6-1.2,11.9-1.9,17.2C69.9,241.6,69.9,241.7,69.9,241.8z"/>
		<path class="st0" d="M94.1,366.6c-7.7-1.8-14.5-4.9-20.4-9c0,0-0.1,0.1-0.1,0.1c0,0-0.1,0.1-0.1,0.1c-0.3,0.4-0.5,0.8-0.7,1.3
			c-1.9,4.7,1.6,12.2,1.4,17.1c-0.2,5.4-5,16.5-3.8,16.7s4.7-0.5,8.7-5.4c4-5,9.4-6.6,14.1-11.8C97.1,371.6,95.5,368.8,94.1,366.6z"
			/>
		<path class="st0" d="M54.9,338.3c-0.3,1.7-0.7,3.7-1.4,5.8c-0.6,1.7-1.3,3.4-2.4,4.9c-3.5,5.3-4.4,10.4-0.8,21.5
			c4.4-2.3,3.8-7.6,9.9-10.5c5.1-2.3,7.2-1.7,9.8-2.4c0.5-0.2,1.1-0.4,1.7-0.7c0.1-0.1,0.2-0.2,0.3-0.3
			C65,351.6,59.3,345.3,54.9,338.3z"/>
		<path class="st0" d="M45.2,315.6c-0.4-1.8-0.8-3.5-1.1-5.3c-0.1-0.8-0.3-1.7-0.4-2.5c-1.9,2.7-3.8,5.7-5.5,7.9
			c-0.6,0.8-1.2,1.5-1.8,2.1c-3.5,3.3-11.3,9.1-18.2,11.6c1.3,2.5,4.6,4.2,9,4.4c4.4,0.2,10.4,1.7,15.4,2.2c1.3,0.1,2.8,0,4.4-0.3
			c1.8-0.4,3.7-1.1,5.2-1.9C49,327.9,46.7,321.7,45.2,315.6z"/>
		<path class="st0" d="M42.6,271.3c-0.8,0.4-1.7,0.8-2.5,1.2c-5.5,3-13.7,3.1-14.3,5c-0.6,1.9,4.1,5,5.8,5.5
			c1.1,0.3,3.9,1.2,6.1,2.4c1.3,0.7,2.4,1.5,3,2.4c0.6,0.9,1.6,2.6,2.7,4.3c0-0.1,0-0.1,0-0.2c0-0.5,0.1-1,0.2-1.5
			c0.1-0.7,0.1-1.5,0.2-2.2c0.1-0.6,0.2-1.1,0.3-1.7c0.1-0.6,0.2-1.3,0.3-1.9c0.1-0.6,0.2-1.2,0.4-1.8c0.1-0.6,0.2-1.2,0.3-1.7
			c0.1-0.6,0.3-1.2,0.5-1.9c0.1-0.5,0.2-1.1,0.4-1.6c0.2-0.6,0.4-1.3,0.6-1.9c0.1-0.5,0.3-1,0.4-1.4c0.2-0.7,0.4-1.3,0.7-1.9
			c0.1-0.4,0.3-0.9,0.4-1.3c0.3-0.7,0.5-1.3,0.8-2c0,0,0-0.1,0-0.1C46.9,269.5,44.7,270.3,42.6,271.3z"/>
		<path class="st0" d="M67.2,243.1c-3.5-2.5-8.8-5.4-12-5.7c-4.4-0.5-10.2-9.4-10-11.3c0.2-1.9-1.4-0.9-1.4-0.9
			c-1.9,2.7-4.7,9.6-2.7,13.8c2,4.2,5.2,9,6.6,11.9c0.7,1.5,1.4,4.8,2.4,8c0.5,1.4,1,2.8,1.6,3.9c0-0.1,0.1-0.1,0.1-0.2
			c0.1-0.3,0.3-0.6,0.4-0.8c0.4-0.7,0.8-1.4,1.2-2.1c0.1-0.2,0.3-0.5,0.4-0.7c0.4-0.7,0.9-1.4,1.4-2.1c0.1-0.2,0.3-0.4,0.4-0.6
			c0.5-0.7,1-1.4,1.5-2.1c0.1-0.2,0.2-0.3,0.4-0.5c0.5-0.7,1.1-1.4,1.7-2.1c0.1-0.1,0.2-0.3,0.3-0.4c0.6-0.7,1.2-1.4,1.8-2
			c0.1-0.1,0.2-0.2,0.3-0.3c0.6-0.7,1.3-1.3,2-2c0.1-0.1,0.1-0.1,0.2-0.2c0.7-0.7,1.4-1.3,2.1-1.9c0.1,0,0.1-0.1,0.2-0.1
			c0.6-0.5,1.1-0.9,1.7-1.4C67.5,243.4,67.4,243.3,67.2,243.1z"/>
	</g>
</g>
<g>
	<path class="st6" d="M149.5,78.7c1.5-0.3,2.2-3.1,1.5-6.1c-0.7-3.1-2.5-5.3-4-4.9c-1.5,0.3-2.2,3.1-1.5,6.1
		C146.2,76.9,148,79.1,149.5,78.7z"/>
	<path class="st6" d="M165,137.9c-0.8,1.4-1.7,2.7-2.6,4h2.6V137.9z"/>
	<path class="st6" d="M116.1,84.3c1.5-0.3,2.2-3.1,1.5-6.1c-0.7-3.1-2.5-5.3-4-4.9c-1.5,0.3-2.2,3.1-1.5,6.1
		C112.7,82.4,114.5,84.6,116.1,84.3z"/>
	<path class="st7" d="M70.4,83.8c-0.4,2.9-0.6,5.8-0.6,8.7c0,34.4,28.7,63.1,63.1,63.1c7.1,0,14-1.3,20.5-3.5
		c-2.1,1.9-4.3,3.6-6.6,5.2c18.1-12.3,28.4-33.6,28.4-57.9c0-38-25.3-67.9-67.9-68.8c-0.2,0-0.4,0-0.6,0c-1.4,0.8-2.7,1.7-4,2.7
		C84.7,43.5,72,62.3,70.4,83.8z M119.2,140.4c-1.5-1.5-2.7-3.4-3.7-5.7c4.3,4.8,10.5,7.8,17.3,7.8c4.3,0,8.3-1.2,11.8-3.3
		C136.2,151.7,126.2,147.3,119.2,140.4z M147.1,67.7c1.5-0.3,3.3,1.9,4,4.9c0.7,3.1,0,5.8-1.5,6.1c-1.5,0.3-3.3-1.9-4-4.9
		C144.9,70.8,145.5,68,147.1,67.7z M147.7,83c0.3,0.3,0.5,0.7,0.6,1.1c1.1,3-1.6,6.7-6,8.2c-4.3,1.5-8.7,0.3-9.8-2.7
		c-0.2-0.6-0.3-1.2-0.2-1.8C137.8,88.6,141.6,89.3,147.7,83z M113.6,73.2c1.5-0.3,3.3,1.9,4,4.9c0.7,3.1,0,5.8-1.5,6.1
		s-3.3-1.9-4-4.9C111.4,76.3,112.1,73.6,113.6,73.2z M114.2,101.7c1.3,0.6,10.2,3.1,18.7,2.8c8.5-0.3,20-7.2,23.7-10.9
		c0.9,3.5,1.6,13.5-7.9,31.1c-0.6,1.2-1.3,2.2-1.9,3.2c0,0,0,0,0,0c0,0-0.1,0.1-0.1,0.1c-0.8,1.2-1.7,2.3-2.5,3.2
		c-3,3.4-5.8,5-10.9,5.2c-5.9,0.3-16.4-2.8-20.1-15c0-0.1-0.1-0.2-0.1-0.3c0,0,0-0.1,0-0.1l0,0c-2.1-6.7-2.5-14.2-3.1-15.8
		C110.1,105.1,113.2,104.2,114.2,101.7z"/>
	<path class="st8" d="M116.2,168c0.5,0,0.9-0.1,1.4-0.2c0.7-0.1,1.3-0.1,2-0.2c0.5-0.1,1-0.1,1.5-0.2c0.6-0.1,1.2-0.2,1.8-0.3
		c0.5-0.1,1-0.2,1.6-0.3c0.5-0.1,1.1-0.2,1.6-0.4c0.5-0.1,1.1-0.3,1.6-0.4c0.5-0.1,1-0.3,1.4-0.4c0.6-0.2,1.1-0.3,1.7-0.5
		c0.4-0.1,0.7-0.2,1.1-0.4c3.5-1.2,6.8-2.6,9.8-4.3c0,0,0,0,0.1,0c0.8-0.4,1.6-0.9,2.3-1.4c0.1,0,0.1-0.1,0.2-0.1
		c0.8-0.5,1.5-1,2.3-1.5c0,0,0.1-0.1,0.1-0.1c2.3-1.6,4.5-3.3,6.6-5.2c-6.5,2.3-13.4,3.5-20.5,3.5c-34.4,0-63.1-28.7-63.1-63.1
		c0-3,0.2-5.9,0.6-8.7c1.6-21.5,14.3-40.3,32.3-50.5c1.3-1,2.6-1.9,4-2.7c0,0,0,0,0,0c-12.3-0.2-23.7,2.9-33.3,8.8c0,0,0,0,0,0
		c-0.9,0.5-1.7,1.1-2.6,1.7c0,0,0,0,0,0c-0.8,0.6-1.6,1.2-2.4,1.8c0,0-0.1,0.1-0.1,0.1c-0.8,0.6-1.5,1.2-2.3,1.9
		c-0.1,0-0.1,0.1-0.2,0.1c-0.7,0.6-1.4,1.3-2.1,1.9c-0.1,0.1-0.1,0.1-0.2,0.2c-0.7,0.6-1.3,1.3-2,2c-0.1,0.1-0.2,0.2-0.3,0.3
		c-0.6,0.7-1.2,1.3-1.8,2c-0.1,0.1-0.2,0.3-0.3,0.4c-0.6,0.7-1.1,1.4-1.7,2.1c-0.1,0.2-0.2,0.3-0.4,0.5c-0.5,0.7-1,1.4-1.5,2.1
		c-0.1,0.2-0.3,0.4-0.4,0.6c-0.5,0.7-0.9,1.4-1.4,2.1c-0.1,0.2-0.3,0.5-0.4,0.7c-0.4,0.7-0.8,1.4-1.2,2.1c-0.2,0.3-0.3,0.6-0.4,0.8
		c-0.4,0.7-0.7,1.4-1.1,2.1c-0.2,0.3-0.3,0.6-0.4,1c-0.3,0.7-0.6,1.3-0.9,2c-0.2,0.4-0.3,0.7-0.5,1.1c-0.3,0.7-0.5,1.3-0.8,2
		c-0.2,0.4-0.3,0.9-0.4,1.3c-0.2,0.6-0.5,1.3-0.7,1.9c-0.2,0.5-0.3,1-0.4,1.4c-0.2,0.6-0.4,1.2-0.6,1.9c-0.1,0.5-0.3,1.1-0.4,1.6
		c-0.2,0.6-0.3,1.2-0.5,1.9c-0.1,0.6-0.2,1.2-0.3,1.7c-0.1,0.6-0.2,1.2-0.4,1.8c-0.1,0.6-0.2,1.3-0.3,1.9c-0.1,0.6-0.2,1.1-0.3,1.7
		c-0.1,0.7-0.2,1.5-0.2,2.2c-0.1,0.5-0.1,1-0.2,1.5c-0.1,0.8-0.1,1.7-0.2,2.5c0,0.4-0.1,0.9-0.1,1.3c-0.1,1.3-0.1,2.6-0.1,3.9
		c0,3.5,0.3,7.2,0.9,10.8c4.6,27.9,26.9,58,65.1,58c1.2,0,2.4,0,3.6-0.1c0.4,0,0.8-0.1,1.2-0.1C114.7,168.1,115.5,168,116.2,168z"/>
	<path class="st9" d="M115.5,134.7c1,2.3,2.3,4.2,3.7,5.7c6.9,6.8,16.9,11.2,25.3-1.2c-3.5,2.1-7.5,3.3-11.8,3.3
		C126,142.5,119.8,139.5,115.5,134.7z"/>
	<path class="st6" d="M146.7,127.9c-0.9,1.2-1.7,2.2-2.5,3.1C145.1,130.2,145.9,129.1,146.7,127.9z"/>
	<path class="st6" d="M156.6,93.5c-3.8,3.8-15.2,10.6-23.7,10.9c-8.5,0.3-17.4-2.1-18.7-2.8c-0.9,2.5-4.1,3.5-4.1,3.5
		c0.6,1.6,0.9,9,3.1,15.8l0,0c0,0,0,0.1,0,0.1c0,0.1,0.1,0.2,0.1,0.3c3.7,12.3,14.2,15.3,20.1,15c4.4-0.2,7.1-1.4,9.7-4
		c-2.6,2.6-5.3,3.8-9.7,4c-5.9,0.3-16.4-2.8-20.1-15c0-0.1-0.1-0.2-0.1-0.3c0,0,0-0.1,0-0.1c2.4-1,10.2-1.2,18.7,6.1
		c0,0,2.8,1.8,2.4-0.2c-0.1-0.6-7.3-5.6-10.1-6.5c5.4-2.1,16-1,22.7,7.6c0,0-0.1,0.1-0.1,0.1c0,0,0.1-0.1,0.1-0.1c0,0,0,0,0,0
		c0.7-1,1.3-2,1.9-3.2C158.2,107,157.6,96.9,156.6,93.5z M111.9,106.6c0,0,1.1-1.4,3.1-3.5c12.5,5.3,25.8,2.3,33.6-2.1
		c0,0,0.3,3,0.5,3.3C130,116.3,114.7,108.5,111.9,106.6z"/>
	<path class="st10" d="M143.1,132.3c0.4-0.4,0.8-0.8,1.1-1.2c0,0,0,0,0,0c0,0,0,0,0,0C143.9,131.5,143.5,131.9,143.1,132.3z"/>
	<path class="st10" d="M146.7,127.9C146.7,127.9,146.7,127.9,146.7,127.9C146.8,127.9,146.8,127.9,146.7,127.9
		C146.8,127.9,146.8,127.9,146.7,127.9C146.7,127.9,146.7,127.9,146.7,127.9z"/>
	<path class="st10" d="M124.2,120.2c2.8,1,10,5.9,10.1,6.5c0.4,2-2.4,0.2-2.4,0.2c-8.5-7.3-16.2-7.1-18.7-6.1c0,0,0,0.1,0,0.1
		c0,0.1,0.1,0.2,0.1,0.3c3.7,12.3,14.2,15.3,20.1,15c4.4-0.2,7.1-1.4,9.7-4c0.4-0.4,0.8-0.8,1.1-1.2c0,0,0,0,0,0
		c0.8-0.9,1.6-1.9,2.5-3.1c0,0,0,0,0,0c0,0,0,0,0,0c0,0,0.1-0.1,0.1-0.1C140.2,119.2,129.6,118.1,124.2,120.2z"/>
	<path class="st9" d="M142.3,92.3c4.3-1.5,7-5.2,6-8.2c-0.1-0.4-0.4-0.8-0.6-1.1c-6.1,6.3-9.9,5.6-15.3,4.9c-0.1,0.6,0,1.2,0.2,1.8
		C133.6,92.6,138,93.9,142.3,92.3z"/>
	<g class="st11">
		<path class="st6" d="M43.2,99.5L43.2,99.5c0-1.3,0-2.6,0.1-3.9c0-0.4,0.1-0.9,0.1-1.3c0-0.8,0.1-1.5,0.1-2.3
			c-1.2-1.7-2.2-3.3-2.7-4.3c-0.5-0.9-1.7-1.7-3-2.4c-1,4.6-1.5,9.3-1.5,14.1c0,5.6,0.7,11,2,16.2c1.7-2.2,3.6-5.2,5.5-7.9
			C43.4,105,43.2,102.2,43.2,99.5z"/>
		<path class="st6" d="M68.3,43C68.3,42.9,68.3,42.9,68.3,43c0.6-0.5,1.1-0.8,1.6-1.2c0-0.1,0-0.3,0.1-0.4c-0.9,0.6-1.9,1.1-2.8,1.7
			c0.2,0.1,0.3,0.2,0.5,0.4C67.9,43.3,68.1,43.1,68.3,43z"/>
		<path class="st6" d="M73.6,157.7c-0.6-0.4-1.1-0.8-1.7-1.2c-0.1,0.1-0.1,0.2-0.3,0.3c-0.6,0.3-1.2,0.5-1.7,0.7
			c0.9,0.5,1.9,1.1,2.8,1.6c0.2-0.4,0.4-0.9,0.7-1.3C73.5,157.8,73.6,157.7,73.6,157.7z"/>
		<path class="st6" d="M49.3,67.7c0.3-0.7,0.6-1.4,0.9-2c0.2-0.3,0.3-0.7,0.4-1c0.3-0.6,0.6-1.3,1-1.9c-0.6-1.2-1.1-2.5-1.6-3.9
			c-2.9,3.8-5.5,7.9-7.5,12.3c2.1-1,4.3-1.8,6.3-2.5C49,68.4,49.2,68.1,49.3,67.7z"/>
		<path class="st6" d="M52.2,133.7c-1.5,0.8-3.4,1.5-5.2,1.9c1.9,3,4.1,5.8,6.5,8.5c0.7-2,1.2-4,1.4-5.8
			C53.9,136.8,53,135.2,52.2,133.7z"/>
	</g>
	<g class="st12">
		<path class="st6" d="M112.3,30.9c2.7-4.5-1.7-10.8-3-13.3C107.9,15,96.8,3.4,94.2,2.5c0,0,1.6,13.4,1.5,16.5
			c-0.2,3.9-4,10.6-4.9,13.4c5.3-1.3,10.9-1.9,16.7-1.7C109.1,30.7,110.7,30.7,112.3,30.9"/>
		<path class="st6" d="M135.7,30.1c-0.9-3.1-2.6-10.6-5.2-15.1c-2.8,2.4-4.5,9.1-7.8,11.3c-3,2-3.7,2.7-5.2,5.1
			c6.5,0.9,12.5,2.5,18,4.8C136,34.3,136.3,31.8,135.7,30.1"/>
		<path class="st6" d="M156.1,49.8c0.2-0.6,0.3-1.2,0.4-1.8c0.4-3.2,1.8-10.8,1.2-15.9c-3.1,2.6-11.1,5.8-15.8,7.2
			C147.3,42.1,152,45.7,156.1,49.8"/>
		<path class="st6" d="M176,71.3c-0.5-2-5.4-5.1-8.9-6.7c1.4,2.7,2.7,5.5,3.8,8.4C172.5,72.6,174.4,72,176,71.3"/>
		<path class="st6" d="M180.5,89.2c-1.9-0.7-4.7-1.8-6.1-2.3c0.5,3,0.8,6,0.9,9.1C177.8,95.1,181.1,91.7,180.5,89.2"/>
		<path class="st6" d="M177.5,133.1l-4.5-14c-1,4-2.4,7.9-4,11.5C171.4,131.6,174.7,132.5,177.5,133.1"/>
		<path class="st6" d="M149.4,155.6c6.2,3.9,14.4,0.3,18.4-4.4c-3.8,0.4-5.7-4.2-6.6-7.4C157.8,148.3,153.9,152.3,149.4,155.6"/>
		<path class="st6" d="M124.9,167c8.5,5.7,10.6,14.4,11.8,16.3c1.2,1.9,1.2,1.2,3.1-0.5c4.6-6.3,6.6-17.7,5.2-24.1
			c-5.9,3.6-12.5,6.3-19.8,7.9C125,166.8,125,166.9,124.9,167"/>
		<path class="st6" d="M99.7,167.6c-1.1,4.9-4.3,16.8,13.2,27.7c0.7-4.5-1.7-5.2-0.5-10.4c1.2-5.2,3.8-7.1,6.4-10.8
			c1.8-2.6,2.9-4.9,2.7-6.8c-3.9,0.6-7.9,1-12.1,1C106,168.3,102.8,168.1,99.7,167.6"/>
		<path class="st6" d="M69.9,41.8c0,0.1,0,0.1,0,0.2c5.6-4.1,11.9-7.1,18.8-9c-0.4-1.6-1.6-6-3.8-11.3c-1.8-4.4-13-7.8-22.4-8.7
			c-2.4-0.5,8,6.6,9.4,11.3c1.1,3.6-1.2,11.9-1.9,17.2C69.9,41.5,69.9,41.7,69.9,41.8z"/>
		<path class="st6" d="M94.1,166.6c-7.7-1.8-14.5-4.9-20.4-9c0,0-0.1,0.1-0.1,0.1c0,0-0.1,0.1-0.1,0.1c-0.3,0.4-0.5,0.8-0.7,1.3
			c-1.9,4.7,1.6,12.2,1.4,17.1c-0.2,5.4-5,16.5-3.8,16.7s4.7-0.5,8.7-5.4c4-5,9.4-6.6,14.1-11.8C97.1,171.6,95.5,168.7,94.1,166.6z"
			/>
		<path class="st6" d="M54.9,138.3c-0.3,1.7-0.7,3.7-1.4,5.8c-0.6,1.7-1.3,3.4-2.4,4.9c-3.5,5.3-4.4,10.4-0.8,21.5
			c4.4-2.3,3.8-7.6,9.9-10.5c5.1-2.3,7.2-1.7,9.8-2.4c0.5-0.2,1.1-0.4,1.7-0.7c0.1-0.1,0.2-0.2,0.3-0.3
			C65,151.5,59.3,145.2,54.9,138.3z"/>
		<path class="st6" d="M45.2,115.5c-0.4-1.8-0.8-3.5-1.1-5.3c-0.1-0.8-0.3-1.7-0.4-2.5c-1.9,2.7-3.8,5.7-5.5,7.9
			c-0.6,0.8-1.2,1.5-1.8,2.1c-3.5,3.3-11.3,9.1-18.2,11.6c1.3,2.5,4.6,4.2,9,4.4c4.4,0.2,10.4,1.7,15.4,2.2c1.3,0.1,2.8,0,4.4-0.3
			c1.8-0.4,3.7-1.1,5.2-1.9C49,127.8,46.7,121.7,45.2,115.5z"/>
		<path class="st6" d="M42.6,71.2c-0.8,0.4-1.7,0.8-2.5,1.2c-5.5,3-13.7,3.1-14.3,5c-0.6,1.9,4.1,5,5.8,5.5c1.1,0.3,3.9,1.2,6.1,2.4
			c1.3,0.7,2.4,1.5,3,2.4c0.6,0.9,1.6,2.6,2.7,4.3c0-0.1,0-0.1,0-0.2c0-0.5,0.1-1,0.2-1.5c0.1-0.7,0.1-1.5,0.2-2.2
			c0.1-0.6,0.2-1.1,0.3-1.7c0.1-0.6,0.2-1.3,0.3-1.9c0.1-0.6,0.2-1.2,0.4-1.8c0.1-0.6,0.2-1.2,0.3-1.7c0.1-0.6,0.3-1.2,0.5-1.9
			c0.1-0.5,0.2-1.1,0.4-1.6c0.2-0.6,0.4-1.3,0.6-1.9c0.1-0.5,0.3-1,0.4-1.4c0.2-0.7,0.4-1.3,0.7-1.9c0.1-0.4,0.3-0.9,0.4-1.3
			c0.3-0.7,0.5-1.3,0.8-2c0,0,0-0.1,0-0.1C46.9,69.4,44.7,70.2,42.6,71.2z"/>
		<path class="st6" d="M67.2,43.1c-3.5-2.5-8.8-5.4-12-5.7c-4.4-0.5-10.2-9.4-10-11.3c0.2-1.9-1.4-0.9-1.4-0.9
			C41.8,27.8,39,34.7,41,39c2,4.2,5.2,9,6.6,11.9c0.7,1.5,1.4,4.8,2.4,8c0.5,1.4,1,2.8,1.6,3.9c0-0.1,0.1-0.1,0.1-0.2
			c0.1-0.3,0.3-0.6,0.4-0.8c0.4-0.7,0.8-1.4,1.2-2.1c0.1-0.2,0.3-0.5,0.4-0.7c0.4-0.7,0.9-1.4,1.4-2.1c0.1-0.2,0.3-0.4,0.4-0.6
			c0.5-0.7,1-1.4,1.5-2.1c0.1-0.2,0.2-0.3,0.4-0.5c0.5-0.7,1.1-1.4,1.7-2.1c0.1-0.1,0.2-0.3,0.3-0.4c0.6-0.7,1.2-1.4,1.8-2
			c0.1-0.1,0.2-0.2,0.3-0.3c0.6-0.7,1.3-1.3,2-2c0.1-0.1,0.1-0.1,0.2-0.2c0.7-0.7,1.4-1.3,2.1-1.9c0.1,0,0.1-0.1,0.2-0.1
			c0.6-0.5,1.1-0.9,1.7-1.4C67.5,43.3,67.4,43.2,67.2,43.1z"/>
	</g>
</g>
</svg>
