<?xml version="1.0" encoding="utf-8"?>
<!-- Generator: Adobe Illustrator 22.1.0, SVG Export Plug-In . SVG Version: 6.00 Build 0)  -->
<svg version="1.1" id="Layer_1" xmlns="http://www.w3.org/2000/svg" xmlns:xlink="http://www.w3.org/1999/xlink" x="0px" y="0px"
	 viewBox="0 0 200 355.4" style="enable-background:new 0 0 200 355.4;" xml:space="preserve">
<style type="text/css">
	.st0{opacity:0.35;clip-path:url(#SVGID_2_);fill:#FAFBFB;enable-background:new    ;}
	.st1{clip-path:url(#SVGID_4_);fill:#FAFBFB;}
	.st2{clip-path:url(#SVGID_6_);fill:#FAFBFB;}
	.st3{clip-path:url(#SVGID_8_);fill:#FAFBFB;}
	.st4{clip-path:url(#SVGID_10_);fill:#FAFBFB;}
	.st5{clip-path:url(#SVGID_12_);fill:#FAFBFB;}
	.st6{clip-path:url(#SVGID_14_);fill:#FAFBFB;}
	.st7{clip-path:url(#SVGID_16_);fill:#FAFBFB;}
	.st8{opacity:0.35;clip-path:url(#SVGID_18_);fill:#666666;enable-background:new    ;}
	.st9{clip-path:url(#SVGID_20_);fill:#666666;}
	.st10{clip-path:url(#SVGID_22_);fill:#666666;}
	.st11{clip-path:url(#SVGID_24_);fill:#666666;}
	.st12{clip-path:url(#SVGID_26_);fill:#666666;}
	.st13{clip-path:url(#SVGID_28_);fill:#666666;}
	.st14{clip-path:url(#SVGID_30_);fill:#666666;}
	.st15{clip-path:url(#SVGID_32_);fill:#666666;}
</style>
<g>
	<g>
		<defs>
			<rect id="SVGID_1_" x="2.7" y="200" width="194.7" height="110.9"/>
		</defs>
		<clipPath id="SVGID_2_">
			<use xlink:href="#SVGID_1_"  style="overflow:visible;"/>
		</clipPath>
		<path class="st0" d="M97.5,284.3l-15.4,0.5l-6.5,21.2l-18.4-12.8l-12.4,8.6L38.9,286l-22.7,0.7l6.1-17.8L8.2,259l16.1-11.9
			l-6.6-17.5h18L42,211l16.5,10.7l14.2-10.5l6.2,18.3h6.7c0,0,0,0,0,0.1h13.3L94.2,245l0.1,0l0,0l16.7,10.8l-18.7,13L97.5,284.3z"/>
	</g>
	<g>
		<defs>
			<rect id="SVGID_3_" x="2.7" y="200" width="194.7" height="110.9"/>
		</defs>
		<clipPath id="SVGID_4_">
			<use xlink:href="#SVGID_3_"  style="overflow:visible;"/>
		</clipPath>
		<path class="st1" d="M139.4,233.7c-0.2-0.6-0.3-1.2-0.5-1.9c-0.2-0.6-0.4-1.3-0.6-2c-0.2,0.7-0.4,1.4-0.6,2
			c-0.2,0.6-0.3,1.2-0.5,1.9c-0.2,0.6-0.3,1.2-0.4,1.8c-0.1,0.6-0.3,1.3-0.4,1.9h3.8c-0.1-0.7-0.3-1.3-0.4-1.9
			C139.7,235,139.6,234.3,139.4,233.7"/>
	</g>
	<g>
		<defs>
			<rect id="SVGID_5_" x="2.7" y="200" width="194.7" height="110.9"/>
		</defs>
		<clipPath id="SVGID_6_">
			<use xlink:href="#SVGID_5_"  style="overflow:visible;"/>
		</clipPath>
		<path class="st2" d="M169.9,244.5c-0.5,0.4-1.1,0.7-1.8,0.7c-0.7,0-1.3-0.2-1.8-0.7c-0.5-0.4-0.8-1-0.8-1.8c0-0.8,0.3-1.4,0.8-1.8
			c0.5-0.4,1.1-0.7,1.8-0.7c0.7,0,1.3,0.2,1.8,0.7c0.5,0.4,0.8,1,0.8,1.8C170.7,243.5,170.5,244.1,169.9,244.5 M165.9,226.3h4.5v4.9
			c0,0.7,0,1.4,0,1.9c0,0.6-0.1,1.1-0.1,1.6c-0.1,0.5-0.1,1.1-0.2,1.6c-0.1,0.5-0.2,1.1-0.2,1.7h-3.2c-0.1-0.6-0.2-1.2-0.3-1.8
			c-0.1-0.5-0.1-1.1-0.2-1.6c-0.1-0.5-0.1-1.1-0.1-1.6c0-0.6,0-1.2,0-1.9L165.9,226.3L165.9,226.3z M160.3,229.3
			c-0.4,1-0.8,1.9-1.3,2.8c-0.4,0.9-0.9,1.9-1.4,2.8c-0.5,0.9-1,1.9-1.6,2.9v7.1h-3.9v-7c-1.1-1.9-2.2-3.8-3-5.7
			c-0.9-1.8-1.7-3.8-2.5-5.8h4.1c0.5,1.4,1,2.9,1.6,4.4c0.6,1.5,1.2,2.8,1.8,4.1c0.2-0.5,0.5-1,0.8-1.7c0.3-0.7,0.6-1.4,0.9-2.2
			c0.3-0.8,0.6-1.6,0.9-2.4c0.3-0.8,0.5-1.5,0.8-2.2h4C161.1,227.3,160.7,228.3,160.3,229.3 M141.8,244.8l-0.9-4.3h-5.2l-0.9,4.3h-4
			c0.9-3.7,1.8-7,2.8-10c0.9-3,1.8-5.9,2.7-8.5h4.2c0.9,2.7,1.8,5.6,2.7,8.6c0.9,3,1.8,6.3,2.6,9.9L141.8,244.8L141.8,244.8z
			 M126.9,244.8h-3.1c-0.9-2.1-1.8-4.1-2.9-6.2c-1-2-2.1-4.1-3.3-6.2v12.3h-3.5v-18.5h3.1c0.6,0.9,1.2,1.8,1.8,2.9
			c0.6,1,1.2,2.1,1.7,3.1c0.6,1,1.1,2,1.5,3c0.5,1,0.9,1.8,1.2,2.5v-11.4h3.5V244.8z M97.5,284l-15.4,0.5l-6.5,21.2l-18.4-12.8
			l-12.4,8.6l-5.9-15.8l-22.7,0.7l6.1-17.8l-14.1-9.8l16.1-11.9l-6.6-17.5h18l6.3-18.5l16.5,10.7L72.7,211l6.2,18.3h6.7
			c0,0,0,0,0,0.1h13.3l-4.7,15.4l0.1,0l0,0l16.7,10.8l-18.7,13L97.5,284z M140.7,200c-25.2,0-46.4,11-53.8,26.2h-5.6l-6.9-20.4
			l-16,11.9l-18.2-11.8l-6.9,20.3H13l7.4,19.6L2.7,258.9l15.8,10.9l-6.8,19.9l25-0.7l6.6,17.6l14-9.8l20.3,14.1l7.1-23.3L102,287
			l-5.8-17.2l6.1-4.3c10.1,6.3,23.5,10.1,38.4,10.1c7.6,0,14.9-1,21.5-2.8c2.5,2.9,4.4,6.8,2.7,11.9c6.7-5.1,8.1-12.5,8.4-16
			c14.5-6.9,24-18.1,24-30.9C197.3,216.9,172,200,140.7,200"/>
	</g>
	<g>
		<defs>
			<rect id="SVGID_7_" x="2.7" y="200" width="194.7" height="110.9"/>
		</defs>
		<clipPath id="SVGID_8_">
			<use xlink:href="#SVGID_7_"  style="overflow:visible;"/>
		</clipPath>
		<path class="st3" d="M41.3,250.1c-0.3,0.8-0.6,1.6-0.9,2.4s-0.6,1.5-0.9,2.2c-0.3,0.7-0.6,1.3-0.8,1.7c-0.6-1.2-1.2-2.6-1.8-4.1
			c-0.6-1.5-1.1-2.9-1.6-4.4h-4.1c0.8,2,1.6,4,2.5,5.8c0.9,1.8,1.9,3.7,3,5.7v7h3.9v-7.1c0.6-1,1.1-1.9,1.6-2.9
			c0.5-0.9,1-1.9,1.4-2.8c0.4-0.9,0.9-1.9,1.3-2.8c0.4-1,0.8-1.9,1.2-3h-4C41.9,248.6,41.6,249.3,41.3,250.1"/>
	</g>
	<g>
		<defs>
			<rect id="SVGID_9_" x="2.7" y="200" width="194.7" height="110.9"/>
		</defs>
		<clipPath id="SVGID_10_">
			<use xlink:href="#SVGID_9_"  style="overflow:visible;"/>
		</clipPath>
		<path class="st4" d="M52.3,259.1c0.1-0.7,0.3-1.3,0.4-1.9c0.1-0.6,0.3-1.2,0.4-1.8c0.2-0.6,0.3-1.2,0.5-1.9c0.2-0.6,0.4-1.3,0.6-2
			c0.2,0.7,0.4,1.4,0.6,2c0.2,0.6,0.3,1.2,0.5,1.9c0.2,0.6,0.3,1.2,0.4,1.8c0.1,0.6,0.2,1.3,0.4,1.9H52.3z M56.4,247.9h-4.2
			c-0.9,2.7-1.8,5.5-2.7,8.5c-0.9,3-1.9,6.3-2.8,10h4l0.9-4.3h5.2l0.9,4.3h4.1c-0.9-3.6-1.7-6.9-2.6-9.9
			C58.3,253.5,57.3,250.6,56.4,247.9"/>
	</g>
	<g>
		<defs>
			<rect id="SVGID_11_" x="2.7" y="200" width="194.7" height="110.9"/>
		</defs>
		<clipPath id="SVGID_12_">
			<use xlink:href="#SVGID_11_"  style="overflow:visible;"/>
		</clipPath>
		<path class="st5" d="M72.6,250.1c-0.3,0.8-0.6,1.6-0.9,2.4c-0.3,0.8-0.6,1.5-0.9,2.2c-0.3,0.7-0.6,1.3-0.8,1.7
			c-0.6-1.2-1.2-2.6-1.8-4.1c-0.6-1.5-1.1-2.9-1.6-4.4h-4.1c0.8,2,1.6,4,2.5,5.8c0.9,1.8,1.9,3.7,3,5.7v7h3.9v-7.1
			c0.6-1,1.1-1.9,1.6-2.9c0.5-0.9,1-1.9,1.4-2.8c0.4-0.9,0.9-1.9,1.3-2.8c0.4-1,0.8-1.9,1.2-3h-4C73.2,248.6,72.9,249.3,72.6,250.1"
			/>
	</g>
	<g>
		<defs>
			<rect id="SVGID_13_" x="2.7" y="200" width="194.7" height="110.9"/>
		</defs>
		<clipPath id="SVGID_14_">
			<use xlink:href="#SVGID_13_"  style="overflow:visible;"/>
		</clipPath>
		<path class="st6" d="M83.6,256.4c0.1,0.5,0.1,1,0.2,1.6c0.1,0.5,0.2,1.1,0.3,1.8h3.2c0.1-0.6,0.2-1.2,0.2-1.7
			c0.1-0.5,0.1-1,0.2-1.6c0.1-0.5,0.1-1.1,0.1-1.6c0-0.6,0-1.2,0-1.9v-4.9h-4.4v4.9c0,0.7,0,1.4,0,1.9
			C83.4,255.3,83.5,255.9,83.6,256.4"/>
	</g>
	<g>
		<defs>
			<rect id="SVGID_15_" x="2.7" y="200" width="194.7" height="110.9"/>
		</defs>
		<clipPath id="SVGID_16_">
			<use xlink:href="#SVGID_15_"  style="overflow:visible;"/>
		</clipPath>
		<path class="st7" d="M85.6,261.9c-0.7,0-1.3,0.2-1.8,0.7c-0.5,0.4-0.8,1-0.8,1.8c0,0.8,0.3,1.4,0.8,1.8c0.5,0.4,1.1,0.7,1.8,0.7
			c0.7,0,1.3-0.2,1.8-0.7c0.5-0.4,0.8-1,0.8-1.8c0-0.8-0.3-1.4-0.8-1.8C86.9,262.1,86.3,261.9,85.6,261.9"/>
	</g>
</g>
<g>
	<g>
		<defs>
			<rect id="SVGID_17_" x="2.7" y="44.6" width="194.7" height="110.9"/>
		</defs>
		<clipPath id="SVGID_18_">
			<use xlink:href="#SVGID_17_"  style="overflow:visible;"/>
		</clipPath>
		<path class="st8" d="M97.5,128.8l-15.4,0.5l-6.5,21.2l-18.4-12.8l-12.4,8.6l-5.9-15.8l-22.7,0.7l6.1-17.8l-14.1-9.8l16.1-11.9
			l-6.6-17.5h18L42,55.6l16.5,10.7l14.2-10.5l6.2,18.3h6.7c0,0,0,0,0,0.1h13.3l-4.7,15.4l0.1,0l0,0l16.7,10.8l-18.7,13L97.5,128.8z"
			/>
	</g>
	<g>
		<defs>
			<rect id="SVGID_19_" x="2.7" y="44.6" width="194.7" height="110.9"/>
		</defs>
		<clipPath id="SVGID_20_">
			<use xlink:href="#SVGID_19_"  style="overflow:visible;"/>
		</clipPath>
		<path class="st9" d="M139.4,78.3c-0.2-0.6-0.3-1.2-0.5-1.9c-0.2-0.6-0.4-1.3-0.6-2c-0.2,0.7-0.4,1.4-0.6,2
			c-0.2,0.6-0.3,1.2-0.5,1.9c-0.2,0.6-0.3,1.2-0.4,1.8c-0.1,0.6-0.3,1.3-0.4,1.9h3.8c-0.1-0.7-0.3-1.3-0.4-1.9
			C139.7,79.5,139.6,78.9,139.4,78.3"/>
	</g>
	<g>
		<defs>
			<rect id="SVGID_21_" x="2.7" y="44.6" width="194.7" height="110.9"/>
		</defs>
		<clipPath id="SVGID_22_">
			<use xlink:href="#SVGID_21_"  style="overflow:visible;"/>
		</clipPath>
		<path class="st10" d="M169.9,89.1c-0.5,0.4-1.1,0.7-1.8,0.7c-0.7,0-1.3-0.2-1.8-0.7c-0.5-0.4-0.8-1-0.8-1.8c0-0.8,0.3-1.4,0.8-1.8
			c0.5-0.4,1.1-0.7,1.8-0.7c0.7,0,1.3,0.2,1.8,0.7c0.5,0.4,0.8,1,0.8,1.8C170.7,88,170.5,88.6,169.9,89.1 M165.9,70.9h4.5v4.9
			c0,0.7,0,1.4,0,1.9c0,0.6-0.1,1.1-0.1,1.6c-0.1,0.5-0.1,1.1-0.2,1.6c-0.1,0.5-0.2,1.1-0.2,1.7h-3.2c-0.1-0.6-0.2-1.2-0.3-1.8
			c-0.1-0.5-0.1-1.1-0.2-1.6c-0.1-0.5-0.1-1.1-0.1-1.6c0-0.6,0-1.2,0-1.9L165.9,70.9L165.9,70.9z M160.3,73.8
			c-0.4,1-0.8,1.9-1.3,2.8c-0.4,0.9-0.9,1.9-1.4,2.8c-0.5,0.9-1,1.9-1.6,2.9v7.1h-3.9v-7c-1.1-1.9-2.2-3.8-3-5.7
			c-0.9-1.8-1.7-3.8-2.5-5.8h4.1c0.5,1.4,1,2.9,1.6,4.4c0.6,1.5,1.2,2.8,1.8,4.1c0.2-0.5,0.5-1,0.8-1.7c0.3-0.7,0.6-1.4,0.9-2.2
			c0.3-0.8,0.6-1.6,0.9-2.4c0.3-0.8,0.5-1.5,0.8-2.2h4C161.1,71.9,160.7,72.9,160.3,73.8 M141.8,89.4l-0.9-4.3h-5.2l-0.9,4.3h-4
			c0.9-3.7,1.8-7,2.8-10c0.9-3,1.8-5.9,2.7-8.5h4.2c0.9,2.7,1.8,5.6,2.7,8.6c0.9,3,1.8,6.3,2.6,9.9L141.8,89.4L141.8,89.4z
			 M126.9,89.4h-3.1c-0.9-2.1-1.8-4.1-2.9-6.2c-1-2-2.1-4.1-3.3-6.2v12.3h-3.5V70.9h3.1c0.6,0.9,1.2,1.8,1.8,2.9
			c0.6,1,1.2,2.1,1.7,3.1c0.6,1,1.1,2,1.5,3c0.5,1,0.9,1.8,1.2,2.5V70.9h3.5V89.4z M97.5,128.6L82.2,129l-6.5,21.2l-18.4-12.8
			l-12.4,8.6l-5.9-15.8L16.2,131l6.1-17.8l-14.1-9.8l16.1-11.9l-6.6-17.5h18L42,55.4l16.5,10.7l14.2-10.5l6.2,18.3h6.7
			c0,0,0,0,0,0.1h13.3l-4.7,15.4l0.1,0l0,0l16.7,10.8l-18.7,13L97.5,128.6z M140.7,44.6c-25.2,0-46.4,11-53.8,26.2h-5.6l-6.9-20.4
			l-16,11.9L40.2,50.4l-6.9,20.3H13l7.4,19.6L2.7,103.4l15.8,10.9l-6.8,19.9l25-0.7l6.6,17.6l14-9.8l20.3,14.1l7.1-23.3l17.4-0.5
			l-5.8-17.2l6.1-4.3c10.1,6.3,23.5,10.1,38.4,10.1c7.6,0,14.9-1,21.5-2.8c2.5,2.8,4.4,6.8,2.7,11.9c6.7-5.1,8.1-12.5,8.4-16
			c14.5-6.9,24-18.1,24-30.9C197.3,61.5,172,44.6,140.7,44.6"/>
	</g>
	<g>
		<defs>
			<rect id="SVGID_23_" x="2.7" y="44.6" width="194.7" height="110.9"/>
		</defs>
		<clipPath id="SVGID_24_">
			<use xlink:href="#SVGID_23_"  style="overflow:visible;"/>
		</clipPath>
		<path class="st11" d="M41.3,94.6c-0.3,0.8-0.6,1.6-0.9,2.4s-0.6,1.5-0.9,2.2c-0.3,0.7-0.6,1.3-0.8,1.7c-0.6-1.2-1.2-2.6-1.8-4.1
			c-0.6-1.5-1.1-2.9-1.6-4.4h-4.1c0.8,2,1.6,4,2.5,5.8c0.9,1.8,1.9,3.7,3,5.7v7h3.9v-7.1c0.6-1,1.1-1.9,1.6-2.9
			c0.5-0.9,1-1.9,1.4-2.8c0.4-0.9,0.9-1.9,1.3-2.8c0.4-1,0.8-1.9,1.2-3h-4C41.9,93.1,41.6,93.8,41.3,94.6"/>
	</g>
	<g>
		<defs>
			<rect id="SVGID_25_" x="2.7" y="44.6" width="194.7" height="110.9"/>
		</defs>
		<clipPath id="SVGID_26_">
			<use xlink:href="#SVGID_25_"  style="overflow:visible;"/>
		</clipPath>
		<path class="st12" d="M52.3,103.7c0.1-0.7,0.3-1.3,0.4-1.9c0.1-0.6,0.3-1.2,0.4-1.8c0.2-0.6,0.3-1.2,0.5-1.9
			c0.2-0.6,0.4-1.3,0.6-2c0.2,0.7,0.4,1.4,0.6,2c0.2,0.6,0.3,1.2,0.5,1.9c0.2,0.6,0.3,1.2,0.4,1.8c0.1,0.6,0.2,1.3,0.4,1.9H52.3z
			 M56.4,92.5h-4.2c-0.9,2.7-1.8,5.5-2.7,8.5c-0.9,3-1.9,6.3-2.8,10h4l0.9-4.3h5.2l0.9,4.3h4.1c-0.9-3.6-1.7-6.9-2.6-9.9
			C58.3,98.1,57.3,95.2,56.4,92.5"/>
	</g>
	<g>
		<defs>
			<rect id="SVGID_27_" x="2.7" y="44.6" width="194.7" height="110.9"/>
		</defs>
		<clipPath id="SVGID_28_">
			<use xlink:href="#SVGID_27_"  style="overflow:visible;"/>
		</clipPath>
		<path class="st13" d="M72.6,94.6c-0.3,0.8-0.6,1.6-0.9,2.4c-0.3,0.8-0.6,1.5-0.9,2.2c-0.3,0.7-0.6,1.3-0.8,1.7
			c-0.6-1.2-1.2-2.6-1.8-4.1c-0.6-1.5-1.1-2.9-1.6-4.4h-4.1c0.8,2,1.6,4,2.5,5.8c0.9,1.8,1.9,3.7,3,5.7v7h3.9v-7.1
			c0.6-1,1.1-1.9,1.6-2.9c0.5-0.9,1-1.9,1.4-2.8c0.4-0.9,0.9-1.9,1.3-2.8c0.4-1,0.8-1.9,1.2-3h-4C73.2,93.1,72.9,93.8,72.6,94.6"/>
	</g>
	<g>
		<defs>
			<rect id="SVGID_29_" x="2.7" y="44.6" width="194.7" height="110.9"/>
		</defs>
		<clipPath id="SVGID_30_">
			<use xlink:href="#SVGID_29_"  style="overflow:visible;"/>
		</clipPath>
		<path class="st14" d="M83.6,100.9c0.1,0.5,0.1,1,0.2,1.6c0.1,0.5,0.2,1.1,0.3,1.8h3.2c0.1-0.6,0.2-1.2,0.2-1.7
			c0.1-0.5,0.1-1,0.2-1.6c0.1-0.5,0.1-1.1,0.1-1.6c0-0.6,0-1.2,0-1.9v-4.9h-4.4v4.9c0,0.7,0,1.4,0,1.9
			C83.4,99.9,83.5,100.4,83.6,100.9"/>
	</g>
	<g>
		<defs>
			<rect id="SVGID_31_" x="2.7" y="44.6" width="194.7" height="110.9"/>
		</defs>
		<clipPath id="SVGID_32_">
			<use xlink:href="#SVGID_31_"  style="overflow:visible;"/>
		</clipPath>
		<path class="st15" d="M85.6,106.4c-0.7,0-1.3,0.2-1.8,0.7c-0.5,0.4-0.8,1-0.8,1.8c0,0.8,0.3,1.4,0.8,1.8c0.5,0.4,1.1,0.7,1.8,0.7
			c0.7,0,1.3-0.2,1.8-0.7c0.5-0.4,0.8-1,0.8-1.8c0-0.8-0.3-1.4-0.8-1.8C86.9,106.6,86.3,106.4,85.6,106.4"/>
	</g>
</g>
</svg>
