<?xml version="1.0" encoding="utf-8"?>
<!-- Generator: Adobe Illustrator 22.1.0, SVG Export Plug-In . SVG Version: 6.00 Build 0)  -->
<svg version="1.1" id="Layer_1" xmlns="http://www.w3.org/2000/svg" xmlns:xlink="http://www.w3.org/1999/xlink" x="0px" y="0px"
	 viewBox="0 0 200 400" style="enable-background:new 0 0 200 400;" xml:space="preserve">
<style type="text/css">
	.st0{fill:#FAFBFB;}
	.st1{opacity:0.35;fill:#FAFBFB;enable-background:new    ;}
	.st2{opacity:0.62;fill:#FAFBFB;enable-background:new    ;}
	.st3{opacity:0.45;fill:#FAFBFB;enable-background:new    ;}
	.st4{opacity:0.9;fill:#FAFBFB;enable-background:new    ;}
	.st5{opacity:0.75;fill:#FAFBFB;enable-background:new    ;}
	.st6{fill:#666666;}
	.st7{opacity:0.35;fill:#666666;enable-background:new    ;}
	.st8{opacity:0.62;fill:#666666;enable-background:new    ;}
	.st9{opacity:0.45;fill:#666666;enable-background:new    ;}
	.st10{opacity:0.9;fill:#666666;enable-background:new    ;}
	.st11{opacity:0.75;fill:#666666;enable-background:new    ;}
</style>
<g>
	<polygon class="st0" points="186.7,257.9 153.4,268.5 110.2,240.1 	"/>
	<polygon class="st1" points="153.4,268.5 179.7,326.8 156.6,356.8 	"/>
	<polygon class="st2" points="153.4,268.5 156.6,356.8 123.8,344.8 	"/>
	<polygon class="st1" points="111.3,311.8 96,355.2 52.8,329.8 	"/>
	<polygon class="st0" points="107.4,272.1 52.8,329.8 61.2,248.6 	"/>
	<polygon class="st3" points="96,355.2 32.6,353.4 52.8,329.8 	"/>
	<polygon class="st4" points="61.2,248.6 52.8,329.8 21.8,273.1 	"/>
	<polygon class="st5" points="21.8,273.1 52.8,329.8 13.3,309.4 	"/>
	<polygon class="st2" points="52.8,329.8 32.6,353.4 13.3,309.4 	"/>
</g>
<g>
	<polygon class="st6" points="186.7,57.9 153.4,68.5 110.2,40.1 	"/>
	<polygon class="st7" points="153.4,68.5 179.7,126.8 156.6,156.8 	"/>
	<polygon class="st8" points="153.4,68.5 156.6,156.8 123.8,144.8 	"/>
	<polygon class="st7" points="111.3,111.8 96,155.2 52.8,129.8 	"/>
	<polygon class="st6" points="107.4,72.1 52.8,129.8 61.2,48.6 	"/>
	<polygon class="st9" points="96,155.2 32.6,153.4 52.8,129.8 	"/>
	<polygon class="st10" points="61.2,48.6 52.8,129.8 21.8,73.1 	"/>
	<polygon class="st11" points="21.8,73.1 52.8,129.8 13.3,109.4 	"/>
	<polygon class="st8" points="52.8,129.8 32.6,153.4 13.3,109.4 	"/>
</g>
</svg>
