<?xml version="1.0" encoding="utf-8"?>
<!-- Generator: Adobe Illustrator 22.1.0, SVG Export Plug-In . SVG Version: 6.00 Build 0)  -->
<svg version="1.1" id="Layer_1" xmlns="http://www.w3.org/2000/svg" xmlns:xlink="http://www.w3.org/1999/xlink" x="0px" y="0px"
	 viewBox="0 0 200.1 40" style="enable-background:new 0 0 200.1 40;" xml:space="preserve">
<style type="text/css">
	.st0{fill:#666666;}
</style>
<path class="st0" d="M60,4.9c4.3,0,8.6,0,12.8,0c1.2,0,2,0.7,2.2,1.8c0,0.1,0,0.2,0,0.3c0,8.6,0,17.2,0,25.8c0,1.1-0.9,2.1-2.1,2.1
	c-0.1,0-0.2,0-0.2,0c-8.5,0-17.1,0-25.6,0c-1.2,0-2-0.8-2.2-1.6c-0.1-0.2-0.1-0.5-0.1-0.7c0-8.5,0-17.1,0-25.6c0-1.2,1-2.3,2.3-2.3
	c4.2,0,8.4,0,12.6,0C59.9,4.9,59.9,4.9,60,4.9z M61,18.1c0-0.5,0-1,0-1.5c0-0.3-0.1-0.3-0.3-0.3c-1.2,0-2.5,0-3.7,0
	c-0.3,0-0.4,0.1-0.4,0.4c0,4.6,0,9.2,0,13.8c0,0.3,0.1,0.4,0.4,0.4c1.3,0,2.6,0,3.8,0c0.3,0,0.4-0.1,0.4-0.4c0-2.3,0-4.6,0-6.9
	c0-0.5,0-1,0.1-1.5c0.2-1,0.6-1.8,1.7-2c0.3-0.1,0.7-0.1,1-0.1c1.1,0,1.7,0.5,2,1.5c0.1,0.6,0.2,1.2,0.2,1.8c0,2.4,0,4.7,0,7.1
	c0,0.4,0,0.4,0.4,0.4c1.3,0,2.5,0,3.8,0c0.4,0,0.4,0,0.4-0.4c0-2.7,0-5.5,0-8.2c0-0.9-0.1-1.9-0.3-2.8c-0.4-1.6-1.3-2.7-2.9-3.2
	C67,16,66.4,16,65.9,15.9c-1.3-0.1-2.6,0.2-3.6,1.1C61.7,17.3,61.4,17.7,61,18.1z M53.9,23.4c0-2.3,0-4.6,0-6.9
	c0-0.3-0.1-0.3-0.3-0.3c-1.3,0-2.6,0-3.9,0c-0.3,0-0.3,0.1-0.3,0.3c0,4.6,0,9.2,0,13.8c0,0.3,0.1,0.3,0.3,0.3c1.3,0,2.6,0,3.8,0
	c0.4,0,0.4,0,0.4-0.4C53.9,28,53.9,25.7,53.9,23.4z M51.6,14.3c1.5,0,2.6-1.1,2.6-2.6S53,9,51.6,9c-1.5,0-2.6,1.2-2.6,2.6
	C49,13.1,50.2,14.3,51.6,14.3z"/>
<path class="st0" d="M100,3.7c-9.2,0-16.7,7.5-16.7,16.7c0,7.4,4.8,13.6,11.4,15.8c0.8,0.2,1.1-0.4,1.1-0.8c0-0.4,0-1.4,0-2.8
	c-4.6,1-5.6-2.2-5.6-2.2c-0.8-1.9-1.9-2.4-1.9-2.4c-1.5-1,0.1-1,0.1-1c1.7,0.1,2.6,1.7,2.6,1.7c1.5,2.5,3.9,1.8,4.9,1.4
	c0.2-1.1,0.6-1.8,1.1-2.2c-3.7-0.4-7.6-1.9-7.6-8.2c0-1.8,0.7-3.3,1.7-4.5c-0.2-0.4-0.7-2.1,0.2-4.4c0,0,1.4-0.4,4.6,1.7
	c1.3-0.4,2.8-0.6,4.2-0.6c1.4,0,2.8,0.2,4.2,0.6c3.2-2.2,4.6-1.7,4.6-1.7c0.9,2.3,0.3,4,0.2,4.4c1.1,1.2,1.7,2.7,1.7,4.5
	c0,6.4-3.9,7.8-7.6,8.2c0.6,0.5,1.1,1.5,1.1,3.1c0,2.2,0,4,0,4.6c0,0.4,0.3,1,1.1,0.8c6.6-2.2,11.4-8.5,11.4-15.8
	C116.7,11.2,109.2,3.7,100,3.7z"/>
<g>
	<polygon class="st0" points="131.9,18.5 131.9,21.4 134,20 	"/>
	<polygon class="st0" points="139.2,16.5 139.2,12.5 132.5,17 135.5,18.9 	"/>
	<polygon class="st0" points="147.5,17 140.9,12.5 140.9,16.5 144.6,18.9 	"/>
	<polygon class="st0" points="132.5,23 139.2,27.4 139.2,23.4 135.5,21 	"/>
	<polygon class="st0" points="140.9,23.4 140.9,27.4 147.5,23 144.6,21 	"/>
	<polygon class="st0" points="140,18 137,20 140,22 143,20 	"/>
	<path class="st0" d="M140,4c-8.8,0-16,7.1-16,16c0,8.8,7.1,16,16,16c8.8,0,16-7.1,16-16S148.9,4,140,4z M149.9,23v0.1l0,0
		c0,0,0,0,0,0.1l0,0c0,0,0,0,0,0.1l0,0c0,0,0,0,0,0.1l0,0c0,0,0,0,0,0.1l0,0l0,0l0,0l0,0l0,0l0,0l-9,6c-0.1,0.1-0.3,0.1-0.5,0.1
		s-0.3,0-0.5-0.1l-9-6l0,0l0,0l0,0l0,0l0,0l0,0c0,0,0,0,0-0.1l0,0c0,0,0,0,0-0.1l0,0c0,0,0,0,0-0.1l0,0c0,0,0,0,0-0.1l0,0V23v-6
		v-0.1l0,0c0,0,0,0,0-0.1l0,0c0,0,0,0,0-0.1l0,0c0,0,0,0,0-0.1l0,0c0,0,0,0,0-0.1l0,0l0,0l0,0l0,0l0,0l0,0l9-6
		c0.3-0.2,0.7-0.2,0.9,0l9,6l0,0l0,0l0,0l0,0l0,0l0,0c0,0,0,0,0,0.1l0,0c0,0,0,0,0,0.1l0,0c0,0,0,0,0,0.1l0,0c0,0,0,0,0,0.1l0,0V17
		v6H149.9z"/>
	<polygon class="st0" points="148.2,21.4 148.2,18.5 146.1,20 	"/>
</g>
<path class="st0" d="M39,5.4c-0.1-0.1-0.3-0.1-0.5-0.2l-0.2-0.1l-0.4,0.2c0,0,0,0-0.1,0l-37,14l-0.2,0.3c-0.2,0.3-0.3,0.7-0.2,1.1
	s0.3,0.7,0.7,0.9l0.1,0.1l14,2.8l-0.5,10l0.3,0.3c0.3,0.3,0.7,0.5,1.1,0.5s0.7-0.1,1-0.4L21,31l4.4,5.4c0.3,0.3,0.7,0.5,1.1,0.5
	c0.3,0,0.7-0.1,1-0.4l0.2-0.2l0.1-0.2c2.7-6.8,11.7-29,11.8-29.3l0,0C39.7,6.3,39.5,5.7,39,5.4z M33.1,9.2L27.3,14l-11.4,8.6L4,20.2
	L33.1,9.2z M16.8,32.4l0.3-6.1l2.6,3.2L16.8,32.4z M26.3,34.3L18,24.2l10.5-8.7l7.7-5.8C33.9,15.4,29.3,26.9,26.3,34.3z"/>
<path class="st0" d="M191.5,36.4h-22.9c-1.8,0-3.3-1.5-3.3-3.3V7c0-1.8,1.5-3.4,3.3-3.4h22.9c1.8,0,3.4,1.5,3.4,3.4v26
	C194.9,34.9,193.4,36.4,191.5,36.4z M168.6,5.6c-0.8,0-1.4,0.6-1.4,1.4v26c0,0.8,0.6,1.4,1.4,1.4h22.9c0.8,0,1.4-0.6,1.4-1.4V7
	c0-0.8-0.6-1.4-1.4-1.4H168.6z M176,14.3h-5.7c-0.5,0-0.9-0.4-0.9-0.9s0.4-0.9,0.9-0.9h5.7c0.5,0,0.9,0.4,0.9,0.9
	C177,13.9,176.6,14.3,176,14.3z M177,9.7c0,0.7-0.6,1.2-1.2,1.2h-5.1c-0.7,0-1.2-0.6-1.2-1.2V9.2c0-0.7,0.6-1.2,1.2-1.2h5.1
	c0.7,0,1.2,0.6,1.2,1.2V9.7z M189.8,32h-9.9c-0.5,0-0.9-0.4-0.9-0.9s0.4-0.9,0.9-0.9h9.9c0.5,0,0.9,0.4,0.9,0.9S190.3,32,189.8,32z
	 M189.8,27.6h-9.9c-0.5,0-0.9-0.4-0.9-0.9s0.4-0.9,0.9-0.9h9.9c0.5,0,0.9,0.4,0.9,0.9S190.3,27.6,189.8,27.6z M189.8,23.2h-9.9
	c-0.5,0-0.9-0.4-0.9-0.9s0.4-0.9,0.9-0.9h9.9c0.5,0,0.9,0.4,0.9,0.9C190.7,22.7,190.3,23.2,189.8,23.2z M189.8,18.7h-9.9
	c-0.5,0-0.9-0.4-0.9-0.9s0.4-0.9,0.9-0.9h9.9c0.5,0,0.9,0.4,0.9,0.9C190.7,18.3,190.3,18.7,189.8,18.7z M189.8,14.3h-9.9
	c-0.5,0-0.9-0.4-0.9-0.9s0.4-0.9,0.9-0.9h9.9c0.5,0,0.9,0.4,0.9,0.9C190.7,13.9,190.3,14.3,189.8,14.3z M189.8,9.9h-9.9
	c-0.5,0-0.9-0.4-0.9-0.9s0.4-0.9,0.9-0.9h9.9c0.5,0,0.9,0.4,0.9,0.9S190.3,9.9,189.8,9.9z"/>
</svg>
