<?xml version="1.0" encoding="utf-8"?>
<!-- Generator: Adobe Illustrator 22.1.0, SVG Export Plug-In . SVG Version: 6.00 Build 0)  -->
<svg version="1.1" id="Layer_1" xmlns="http://www.w3.org/2000/svg" xmlns:xlink="http://www.w3.org/1999/xlink" x="0px" y="0px"
	 viewBox="0 0 200 399.1" style="enable-background:new 0 0 200 399.1;" xml:space="preserve">
<style type="text/css">
	.st0{opacity:0.45;clip-path:url(#SVGID_2_);fill:#FAFBFB;enable-background:new    ;}
	.st1{clip-path:url(#SVGID_4_);fill:#FAFBFB;}
	.st2{opacity:0.8;clip-path:url(#SVGID_6_);fill:#FAFBFB;enable-background:new    ;}
	.st3{fill:none;}
	.st4{opacity:0.8;fill:#666666;}
	.st5{fill:#666666;}
	.st6{opacity:8.000000e-02;fill:#666666;enable-background:new    ;}
</style>
<g>
	<g>
		<defs>
			<rect id="SVGID_1_" x="0.5" y="199.1" width="199.1" height="199.1"/>
		</defs>
		<clipPath id="SVGID_2_">
			<use xlink:href="#SVGID_1_"  style="overflow:visible;"/>
		</clipPath>
		<path class="st0" d="M174.7,227.1c-16.3-14.1-38.9-14.7-50.5-1.3c-11.5,13.4-7.7,35.6,8.7,49.7c0.1,0.1,0.2,0.2,0.4,0.3
			c-8.5-4.4-18.2-6.9-28.6-6.9c-12.2,0-23.5,3.5-33,9.4c12.4-14,14.4-33.2,4.1-45.2c-11.5-13.4-34.1-12.8-50.5,1.3
			C8.9,248.6,5,270.8,16.6,284.2c10,11.5,28.2,12.7,43.5,3.7c-9.1,9.8-14.7,22.5-14.7,36.5c0,5.5,0.9,10.7,2.4,15.6
			c0.9,6.4,4.5,18.1,19,29.2c5,10.2,14.2,16.2,27.2,17.7c1.1,0.1,2.3,0.2,3.4,0.2c11.2,0,18.9-6.6,22.7-10.9
			c8.9-0.6,27.5-10.9,34.4-22.7c5.9-8.2,9.3-18.2,9.3-29.1c0-16.8-8-31.9-20.7-42.1c14.5,7,30.9,5.3,40.2-5.4
			C194.9,263.5,191,241.2,174.7,227.1z M137.6,336.9c0,0,10-8.3,16.2,0c11.5,16.8-22.6,37.7-34.2,37.9c-2.5,2.8-11.4,12.3-25.4,10.7
			c-9.9-1.2-20.6-5.5-26.3-17.3c-21.2-16.1-21.8-36.5-15.4-42.2c6.1-5.5,14.7,5.2,14.7,5.2s-16.3-36.8,10.9-52.4
			c20.6-11.8,28.7,10.2,28.7,10.2s8.5-17.7,22.5-12.1C163.9,290.7,137.6,336.9,137.6,336.9z"/>
	</g>
	<g>
		<defs>
			<rect id="SVGID_3_" x="0.5" y="199.1" width="199.1" height="199.1"/>
		</defs>
		<clipPath id="SVGID_4_">
			<use xlink:href="#SVGID_3_"  style="overflow:visible;"/>
		</clipPath>
		<path class="st1" d="M129.3,277c-14.1-5.6-22.5,12.1-22.5,12.1s-8.1-22-28.7-10.2c-27.2,15.6-10.9,52.4-10.9,52.4
			s-8.6-10.7-14.7-5.2c-6.4,5.7-5.8,26.1,15.4,42.2c5.7,11.8,16.4,16.1,26.3,17.3c14,1.7,22.9-7.8,25.4-10.7
			c11.6-0.2,45.7-21.1,34.2-37.9c-6.2-8.3-16.2,0-16.2,0S163.9,290.7,129.3,277z M115.2,313.8c0.5-10.9,4.2-19.5,8.4-19.3
			c4.2,0.2,7.3,9.1,6.8,20c-0.5,10.9-4.2,19.5-8.4,19.3c-3-0.1-5.3-4.6-6.3-10.9l10.4-4l-10.8-4.3
			C115.2,314.3,115.2,314,115.2,313.8z M86.6,325.2l9.6-5.6l-11.4-2.5c0-0.2-0.1-0.5-0.1-0.7c-1.3-10.8,1-19.9,5.2-20.4
			c4.2-0.5,8.6,7.8,9.9,18.6c1.2,9.8-0.6,18.2-4.1,20.1c9.9-2.7,24.5-4.1,37.8,4.8l-1.5,2.2c-21.6-14.3-46.9-0.1-47.1,0l-1.3-2.3
			c0.1-0.1,4.3-2.4,10.7-4.3C91.5,335.1,88.6,331.2,86.6,325.2z M124.3,344.5c0.1,4.2-5.7,7.8-13,8c-7.3,0.3-13.4-2.9-13.5-7.1
			c-0.1-4.2,5.7-7.8,13-8C118.1,337.2,124.1,340.3,124.3,344.5z M138.6,345.8l-0.6-1.7c0.2-0.1,3.7-1.4,7.8,0.5l0.2,0
			c0,0,0,0.1,0,0.1c0.9,0.5,1.9,1.1,2.8,1.9l-1.2,1.3c-0.7-0.6-1.4-1-2-1.4c-2.2,7.9-13.7,16.9-27.4,21.7
			c-5.6,6.1-16.3,15.3-28.1,11.5C77,375.6,74.8,367.3,73.3,360c-8.1-8.6-12.6-19.1-13.5-21.5c-1.8,0.7-2.7,2.4-2.7,2.4l-1.6-0.8
			c0.1-0.1,1.5-2.9,4.6-3.5c2.5-0.5,5.4,0.6,8.4,3.3l-1.2,1.3c-1.2-1.1-2.4-1.9-3.5-2.4c1.6,3.5,5.3,11,11.1,17.5
			c4.3,3.5,13.3,9.3,25.3,10.1c7.1,0.3,12.2-0.3,15.7-1c13.6-4.4,24.7-13.2,26.3-19.9C140.2,345.3,138.7,345.8,138.6,345.8z"/>
	</g>
	<g>
		<defs>
			<rect id="SVGID_5_" x="0.5" y="199.1" width="199.1" height="199.1"/>
		</defs>
		<clipPath id="SVGID_6_">
			<use xlink:href="#SVGID_5_"  style="overflow:visible;"/>
		</clipPath>
		<path class="st2" d="M93.3,372.2c0,0-4.9-6.2-8.9-5.8c-4.1,0.4-6.9,0.6-1.9,5.8c5,5.2,16.1,6.6,20.3,4.5
			C107,374.6,100.8,369.7,93.3,372.2z"/>
	</g>
</g>
<rect x="0.5" y="-0.9" class="st3" width="199.1" height="199.1"/>
<path class="st4" d="M174.7,27.1c-16.3-14.1-38.9-14.7-50.5-1.3c-11.5,13.4-7.7,35.6,8.7,49.7c0.1,0.1,0.2,0.2,0.4,0.3
	c-8.5-4.4-18.2-6.9-28.6-6.9c-12.2,0-23.5,3.5-33,9.4c12.4-14,14.4-33.2,4.1-45.2c-11.5-13.4-34.1-12.8-50.5,1.3
	C8.9,48.6,5,70.8,16.6,84.2c10,11.5,28.2,12.7,43.5,3.7c-9.1,9.8-14.7,22.5-14.7,36.5c0,5.5,0.9,10.7,2.4,15.6
	c0.9,6.4,4.5,18.1,19,29.2c5,10.2,14.2,16.2,27.2,17.7c1.1,0.1,2.3,0.2,3.4,0.2c11.2,0,18.9-6.6,22.7-10.9
	c8.9-0.6,27.5-10.9,34.4-22.7c5.9-8.2,9.3-18.2,9.3-29.1c0-16.8-8-31.9-20.7-42.1c14.5,7,30.9,5.3,40.2-5.4
	C194.9,63.5,191,41.2,174.7,27.1z M137.6,136.9c0,0,10-8.3,16.2,0c11.5,16.8-22.6,37.7-34.2,37.9c-2.5,2.8-11.4,12.3-25.4,10.7
	c-9.9-1.2-20.6-5.5-26.3-17.3c-21.2-16.1-21.8-36.5-15.4-42.2c6.1-5.5,14.7,5.2,14.7,5.2S50.9,94.4,78.1,78.9
	c20.6-11.8,28.7,10.2,28.7,10.2s8.5-17.7,22.5-12.1C163.9,90.7,137.6,136.9,137.6,136.9z"/>
<rect x="0.5" y="-0.9" class="st3" width="199.1" height="7.7"/>
<path class="st5" d="M85,141.6c0.3-0.1,25.5-14.4,47.1,0l1.5-2.2c-13.3-8.8-27.9-7.5-37.8-4.8c3.5-1.9,5.3-10.3,4.1-20.1
	c-1.3-10.8-5.8-19.1-9.9-18.6c-4.2,0.5-6.5,9.7-5.2,20.4c0,0.2,0.1,0.5,0.1,0.7l11.4,2.5l-9.6,5.6c2,5.9,4.9,9.9,7.7,9.8
	c-6.4,1.9-10.6,4.3-10.7,4.3L85,141.6z"/>
<path class="st5" d="M115.7,122.8c1,6.4,3.4,10.8,6.3,10.9c4.2,0.2,8-8.5,8.4-19.3c0.5-10.9-2.6-19.8-6.8-20
	c-4.2-0.2-8,8.5-8.4,19.3c0,0.3,0,0.5,0,0.7l10.8,4.3L115.7,122.8z"/>
<path class="st5" d="M110.8,137.4c-7.3,0.3-13.1,3.9-13,8c0.1,4.2,6.2,7.4,13.5,7.1s13.1-3.9,13-8
	C124.1,140.3,118.1,137.2,110.8,137.4z"/>
<path class="st6" d="M153.8,136.9c-6.2-8.3-16.2,0-16.2,0s26.3-46.2-8.3-60c-14.1-5.6-22.5,12.1-22.5,12.1s-8.1-22-28.7-10.2
	c-27.2,15.6-10.9,52.4-10.9,52.4s-8.6-10.7-14.7-5.2c-6.4,5.7-5.8,26.1,15.4,42.2c5.7,11.8,16.4,16.1,26.3,17.3
	c14,1.7,22.9-7.8,25.4-10.7C131.2,174.6,165.3,153.8,153.8,136.9z M115.2,113.8c0.5-10.9,4.2-19.5,8.4-19.3c4.2,0.2,7.3,9.1,6.8,20
	c-0.5,10.9-4.2,19.5-8.4,19.3c-3-0.1-5.3-4.6-6.3-10.9l10.4-4l-10.8-4.3C115.2,114.3,115.2,114,115.2,113.8z M86.6,125.2l9.6-5.6
	l-11.4-2.5c0-0.2-0.1-0.5-0.1-0.7c-1.3-10.8,1-19.9,5.2-20.4c4.2-0.5,8.6,7.8,9.9,18.6c1.2,9.8-0.6,18.2-4.1,20.1
	c9.9-2.7,24.5-4.1,37.8,4.8l-1.5,2.2c-21.6-14.3-46.9-0.1-47.1,0l-1.3-2.3c0.1-0.1,4.3-2.4,10.7-4.3
	C91.5,135.1,88.6,131.2,86.6,125.2z M124.3,144.5c0.1,4.2-5.7,7.8-13,8s-13.4-2.9-13.5-7.1c-0.1-4.2,5.7-7.8,13-8
	C118.1,137.2,124.1,140.3,124.3,144.5z M147.6,148c-0.7-0.6-1.4-1-2-1.4c-2.2,7.9-13.7,16.9-27.4,21.7c-5.6,6.1-16.3,15.3-28.1,11.5
	C77,175.6,74.8,167.3,73.3,160c-8.1-8.6-12.6-19.1-13.5-21.5c-1.8,0.7-2.7,2.4-2.7,2.4l-1.6-0.8c0.1-0.1,1.5-2.9,4.6-3.5
	c2.5-0.5,5.4,0.6,8.4,3.3l-1.2,1.3c-1.2-1.1-2.4-1.9-3.5-2.4c1.6,3.5,5.3,11,11.1,17.5c4.3,3.5,13.3,9.3,25.3,10.1
	c7.1,0.3,12.2-0.3,15.7-1c13.6-4.4,24.7-13.2,26.3-19.9c-2.1-0.3-3.5,0.3-3.6,0.3l-0.6-1.7c0.2-0.1,3.7-1.4,7.8,0.5l0.2,0
	c0,0,0,0.1,0,0.1c0.9,0.5,1.9,1.1,2.8,1.9L147.6,148z"/>
<path class="st5" d="M146,144.8C146,144.8,146,144.7,146,144.8l-0.2-0.1c-4.1-1.9-7.6-0.6-7.8-0.5l0.6,1.7c0.1,0,1.6-0.6,3.6-0.3
	c-1.6,6.7-12.7,15.5-26.3,19.9c-3.5,0.7-8.6,1.2-15.7,1c-12-0.8-20.9-6.6-25.3-10.1c-5.8-6.5-9.5-14-11.1-17.5
	c1.1,0.5,2.3,1.3,3.5,2.4l1.2-1.3c-3-2.7-5.8-3.8-8.4-3.3c-3.1,0.6-4.6,3.4-4.6,3.5l1.6,0.8c0,0,0.9-1.7,2.7-2.4
	c1,2.4,5.5,12.9,13.5,21.5c1.4,7.4,3.7,15.6,16.8,19.9c11.8,3.8,22.5-5.4,28.1-11.5c13.7-4.8,25.1-13.8,27.4-21.7
	c0.7,0.4,1.3,0.8,2,1.4l1.2-1.3C147.9,145.8,146.9,145.2,146,144.8z M102.7,176.7c-4.3,2.1-15.4,0.7-20.3-4.5
	c-5-5.2-2.2-5.4,1.9-5.8c4.1-0.4,8.9,5.8,8.9,5.8C100.8,169.7,107,174.6,102.7,176.7z"/>
</svg>
