<?xml version="1.0" encoding="utf-8"?>
<!-- Generator: Adobe Illustrator 22.1.0, SVG Export Plug-In . SVG Version: 6.00 Build 0)  -->
<svg version="1.1" id="Layer_1" xmlns="http://www.w3.org/2000/svg" xmlns:xlink="http://www.w3.org/1999/xlink" x="0px" y="0px"
	 viewBox="0 0 200 400" style="enable-background:new 0 0 200 400;" xml:space="preserve">
<style type="text/css">
	.st0{opacity:0.25;fill:#666666;enable-background:new    ;}
	.st1{opacity:0.35;fill:#666666;enable-background:new    ;}
	.st2{fill:#666666;}
	.st3{opacity:0.62;fill:#FAFBFB;enable-background:new    ;}
	.st4{fill:#FAFBFB;}
	.st5{opacity:0.2;fill:#FAFBFB;enable-background:new    ;}
	.st6{opacity:0.4;fill:#666666;enable-background:new    ;}
</style>
<path class="st0" d="M163.3,71c0-6.6-5.4-11.4-12-11.4h-8.4h-10.8H69.7H58.9h-9c-6.6,0-12,5.4-12,11.4l-3,97.2c0,3,1.2,6,3,7.8
	c2.4,2.4,5.4,3.6,8.4,3.6c0,0,109.2,0,109.2,0.6c3,0,6-1.2,8.4-3.6c1.8-2.4,3-5.4,3-8.4L163.3,71z M110.7,152.6
	c-3.9,0-8.5-0.7-12.3-1.3c-0.3,0.9-0.4,1.6-1,3.6c-1,0.2-1.9,0.3-3,0.3l-1.9-0.2c-1.3-1.5-1.7-4-2.2-6.6c-7.7-4.5-12.7-8.3-15-10.9
	c-1.9-2-4.1-4.7-4.1-7.4c0-1.4,0.8-2.5,2.8-3.9c4-3,9-4.6,17.3-6l0.2-3.5c0.1-0.8,0.9-9.9,2.9-11.6c3.1,2.5,3.5,5.2,3.7,9
	c0.1,1.7,0.2,3.5,0.4,5.3h1.2c5.9,0,24,1.5,24,10.1c0,2-3,5.8-5.8,5.8c-1,0-2.9-0.4-3.7-1.1c1.3-1.4,3.1-2.7,3.6-3.8
	c-1.7-2-10.8-4.4-17.5-4.4c-1.1,0-1.5,0-2.2,0.1l0.1,18.5c2.7,1.7,6,1.9,8.1,1.9c9.3,0,28.6-1.6,28.6-16.7c0-14.9-19-26.4-33.2-31.8
	c-10-3.8-19.4-5.8-30.5-5.8c-2.3,0-4.6,0.2-6.9,0.8c-1.4,0.3-1.9,0.7-1.9,1c0,0.6,2.9,0.9,3.2,1.1c0.3,0.2,0.4,0.4,0.4,0.7
	c0,0.2-0.1,0.4-0.3,0.7c-0.3,0-1.1,0.1-2,0.1c-1.9,0-4.1-0.3-4.1-1.4c0-7.8,13.7-8.1,19.5-8.1c7.6,0,17.3,2.4,25.6,5.3
	c12.6,4.6,38.1,19.8,38.1,37.2C142.6,145.2,126.1,152.6,110.7,152.6z"/>
<path class="st1" d="M73.2,130.9c0,2.3,3.9,5.1,6.3,6.8c2.7,2.2,6.8,4.2,10.7,5.1l0.8-16.4C82.5,127.1,73.2,128,73.2,130.9z"/>
<g>
	<path class="st2" d="M63.4,96.8c0.9,0,1.7-0.1,2-0.1c0.3-0.3,0.3-0.5,0.3-0.7c0-0.3-0.2-0.5-0.4-0.7c-0.3-0.2-3.2-0.5-3.2-1.1
		c0-0.3,0.5-0.7,1.9-1c2.3-0.6,4.7-0.8,6.9-0.8c11.1,0,20.5,1.9,30.5,5.8c14.2,5.4,33.2,16.9,33.2,31.8c0,15.1-19.3,16.7-28.6,16.7
		c-2.1,0-5.4-0.2-8.1-1.9L98,126.3c0.7-0.1,1.1-0.1,2.2-0.1c6.7,0,15.8,2.4,17.5,4.4c-0.5,1.1-2.4,2.4-3.6,3.8
		c0.8,0.7,2.7,1.1,3.7,1.1c2.9,0,5.8-3.8,5.8-5.8c0-8.5-18.1-10.1-24-10.1h-1.2c-0.3-1.9-0.3-3.6-0.4-5.3c-0.3-3.9-0.6-6.5-3.7-9
		c-1.9,1.7-2.8,10.7-2.9,11.6l-0.2,3.5c-8.3,1.4-13.4,3-17.3,6c-1.9,1.4-2.8,2.5-2.8,3.9c0,2.6,2.2,5.3,4.1,7.4
		c2.3,2.6,7.3,6.4,15,10.9c0.5,2.6,0.9,5.1,2.2,6.6l1.9,0.2c1.1,0,1.9-0.2,3-0.3c0.6-1.9,0.8-2.6,1-3.6c3.8,0.6,8.5,1.3,12.3,1.3
		c15.4,0,32-7.4,32-22.7c0-17.4-25.5-32.6-38.1-37.2c-8.3-3-18-5.3-25.6-5.3c-5.8,0-19.5,0.3-19.5,8.1
		C59.4,96.5,61.6,96.8,63.4,96.8z M90.1,142.9c-3.9-0.8-7.9-2.9-10.7-5.1c-2.4-1.8-6.3-4.6-6.3-6.8c0-3,9.3-3.8,17.7-4.5L90.1,142.9
		z"/>
</g>
<path class="st3" d="M100.9,228.4c17.4,0,31.2,13.8,31.2,31.2h10.8c0-23.4-18.6-42-42-42s-42,18.6-42,42h10.8
	C69.7,242.2,83.5,228.4,100.9,228.4z"/>
<path class="st4" d="M73.2,330.9c0,2.3,3.9,5.1,6.3,6.8c2.7,2.2,6.8,4.2,10.7,5.1l0.8-16.4C82.5,327.1,73.2,328,73.2,330.9z"/>
<path class="st4" d="M163.3,271c0-6.6-5.4-11.4-12-11.4h-8.4h-10.8H69.7H58.9h-9c-6.6,0-12,5.4-12,11.4l-3,97.2c0,3,1.2,6,3,7.8
	c2.4,2.4,5.4,3.6,8.4,3.6c0,0,109.2,0,109.2,0.6c3,0,6-1.2,8.4-3.6c1.8-2.4,3-5.4,3-8.4L163.3,271z M110.7,352.6
	c-3.9,0-8.5-0.7-12.3-1.3c-0.3,0.9-0.4,1.6-1,3.6c-1,0.2-1.9,0.3-3,0.3l-1.9-0.2c-1.3-1.5-1.7-4-2.2-6.6c-7.7-4.5-12.7-8.3-15-10.9
	c-1.9-2-4.1-4.7-4.1-7.4c0-1.4,0.8-2.5,2.8-3.9c4-3,9-4.6,17.3-6l0.2-3.5c0.1-0.8,0.9-9.9,2.9-11.6c3.1,2.5,3.5,5.2,3.7,9
	c0.1,1.7,0.2,3.5,0.4,5.3h1.2c5.9,0,24,1.5,24,10.1c0,2-3,5.8-5.8,5.8c-1,0-2.9-0.4-3.7-1.1c1.3-1.4,3.1-2.7,3.6-3.8
	c-1.7-2-10.8-4.4-17.5-4.4c-1.1,0-1.5,0-2.2,0.1l0.1,18.5c2.7,1.7,6,1.9,8.1,1.9c9.3,0,28.6-1.6,28.6-16.7c0-14.9-19-26.4-33.2-31.8
	c-10-3.8-19.4-5.8-30.5-5.8c-2.3,0-4.6,0.2-6.9,0.8c-1.4,0.3-1.9,0.7-1.9,1c0,0.6,2.9,0.9,3.2,1.1c0.3,0.2,0.4,0.4,0.4,0.7
	c0,0.2-0.1,0.4-0.3,0.7c-0.3,0-1.1,0.1-2,0.1c-1.9,0-4.1-0.3-4.1-1.4c0-7.8,13.7-8.1,19.5-8.1c7.6,0,17.3,2.4,25.6,5.3
	c12.6,4.6,38.1,19.8,38.1,37.2C142.6,345.2,126.1,352.6,110.7,352.6z"/>
<path class="st5" d="M104.5,292.6c-8.3-3-18-5.3-25.6-5.3c-5.8,0-19.5,0.3-19.5,8.1c0,1.1,2.2,1.4,4.1,1.4c0.9,0,1.7-0.1,2-0.1
	c0.3-0.3,0.3-0.5,0.3-0.7c0-0.3-0.2-0.5-0.4-0.7c-0.3-0.2-3.2-0.5-3.2-1.1c0-0.3,0.5-0.7,1.9-1c2.3-0.6,4.7-0.8,6.9-0.8
	c11.1,0,20.5,1.9,30.5,5.8c14.2,5.4,33.2,16.9,33.2,31.8c0,15.1-19.3,16.7-28.6,16.7c-2.1,0-5.4-0.2-8.1-1.9L98,326.3
	c0.7-0.1,1.1-0.1,2.2-0.1c6.7,0,15.8,2.4,17.5,4.4c-0.5,1.1-2.4,2.4-3.6,3.8c0.8,0.7,2.7,1.1,3.7,1.1c2.9,0,5.8-3.8,5.8-5.8
	c0-8.5-18.1-10.1-24-10.1h-1.2c-0.3-1.9-0.3-3.6-0.4-5.3c-0.3-3.9-0.6-6.5-3.7-9c-1.9,1.7-2.8,10.7-2.9,11.6l-0.2,3.5
	c-8.3,1.4-13.4,3-17.3,6c-1.9,1.4-2.8,2.5-2.8,3.9c0,2.6,2.2,5.3,4.1,7.4c2.3,2.6,7.3,6.4,15,10.9c0.5,2.6,0.9,5.1,2.2,6.6l1.9,0.2
	c1.1,0,1.9-0.2,3-0.3c0.6-1.9,0.8-2.6,1-3.6c3.8,0.6,8.5,1.3,12.3,1.3c15.4,0,32-7.4,32-22.7C142.6,312.4,117.1,297.2,104.5,292.6z
	 M90.1,342.9c-3.9-0.8-7.9-2.9-10.7-5.1c-2.4-1.8-6.3-4.6-6.3-6.8c0-3,9.3-3.8,17.7-4.5L90.1,342.9z"/>
<path class="st6" d="M100.9,28.4c17.4,0,31.2,13.8,31.2,31.2h10.8c0-23.4-18.6-42-42-42s-42,18.6-42,42h10.8
	C69.7,42.2,83.5,28.4,100.9,28.4z"/>
</svg>
