<?xml version="1.0" encoding="utf-8"?>
<!-- Generator: Adobe Illustrator 22.1.0, SVG Export Plug-In . SVG Version: 6.00 Build 0)  -->
<svg version="1.1" id="Layer_1" xmlns="http://www.w3.org/2000/svg" xmlns:xlink="http://www.w3.org/1999/xlink" x="0px" y="0px"
	 viewBox="0 0 200 400" style="enable-background:new 0 0 200 400;" xml:space="preserve">
<style type="text/css">
	.st0{fill:none;}
	.st1{opacity:0.2;}
	.st2{fill:#FAFBFB;}
	.st3{opacity:0.62;}
	.st4{opacity:0.1;fill:#FAFBFB;enable-background:new    ;}
	.st5{fill:#FAFBFB;fill-opacity:0;}
	.st6{opacity:0.2;fill:#FAFBFB;enable-background:new    ;}
	.st7{fill:#3651A2;}
	.st8{fill:#2C94D1;}
	.st9{opacity:0.75;fill:#FAFBFB;enable-background:new    ;}
	.st10{opacity:0.4;fill:#FAFBFB;enable-background:new    ;}
	.st11{fill:#47C1C7;}
	.st12{opacity:0.8;fill:#FAFBFB;enable-background:new    ;}
	.st13{fill:#666666;}
	.st14{opacity:0.75;fill:#666666;enable-background:new    ;}
	.st15{fill:#666666;fill-opacity:0;}
	.st16{opacity:0.4;fill:#666666;enable-background:new    ;}
	.st17{opacity:0.2;fill:#666666;enable-background:new    ;}
</style>
<g>
	<path class="st0" d="M78.4,298.9l-8.6,1.5c0,0,17-26.9,40.4-34.5l-10.5-18.2c-0.1,0-0.2,0-0.3,0c-0.1,0-0.2,0-0.3,0l-37.5,64.9
		l5.8,1.6C69.5,311.1,73.4,305.4,78.4,298.9z"/>
	<path class="st0" d="M144,342.6c-2.5,1.9-6.6,3.6-12.8,4.7c-0.4,0.1-0.7,0.1-1.1,0.2c-23.7,3.5-55.3-16.1-55.3-16.1l8.8-2
		c-4-2.6-7.6-5-10.5-7.1l-26,18.9l-0.4-2.7l-9.7,16.9c0.2,0.3,0.4,0.6,0.6,0.9h124.3c0.1-0.2,0.2-0.4,0.3-0.6l-10.7-18.6
		C149.1,339.3,146.7,341.1,144,342.6z"/>
	<g class="st1">
		<path class="st2" d="M99.7,247.7l10.5,18.2c5-1.6,10.2-2.4,15.7-1.9l-13.6-23.6C109.7,244.7,105,247.6,99.7,247.7z"/>
		<path class="st2" d="M151.3,337.2l10.7,18.6c2.6-4.3,7.2-7.1,12.6-7.3l-14-24.2C158.4,329.1,155.2,333.5,151.3,337.2z"/>
		<path class="st2" d="M36.9,355.4l9.7-16.9l-2.9-18l-0.8-4.8l-18.9,32.7c0,0,0.1,0,0.1,0C29.5,348.5,34.2,351.2,36.9,355.4z"/>
		<path class="st2" d="M99,247.7c-5.3-0.1-10-3-12.6-7.3l-39.3,68.1l14.4,4.1L99,247.7z"/>
		<path class="st2" d="M161.7,356.3H37.4c1.2,2.2,1.9,4.6,1.9,7.3c0,2.6-0.7,5.1-1.9,7.3h124.3c-1.2-2.2-1.9-4.6-1.9-7.3
			C159.9,361,160.5,358.5,161.7,356.3z"/>
	</g>
	<path class="st2" d="M99.7,247.7l-0.3-0.6l-0.3,0.6c0.1,0,0.2,0,0.3,0C99.5,247.8,99.6,247.7,99.7,247.7z"/>
	<path class="st2" d="M162.4,356.3l-0.3-0.6c-0.1,0.2-0.2,0.4-0.3,0.6H162.4z"/>
	<path class="st2" d="M36.4,356.3h1.1c-0.2-0.3-0.4-0.6-0.6-0.9L36.4,356.3z"/>
	<g class="st3">
		<path class="st2" d="M99.4,217.5c-8.3,0-15.1,6.8-15.1,15.1c0,2.9,0.8,5.5,2.2,7.8c2.6,4.3,7.2,7.1,12.6,7.3l0.3-0.6l0.3,0.6
			c5.3-0.1,10-3,12.6-7.3c1.4-2.3,2.2-5,2.2-7.8C114.5,224.3,107.7,217.5,99.4,217.5z"/>
		<path class="st2" d="M175,348.5c-0.1,0-0.2,0-0.3,0c-5.3,0.1-10,3-12.6,7.3l0.3,0.6h-0.7c-1.2,2.2-1.9,4.6-1.9,7.3
			c0,2.6,0.7,5.1,1.9,7.3c2.6,4.7,7.5,7.8,13.2,7.8c8.3,0,15.1-6.8,15.1-15.1C190.1,355.2,183.3,348.5,175,348.5z"/>
		<path class="st2" d="M37.4,356.3h-1.1l0.5-0.9c-2.7-4.2-7.4-6.9-12.7-6.9c0,0-0.1,0-0.1,0c-8.3,0-15,6.8-15,15.1
			c0,8.3,6.8,15.1,15.1,15.1c5.7,0,10.7-3.2,13.2-7.8c1.2-2.2,1.9-4.6,1.9-7.3C39.3,361,38.6,358.5,37.4,356.3z"/>
	</g>
	<path class="st4" d="M155.8,268L155.8,268c0.1,0,0.3,0.1,0.7,0.1c0.2,0,0.4,0.1,0.7,0.1c0.3,0,0.6,0.1,0.9,0.2
		c0.2,0,0.3,0.1,0.5,0.1c0.2,0,0.3,0.1,0.5,0.2c0.2,0.1,0.4,0.1,0.6,0.2c0.1,0,0.2,0.1,0.3,0.1c0.1,0,0.2,0.1,0.3,0.1
		c0.4,0.2,0.8,0.4,1.2,0.6c0.2,0.1,0.4,0.2,0.6,0.4c0.2,0.1,0.4,0.3,0.6,0.4c0.2,0.1,0.4,0.3,0.6,0.4c0.2,0.1,0.4,0.3,0.5,0.4
		c0.4,0.3,0.7,0.6,1,0.9c0.3,0.3,0.6,0.6,0.9,0.9c0.3,0.3,0.5,0.6,0.7,0.9c0.2,0.3,0.4,0.5,0.6,0.8c0.2,0.2,0.3,0.4,0.4,0.6
		c0.2,0.4,0.3,0.6,0.3,0.6s-0.1-0.2-0.2-0.6c-0.1-0.2-0.2-0.4-0.3-0.7c-0.1-0.3-0.3-0.6-0.5-0.9c-0.2-0.3-0.4-0.6-0.6-1
		c-0.2-0.3-0.5-0.7-0.8-1.1c-0.3-0.3-0.6-0.7-0.9-1.1c-0.2-0.2-0.3-0.4-0.5-0.5c-0.2-0.2-0.4-0.3-0.5-0.5c-0.2-0.2-0.3-0.3-0.5-0.5
		c-0.2-0.2-0.4-0.3-0.6-0.5c-0.4-0.3-0.8-0.6-1.2-0.8c-0.1-0.1-0.2-0.1-0.3-0.2c-0.1-0.1-0.2-0.1-0.3-0.2c-0.2-0.1-0.4-0.2-0.6-0.3
		c-0.2-0.1-0.4-0.2-0.5-0.3c-0.2-0.1-0.4-0.2-0.5-0.2c-0.3-0.1-0.7-0.3-0.9-0.4c-0.3-0.1-0.5-0.2-0.8-0.3c-0.4-0.1-0.7-0.2-0.7-0.2
		c0,0-0.1,0-0.1,0c-0.6-0.1-1.2,0.3-1.3,0.9C154.8,267.3,155.2,267.9,155.8,268z"/>
	<path class="st4" d="M149.7,303.3c-0.6-0.3-1.1-0.6-1.7-0.9c-1.9-1.1-3.4-2.4-4.5-3.4c0.8,3.7,5.2,12.7,12.9,18
		c1.8,1.2,3.8,2.2,5.9,2.9C156.6,318.1,152.4,310,149.7,303.3z"/>
	<path class="st2" d="M155.6,279.2c0.1-0.1,0.3-0.2,0.5-0.3c2-1.1,4.4-0.1,5.5,2.2c0.9,1.9,0.5,4-0.7,5.3c0.7,1.1,1.4,2.3,2,3.5
		c3.5-2.6,4.4-7.9,2-12.2c-2.5-4.3-7.5-5.8-11.3-3.4c-0.5,0.4-1,0.8-1.4,1.2c0.5,0.5,0.9,0.9,1.4,1.4
		C154.3,277.6,155,278.4,155.6,279.2z"/>
	<path class="st5" d="M161.6,281c-1.1-2.3-3.5-3.2-5.5-2.2c-0.2,0.1-0.3,0.2-0.5,0.3c1.8,2.1,3.6,4.5,5.2,7.2
		C162.1,285.1,162.5,282.9,161.6,281z"/>
	<path class="st6" d="M83.6,329.5l-8.8,2c0,0,31.6,19.6,55.3,16.1C117.2,349.1,97.7,338.6,83.6,329.5z"/>
	<path class="st7" d="M144,342.6c-3.9,2.3-8.2,3.9-12.8,4.7C137.5,346.2,141.5,344.6,144,342.6z"/>
	<path class="st6" d="M127.8,264.3c-0.6-0.1-1.2-0.2-1.9-0.2c-5.5-0.5-10.7,0.2-15.7,1.9c-23.4,7.7-40.4,34.5-40.4,34.5l8.6-1.5
		c9-11.6,21.4-25.6,32.7-31.4c2.4-1.2,4.7-2.1,6.9-2.5c0.8-0.1,1.5-0.2,2.3-0.3c0.3,0,0.6-0.1,0.9-0.1c0.5,0,0.9-0.1,1.4-0.1
		c0.4,0,0.8,0,1.1-0.1c0.3,0,0.6,0,0.9,0c0.5,0,1,0,1.5,0c1.6,0,3.2,0.2,4.8,0.4C129.9,264.7,128.9,264.5,127.8,264.3z"/>
	<path class="st8" d="M133.8,265.4C133.8,265.4,133.8,265.4,133.8,265.4c-0.9-0.2-1.9-0.4-2.9-0.6c0.2,0,0.3,0.1,0.5,0.1
		C132.1,265.1,133,265.3,133.8,265.4z"/>
	<path class="st8" d="M126.1,264.4c1.8,0.1,3.5,0.2,5.2,0.5c-0.2,0-0.3-0.1-0.5-0.1C129.3,264.6,127.7,264.5,126.1,264.4
		L126.1,264.4z"/>
	<path class="st8" d="M126.1,264.4c-0.5,0-1,0-1.5,0C125.1,264.4,125.6,264.4,126.1,264.4L126.1,264.4z"/>
	<path class="st9" d="M168.3,303.5c-0.9-4.2-2.9-9-5.4-13.7c-0.6-1.2-1.3-2.4-2-3.5c-1.6-2.6-3.4-5.1-5.2-7.2
		c-0.7-0.8-1.4-1.5-2.1-2.2c-0.4-0.5-0.9-0.9-1.4-1.4c-2-1.9-4.2-3.7-6.5-5.1c-0.1,0-0.2,0.1-0.3,0.1c-0.2,0.1-0.4,0.2-0.6,0.3
		c-0.2,0.1-0.5,0.3-0.8,0.5c-0.1,0.1-0.3,0.2-0.4,0.3c-0.2,0.1-0.3,0.2-0.5,0.3c-0.1,0.1-0.3,0.2-0.4,0.3c0,0,0,0,0,0
		c-0.1,0.1-0.2,0.1-0.2,0.2c-0.1,0.1-0.2,0.1-0.2,0.2c-0.3,0.3-0.7,0.6-1,0.9c-0.2,0.2-0.3,0.3-0.5,0.5c-0.2,0.2-0.3,0.4-0.4,0.5
		c-0.1,0.2-0.3,0.4-0.4,0.6c-0.1,0.2-0.3,0.4-0.4,0.6c-0.3,0.4-0.5,0.8-0.7,1.2c-0.2,0.4-0.4,0.8-0.6,1.1c-0.2,0.4-0.3,0.7-0.5,1.1
		c-0.1,0.3-0.2,0.6-0.3,0.9c-0.1,0.3-0.2,0.5-0.2,0.7c-0.1,0.4-0.2,0.6-0.2,0.6s0-0.2,0.1-0.7c0-0.2,0.1-0.5,0.1-0.8
		c0.1-0.3,0.1-0.6,0.2-1c0.1-0.4,0.2-0.7,0.3-1.1c0.1-0.4,0.3-0.8,0.4-1.2c0.2-0.4,0.3-0.9,0.6-1.3c0.1-0.2,0.2-0.4,0.3-0.7
		c0.1-0.2,0.2-0.4,0.4-0.6c0.1-0.2,0.2-0.4,0.4-0.6c0.1-0.2,0.3-0.4,0.4-0.6c0.3-0.4,0.6-0.8,0.9-1.1c0.1-0.1,0.1-0.2,0.2-0.3
		c0.1-0.1,0.2-0.2,0.2-0.3c0.2-0.2,0.3-0.3,0.5-0.5c0.1-0.1,0.1-0.1,0.2-0.2c0.1-0.1,0.2-0.2,0.3-0.3c0.2-0.1,0.3-0.3,0.4-0.4
		c0.3-0.2,0.5-0.5,0.8-0.7c0,0,0,0,0,0c-0.7-0.4-1.4-0.7-2.1-1.1c-0.3,0.2-0.6,0.5-0.8,0.8c-2.5,2.3-4.3,4.9-5.4,9.9
		c-0.6-0.7-1.4-1.7-2.5-2.6c-1.4-1.2-3.2-2.3-5.7-2.6c-3.3-0.3-7.3,1.2-9.1,5.2c-0.1,0.1-0.1,0.3-0.2,0.4c-0.8,2.2-1,7,0.1,12.5
		c0.4,1.7,0.8,3.5,1.5,5.3c1.2,3.3,2,6.6,2.5,9.2c0.4,2-0.5,4-2.1,5.1l9,8l5.2,4.6l-19.2-1.5L108,322l-0.8-3.3h0l-1-4.3l-29.4,5.3
		l-3.7,2.7c2.9,2.1,6.5,4.5,10.5,7.1c14.2,9.1,33.7,19.6,46.5,18.1c0.4-0.1,0.7-0.1,1.1-0.2c4.6-0.8,9-2.5,12.8-4.7
		c2.7-1.5,5.1-3.4,7.3-5.5c3.9-3.6,7-8,9.3-12.9c0.7-1.4,1.2-2.8,1.8-4.3c-2.2-0.7-4.1-1.7-5.9-2.9c-7.7-5.3-12.1-14.3-12.9-18
		c1.1,1,2.5,2.2,4.5,3.4c0.5,0.3,1.1,0.6,1.7,0.9c3.9,1.9,9.3,3.2,17.1,2.3C167.9,305.5,168.5,304.5,168.3,303.5z M156.1,286.7
		c-0.2,1.2-0.7,2.4-1.4,3.4c-1.3,1.9-3.3,3.4-5.7,3.8c-0.8,0.1-1.5,0.2-2.3,0.1c-1.7-0.1-3.2-0.8-4.5-1.8c-0.8-0.6-1.5-1.4-2-2.2
		c-0.6-1-1.1-2.2-1.3-3.5c0,0,0,0,0,0c-0.8-5,2.5-9.7,7.2-10.5c1.9-0.3,3.7,0,5.3,0.8c1.4,0.7,2.7,1.8,3.5,3.2c0.6,1,1,2.1,1.2,3.4
		C156.3,284.5,156.3,285.6,156.1,286.7z"/>
	<path class="st7" d="M141.6,268.2c-0.5-0.2-1-0.5-1.6-0.7C140.6,267.7,141.1,268,141.6,268.2C141.6,268.2,141.6,268.2,141.6,268.2z
		"/>
	<path class="st7" d="M133.8,265.4C133.8,265.4,133.8,265.4,133.8,265.4c0.3,0.1,0.6,0.2,0.9,0.2
		C134.4,265.6,134.1,265.5,133.8,265.4z"/>
	<path class="st7" d="M140,267.5C140,267.4,140,267.4,140,267.5c-1.6-0.7-3.1-1.2-4.7-1.6c0,0,0,0,0,0c-0.2-0.1-0.4-0.1-0.6-0.2
		c1.9,0.5,3.7,1.1,5.4,1.8C140,267.5,140,267.5,140,267.5z"/>
	<polygon class="st7" points="46.6,338.4 43.8,320.6 46.6,338.5 46.8,338.2 	"/>
	<path class="st10" d="M140.1,267.5c-1.8-0.7-3.6-1.4-5.4-1.8c-0.3-0.1-0.6-0.1-0.9-0.2c0,0,0,0,0,0c-0.8-0.2-1.6-0.3-2.4-0.5
		c-1.7-0.3-3.5-0.5-5.2-0.5c-0.5,0-1,0-1.5,0c-0.3,0-0.6,0-0.9,0c-0.4,0-0.8,0-1.1,0.1c-0.5,0-0.9,0.1-1.4,0.1
		c-0.3,0-0.6,0.1-0.9,0.1c-0.8,0.1-1.5,0.2-2.3,0.3c-2.2,0.4-4.6,1.3-6.9,2.5c-11.3,5.8-23.7,19.8-32.7,31.4
		c-5,6.5-9,12.2-11.1,15.3l-5.8-1.6l-14.4-4.1l-5.6-1.6l0.5,2.9l3.7,1.1l14.4,4.1l5.6,1.6l7.8,2.2l-2.7,2l0,0l-24,17.4l-0.2,0.4
		l0.4,2.7l26-18.9l3.7-2.7l29.4-5.3l-1.1-4.4l-0.1-0.6c-5.6,0.2-13.9-0.1-14.3-2.2c-0.3-2,6.8-5,12.1-6.9l-1.3-5.3l4.7,4.2
		c0.7-0.2,1.3-0.4,1.7-0.4c2.7-0.5,5.3,1.4,5.8,4.3c0.1,0.9,0,1.8-0.2,2.5l6.5,5.8c1.6-1.1,2.5-3.1,2.1-5.1
		c-0.5-2.6-1.3-5.9-2.5-9.2c-0.7-1.8-1.1-3.6-1.5-5.3c-1.1-5.5-0.9-10.3-0.1-12.5c0.1-0.2,0.1-0.3,0.2-0.4c1.9-4,5.8-5.5,9.1-5.2
		c2.5,0.3,4.3,1.4,5.7,2.6c1,0.9,1.8,1.8,2.5,2.6c1.1-5,2.9-7.6,5.4-9.9c0.3-0.3,0.6-0.5,0.8-0.8C141.1,268,140.6,267.7,140.1,267.5
		z"/>
	<path class="st11" d="M70.8,320.8c-2.8-2.1-4.7-3.5-5.1-3.8C66.1,317.2,68,318.7,70.8,320.8L70.8,320.8L70.8,320.8z"/>
	<path class="st12" d="M70.9,320.8l2.7-2l-7.8-2.2l-5.6-1.6l-14.4-4.1l-3.7-1.1l0.9,5.9l0.8,4.8l2.8,17.8l0.2-0.2L70.9,320.8
		C70.9,320.8,68,318.7,70.9,320.8L70.9,320.8z"/>
	<g class="st1">
		<path class="st2" d="M90.7,307.2c0.3,2.1,8.7,2.4,14.3,2.2l-2.2-9.1C97.5,302.2,90.4,305.2,90.7,307.2z"/>
		<path class="st2" d="M113.6,303.1c-0.5-2.8-3-4.7-5.8-4.3c-0.4,0.1-0.9,0.2-1.7,0.4l7.2,6.4C113.7,304.8,113.8,304,113.6,303.1z"
			/>
	</g>
	<polygon class="st6" points="128.9,319.4 119.9,311.4 113.4,305.6 106.2,299.2 101.5,295.1 102.8,300.4 105,309.5 103,301.4 
		111.2,308.5 116.1,312.6 124.7,320 107.2,318.6 108,322 115,322.5 134.2,324 	"/>
	<polygon class="st11" points="107.2,318.6 107.2,318.6 106.2,314.4 	"/>
	<polygon class="st12" points="116.1,312.6 111.2,308.5 103,301.4 105,309.5 105.1,310 106.2,314.4 107.2,318.6 124.7,320 	"/>
	<path class="st2" d="M156.1,283.3c-0.2-1.2-0.6-2.4-1.2-3.4c-0.9-1.4-2.1-2.5-3.5-3.2c-1.6-0.8-3.4-1.1-5.3-0.8
		c-4.8,0.9-8,5.6-7.2,10.5c0,0,0,0,0,0c0.2,1.3,0.7,2.4,1.3,3.5c0.5,0.9,1.2,1.6,2,2.2c1.3,1,2.9,1.7,4.5,1.8c0.7,0.1,1.5,0,2.3-0.1
		c2.4-0.4,4.4-1.9,5.7-3.8c0.7-1,1.2-2.2,1.4-3.4C156.3,285.6,156.3,284.5,156.1,283.3z M151.3,286.6c-0.7,1.4-2,2.4-3.5,2.5
		c-2.4,0.2-4.5-1.6-4.7-4.1c-0.2-2.5,1.6-4.7,4-4.9c1.1-0.1,2.1,0.2,2.9,0.9c1,0.7,1.7,1.9,1.8,3.2
		C151.8,285.1,151.7,285.9,151.3,286.6z"/>
	<path class="st5" d="M150,281c-0.8-0.6-1.8-1-2.9-0.9c-2.4,0.2-4.2,2.4-4,4.9c0.2,2.5,2.3,4.3,4.7,4.1c1.6-0.1,2.9-1.2,3.5-2.5
		c0.3-0.7,0.5-1.5,0.5-2.4C151.7,282.9,151,281.8,150,281z"/>
	<path class="st4" d="M146.4,268.7c-0.3-0.5-1-0.6-1.5-0.3c0,0-0.2,0.1-0.6,0.4c-0.2,0.1-0.4,0.3-0.6,0.4c0,0,0,0,0,0
		c-0.3,0.2-0.5,0.4-0.8,0.7c-0.1,0.1-0.3,0.3-0.4,0.4c-0.1,0.1-0.2,0.2-0.3,0.3c0,0.1-0.1,0.1-0.2,0.2c-0.2,0.2-0.3,0.3-0.5,0.5
		c-0.1,0.1-0.2,0.2-0.2,0.3s-0.1,0.2-0.2,0.3c-0.3,0.4-0.6,0.7-0.9,1.1c-0.1,0.2-0.3,0.4-0.4,0.6c-0.1,0.2-0.3,0.4-0.4,0.6
		c-0.1,0.2-0.3,0.4-0.4,0.6c-0.1,0.2-0.2,0.4-0.3,0.7c-0.2,0.4-0.4,0.9-0.6,1.3c-0.2,0.4-0.3,0.8-0.4,1.2c-0.1,0.4-0.2,0.8-0.3,1.1
		c-0.1,0.4-0.2,0.7-0.2,1c-0.1,0.3-0.1,0.5-0.1,0.8c-0.1,0.4-0.1,0.7-0.1,0.7s0-0.2,0.2-0.6c0.1-0.2,0.1-0.4,0.2-0.7
		c0.1-0.3,0.2-0.6,0.3-0.9c0.1-0.3,0.3-0.7,0.5-1.1c0.2-0.4,0.4-0.7,0.6-1.1c0.2-0.4,0.4-0.8,0.7-1.2c0.1-0.2,0.3-0.4,0.4-0.6
		c0.1-0.2,0.3-0.4,0.4-0.6c0.1-0.2,0.3-0.4,0.4-0.5c0.2-0.2,0.3-0.3,0.5-0.5c0.3-0.3,0.6-0.6,1-0.9c0.1-0.1,0.2-0.1,0.2-0.2
		c0.1-0.1,0.2-0.1,0.2-0.2c0,0,0,0,0,0c0.2-0.1,0.3-0.2,0.4-0.3c0.2-0.1,0.3-0.2,0.5-0.3c0.2-0.1,0.3-0.2,0.4-0.3
		c0.3-0.2,0.5-0.4,0.8-0.5s0.5-0.2,0.6-0.3c0.1-0.1,0.2-0.1,0.3-0.1c0.2-0.1,0.3-0.1,0.3-0.1l0.1,0c0,0,0.1,0,0.1-0.1
		C146.7,269.8,146.8,269.2,146.4,268.7z"/>
</g>
<g>
	<path class="st0" d="M78.4,98.9l-8.6,1.6c0,0,17-26.9,40.4-34.5L99.7,47.7c-0.1,0-0.2,0-0.3,0c-0.1,0-0.2,0-0.3,0l-37.5,64.9
		l5.8,1.6C69.5,111.1,73.4,105.4,78.4,98.9z"/>
	<path class="st0" d="M144,142.6c-2.5,1.9-6.6,3.6-12.8,4.7c-0.4,0.1-0.7,0.1-1.1,0.2c-23.7,3.5-55.3-16.1-55.3-16.1l8.8-2
		c-4-2.6-7.6-5-10.5-7.1l-26,18.9l-0.4-2.7l-9.7,16.9c0.2,0.3,0.4,0.6,0.6,0.9h124.3c0.1-0.2,0.2-0.4,0.3-0.6l-10.7-18.6
		C149.1,139.3,146.7,141.1,144,142.6z"/>
	<g class="st1">
		<path class="st13" d="M99.7,47.7l10.5,18.2c5-1.6,10.2-2.4,15.7-1.9l-13.6-23.6C109.7,44.7,105,47.6,99.7,47.7z"/>
		<path class="st13" d="M151.3,137.2l10.7,18.6c2.6-4.3,7.2-7.1,12.6-7.3l-14-24.2C158.4,129.1,155.2,133.5,151.3,137.2z"/>
		<path class="st13" d="M36.9,155.4l9.7-16.9l-2.9-18l-0.8-4.8l-18.9,32.7c0,0,0.1,0,0.1,0C29.5,148.5,34.2,151.2,36.9,155.4z"/>
		<path class="st13" d="M99,47.7c-5.3-0.1-10-3-12.6-7.3l-39.3,68.1l14.4,4.1L99,47.7z"/>
		<path class="st13" d="M161.7,156.3H37.4c1.2,2.2,1.9,4.6,1.9,7.3c0,2.6-0.7,5.1-1.9,7.3h124.3c-1.2-2.2-1.9-4.6-1.9-7.3
			C159.9,161,160.5,158.5,161.7,156.3z"/>
	</g>
	<path class="st13" d="M99.7,47.7l-0.3-0.6L99,47.7c0.1,0,0.2,0,0.3,0C99.5,47.8,99.6,47.7,99.7,47.7z"/>
	<path class="st13" d="M162.4,156.3l-0.3-0.6c-0.1,0.2-0.2,0.4-0.3,0.6H162.4z"/>
	<path class="st13" d="M36.4,156.3h1.1c-0.2-0.3-0.4-0.6-0.6-0.9L36.4,156.3z"/>
	<g class="st3">
		<path class="st13" d="M99.4,17.5c-8.3,0-15.1,6.8-15.1,15.1c0,2.9,0.8,5.5,2.2,7.8c2.6,4.3,7.2,7.1,12.6,7.3l0.3-0.6l0.3,0.6
			c5.3-0.1,10-3,12.6-7.3c1.4-2.3,2.2-5,2.2-7.8C114.5,24.3,107.7,17.5,99.4,17.5z"/>
		<path class="st13" d="M175,148.5c-0.1,0-0.2,0-0.3,0c-5.3,0.1-10,3-12.6,7.3l0.3,0.6h-0.7c-1.2,2.2-1.9,4.6-1.9,7.3
			c0,2.6,0.7,5.1,1.9,7.3c2.6,4.7,7.5,7.8,13.2,7.8c8.3,0,15.1-6.8,15.1-15.1C190.1,155.2,183.3,148.5,175,148.5z"/>
		<path class="st13" d="M37.4,156.3h-1.1l0.5-0.9c-2.7-4.2-7.4-6.9-12.7-6.9c0,0-0.1,0-0.1,0c-8.3,0-15,6.8-15,15.1
			c0,8.3,6.8,15.1,15.1,15.1c5.7,0,10.7-3.2,13.2-7.8c1.2-2.2,1.9-4.6,1.9-7.3C39.3,161,38.6,158.5,37.4,156.3z"/>
	</g>
	<path class="st13" d="M155.8,68L155.8,68c0.1,0,0.3,0.1,0.7,0.1c0.2,0,0.4,0.1,0.7,0.1c0.3,0,0.6,0.2,0.9,0.2
		c0.2,0,0.3,0.1,0.5,0.1c0.2,0,0.3,0.1,0.5,0.2c0.2,0.1,0.4,0.1,0.6,0.2c0.1,0,0.2,0.1,0.3,0.1c0.1,0,0.2,0.1,0.3,0.1
		c0.4,0.2,0.8,0.4,1.2,0.6c0.2,0.1,0.4,0.2,0.6,0.3c0.2,0.1,0.4,0.3,0.6,0.4c0.2,0.1,0.4,0.3,0.6,0.4c0.2,0.1,0.4,0.3,0.5,0.4
		c0.4,0.3,0.7,0.6,1,0.9c0.3,0.3,0.6,0.6,0.9,0.9c0.3,0.3,0.5,0.6,0.7,0.9c0.2,0.3,0.4,0.5,0.6,0.8c0.2,0.2,0.3,0.4,0.4,0.6
		c0.2,0.4,0.3,0.6,0.3,0.6s-0.1-0.2-0.2-0.6c-0.1-0.2-0.2-0.4-0.3-0.7c-0.1-0.3-0.3-0.6-0.5-0.9c-0.2-0.3-0.4-0.6-0.6-1
		c-0.2-0.3-0.5-0.7-0.8-1.1c-0.3-0.3-0.6-0.7-0.9-1.1c-0.2-0.2-0.3-0.4-0.5-0.5c-0.2-0.2-0.4-0.3-0.5-0.5c-0.2-0.2-0.3-0.3-0.5-0.5
		c-0.2-0.2-0.4-0.3-0.6-0.5c-0.4-0.3-0.8-0.6-1.2-0.8c-0.1-0.1-0.2-0.1-0.3-0.2c-0.1-0.1-0.2-0.1-0.3-0.2c-0.2-0.1-0.4-0.2-0.6-0.3
		c-0.2-0.1-0.4-0.2-0.5-0.3c-0.2-0.1-0.4-0.2-0.5-0.2c-0.3-0.1-0.7-0.3-0.9-0.4c-0.3-0.1-0.5-0.2-0.8-0.3c-0.4-0.1-0.7-0.2-0.7-0.2
		c0,0-0.1,0-0.1,0c-0.6-0.1-1.2,0.3-1.3,0.9C154.8,67.3,155.2,67.9,155.8,68z"/>
	<path class="st14" d="M149.7,103.3c-0.6-0.3-1.1-0.6-1.7-0.9c-1.9-1.1-3.4-2.4-4.5-3.4c0.8,3.7,5.2,12.7,12.9,18
		c1.8,1.2,3.8,2.2,5.9,2.9C156.6,118.1,152.4,110,149.7,103.3z"/>
	<path class="st15" d="M155.6,79.2c0.1-0.1,0.3-0.2,0.5-0.3c2-1.1,4.4-0.1,5.5,2.2c0.9,1.9,0.5,4-0.7,5.3c0.7,1.1,1.4,2.3,2,3.5
		c3.5-2.6,4.4-7.9,2-12.2c-2.5-4.3-7.5-5.8-11.3-3.4c-0.5,0.4-1,0.8-1.4,1.2c0.5,0.5,0.9,0.9,1.4,1.4
		C154.3,77.6,155,78.4,155.6,79.2z"/>
	<path class="st13" d="M161.6,81c-1.1-2.3-3.5-3.2-5.5-2.2c-0.2,0.1-0.3,0.2-0.5,0.3c1.8,2.1,3.6,4.5,5.2,7.2
		C162.1,85.1,162.5,82.9,161.6,81z"/>
	<path class="st13" d="M83.6,129.5l-8.8,2c0,0,31.6,19.6,55.3,16.1C117.2,149.1,97.7,138.6,83.6,129.5z"/>
	<path class="st7" d="M144,142.6c-3.9,2.3-8.2,3.9-12.8,4.7C137.5,146.2,141.5,144.6,144,142.6z"/>
	<path class="st13" d="M127.8,64.3c-0.6-0.1-1.2-0.2-1.9-0.2c-5.5-0.5-10.7,0.2-15.7,1.9c-23.4,7.7-40.4,34.5-40.4,34.5l8.6-1.6
		c9-11.6,21.4-25.6,32.7-31.4c2.4-1.2,4.7-2.1,6.9-2.5c0.8-0.1,1.5-0.2,2.3-0.3c0.3,0,0.6-0.1,0.9-0.1c0.5,0,0.9-0.1,1.4-0.1
		c0.4,0,0.8,0,1.1-0.1c0.3,0,0.6,0,0.9,0c0.5,0,1,0,1.5,0c1.6,0,3.2,0.2,4.8,0.4C129.9,64.7,128.9,64.5,127.8,64.3z"/>
	<path class="st8" d="M133.8,65.4C133.8,65.4,133.8,65.4,133.8,65.4c-0.9-0.2-1.9-0.4-2.9-0.6c0.2,0,0.3,0.1,0.5,0.1
		C132.1,65.1,133,65.3,133.8,65.4z"/>
	<path class="st8" d="M126.1,64.4c1.8,0.1,3.5,0.2,5.2,0.5c-0.2,0-0.3-0.1-0.5-0.1C129.3,64.6,127.7,64.5,126.1,64.4L126.1,64.4z"/>
	<path class="st8" d="M126.1,64.4c-0.5,0-1,0-1.5,0C125.1,64.4,125.6,64.4,126.1,64.4L126.1,64.4z"/>
	<path class="st16" d="M168.3,103.5c-0.9-4.2-2.9-9-5.4-13.7c-0.6-1.2-1.3-2.4-2-3.5c-1.6-2.6-3.4-5.1-5.2-7.2
		c-0.7-0.8-1.4-1.5-2.1-2.2c-0.4-0.5-0.9-0.9-1.4-1.4c-2-1.9-4.2-3.7-6.5-5.1c-0.1,0-0.2,0.1-0.3,0.1c-0.2,0.1-0.4,0.2-0.6,0.3
		s-0.5,0.3-0.8,0.5c-0.1,0.1-0.3,0.2-0.4,0.3c-0.2,0.1-0.3,0.2-0.5,0.3c-0.1,0.1-0.3,0.2-0.4,0.3c0,0,0,0,0,0
		c-0.1,0.1-0.2,0.1-0.2,0.2c-0.1,0.1-0.2,0.1-0.2,0.2c-0.3,0.3-0.7,0.6-1,0.9c-0.2,0.2-0.3,0.3-0.5,0.5c-0.2,0.2-0.3,0.4-0.4,0.5
		c-0.1,0.2-0.3,0.4-0.4,0.6c-0.1,0.2-0.3,0.4-0.4,0.6c-0.3,0.4-0.5,0.8-0.7,1.2c-0.2,0.4-0.4,0.8-0.6,1.1c-0.2,0.4-0.3,0.7-0.5,1.1
		c-0.1,0.3-0.2,0.6-0.3,0.9c-0.1,0.3-0.2,0.5-0.2,0.7c-0.1,0.4-0.2,0.6-0.2,0.6s0-0.2,0.1-0.7c0-0.2,0.1-0.5,0.1-0.8
		c0.1-0.3,0.1-0.6,0.2-1c0.1-0.4,0.2-0.7,0.3-1.1c0.1-0.4,0.3-0.8,0.4-1.2c0.2-0.4,0.3-0.9,0.6-1.3c0.1-0.2,0.2-0.4,0.3-0.7
		c0.1-0.2,0.2-0.4,0.4-0.6c0.1-0.2,0.2-0.4,0.4-0.6c0.1-0.2,0.3-0.4,0.4-0.6c0.3-0.4,0.6-0.8,0.9-1.1c0.1-0.1,0.1-0.2,0.2-0.3
		c0.1-0.1,0.2-0.2,0.2-0.3c0.2-0.2,0.3-0.3,0.5-0.5c0.1-0.1,0.1-0.1,0.2-0.2c0.1-0.1,0.2-0.2,0.3-0.3c0.2-0.1,0.3-0.3,0.4-0.4
		c0.3-0.2,0.5-0.5,0.8-0.7c0,0,0,0,0,0c-0.7-0.4-1.4-0.7-2.1-1.1c-0.3,0.2-0.6,0.5-0.8,0.8c-2.5,2.3-4.3,4.9-5.4,9.9
		c-0.6-0.7-1.4-1.7-2.5-2.6c-1.4-1.2-3.2-2.3-5.7-2.6c-3.3-0.3-7.3,1.2-9.1,5.2c-0.1,0.1-0.1,0.3-0.2,0.4c-0.8,2.2-1,7,0.1,12.5
		c0.4,1.7,0.8,3.5,1.5,5.3c1.2,3.3,2,6.6,2.5,9.2c0.4,2-0.5,4-2.1,5.1l9,8l5.2,4.6l-19.2-1.5L108,122l-0.8-3.3h0l-1-4.3l-29.4,5.3
		l-3.7,2.7c2.9,2.1,6.5,4.5,10.5,7.1c14.2,9.1,33.7,19.6,46.5,18.1c0.4-0.1,0.7-0.1,1.1-0.2c4.6-0.8,9-2.5,12.8-4.7
		c2.7-1.5,5.1-3.4,7.3-5.5c3.9-3.6,7-8,9.3-12.9c0.7-1.4,1.2-2.8,1.8-4.3c-2.2-0.7-4.1-1.7-5.9-2.9c-7.7-5.3-12.1-14.3-12.9-18
		c1.1,1,2.5,2.2,4.5,3.4c0.5,0.3,1.1,0.6,1.7,0.9c3.9,1.9,9.3,3.2,17.1,2.3C167.9,105.5,168.5,104.5,168.3,103.5z M156.1,86.7
		c-0.2,1.2-0.7,2.4-1.4,3.4c-1.3,1.9-3.3,3.4-5.7,3.8c-0.8,0.1-1.5,0.2-2.3,0.1c-1.7-0.1-3.2-0.8-4.5-1.8c-0.8-0.6-1.5-1.4-2-2.2
		c-0.6-1-1.1-2.2-1.3-3.5c0,0,0,0,0,0c-0.8-5,2.5-9.7,7.2-10.5c1.9-0.3,3.7,0,5.3,0.8c1.4,0.7,2.7,1.8,3.5,3.2c0.6,1,1,2.1,1.2,3.4
		C156.3,84.5,156.3,85.6,156.1,86.7z"/>
	<path class="st7" d="M141.6,68.2c-0.5-0.2-1-0.5-1.6-0.7C140.6,67.7,141.1,68,141.6,68.2C141.6,68.2,141.6,68.2,141.6,68.2z"/>
	<path class="st7" d="M133.8,65.4C133.8,65.4,133.8,65.4,133.8,65.4c0.3,0.1,0.6,0.2,0.9,0.2C134.4,65.6,134.1,65.5,133.8,65.4z"/>
	<path class="st7" d="M140,67.5C140,67.4,140,67.4,140,67.5c-1.6-0.7-3.1-1.2-4.7-1.6c0,0,0,0,0,0c-0.2-0.1-0.4-0.1-0.6-0.2
		c1.9,0.5,3.7,1.1,5.4,1.8C140,67.5,140,67.5,140,67.5z"/>
	<polygon class="st7" points="46.6,138.4 43.8,120.6 46.6,138.5 46.8,138.2 	"/>
	<path class="st14" d="M140.1,67.5c-1.8-0.7-3.6-1.4-5.4-1.8c-0.3-0.1-0.6-0.1-0.9-0.2c0,0,0,0,0,0c-0.8-0.2-1.6-0.3-2.4-0.5
		c-1.7-0.3-3.5-0.5-5.2-0.5c-0.5,0-1,0-1.5,0c-0.3,0-0.6,0-0.9,0c-0.4,0-0.8,0-1.1,0.1c-0.5,0-0.9,0.1-1.4,0.1
		c-0.3,0-0.6,0.1-0.9,0.1c-0.8,0.1-1.5,0.2-2.3,0.3c-2.2,0.4-4.6,1.3-6.9,2.5c-11.3,5.8-23.7,19.8-32.7,31.4
		c-5,6.5-9,12.2-11.1,15.3l-5.8-1.6l-14.4-4.1l-5.6-1.6l0.5,2.9l3.7,1.1l14.4,4.1l5.6,1.6l7.8,2.2l-2.7,2l0,0l-24,17.4l-0.2,0.4
		l0.4,2.7l26-18.9l3.7-2.7l29.4-5.3l-1.1-4.4l-0.1-0.6c-5.6,0.2-13.9-0.1-14.3-2.2c-0.3-2,6.8-5,12.1-6.9l-1.3-5.3l4.7,4.2
		c0.7-0.2,1.3-0.4,1.7-0.4c2.7-0.5,5.3,1.4,5.8,4.3c0.1,0.9,0,1.8-0.2,2.5l6.5,5.8c1.6-1.1,2.5-3.1,2.1-5.1
		c-0.5-2.6-1.3-5.9-2.5-9.2c-0.7-1.8-1.1-3.6-1.5-5.3c-1.1-5.5-0.9-10.3-0.1-12.5c0.1-0.2,0.1-0.3,0.2-0.4c1.9-4,5.8-5.5,9.1-5.2
		c2.5,0.3,4.3,1.4,5.7,2.6c1,0.9,1.8,1.8,2.5,2.6c1.1-5,2.9-7.6,5.4-9.9c0.3-0.3,0.6-0.5,0.8-0.8C141.1,68,140.6,67.7,140.1,67.5z"
		/>
	<path class="st11" d="M70.8,120.8c-2.8-2.1-4.7-3.5-5.1-3.8C66.1,117.2,68,118.7,70.8,120.8L70.8,120.8L70.8,120.8z"/>
	<path class="st16" d="M70.9,120.8l2.7-2l-7.8-2.2l-5.6-1.6l-14.4-4.1l-3.7-1.1l0.9,5.9l0.8,4.8l2.8,17.8l0.2-0.2L70.9,120.8
		C70.9,120.8,68,118.7,70.9,120.8L70.9,120.8z"/>
	<g>
		<path class="st13" d="M90.7,107.2c0.3,2.1,8.7,2.4,14.3,2.2l-2.2-9.1C97.5,102.2,90.4,105.2,90.7,107.2z"/>
		<path class="st13" d="M113.6,103.1c-0.5-2.8-3-4.7-5.8-4.3c-0.4,0.1-0.9,0.2-1.7,0.4l7.2,6.4C113.7,104.8,113.8,104,113.6,103.1z"
			/>
	</g>
	<polygon class="st13" points="128.9,119.4 119.9,111.4 113.4,105.6 106.2,99.2 101.5,95.1 102.8,100.4 105,109.5 103,101.4 
		111.2,108.5 116.1,112.6 124.7,120 107.2,118.6 108,122 115,122.5 134.2,124 	"/>
	<polygon class="st11" points="107.2,118.6 107.2,118.6 106.2,114.4 	"/>
	<polygon class="st17" points="116.1,112.6 111.2,108.5 103,101.4 105,109.5 105.1,110 106.2,114.4 107.2,118.6 124.7,120 	"/>
	<path class="st15" d="M156.1,83.3c-0.2-1.2-0.6-2.4-1.2-3.4c-0.9-1.4-2.1-2.5-3.5-3.2c-1.6-0.8-3.4-1.1-5.3-0.8
		c-4.8,0.9-8,5.6-7.2,10.5c0,0,0,0,0,0c0.2,1.3,0.7,2.4,1.3,3.5c0.5,0.9,1.2,1.6,2,2.2c1.3,1,2.9,1.7,4.5,1.8c0.7,0.1,1.5,0,2.3-0.1
		c2.4-0.4,4.4-1.9,5.7-3.8c0.7-1,1.2-2.2,1.4-3.4C156.3,85.6,156.3,84.5,156.1,83.3z M151.3,86.6c-0.7,1.4-2,2.4-3.5,2.5
		c-2.4,0.2-4.5-1.6-4.7-4.1c-0.2-2.5,1.6-4.7,4-4.9c1.1-0.1,2.1,0.2,2.9,0.9c1,0.7,1.7,1.9,1.8,3.2
		C151.8,85.1,151.7,85.9,151.3,86.6z"/>
	<path class="st13" d="M150,81c-0.8-0.6-1.8-1-2.9-0.9c-2.4,0.2-4.2,2.4-4,4.9c0.2,2.5,2.3,4.3,4.7,4.1c1.6-0.1,2.9-1.2,3.5-2.5
		c0.3-0.7,0.5-1.5,0.5-2.4C151.7,82.9,151,81.8,150,81z"/>
	<path class="st13" d="M146.4,68.7c-0.3-0.5-1-0.6-1.5-0.3c0,0-0.2,0.1-0.6,0.4c-0.2,0.1-0.4,0.3-0.6,0.4c0,0,0,0,0,0
		c-0.3,0.2-0.5,0.4-0.8,0.7c-0.1,0.1-0.3,0.3-0.4,0.4c-0.1,0.1-0.2,0.2-0.3,0.3c0,0.1-0.1,0.1-0.2,0.2c-0.2,0.2-0.3,0.3-0.5,0.5
		c-0.1,0.1-0.2,0.2-0.2,0.3s-0.1,0.2-0.2,0.3c-0.3,0.4-0.6,0.7-0.9,1.1c-0.1,0.2-0.3,0.4-0.4,0.6c-0.1,0.2-0.3,0.4-0.4,0.6
		c-0.1,0.2-0.3,0.4-0.4,0.6c-0.1,0.2-0.2,0.4-0.3,0.7c-0.2,0.4-0.4,0.9-0.6,1.3c-0.2,0.4-0.3,0.8-0.4,1.2c-0.1,0.4-0.2,0.8-0.3,1.1
		c-0.1,0.4-0.2,0.7-0.2,1c-0.1,0.3-0.1,0.5-0.1,0.8c-0.1,0.4-0.1,0.7-0.1,0.7s0-0.2,0.2-0.6c0.1-0.2,0.1-0.4,0.2-0.7
		c0.1-0.3,0.2-0.6,0.3-0.9c0.1-0.3,0.3-0.7,0.5-1.1c0.2-0.4,0.4-0.7,0.6-1.1c0.2-0.4,0.4-0.8,0.7-1.2c0.1-0.2,0.3-0.4,0.4-0.6
		c0.1-0.2,0.3-0.4,0.4-0.6c0.1-0.2,0.3-0.4,0.4-0.5c0.2-0.2,0.3-0.3,0.5-0.5c0.3-0.3,0.6-0.6,1-0.9c0.1-0.1,0.2-0.1,0.2-0.2
		c0.1-0.1,0.2-0.1,0.2-0.2c0,0,0,0,0,0c0.2-0.1,0.3-0.2,0.4-0.3c0.2-0.1,0.3-0.2,0.5-0.3c0.2-0.1,0.3-0.2,0.4-0.3
		c0.3-0.2,0.5-0.4,0.8-0.5s0.5-0.2,0.6-0.3c0.1-0.1,0.2-0.1,0.3-0.1c0.2-0.1,0.3-0.1,0.3-0.1l0.1,0c0,0,0.1,0,0.1-0.1
		C146.7,69.8,146.8,69.2,146.4,68.7z"/>
</g>
</svg>
