<?xml version="1.0" encoding="utf-8"?>
<!-- Generator: Adobe Illustrator 15.0.0, SVG Export Plug-In . SVG Version: 6.00 Build 0)  -->
<!DOCTYPE svg PUBLIC "-//W3C//DTD SVG 1.1//EN" "http://www.w3.org/Graphics/SVG/1.1/DTD/svg11.dtd">
<svg version="1.1" id="Layer_1" xmlns="http://www.w3.org/2000/svg" xmlns:xlink="http://www.w3.org/1999/xlink" x="0px" y="0px"
	 width="200px" height="200px" viewBox="677.5 -1.606 200 200" enable-background="new 677.5 -1.606 200 200" xml:space="preserve">
<g>
	<path fill="none" d="M755.918,97.327l-8.576,1.55c0,0,16.983-26.86,40.369-34.548L777.203,46.13
		c-0.109,0.002-0.215,0.016-0.325,0.016c-0.111,0-0.22-0.014-0.33-0.016l-37.469,64.898l5.759,1.64
		C746.953,109.513,750.909,103.79,755.918,97.327z"/>
	<path fill="none" d="M821.514,141.038c-2.472,1.945-6.551,3.598-12.843,4.735c-0.367,0.066-0.743,0.11-1.116,0.164
		c-23.73,3.505-55.285-16.099-55.285-16.099l8.79-1.955c-4.002-2.574-7.579-5.039-10.467-7.098l-26.036,18.857l-0.432-2.712
		l-9.737,16.864c0.196,0.303,0.388,0.608,0.562,0.925H839.23c0.105-0.193,0.228-0.377,0.342-0.564l-10.731-18.589
		C826.618,137.651,824.166,139.494,821.514,141.038z"/>
	<g opacity="0.2">
		<path fill="#FAFBFB" d="M777.203,46.13l10.508,18.199c4.978-1.636,10.244-2.402,15.699-1.857l-13.629-23.606
			C787.185,43.137,782.541,46.016,777.203,46.13z"/>
		<path fill="#FAFBFB" d="M828.841,135.567l10.731,18.589c2.598-4.272,7.241-7.15,12.577-7.268l-13.978-24.208
			C835.885,127.544,832.719,131.93,828.841,135.567z"/>
		<path fill="#FAFBFB" d="M714.388,153.796l9.737-16.864l-2.862-17.978l-0.763-4.793l-18.889,32.717c0.03,0,0.059-0.005,0.09-0.005
			C707.025,146.873,711.696,149.634,714.388,153.796z"/>
		<path fill="#FAFBFB" d="M776.548,46.13c-5.336-0.116-9.979-2.994-12.576-7.266l-39.296,68.063l14.403,4.101L776.548,46.13z"/>
		<path fill="#FAFBFB" d="M839.23,154.721H714.949c1.184,2.155,1.861,4.629,1.861,7.263c0,2.633-0.678,5.105-1.861,7.262H839.23
			c-1.185-2.156-1.861-4.629-1.861-7.262C837.369,159.35,838.046,156.876,839.23,154.721z"/>
	</g>
	<path fill="#FAFBFB" d="M777.203,46.13l-0.327-0.568l-0.328,0.568c0.11,0.002,0.219,0.016,0.33,0.016
		C776.988,46.146,777.094,46.132,777.203,46.13z"/>
	<path fill="#FAFBFB" d="M839.899,154.721l-0.327-0.564c-0.114,0.188-0.236,0.371-0.342,0.564H839.899z"/>
	<path fill="#FAFBFB" d="M713.854,154.721h1.095c-0.174-0.316-0.365-0.622-0.562-0.925L713.854,154.721z"/>
	<g opacity="0.62">
		<path fill="#FAFBFB" d="M776.878,15.928c-8.344,0-15.111,6.765-15.111,15.11c0,2.87,0.815,5.542,2.205,7.827
			c2.597,4.271,7.24,7.149,12.576,7.266l0.328-0.568l0.327,0.568c5.338-0.114,9.981-2.993,12.578-7.265
			c1.389-2.285,2.204-4.958,2.204-7.828C791.985,22.692,785.222,15.928,776.878,15.928z"/>
		<path fill="#FAFBFB" d="M852.479,146.873c-0.111,0-0.219,0.014-0.329,0.016c-5.336,0.117-9.979,2.995-12.577,7.268l0.327,0.564
			h-0.669c-1.185,2.155-1.861,4.629-1.861,7.263c0,2.633,0.677,5.105,1.861,7.262c2.568,4.677,7.537,7.847,13.248,7.847
			c8.345,0,15.109-6.765,15.109-15.108C867.588,153.638,860.823,146.873,852.479,146.873z"/>
		<path fill="#FAFBFB" d="M714.949,154.721h-1.095l0.533-0.925c-2.691-4.162-7.362-6.923-12.687-6.923
			c-0.031,0-0.06,0.005-0.09,0.005c-8.303,0.049-15.02,6.79-15.02,15.105c0,8.344,6.765,15.108,15.109,15.108
			c5.711,0,10.68-3.17,13.248-7.847c1.184-2.156,1.861-4.629,1.861-7.262C716.811,159.35,716.133,156.876,714.949,154.721z"/>
	</g>
	<path opacity="0.1" fill="#FAFBFB" d="M833.282,66.388l0.091,0.016c0,0,0.218,0.04,0.601,0.11c0.191,0.036,0.423,0.078,0.69,0.127
		c0.269,0.045,0.556,0.15,0.88,0.237c0.163,0.046,0.331,0.093,0.505,0.142c0.178,0.049,0.345,0.129,0.526,0.194
		c0.181,0.07,0.366,0.142,0.556,0.216c0.094,0.039,0.193,0.071,0.285,0.114c0.095,0.047,0.19,0.092,0.284,0.14
		c0.374,0.194,0.787,0.362,1.161,0.607c0.193,0.116,0.388,0.232,0.581,0.35c0.201,0.112,0.377,0.258,0.568,0.387
		c0.185,0.134,0.376,0.265,0.561,0.402c0.178,0.145,0.354,0.29,0.53,0.436c0.362,0.277,0.67,0.603,0.996,0.896
		c0.303,0.312,0.604,0.614,0.867,0.918c0.262,0.302,0.511,0.593,0.721,0.876c0.221,0.274,0.402,0.543,0.57,0.777
		c0.159,0.239,0.298,0.448,0.403,0.625c0.218,0.353,0.324,0.566,0.324,0.566s-0.073-0.226-0.24-0.607
		c-0.081-0.193-0.189-0.422-0.314-0.686c-0.135-0.257-0.278-0.554-0.46-0.864c-0.173-0.317-0.381-0.646-0.603-0.993
		c-0.226-0.349-0.486-0.7-0.751-1.067c-0.288-0.348-0.564-0.733-0.899-1.077c-0.16-0.177-0.325-0.355-0.489-0.534
		c-0.17-0.173-0.352-0.339-0.528-0.509c-0.18-0.163-0.349-0.347-0.541-0.496c-0.19-0.155-0.382-0.309-0.568-0.462
		c-0.367-0.321-0.78-0.567-1.161-0.839c-0.096-0.065-0.191-0.13-0.286-0.195c-0.096-0.063-0.197-0.114-0.294-0.171
		c-0.197-0.11-0.39-0.218-0.575-0.325c-0.188-0.101-0.366-0.215-0.549-0.298c-0.185-0.083-0.363-0.162-0.536-0.24
		c-0.347-0.148-0.658-0.308-0.948-0.405c-0.29-0.098-0.544-0.184-0.752-0.255c-0.421-0.14-0.662-0.22-0.662-0.22
		c-0.045-0.015-0.098-0.029-0.147-0.038c-0.592-0.109-1.161,0.281-1.27,0.873C832.299,65.708,832.689,66.278,833.282,66.388z"/>
	<path opacity="0.1" fill="#FAFBFB" d="M827.211,101.716c-0.591-0.284-1.136-0.581-1.653-0.885c-1.946-1.14-3.396-2.367-4.455-3.367
		c0.849,3.683,5.185,12.747,12.905,18.004c1.791,1.219,3.762,2.233,5.915,2.929C834.134,116.453,829.856,108.414,827.211,101.716z"
		/>
	<path fill="#FAFBFB" d="M833.146,77.572c0.147-0.112,0.291-0.229,0.458-0.318c1.955-1.052,4.413-0.081,5.491,2.17
		c0.901,1.881,0.541,4.045-0.737,5.325c0.705,1.14,1.383,2.312,2.027,3.502c3.515-2.565,4.428-7.923,2.001-12.155
		c-2.487-4.337-7.534-5.842-11.272-3.36c-0.532,0.354-1.003,0.776-1.424,1.242c0.467,0.453,0.931,0.91,1.377,1.388
		C831.76,76.034,832.455,76.779,833.146,77.572z"/>
	<path opacity="0" fill="#FAFBFB" d="M839.095,79.425c-1.078-2.251-3.536-3.222-5.491-2.17c-0.167,0.089-0.311,0.206-0.458,0.318
		c1.807,2.074,3.577,4.532,5.212,7.178C839.636,83.47,839.996,81.306,839.095,79.425z"/>
	<path opacity="0.2" fill="#FAFBFB" d="M761.06,127.884l-8.79,1.955c0,0,31.555,19.604,55.285,16.099
		C794.725,147.465,775.241,137.003,761.06,127.884z"/>
	<path fill="#3651A2" d="M821.514,141.038c-3.893,2.266-8.208,3.898-12.843,4.735C814.963,144.636,819.042,142.983,821.514,141.038z
		"/>
	<path opacity="0.2" fill="#FAFBFB" d="M805.268,62.701c-0.622-0.096-1.241-0.168-1.857-0.23
		c-5.455-0.544-10.722,0.221-15.699,1.857c-23.386,7.688-40.369,34.548-40.369,34.548l8.576-1.55
		c8.997-11.605,21.4-25.591,32.709-31.411c2.374-1.222,4.699-2.091,6.934-2.495c0.765-0.138,1.525-0.246,2.286-0.337
		c0.291-0.036,0.58-0.06,0.869-0.087c0.451-0.044,0.902-0.083,1.353-0.11c0.378-0.024,0.755-0.042,1.132-0.054
		c0.315-0.01,0.63-0.013,0.942-0.016c0.493-0.004,0.984,0.003,1.477,0.016c1.607,0.044,3.199,0.185,4.764,0.429
		C807.416,63.059,806.379,62.872,805.268,62.701z"/>
	<path fill="#2C94D1" d="M811.251,63.842c0.002-0.004,0.004-0.009,0.006-0.014c-0.948-0.222-1.904-0.417-2.874-0.567
		c0.156,0.032,0.3,0.066,0.452,0.1C809.646,63.499,810.453,63.653,811.251,63.842z"/>
	<path fill="#2C94D1" d="M803.622,62.838c1.763,0.056,3.502,0.229,5.213,0.522c-0.152-0.033-0.296-0.067-0.452-0.1
		c-1.564-0.244-3.156-0.385-4.764-0.429L803.622,62.838z"/>
	<path fill="#2C94D1" d="M803.619,62.832c-0.492-0.013-0.983-0.02-1.477-0.016c0.495-0.003,0.988,0.007,1.479,0.023L803.619,62.832z
		"/>
	<path opacity="0.75" fill="#FAFBFB" d="M845.814,101.909c-0.948-4.16-2.931-9.035-5.43-13.657
		c-0.645-1.191-1.322-2.362-2.027-3.502c-1.635-2.646-3.405-5.104-5.212-7.178c-0.69-0.793-1.386-1.538-2.079-2.205
		c-0.446-0.478-0.91-0.935-1.377-1.388c-1.995-1.939-4.174-3.657-6.505-5.132c-0.079,0.042-0.17,0.089-0.283,0.148
		c-0.175,0.093-0.39,0.204-0.637,0.332s-0.497,0.313-0.788,0.493c-0.143,0.093-0.293,0.189-0.449,0.29
		c-0.155,0.101-0.298,0.227-0.454,0.346c-0.146,0.112-0.292,0.227-0.444,0.345c-0.012,0.01-0.023,0.019-0.036,0.029
		c-0.08,0.065-0.166,0.125-0.245,0.197c-0.077,0.071-0.156,0.144-0.235,0.217c-0.312,0.299-0.662,0.583-0.958,0.932
		c-0.154,0.167-0.312,0.337-0.469,0.508c-0.163,0.167-0.293,0.361-0.442,0.541c-0.145,0.184-0.293,0.364-0.434,0.553
		c-0.133,0.191-0.267,0.383-0.396,0.575c-0.273,0.376-0.487,0.779-0.722,1.157c-0.213,0.39-0.419,0.77-0.595,1.139
		c-0.172,0.371-0.334,0.722-0.464,1.057c-0.143,0.331-0.245,0.643-0.347,0.918c-0.09,0.277-0.17,0.521-0.225,0.724
		c-0.117,0.404-0.163,0.64-0.163,0.64s0.012-0.24,0.071-0.658c0.027-0.212,0.071-0.465,0.124-0.758
		c0.061-0.288,0.12-0.617,0.215-0.971c0.084-0.356,0.198-0.734,0.319-1.137c0.125-0.402,0.281-0.817,0.443-1.25
		c0.184-0.421,0.347-0.873,0.578-1.3c0.106-0.219,0.217-0.439,0.326-0.661c0.118-0.217,0.247-0.427,0.371-0.642
		c0.131-0.212,0.242-0.437,0.389-0.639c0.142-0.204,0.282-0.409,0.422-0.612c0.266-0.417,0.596-0.776,0.887-1.147
		c0.077-0.091,0.149-0.184,0.224-0.273c0.074-0.089,0.158-0.168,0.235-0.251c0.158-0.166,0.313-0.327,0.465-0.482
		c0.053-0.053,0.103-0.1,0.152-0.152c0.098-0.103,0.195-0.21,0.296-0.299c0.154-0.134,0.304-0.265,0.449-0.39
		c0.291-0.246,0.544-0.492,0.799-0.673c0.013-0.009,0.021-0.016,0.033-0.024c-0.674-0.374-1.359-0.729-2.055-1.062
		c-0.291,0.25-0.573,0.501-0.847,0.756c-2.472,2.288-4.261,4.854-5.376,9.891c-0.642-0.746-1.448-1.69-2.463-2.574
		c-1.414-1.233-3.245-2.344-5.709-2.6c-3.35-0.347-7.257,1.239-9.149,5.197c-0.061,0.126-0.118,0.266-0.173,0.417
		c-0.802,2.205-1.023,7.025,0.102,12.479c0.36,1.74,0.85,3.542,1.51,5.348c1.201,3.286,1.982,6.57,2.473,9.157
		c0.386,2.033-0.496,4-2.078,5.122l9.015,7.989l5.238,4.644L792.45,120.9l-6.921-0.551l-0.803-3.31h-0.001l-1.033-4.261
		l-29.37,5.306l-3.729,2.701c2.888,2.059,6.465,4.523,10.467,7.098c14.182,9.119,33.665,19.581,46.495,18.054
		c0.373-0.054,0.749-0.098,1.116-0.164c4.635-0.837,8.95-2.47,12.843-4.735c2.652-1.544,5.104-3.387,7.327-5.471
		c3.878-3.638,7.044-8.023,9.331-12.887c0.654-1.393,1.246-2.82,1.751-4.284c-2.153-0.695-4.124-1.71-5.915-2.929
		c-7.721-5.257-12.057-14.321-12.905-18.004c1.059,1,2.509,2.228,4.455,3.367c0.518,0.304,1.062,0.601,1.653,0.885
		c3.854,1.851,9.33,3.171,17.129,2.274C845.354,103.875,846.04,102.904,845.814,101.909z M833.551,85.057
		c-0.247,1.239-0.732,2.402-1.421,3.421c-1.306,1.933-3.319,3.351-5.728,3.786c-0.764,0.138-1.517,0.158-2.252,0.092
		c-1.677-0.148-3.243-0.794-4.536-1.818c-0.778-0.617-1.456-1.37-2-2.235c-0.64-1.018-1.093-2.185-1.298-3.465
		c-0.001-0.005-0.001-0.009-0.001-0.014c-0.782-4.96,2.45-9.678,7.225-10.54c1.886-0.34,3.727-0.021,5.317,0.787
		c1.429,0.724,2.655,1.84,3.521,3.25c0.613,1,1.047,2.143,1.245,3.39C833.806,82.854,833.766,83.983,833.551,85.057z"/>
	<path fill="#3651A2" d="M819.148,66.6c-0.516-0.246-1.037-0.479-1.563-0.704c0.525,0.224,1.044,0.462,1.558,0.708
		C819.145,66.603,819.146,66.602,819.148,66.6z"/>
	<path fill="#3651A2" d="M811.264,63.818c-0.002,0.003-0.003,0.007-0.007,0.01c0.302,0.071,0.603,0.143,0.9,0.22
		C811.86,63.97,811.562,63.888,811.264,63.818z"/>
	<path fill="#3651A2" d="M817.479,65.849c-0.015-0.006-0.028-0.012-0.043-0.018c-1.512-0.638-3.066-1.185-4.655-1.626
		c-0.002,0.001-0.003,0.001-0.004,0.004c-0.205-0.058-0.414-0.106-0.62-0.16c1.858,0.484,3.672,1.099,5.428,1.848
		C817.549,65.881,817.516,65.864,817.479,65.849z"/>
	<polygon fill="#3651A2" points="724.096,136.746 721.263,118.954 724.125,136.932 724.327,136.579 	"/>
	<path opacity="0.4" fill="#FAFBFB" d="M817.585,65.896c-1.756-0.749-3.569-1.363-5.428-1.848c-0.298-0.078-0.599-0.149-0.9-0.22
		c-0.002,0.005-0.004,0.01-0.006,0.014c-0.798-0.189-1.604-0.344-2.416-0.482c-1.711-0.292-3.45-0.466-5.213-0.522
		c-0.491-0.016-0.984-0.026-1.479-0.023c-0.312,0.003-0.627,0.006-0.942,0.016c-0.377,0.013-0.754,0.03-1.132,0.054
		c-0.45,0.028-0.901,0.066-1.353,0.11c-0.289,0.028-0.578,0.052-0.869,0.087c-0.761,0.091-1.521,0.199-2.286,0.337
		c-2.234,0.404-4.56,1.273-6.934,2.495c-11.309,5.82-23.712,19.806-32.709,31.411c-5.009,6.463-8.965,12.186-11.08,15.341
		l-5.759-1.64l-14.403-4.101l-5.58-1.588l0.461,2.896l3.749,1.066l14.403,4.101l5.593,1.594l7.77,2.211l-2.692,1.951l-0.021,0.015
		l-24.03,17.406l-0.202,0.353l0.432,2.712l26.036-18.857l3.729-2.701l29.37-5.306l-1.06-4.368l-0.136-0.557
		c-5.573,0.171-13.931-0.147-14.264-2.236c-0.318-1.996,6.783-5.041,12.054-6.874l-1.282-5.282l4.714,4.178
		c0.717-0.207,1.291-0.353,1.651-0.418c2.737-0.493,5.324,1.411,5.777,4.255c0.142,0.888,0.036,1.75-0.227,2.547l6.511,5.772
		c1.582-1.122,2.464-3.089,2.078-5.122c-0.49-2.587-1.271-5.871-2.473-9.157c-0.66-1.806-1.149-3.607-1.51-5.348
		c-1.125-5.454-0.903-10.274-0.102-12.479c0.055-0.151,0.112-0.291,0.173-0.417c1.893-3.958,5.8-5.544,9.149-5.197
		c2.464,0.256,4.295,1.367,5.709,2.6c1.015,0.884,1.821,1.829,2.463,2.574c1.115-5.037,2.904-7.603,5.376-9.891
		c0.273-0.254,0.556-0.506,0.847-0.756C818.629,66.358,818.11,66.12,817.585,65.896z"/>
	<path fill="#47C1C7" d="M748.346,119.164c-2.847-2.073-4.696-3.512-5.117-3.841c0.407,0.318,2.254,1.755,5.129,3.85l0.021-0.015
		L748.346,119.164z"/>
	<path opacity="0.8" fill="#FAFBFB" d="M748.379,119.158l2.692-1.951l-7.77-2.211l-5.593-1.594l-14.403-4.101l-3.749-1.066
		l0.943,5.926l0.763,4.793l2.833,17.792l0.231-0.167l24.03-17.406c0,0-2.858-2.082-0.012-0.009L748.379,119.158z"/>
	<g opacity="0.2">
		<path fill="#FAFBFB" d="M768.233,105.618c0.333,2.089,8.69,2.407,14.264,2.236l-2.21-9.11
			C775.017,100.577,767.915,103.622,768.233,105.618z"/>
		<path fill="#FAFBFB" d="M791.147,101.478c-0.453-2.844-3.04-4.748-5.777-4.255c-0.36,0.065-0.935,0.211-1.651,0.418l7.202,6.384
			C791.184,103.228,791.289,102.365,791.147,101.478z"/>
	</g>
	<polygon opacity="0.2" fill="#FAFBFB" points="806.446,117.786 797.432,109.797 790.921,104.024 783.719,97.641 779.005,93.463 
		780.287,98.745 782.497,107.854 780.55,99.825 788.735,106.846 793.571,110.993 802.204,118.398 784.727,117.04 785.529,120.35 
		792.45,120.9 811.685,122.43 	"/>
	<polygon fill="#47C1C7" points="784.726,117.04 784.727,117.04 783.692,112.779 	"/>
	<polygon opacity="0.8" fill="#FAFBFB" points="793.571,110.993 788.735,106.846 780.55,99.825 782.497,107.854 782.633,108.411 
		783.692,112.779 784.727,117.04 802.204,118.398 	"/>
	<path fill="#FAFBFB" d="M833.623,81.71c-0.198-1.247-0.632-2.391-1.245-3.39c-0.865-1.41-2.092-2.526-3.521-3.25
		c-1.591-0.808-3.432-1.127-5.317-0.787c-4.774,0.862-8.007,5.58-7.225,10.54c0,0.005,0,0.009,0.001,0.014
		c0.205,1.28,0.658,2.447,1.298,3.465c0.544,0.865,1.222,1.618,2,2.235c1.293,1.024,2.859,1.67,4.536,1.818
		c0.735,0.065,1.488,0.045,2.252-0.092c2.408-0.435,4.422-1.853,5.728-3.786c0.688-1.019,1.174-2.182,1.421-3.421
		C833.766,83.983,833.806,82.854,833.623,81.71z M828.817,85.027c-0.657,1.385-1.957,2.401-3.54,2.548
		c-2.399,0.223-4.502-1.617-4.699-4.112c-0.196-2.495,1.592-4.699,3.992-4.922c1.098-0.103,2.123,0.243,2.942,0.869
		c0.972,0.743,1.651,1.888,1.757,3.241C829.336,83.501,829.158,84.311,828.817,85.027z"/>
	<path opacity="0" fill="#FAFBFB" d="M827.513,79.41c-0.819-0.626-1.845-0.972-2.942-0.869c-2.4,0.223-4.188,2.428-3.992,4.922
		c0.197,2.495,2.3,4.334,4.699,4.112c1.583-0.147,2.883-1.164,3.54-2.548c0.341-0.716,0.519-1.525,0.452-2.376
		C829.164,81.298,828.484,80.153,827.513,79.41z"/>
	<path opacity="0.1" fill="#FAFBFB" d="M823.914,67.065c-0.35-0.489-1.03-0.604-1.521-0.254c0,0-0.208,0.148-0.572,0.409
		c-0.173,0.125-0.386,0.277-0.623,0.446c-0.013,0.009-0.021,0.015-0.033,0.024c-0.255,0.181-0.508,0.427-0.799,0.673
		c-0.146,0.125-0.295,0.256-0.449,0.39c-0.101,0.089-0.198,0.196-0.296,0.299c-0.05,0.052-0.1,0.1-0.152,0.152
		c-0.151,0.155-0.307,0.316-0.465,0.482c-0.077,0.083-0.161,0.162-0.235,0.251c-0.074,0.089-0.146,0.182-0.224,0.273
		c-0.291,0.371-0.621,0.73-0.887,1.147c-0.14,0.203-0.28,0.408-0.422,0.612c-0.146,0.202-0.258,0.427-0.389,0.639
		c-0.124,0.215-0.253,0.425-0.371,0.642c-0.109,0.221-0.22,0.441-0.326,0.661c-0.231,0.428-0.395,0.879-0.578,1.3
		c-0.162,0.432-0.318,0.847-0.443,1.25c-0.121,0.403-0.235,0.781-0.319,1.137c-0.095,0.354-0.154,0.683-0.215,0.971
		c-0.053,0.293-0.097,0.546-0.124,0.758c-0.06,0.418-0.071,0.658-0.071,0.658s0.046-0.236,0.163-0.64
		c0.055-0.202,0.135-0.447,0.225-0.724c0.102-0.275,0.204-0.587,0.347-0.918c0.13-0.334,0.292-0.686,0.464-1.057
		c0.176-0.369,0.382-0.749,0.595-1.139c0.234-0.378,0.448-0.78,0.722-1.157c0.13-0.192,0.264-0.384,0.396-0.575
		c0.141-0.188,0.289-0.369,0.434-0.553c0.149-0.18,0.279-0.374,0.442-0.541c0.157-0.17,0.314-0.341,0.469-0.508
		c0.296-0.349,0.646-0.633,0.958-0.932c0.079-0.074,0.158-0.146,0.235-0.217c0.079-0.072,0.165-0.132,0.245-0.197
		c0.013-0.01,0.024-0.019,0.036-0.029c0.152-0.118,0.299-0.232,0.444-0.345c0.156-0.119,0.299-0.245,0.454-0.346
		c0.156-0.1,0.307-0.197,0.449-0.29c0.291-0.18,0.541-0.365,0.788-0.493s0.462-0.239,0.637-0.332
		c0.113-0.059,0.204-0.106,0.283-0.148c0.169-0.088,0.268-0.139,0.268-0.139l0.086-0.047c0.042-0.021,0.083-0.047,0.122-0.076
		C824.151,68.236,824.265,67.555,823.914,67.065z"/>
</g>
</svg>
