<?xml version="1.0" encoding="utf-8"?>
<!-- Generator: Adobe Illustrator 22.1.0, SVG Export Plug-In . SVG Version: 6.00 Build 0)  -->
<svg version="1.1" id="Layer_1" xmlns="http://www.w3.org/2000/svg" xmlns:xlink="http://www.w3.org/1999/xlink" x="0px" y="0px"
	 viewBox="0 0 200 400" style="enable-background:new 0 0 200 400;" xml:space="preserve">
<style type="text/css">
	.st0{fill:#FAFBFB;}
	.st1{opacity:0.9;fill:#FAFBFB;enable-background:new    ;}
	.st2{opacity:0.75;fill:#FAFBFB;enable-background:new    ;}
	.st3{opacity:0.62;fill:#FAFBFB;enable-background:new    ;}
	.st4{fill:#666666;}
	.st5{opacity:0.9;fill:#666666;enable-background:new    ;}
	.st6{opacity:0.75;fill:#666666;enable-background:new    ;}
	.st7{opacity:0.62;fill:#666666;enable-background:new    ;}
</style>
<g>
	<path class="st0" d="M100,234.9c-39.2,0-71.1,31.8-71.1,71.1c0,24.7,12.6,46.4,31.6,59.1c-14.3-11.5-23.5-29.2-23.5-49
		c0-34.7,28.2-62.9,62.9-62.9c34.8,0,62.9,28.2,62.9,62.9c0,19.7-9.1,37.4-23.3,48.9c19-12.8,31.4-34.4,31.4-59
		C171.1,266.7,139.3,234.9,100,234.9"/>
	<path class="st1" d="M100,264.6c-28.6,0-51.8,23.2-51.8,51.8c0,18,9.2,33.8,23.1,43.1c-10.5-8.4-17.2-21.3-17.2-35.8
		c0-25.3,20.5-45.9,45.9-45.9c25.3,0,45.9,20.5,45.9,45.9c0,14.4-6.7,27.2-17,35.7c13.8-9.3,23-25.1,23-43
		C151.8,287.7,128.6,264.6,100,264.6"/>
	<path class="st2" d="M100,289.1c-19.2,0-34.8,15.6-34.8,34.8c0,12,6.1,22.6,15.4,28.9c-7-5.6-11.4-14.3-11.4-23.9
		c0-17,13.8-30.8,30.8-30.8c17,0,30.8,13.8,30.8,30.8c0,9.6-4.4,18.2-11.4,23.9c9.3-6.2,15.3-16.8,15.3-28.8
		C134.7,304.6,119.2,289.1,100,289.1"/>
	<path class="st3" d="M100,308.9c-10.7,0-19.4,8.7-19.4,19.4c0,6.7,3.4,12.6,8.6,16.1c-3.9-3.2-6.4-8-6.4-13.4
		c0-9.5,7.7-17.2,17.2-17.2c9.5,0,17.2,7.7,17.2,17.2c0,5.4-2.5,10.2-6.4,13.4c5.2-3.5,8.6-9.4,8.6-16.1
		C119.5,317.6,110.8,308.9,100,308.9"/>
</g>
<g>
	<path class="st4" d="M100,34.9c-39.2,0-71.1,31.8-71.1,71.1c0,24.7,12.6,46.4,31.6,59.1c-14.3-11.5-23.5-29.2-23.5-49
		c0-34.7,28.2-62.9,62.9-62.9c34.8,0,62.9,28.2,62.9,62.9c0,19.7-9.1,37.4-23.3,48.9c19-12.8,31.4-34.4,31.4-59
		C171.1,66.7,139.3,34.9,100,34.9"/>
	<path class="st5" d="M100,64.6c-28.6,0-51.8,23.2-51.8,51.8c0,18,9.2,33.8,23.1,43.1c-10.5-8.4-17.2-21.3-17.2-35.8
		c0-25.3,20.5-45.9,45.9-45.9c25.3,0,45.9,20.5,45.9,45.9c0,14.4-6.7,27.2-17,35.7c13.8-9.3,23-25.1,23-43
		C151.8,87.7,128.6,64.6,100,64.6"/>
	<path class="st6" d="M100,89.1c-19.2,0-34.8,15.6-34.8,34.8c0,12,6.1,22.7,15.4,28.9c-7-5.6-11.4-14.3-11.4-23.9
		C69.3,111.8,83,98,100,98c17,0,30.8,13.8,30.8,30.8c0,9.6-4.4,18.2-11.4,23.9c9.3-6.2,15.3-16.8,15.3-28.8
		C134.7,104.6,119.2,89.1,100,89.1"/>
	<path class="st7" d="M100,108.9c-10.7,0-19.4,8.7-19.4,19.4c0,6.7,3.4,12.6,8.6,16.1c-3.9-3.2-6.4-8-6.4-13.4
		c0-9.5,7.7-17.2,17.2-17.2c9.5,0,17.2,7.7,17.2,17.2c0,5.4-2.5,10.2-6.4,13.4c5.2-3.5,8.6-9.4,8.6-16.1
		C119.5,117.6,110.8,108.9,100,108.9"/>
</g>
</svg>
