<?xml version="1.0" encoding="utf-8"?>
<!-- Generator: Adobe Illustrator 15.0.0, SVG Export Plug-In . SVG Version: 6.00 Build 0)  -->
<!DOCTYPE svg PUBLIC "-//W3C//DTD SVG 1.1//EN" "http://www.w3.org/Graphics/SVG/1.1/DTD/svg11.dtd">
<svg version="1.1" id="Layer_1" xmlns="http://www.w3.org/2000/svg" xmlns:xlink="http://www.w3.org/1999/xlink" x="0px" y="0px"
	 width="200px" height="200px" viewBox="453.5 -0.479 200 200" enable-background="new 453.5 -0.479 200 200" xml:space="preserve">
<g>
	<path fill="#FAFBFB" d="M553.507,34.428c-39.249,0-71.079,31.822-71.079,71.066c0,24.656,12.565,46.368,31.63,59.12
		c-14.294-11.53-23.452-29.187-23.452-49.007c0-34.741,28.172-62.905,62.901-62.905c34.769,0,62.938,28.164,62.938,62.905
		c0,19.743-9.09,37.351-23.309,48.885c18.96-12.764,31.436-34.417,31.436-58.998C624.572,66.25,592.753,34.428,553.507,34.428"/>
	<path opacity="0.9" fill="#FAFBFB" d="M553.507,64.075c-28.618,0-51.816,23.191-51.816,51.804c0,17.997,9.183,33.832,23.113,43.13
		c-10.453-8.418-17.155-21.294-17.155-35.753c0-25.329,20.535-45.853,45.858-45.853c25.345,0,45.888,20.523,45.888,45.853
		c0,14.409-6.659,27.248-17.049,35.664c13.846-9.302,22.963-25.104,22.963-43.041C605.309,87.267,582.115,64.075,553.507,64.075"/>
	<path opacity="0.75" fill="#FAFBFB" d="M553.507,88.597c-19.19,0-34.751,15.562-34.751,34.75c0,12.043,6.133,22.65,15.438,28.88
		c-6.974-5.64-11.441-14.258-11.441-23.938c0-16.981,13.77-30.751,30.754-30.751c16.997,0,30.775,13.77,30.775,30.751
		c0,9.641-4.431,18.234-11.367,23.877c9.251-6.243,15.325-16.822,15.325-28.818C588.24,104.158,572.695,88.597,553.507,88.597"/>
	<path opacity="0.62" fill="#FAFBFB" d="M553.507,108.452c-10.731,0-19.429,8.706-19.429,19.44c0,6.724,3.409,12.646,8.594,16.14
		c-3.888-3.163-6.371-7.969-6.371-13.368c0-9.507,7.701-17.206,17.206-17.206c9.511,0,17.218,7.699,17.218,17.206
		c0,5.399-2.483,10.205-6.363,13.366c5.185-3.491,8.59-9.414,8.59-16.138C572.951,117.158,564.251,108.452,553.507,108.452"/>
</g>
</svg>
