<?xml version="1.0" encoding="utf-8"?>
<!-- Generator: Adobe Illustrator 22.1.0, SVG Export Plug-In . SVG Version: 6.00 Build 0)  -->
<svg version="1.1" id="Layer_1" xmlns="http://www.w3.org/2000/svg" xmlns:xlink="http://www.w3.org/1999/xlink" x="0px" y="0px"
	 viewBox="0 0 200 402.3" style="enable-background:new 0 0 200 402.3;" xml:space="preserve">
<style type="text/css">
	.st0{fill:#FAFBFB;}
	.st1{opacity:0.44;fill:#FAFBFB;enable-background:new    ;}
	.st2{opacity:0.9;fill:#FAFBFB;enable-background:new    ;}
	.st3{opacity:0.6;fill:#666666;enable-background:new    ;}
	.st4{opacity:0.25;}
	.st5{fill:#666666;}
	.st6{opacity:0.4;}
</style>
<g>
	<path class="st0" d="M158.6,264.8c-0.8-14.1-4.9-29.2-15.9-39.2c-11-10-42.6-8.4-42.6-8.4s-31.6-1.5-42.6,8.4
		c-11,10-15.1,25.1-15.9,39.2c0,0.2,0,0.3,0,0.5h117C158.7,265.1,158.7,265,158.6,264.8z"/>
	<g>
		<polygon class="st0" points="29.6,289 28.9,295.6 31.6,296.9 32.4,287.6 		"/>
	</g>
	<g>
		<polygon class="st0" points="172.1,289.1 172.9,295.7 170.2,297 169.3,287.7 		"/>
	</g>
	<polygon class="st1" points="160.5,265.7 100.8,265.7 41,265.7 39.5,274.4 100.8,274.4 162.1,274.4 	"/>
	<path class="st0" d="M37,309.5c0.1-0.1,0.3-0.3,0.4-0.4c1.5-2.1,1.7-16.5,1.1-31.5c1.3-0.3,2.5-0.4,2.9-0.5c0,0,0,0,0,0
		s-6.5,0.4-6.7,3.5c-0.4,4.9-2,19.7-1.8,21.5l2,4.9c-2.5,2-14.9,11.8-11.4,26.7c0.8,3.3,2.7,6.3,5,8.8C25,332.8,25.3,321.2,37,309.5
		z"/>
	<path class="st0" d="M167.3,306.9l2-4.9c0.3-1.8-1.4-16.6-1.8-21.5c-0.3-3.1-6.7-3.5-6.7-3.5s0,0,0,0c0.4,0,1.7,0.1,2.9,0.5
		c-0.6,15.1-0.4,29.4,1.1,31.5c0.1,0.1,0.2,0.2,0.4,0.4c11.7,11.7,12,23.4,8.5,32.9c2.3-2.5,4.3-5.5,5-8.8
		C182.2,318.7,169.8,308.9,167.3,306.9z"/>
	<path class="st0" d="M162.5,312.2c-0.2-0.2-0.4-0.4-0.5-0.5l-0.1-0.1c-3.1-3.7-1.2-34.5-1.2-34.5h0c-0.1-0.2-0.2-0.7-0.4-2.1H41.9
		c-0.2,1.4-0.3,1.9-0.4,2.1c0,0,1.8,30.8-1.2,34.5l-0.1,0.1c-0.1,0.1-0.3,0.3-0.5,0.5c-11,11-12.3,23.2-3.9,36.4
		c1.9,1.3,3.2,2,3.2,2s3.1,20.5,10.2,25.9s21.3,10.5,33,7.2c2-0.6,4.1-5.6,7.7-7.4c-0.9,0.4-1.7,1.1-2.4,1.8v-14.9h3.8v12.5
		c-0.1,0-0.2,0.1-0.2,0.1c0.6-0.2,1.3-0.3,2-0.5c0,0-0.1,0-0.1,0v-22.9h3.8v22.6c0,0-0.1,0-0.1,0c0.9,0,1.7,0,2.4,0v-25.7h1.9h1.9
		V375c-0.6,0-1.2,0-1.9,0c0.7,0,1.3,0,1.9,0c0.7,0,1.5,0,2.4,0c0,0-0.1,0-0.1,0v-22.6h3.8v22.9c0,0-0.1,0-0.1,0
		c0.7,0.1,1.4,0.3,2,0.4c-0.1,0-0.2-0.1-0.2-0.1v-12.5h3.8V378c2.2,2.2,3.7,5.1,5.2,5.6c11.7,3.4,25.9-1.8,33-7.2
		c7.2-5.4,10.2-25.9,10.2-25.9s1.3-0.7,3.2-2C174.8,335.4,173.5,323.2,162.5,312.2z M109.2,295.2c0.1-3.6,6.4-3.7,10.3,1.4
		c3.8,5.1,4.2,22,4.2,22c0.1,3.1-8.5-3.2-12.7-5.6C106.8,310.4,109.1,298.8,109.2,295.2z M92.4,295.2c0.1,3.6,2.4,15.2-1.8,17.7
		c-4.2,2.4-12.8,8.8-12.7,5.6c0,0,0.4-16.9,4.2-22C85.9,291.5,92.2,291.6,92.4,295.2z M33.6,328.2l8.4-5.1l2.5,4.1l-8.4,5.1
		L33.6,328.2z M39,337.5l-2.5-4.1l8.4-5.1l2.5,4.1L39,337.5z M42.3,342.1l-2.5-4.1l8.4-5.1l2.5,4.1L42.3,342.1z M49,318.5
		c0,0-5.1-6.1-2-23.3c0,0,4.4,10,6.9,11.3C56.5,307.8,49,318.5,49,318.5z M51.8,279.9c1.5-1.3,37.6-3.1,37.6-1.3
		c0,2.7-28.7,17.4-31.5,17.4C53.6,296,50.3,281.2,51.8,279.9z M71.6,378c-4.7,0-8.4-3.8-8.4-8.4s3.8-8.4,8.4-8.4
		c4.7,0,8.4,3.8,8.4,8.4C80,374.3,76.2,378,71.6,378z M102.2,319.9c-0.5-0.1-1.1-0.1-1.1-0.1s-0.6,0-1.1,0.1
		c-2,0.2-9.8,2.8-18.5,7.8c-5.8,3.3-13.3,3.3-13.3,3.3s5.1-1.6,11.8-6.5c7.9-5.8,13.6-11,19.8-11.6c0.2,0,1.1,0,1.3,0
		c0.2,0,1.1,0,1.3,0c6.2,0.6,11.8,5.8,19.8,11.6c6.7,4.9,11.8,6.5,11.8,6.5s-7.6,0-13.3-3.3C112,322.7,104.2,320.2,102.2,319.9z
		 M130.6,378c-4.7,0-8.4-3.8-8.4-8.4s3.8-8.4,8.4-8.4c4.7,0,8.4,3.8,8.4,8.4C139.1,374.3,135.3,378,130.6,378z M144.2,296
		c-2.8,0-31.5-14.7-31.5-17.4c0-1.9,36.1,0,37.6,1.3C151.9,281.2,148.5,296,144.2,296z M148.3,306.5c2.6-1.3,6.9-11.3,6.9-11.3
		c3.1,17.2-2,23.3-2,23.3S145.7,307.8,148.3,306.5z M159.8,342.1l-8.4-5.1l2.5-4.1l8.4,5.1L159.8,342.1z M163.2,337.5l-8.4-5.1
		l2.5-4.1l8.4,5.1L163.2,337.5z M166.1,332.3l-8.4-5.1l2.5-4.1l8.4,5.1L166.1,332.3z"/>
	<path class="st2" d="M82.1,296.5c-3.8,5.1-4.2,22-4.2,22c-0.1,3.1,8.5-3.2,12.7-5.6c4.2-2.4,1.9-14.1,1.8-17.7
		C92.2,291.6,85.9,291.5,82.1,296.5z"/>
	<path class="st2" d="M111,312.8c4.2,2.4,12.8,8.8,12.7,5.6c0,0-0.4-16.9-4.2-22c-3.8-5.1-10.2-4.9-10.3-1.4
		C109.1,298.8,106.8,310.4,111,312.8z"/>
</g>
<g>
	<polygon class="st3" points="160.5,64.6 100.8,64.6 41,64.6 39.5,73.3 100.8,73.3 162.1,73.3 	"/>
	<g class="st4">
		<path class="st5" d="M158.6,63.6c-0.8-14.1-4.9-29.2-15.9-39.2c-11-10-42.6-8.4-42.6-8.4s-31.6-1.5-42.6,8.4
			c-11,10-15.1,25.1-15.9,39.2c0,0.2,0,0.3,0,0.5h117C158.7,64,158.7,63.8,158.6,63.6z"/>
		<g>
			<polygon class="st5" points="29.6,87.9 28.9,94.5 31.6,95.8 32.4,86.5 			"/>
		</g>
		<g>
			<polygon class="st5" points="172.1,88 172.9,94.5 170.2,95.9 169.3,86.6 			"/>
		</g>
		<path class="st5" d="M37,108.3c0.1-0.1,0.3-0.3,0.4-0.4c1.5-2.1,1.7-16.5,1.1-31.5c1.3-0.3,2.5-0.4,2.9-0.5c0,0,0,0,0,0
			s-6.5,0.4-6.7,3.5c-0.4,4.9-2,19.7-1.8,21.5l2,4.9c-2.5,2-14.9,11.8-11.4,26.7c0.8,3.3,2.7,6.3,5,8.8C25,131.7,25.3,120,37,108.3z
			"/>
		<g>
			<g>
				<path class="st5" d="M167.3,105.8l2-4.9c0.3-1.8-1.4-16.6-1.8-21.5c-0.3-3.1-6.7-3.5-6.7-3.5s0,0,0,0c0.4,0,1.7,0.1,2.9,0.5
					c-0.6,15.1-0.4,29.4,1.1,31.5c0.1,0.1,0.2,0.2,0.4,0.4c11.7,11.7,12,23.4,8.5,32.9c2.3-2.5,4.3-5.5,5-8.8
					C182.2,117.5,169.8,107.8,167.3,105.8z"/>
			</g>
		</g>
		<path class="st5" d="M162,110.5l-0.1-0.1c-3.1-3.7-1.2-34.5-1.2-34.5h0c-0.1-0.2-0.2-0.7-0.4-2.1H41.9c-0.2,1.4-0.3,1.9-0.4,2.1
			c0,0,1.8,30.8-1.2,34.5l-0.1,0.1c-0.1,0.1-0.3,0.3-0.5,0.5c-11,11-12.3,23.2-3.9,36.4c1.9,1.3,3.2,2,3.2,2s3.1,20.5,10.2,25.9
			c7.2,5.4,21.3,10.5,33,7.2c2-0.6,4.1-5.6,7.7-7.4c-0.9,0.4-1.7,1.1-2.4,1.8v-14.9h3.8v12.5c-0.1,0-0.2,0.1-0.2,0.1
			c0.6-0.2,1.3-0.3,2-0.5c0,0-0.1,0-0.1,0v-22.9h3.8v22.6c0,0-0.1,0-0.1,0c0.9,0,1.7,0,2.4,0v-25.7h1.9h1.9v25.7c-0.6,0-1.2,0-1.9,0
			c0.7,0,1.3,0,1.9,0c0.7,0,1.5,0,2.4,0c0,0-0.1,0-0.1,0v-22.6h3.8v22.9c0,0-0.1,0-0.1,0c0.7,0.1,1.4,0.3,2,0.4
			c-0.1,0-0.2-0.1-0.2-0.1v-12.5h3.8v14.9c2.2,2.2,3.7,5.1,5.2,5.6c11.7,3.4,25.9-1.8,33-7.2c7.2-5.4,10.2-25.9,10.2-25.9
			s1.3-0.7,3.2-2c8.4-13.2,7.1-25.4-3.9-36.4C162.3,110.8,162.1,110.7,162,110.5z M109.2,94.1c0.1-3.6,6.4-3.7,10.3,1.4
			c3.8,5.1,4.2,22,4.2,22c0.1,3.1-8.5-3.2-12.7-5.6C106.8,109.3,109.1,97.6,109.2,94.1z M92.4,94.1c0.1,3.6,2.4,15.2-1.8,17.7
			c-4.2,2.4-12.8,8.8-12.7,5.6c0,0,0.4-16.9,4.2-22C85.9,90.3,92.2,90.5,92.4,94.1z M33.6,127.1L42,122l2.5,4.1l-8.4,5.1L33.6,127.1
			z M39,136.3l-2.5-4.1l8.4-5.1l2.5,4.1L39,136.3z M42.3,140.9l-2.5-4.1l8.4-5.1l2.5,4.1L42.3,140.9z M49,117.4c0,0-5.1-6.1-2-23.3
			c0,0,4.4,10,6.9,11.3C56.5,106.6,49,117.4,49,117.4z M51.8,78.8c1.5-1.3,37.6-3.1,37.6-1.3c0,2.7-28.7,17.4-31.5,17.4
			C53.6,94.9,50.3,80.1,51.8,78.8z M71.6,176.9c-4.7,0-8.4-3.8-8.4-8.4c0-4.7,3.8-8.4,8.4-8.4c4.7,0,8.4,3.8,8.4,8.4
			C80,173.1,76.2,176.9,71.6,176.9z M102.2,118.8c-0.5-0.1-1.1-0.1-1.1-0.1s-0.6,0-1.1,0.1c-2,0.2-9.8,2.8-18.5,7.8
			c-5.8,3.3-13.3,3.3-13.3,3.3s5.1-1.6,11.8-6.5c7.9-5.8,13.6-11,19.8-11.6c0.2,0,1.1,0,1.3,0c0.2,0,1.1,0,1.3,0
			c6.2,0.6,11.8,5.8,19.8,11.6c6.7,4.9,11.8,6.5,11.8,6.5s-7.6,0-13.3-3.3C112,121.6,104.2,119,102.2,118.8z M130.6,176.9
			c-4.7,0-8.4-3.8-8.4-8.4c0-4.7,3.8-8.4,8.4-8.4c4.7,0,8.4,3.8,8.4,8.4C139.1,173.1,135.3,176.9,130.6,176.9z M144.2,94.9
			c-2.8,0-31.5-14.7-31.5-17.4c0-1.9,36.1,0,37.6,1.3C151.9,80.1,148.5,94.9,144.2,94.9z M148.3,105.4c2.6-1.3,6.9-11.3,6.9-11.3
			c3.1,17.2-2,23.3-2,23.3S145.7,106.6,148.3,105.4z M159.8,140.9l-8.4-5.1l2.5-4.1l8.4,5.1L159.8,140.9z M163.2,136.3l-8.4-5.1
			l2.5-4.1l8.4,5.1L163.2,136.3z M166.1,131.2l-8.4-5.1l2.5-4.1l8.4,5.1L166.1,131.2z"/>
	</g>
	
		<rect x="40.4" y="133.9" transform="matrix(0.8525 -0.5227 0.5227 0.8525 -64.5882 43.7723)" class="st5" width="9.8" height="4.8"/>
	<path class="st5" d="M53.9,105.4c-2.6-1.3-6.9-11.3-6.9-11.3c-3.1,17.1,2,23.3,2,23.3S56.5,106.6,53.9,105.4z"/>
	<path class="st5" d="M71.6,160c-4.7,0-8.4,3.8-8.4,8.4c0,4.7,3.8,8.4,8.4,8.4c4.7,0,8.4-3.8,8.4-8.4C80,163.8,76.2,160,71.6,160z"
		/>
	<path class="st5" d="M89.5,77.5c0-1.9-36.1,0-37.6,1.3c-1.5,1.3,1.8,16.1,6.1,16.1C60.8,94.9,89.5,80.2,89.5,77.5z"/>
	<g class="st6">
		<path class="st5" d="M111,111.7c4.2,2.4,12.8,8.8,12.7,5.6c0,0-0.4-16.9-4.2-22c-3.8-5.1-10.2-4.9-10.3-1.4
			C109.1,97.6,106.8,109.3,111,111.7z"/>
		<path class="st5" d="M82.1,95.4c-3.8,5.1-4.2,22-4.2,22c-0.1,3.1,8.5-3.2,12.7-5.6c4.2-2.4,1.9-14.1,1.8-17.7
			C92.2,90.5,85.9,90.3,82.1,95.4z"/>
	</g>
	<rect x="37" y="129.3" transform="matrix(0.8526 -0.5225 0.5225 0.8526 -62.6562 41.3032)" class="st5" width="9.8" height="4.8"/>
	
		<rect x="34.2" y="124.2" transform="matrix(0.8526 -0.5226 0.5226 0.8526 -60.4131 39.0766)" class="st5" width="9.8" height="4.8"/>
	<path class="st5" d="M122.2,123.4c-7.9-5.8-13.6-11-19.8-11.6c-0.2,0-1.1,0-1.3,0c-0.2,0-1.1,0-1.3,0c-6.2,0.6-11.8,5.8-19.8,11.6
		c-6.7,4.9-11.8,6.5-11.8,6.5s7.5,0,13.3-3.3c8.6-5,16.5-7.6,18.5-7.8c0.5-0.1,1.1-0.1,1.1-0.1s0.6,0,1.1,0.1
		c2,0.2,9.8,2.8,18.5,7.8c5.8,3.3,13.3,3.3,13.3,3.3S128.9,128.3,122.2,123.4z"/>
	
		<rect x="157.9" y="126.8" transform="matrix(0.5226 -0.8526 0.8526 0.5226 -35.783 199.5544)" class="st5" width="4.8" height="9.8"/>
	<path class="st5" d="M130.6,160c-4.7,0-8.4,3.8-8.4,8.4c0,4.7,3.8,8.4,8.4,8.4c4.7,0,8.4-3.8,8.4-8.4
		C139.1,163.8,135.3,160,130.6,160z"/>
	
		<rect x="160.7" y="121.7" transform="matrix(0.5226 -0.8526 0.8526 0.5226 -30.0667 199.5177)" class="st5" width="4.8" height="9.8"/>
	<path class="st5" d="M150.3,78.8c-1.5-1.3-37.6-3.1-37.6-1.3c0,2.7,28.7,17.4,31.5,17.4C148.5,94.9,151.9,80.1,150.3,78.8z"/>
	
		<rect x="154.5" y="131.4" transform="matrix(0.5225 -0.8527 0.8527 0.5225 -41.3182 198.8946)" class="st5" width="4.8" height="9.8"/>
	<path class="st5" d="M155.2,94.1c0,0-4.3,10-6.9,11.3c-2.6,1.3,4.9,12,4.9,12S158.3,111.3,155.2,94.1z"/>
</g>
</svg>
