<?xml version="1.0" encoding="utf-8"?>
<!-- Generator: Adobe Illustrator 15.0.0, SVG Export Plug-In . SVG Version: 6.00 Build 0)  -->
<!DOCTYPE svg PUBLIC "-//W3C//DTD SVG 1.1//EN" "http://www.w3.org/Graphics/SVG/1.1/DTD/svg11.dtd">
<svg version="1.1" id="Layer_1" xmlns="http://www.w3.org/2000/svg" xmlns:xlink="http://www.w3.org/1999/xlink" x="0px" y="0px"
	 width="200px" height="200px" viewBox="453.5 -0.479 200 200" enable-background="new 453.5 -0.479 200 200" xml:space="preserve">
<g>
	
		<rect x="436.548" y="129.31" transform="matrix(-0.8526 0.5225 -0.5225 -0.8526 886.6541 13.3433)" fill="none" width="9.795" height="4.799"/>
</g>
<g>
	
		<rect x="433.714" y="124.229" transform="matrix(-0.8525 0.5227 -0.5227 -0.8525 878.73 5.3356)" fill="none" width="9.796" height="4.799"/>
</g>
<g>
	
		<rect x="442.397" y="131.434" transform="matrix(0.5226 0.8526 -0.8526 0.5226 328.6046 -314.1452)" fill="none" width="4.799" height="9.796"/>
</g>
<g>
	<g>
		<defs>
			<rect id="SVGID_1_" x="453.049" y="-1.606" width="200" height="200"/>
		</defs>
		<clipPath id="SVGID_2_">
			<use xlink:href="#SVGID_1_"  overflow="visible"/>
		</clipPath>
		<path clip-path="url(#SVGID_2_)" fill="#FAFBFB" d="M612.148,62.039c-0.77-14.078-4.863-29.179-15.869-39.161
			c-11.006-9.983-42.592-8.447-42.592-8.447s-31.584-1.536-42.59,8.447c-11.008,9.982-15.102,25.083-15.869,39.161
			c-0.01,0.181-0.02,0.349-0.029,0.524h116.979C612.168,62.387,612.158,62.22,612.148,62.039z"/>
	</g>
	<g>
		<defs>
			<rect id="SVGID_3_" x="453.951" y="-1.606" width="200" height="200"/>
		</defs>
		<clipPath id="SVGID_4_">
			<use xlink:href="#SVGID_3_"  overflow="visible"/>
		</clipPath>
		<path clip-path="url(#SVGID_4_)" fill="none" d="M505.346,77.172c-1.538,1.278,1.796,16.125,6.144,16.125
			c2.812,0,31.481-14.739,31.481-17.405C542.971,74.027,506.883,75.894,505.346,77.172z"/>
	</g>
	<g>
		<defs>
			<rect id="SVGID_5_" x="453.951" y="-1.606" width="200" height="200"/>
		</defs>
		<clipPath id="SVGID_6_">
			<use xlink:href="#SVGID_5_"  overflow="visible"/>
		</clipPath>
		<path clip-path="url(#SVGID_6_)" fill="none" d="M566.211,75.893c0,2.666,28.67,17.405,31.48,17.405
			c4.352,0,7.682-14.846,6.145-16.125C602.297,75.894,566.211,74.027,566.211,75.893z"/>
	</g>
	<g>
		<defs>
			<rect id="SVGID_7_" x="453.951" y="-1.606" width="200" height="200"/>
		</defs>
		<clipPath id="SVGID_8_">
			<use xlink:href="#SVGID_7_"  overflow="visible"/>
		</clipPath>
		<g clip-path="url(#SVGID_8_)">
			<polygon fill="#FAFBFB" points="483.13,86.293 482.427,92.847 485.074,94.182 485.937,84.891 			"/>
		</g>
	</g>
	<g>
		<defs>
			<rect id="SVGID_9_" x="453.951" y="-1.606" width="200" height="200"/>
		</defs>
		<clipPath id="SVGID_10_">
			<use xlink:href="#SVGID_9_"  overflow="visible"/>
		</clipPath>
		<g clip-path="url(#SVGID_10_)">
			<polygon fill="#FAFBFB" points="625.649,86.377 626.353,92.931 623.705,94.265 622.843,84.975 			"/>
		</g>
	</g>
	<g>
		<defs>
			<rect id="SVGID_11_" x="453.951" y="-1.606" width="200" height="200"/>
		</defs>
		<clipPath id="SVGID_12_">
			<use xlink:href="#SVGID_11_"  overflow="visible"/>
		</clipPath>
		<polygon opacity="0.44" clip-path="url(#SVGID_12_)" fill="#FAFBFB" enable-background="new    " points="614.036,62.995 
			554.264,62.995 494.49,62.995 492.955,71.702 554.264,71.702 615.572,71.702 		"/>
	</g>
	<g>
		<defs>
			<rect id="SVGID_13_" x="453.951" y="-1.606" width="200" height="200"/>
		</defs>
		<clipPath id="SVGID_14_">
			<use xlink:href="#SVGID_13_"  overflow="visible"/>
		</clipPath>
		<path clip-path="url(#SVGID_14_)" fill="none" d="M603.836,77.172c-1.539-1.279-37.625-3.145-37.625-1.28
			c0,2.666,28.67,17.405,31.48,17.405C602.043,93.297,605.373,78.452,603.836,77.172z"/>
	</g>
	<g>
		<defs>
			<rect id="SVGID_15_" x="453.951" y="-1.606" width="200" height="200"/>
		</defs>
		<clipPath id="SVGID_16_">
			<use xlink:href="#SVGID_15_"  overflow="visible"/>
		</clipPath>
		<circle clip-path="url(#SVGID_16_)" fill="none" cx="584.127" cy="166.853" r="8.446"/>
	</g>
	<g>
		<defs>
			<rect id="SVGID_17_" x="453.951" y="-1.606" width="200" height="200"/>
		</defs>
		<clipPath id="SVGID_18_">
			<use xlink:href="#SVGID_17_"  overflow="visible"/>
		</clipPath>
		<path clip-path="url(#SVGID_18_)" fill="none" d="M542.971,75.893c0-1.865-36.088,0.001-37.625,1.28
			c-1.538,1.278,1.796,16.125,6.144,16.125C514.301,93.297,542.971,78.559,542.971,75.893z"/>
	</g>
	<g>
		<defs>
			<rect id="SVGID_19_" x="453.951" y="-1.606" width="200" height="200"/>
		</defs>
		<clipPath id="SVGID_20_">
			<use xlink:href="#SVGID_19_"  overflow="visible"/>
		</clipPath>
		<path clip-path="url(#SVGID_20_)" fill="none" d="M575.68,121.803c-7.938-5.794-13.596-11.009-19.771-11.599
			c-0.232-0.021-1.082-0.039-1.318-0.047c-0.233,0.008-1.084,0.025-1.315,0.047c-6.176,0.59-11.836,5.805-19.773,11.599
			c-6.701,4.891-11.772,6.526-11.772,6.526s7.549-0.004,13.309-3.328c8.646-4.985,16.465-7.58,18.479-7.812
			c0.463-0.054,1.075-0.059,1.075-0.059s0.613,0.004,1.078,0.059c2.013,0.232,9.832,2.827,18.478,7.812
			c5.762,3.324,13.312,3.328,13.312,3.328S582.381,126.693,575.68,121.803z"/>
	</g>
	<g>
		<defs>
			<rect id="SVGID_21_" x="453.951" y="-1.606" width="200" height="200"/>
		</defs>
		<clipPath id="SVGID_22_">
			<use xlink:href="#SVGID_21_"  overflow="visible"/>
		</clipPath>
		<circle clip-path="url(#SVGID_22_)" fill="none" cx="525.055" cy="166.853" r="8.446"/>
	</g>
	<g>
		<defs>
			<rect id="SVGID_23_" x="453.951" y="-1.606" width="200" height="200"/>
		</defs>
		<clipPath id="SVGID_24_">
			<use xlink:href="#SVGID_23_"  overflow="visible"/>
		</clipPath>
		<path clip-path="url(#SVGID_24_)" fill="none" d="M507.391,103.76c-2.562-1.28-6.91-11.262-6.91-11.262
			c-3.07,17.15,2.049,23.292,2.049,23.292S509.951,105.04,507.391,103.76z"/>
	</g>
	<g>
		<defs>
			<rect id="SVGID_25_" x="453.951" y="-1.606" width="200" height="200"/>
		</defs>
		<clipPath id="SVGID_26_">
			<use xlink:href="#SVGID_25_"  overflow="visible"/>
		</clipPath>
		<path clip-path="url(#SVGID_26_)" fill="none" d="M608.701,92.498c0,0-4.352,9.982-6.912,11.262
			c-2.559,1.28,4.863,12.03,4.863,12.03S611.771,109.647,608.701,92.498z"/>
	</g>
	<g>
		<defs>
			<rect id="SVGID_27_" x="453.951" y="-1.606" width="200" height="200"/>
		</defs>
		<clipPath id="SVGID_28_">
			<use xlink:href="#SVGID_27_"  overflow="visible"/>
		</clipPath>
		<path clip-path="url(#SVGID_28_)" fill="#FAFBFB" d="M485.448,142.946c0.052,0.043,0.104,0.086,0.155,0.129
			C485.552,143.032,485.5,142.989,485.448,142.946z"/>
	</g>
	<g>
		<defs>
			<rect id="SVGID_29_" x="453.951" y="-1.606" width="200" height="200"/>
		</defs>
		<clipPath id="SVGID_30_">
			<use xlink:href="#SVGID_29_"  overflow="visible"/>
		</clipPath>
		<path clip-path="url(#SVGID_30_)" fill="#FAFBFB" d="M485.604,143.075c0.365,0.299,0.729,0.592,1.086,0.867
			C486.333,143.667,485.97,143.376,485.604,143.075z"/>
	</g>
	<g>
		<defs>
			<rect id="SVGID_31_" x="453.951" y="-1.606" width="200" height="200"/>
		</defs>
		<clipPath id="SVGID_32_">
			<use xlink:href="#SVGID_31_"  overflow="visible"/>
		</clipPath>
		<path clip-path="url(#SVGID_32_)" fill="#FAFBFB" d="M484.321,141.975c0.376,0.337,0.752,0.66,1.127,0.972
			C485.074,142.635,484.697,142.312,484.321,141.975z"/>
	</g>
	<g>
		<defs>
			<rect id="SVGID_33_" x="453.951" y="-1.606" width="200" height="200"/>
		</defs>
		<clipPath id="SVGID_34_">
			<use xlink:href="#SVGID_33_"  overflow="visible"/>
		</clipPath>
		<path clip-path="url(#SVGID_34_)" fill="#FAFBFB" d="M484.293,141.95c0.009,0.008,0.02,0.017,0.028,0.024
			C484.312,141.967,484.302,141.958,484.293,141.95z"/>
	</g>
	<g>
		<defs>
			<rect id="SVGID_35_" x="453.951" y="-1.606" width="200" height="200"/>
		</defs>
		<clipPath id="SVGID_36_">
			<use xlink:href="#SVGID_35_"  overflow="visible"/>
		</clipPath>
		<path clip-path="url(#SVGID_36_)" fill="#FAFBFB" d="M481.953,139.645c0.01,0.011,0.021,0.021,0.029,0.031
			c-0.01-0.011-0.021-0.022-0.03-0.034C481.952,139.644,481.953,139.644,481.953,139.645z"/>
	</g>
	<g>
		<defs>
			<rect id="SVGID_37_" x="453.951" y="-1.606" width="200" height="200"/>
		</defs>
		<clipPath id="SVGID_38_">
			<use xlink:href="#SVGID_37_"  overflow="visible"/>
		</clipPath>
		<path clip-path="url(#SVGID_38_)" fill="#FAFBFB" d="M490.463,106.718c0.144-0.145,0.269-0.268,0.367-0.371
			c1.465-2.12,1.672-16.476,1.09-31.536c1.275-0.334,2.548-0.448,2.936-0.477c-0.002-0.005-0.003-0.009-0.003-0.009
			s-6.479,0.384-6.736,3.455c-0.414,4.926-2.049,19.71-1.791,21.501l2.049,4.863c-2.477,2.048-14.895,11.777-11.44,26.746
			c0.763,3.302,2.729,6.263,5.021,8.752C478.486,130.1,478.798,118.419,490.463,106.718z"/>
	</g>
	<g>
		<defs>
			<rect id="SVGID_39_" x="453.951" y="-1.606" width="200" height="200"/>
		</defs>
		<clipPath id="SVGID_40_">
			<use xlink:href="#SVGID_39_"  overflow="visible"/>
		</clipPath>
		<path clip-path="url(#SVGID_40_)" fill="#FAFBFB" d="M481.982,139.676c0.747,0.81,1.524,1.569,2.311,2.272
			C483.509,141.245,482.729,140.485,481.982,139.676z"/>
	</g>
	<g>
		<defs>
			<rect id="SVGID_41_" x="453.951" y="-1.606" width="200" height="200"/>
		</defs>
		<clipPath id="SVGID_42_">
			<use xlink:href="#SVGID_41_"  overflow="visible"/>
		</clipPath>
		<path clip-path="url(#SVGID_42_)" fill="#FAFBFB" d="M567.564,174.679c-0.575-0.514-1.192-0.965-1.865-1.299
			C566.371,173.714,566.989,174.165,567.564,174.679z"/>
	</g>
	<g>
		<defs>
			<rect id="SVGID_43_" x="453.951" y="-1.606" width="200" height="200"/>
		</defs>
		<clipPath id="SVGID_44_">
			<use xlink:href="#SVGID_43_"  overflow="visible"/>
		</clipPath>
		<path clip-path="url(#SVGID_44_)" fill="#FAFBFB" d="M622.5,143.937c1.548-1.193,3.207-2.637,4.728-4.29
			C625.707,141.299,624.047,142.743,622.5,143.937z"/>
	</g>
	<g>
		<defs>
			<rect id="SVGID_45_" x="453.951" y="-1.606" width="200" height="200"/>
		</defs>
		<clipPath id="SVGID_46_">
			<use xlink:href="#SVGID_45_"  overflow="visible"/>
		</clipPath>
		<path clip-path="url(#SVGID_46_)" fill="#FAFBFB" d="M622.483,143.95c-0.602,0.463-1.184,0.887-1.732,1.271
			C621.301,144.837,621.883,144.413,622.483,143.95z"/>
	</g>
	<g>
		<defs>
			<rect id="SVGID_47_" x="453.951" y="-1.606" width="200" height="200"/>
		</defs>
		<clipPath id="SVGID_48_">
			<use xlink:href="#SVGID_47_"  overflow="visible"/>
		</clipPath>
		<path clip-path="url(#SVGID_48_)" fill="#FAFBFB" d="M620.809,104.144l2.049-4.863c0.256-1.791-1.377-16.575-1.791-21.501
			c-0.258-3.071-6.734-3.455-6.734-3.455s-0.001,0.004-0.003,0.009c0.388,0.029,1.657,0.144,2.933,0.477
			c-0.582,15.06-0.375,29.416,1.091,31.536c0.1,0.104,0.225,0.227,0.366,0.371c11.666,11.703,11.978,23.384,8.511,32.927
			c2.29-2.491,4.258-5.454,5.02-8.755C635.701,115.921,623.285,106.191,620.809,104.144z"/>
	</g>
	<g>
		<defs>
			<rect id="SVGID_49_" x="453.951" y="-1.606" width="200" height="200"/>
		</defs>
		<clipPath id="SVGID_50_">
			<use xlink:href="#SVGID_49_"  overflow="visible"/>
		</clipPath>
		<path clip-path="url(#SVGID_50_)" fill="#FAFBFB" d="M616,109.428c-0.205-0.205-0.373-0.375-0.5-0.509l-0.094-0.105
			c-3.057-3.73-1.209-34.489-1.209-34.489h0.002c-0.09-0.165-0.221-0.671-0.387-2.059H495.37c-0.166,1.387-0.297,1.894-0.386,2.059
			c0,0,1.846,30.758-1.209,34.489l-0.094,0.105c-0.128,0.134-0.296,0.305-0.5,0.509c-10.962,10.996-12.261,23.233-3.882,36.388
			c1.903,1.27,3.246,1.967,3.246,1.967s3.07,20.479,10.238,25.854s21.322,10.525,33.018,7.167c2.025-0.582,4.097-5.632,7.679-7.423
			c-0.896,0.447-1.699,1.101-2.431,1.836v-14.891h3.841v12.523c-0.083,0.023-0.159,0.053-0.24,0.078
			c0.624-0.194,1.306-0.342,2.016-0.45c-0.025,0.004-0.054,0.005-0.08,0.009v-22.912h3.84v22.621c-0.034,0-0.073,0.004-0.108,0.004
			c0.868-0.013,1.681,0.002,2.354,0.03v-25.728h1.918h1.92v25.728c-0.577,0.024-1.248,0.036-1.919,0.036
			c0.671,0,1.343-0.012,1.921-0.036c0.675-0.028,1.484-0.043,2.352-0.03c-0.034,0-0.072-0.004-0.106-0.004v-22.621h3.839v22.912
			c-0.024-0.004-0.052-0.005-0.076-0.008c0.707,0.107,1.386,0.255,2.008,0.448c-0.08-0.025-0.154-0.054-0.236-0.077v-12.523h3.84
			v14.891c2.188,2.203,3.731,5.15,5.25,5.587c11.695,3.36,25.853-1.792,33.019-7.167c7.168-5.375,10.238-25.854,10.238-25.854
			s1.343-0.697,3.245-1.967C628.26,132.661,626.961,120.424,616,109.428z M562.669,92.445c0.109-3.583,6.423-3.715,10.263,1.352
			c3.844,5.069,4.227,21.952,4.227,21.952c0.146,3.147-8.45-3.203-12.676-5.635C560.255,107.685,562.561,96.028,562.669,92.445z
			 M545.859,92.445c0.106,3.583,2.413,15.238-1.813,17.669c-4.225,2.434-12.823,8.782-12.677,5.635c0,0,0.384-16.882,4.225-21.952
			C539.437,88.73,545.749,88.863,545.859,92.445z M487.119,125.517l8.352-5.12l2.509,4.092l-8.353,5.12L487.119,125.517z
			 M492.471,134.727l-2.508-4.092l8.353-5.119l2.508,4.092L492.471,134.727z M495.848,139.335l-2.509-4.092l8.353-5.119l2.508,4.092
			L495.848,139.335z M502.529,115.79c0,0-5.119-6.143-2.049-23.292c0,0,4.35,9.982,6.91,11.262
			C509.95,105.04,502.529,115.79,502.529,115.79z M505.346,77.172c1.537-1.279,37.625-3.145,37.625-1.28
			c0,2.666-28.67,17.405-31.481,17.405C507.141,93.297,503.807,78.452,505.346,77.172z M525.055,175.299
			c-4.665,0-8.446-3.782-8.446-8.447s3.781-8.446,8.446-8.446c4.664,0,8.445,3.781,8.445,8.446
			C533.5,171.518,529.719,175.299,525.055,175.299z M555.668,117.188c-0.465-0.054-1.078-0.059-1.078-0.059
			s-0.612,0.004-1.075,0.059c-2.015,0.232-9.835,2.827-18.479,7.812c-5.76,3.324-13.309,3.328-13.309,3.328
			s5.071-1.637,11.772-6.526c7.938-5.794,13.599-11.009,19.773-11.599c0.231-0.021,1.082-0.039,1.315-0.047
			c0.236,0.008,1.086,0.025,1.318,0.047c6.176,0.59,11.834,5.805,19.771,11.599c6.7,4.891,11.776,6.526,11.776,6.526
			s-7.551-0.004-13.312-3.328C565.5,120.016,557.68,117.421,555.668,117.188z M584.127,175.299c-4.664,0-8.447-3.782-8.447-8.447
			s3.783-8.446,8.447-8.446c4.666,0,8.447,3.781,8.447,8.446C592.574,171.518,588.793,175.299,584.127,175.299z M597.691,93.297
			c-2.812,0-31.48-14.739-31.48-17.405c0-1.865,36.086,0.001,37.625,1.28C605.373,78.452,602.043,93.297,597.691,93.297z
			 M601.789,103.76c2.562-1.28,6.912-11.262,6.912-11.262c3.07,17.15-2.049,23.292-2.049,23.292S599.23,105.04,601.789,103.76z
			 M613.334,139.335l-8.354-5.119l2.508-4.092l8.354,5.119L613.334,139.335z M616.711,134.727l-8.352-5.119l2.508-4.092l8.352,5.119
			L616.711,134.727z M619.555,129.608l-8.352-5.12l2.508-4.092l8.353,5.12L619.555,129.608z"/>
	</g>
	<g>
		<defs>
			<rect id="SVGID_51_" x="453.951" y="-1.606" width="200" height="200"/>
		</defs>
		<clipPath id="SVGID_52_">
			<use xlink:href="#SVGID_51_"  overflow="visible"/>
		</clipPath>
		<path opacity="0.9" clip-path="url(#SVGID_52_)" fill="#FAFBFB" enable-background="new    " d="M535.594,93.797
			c-3.841,5.069-4.225,21.952-4.225,21.952c-0.146,3.147,8.452-3.203,12.677-5.635c4.228-2.431,1.921-14.086,1.813-17.669
			C545.749,88.863,539.437,88.73,535.594,93.797z"/>
	</g>
	<g>
		<defs>
			<rect id="SVGID_53_" x="453.951" y="-1.606" width="200" height="200"/>
		</defs>
		<clipPath id="SVGID_54_">
			<use xlink:href="#SVGID_53_"  overflow="visible"/>
		</clipPath>
		<path opacity="0.9" clip-path="url(#SVGID_54_)" fill="#FAFBFB" enable-background="new    " d="M564.481,110.114
			c4.226,2.434,12.823,8.782,12.676,5.635c0,0-0.383-16.882-4.226-21.952c-3.841-5.067-10.153-4.935-10.264-1.352
			C562.561,96.028,560.255,107.685,564.481,110.114z"/>
	</g>
</g>
</svg>
