<?xml version="1.0" encoding="utf-8"?>
<!-- Generator: Adobe Illustrator 15.0.0, SVG Export Plug-In . SVG Version: 6.00 Build 0)  -->
<!DOCTYPE svg PUBLIC "-//W3C//DTD SVG 1.1//EN" "http://www.w3.org/Graphics/SVG/1.1/DTD/svg11.dtd">
<svg version="1.1" id="Layer_1" xmlns="http://www.w3.org/2000/svg" xmlns:xlink="http://www.w3.org/1999/xlink" x="0px" y="0px"
	 width="200px" height="200px" viewBox="677.5 -1.606 200 200" enable-background="new 677.5 -1.606 200 200" xml:space="preserve">
<g>
	<path opacity="0.6" fill="#FAFBFB" d="M765.211,58.887c0-23.24-18.84-42.08-42.079-42.08c-23.241,0-42.082,18.84-42.082,42.08
		c0,23.241,18.841,42.082,42.082,42.082C746.371,100.969,765.211,82.128,765.211,58.887z M718.491,82.478l-0.199-0.199
		c-0.698,0.319-1.515,0.474-2.426,0.474c-4.116,0-10.131-3.147-15.46-8.478c-6.512-6.511-9.763-14.04-8.005-17.887l-0.195-0.197
		l11.933-11.933c-3.148-4.213-4.676-7.792-4.621-10.82c0.038-2.163,0.87-4.056,2.405-5.476c5.898-5.462,13.896-1.828,17.695,1.184
		c0.708-0.337,1.529-0.521,2.465-0.521c4.12,0,10.145,3.158,15.479,8.493c7.26,7.258,10.487,15.798,7.213,19.072L718.491,82.478z
		 M743.567,86.651c-3.952,0-7.153-3.205-7.153-7.154c0-3.952,7.153-13.287,7.153-13.287s7.152,9.334,7.152,13.287
		C750.72,83.446,747.521,86.651,743.567,86.651z"/>
	<path opacity="0.4" fill="#FAFBFB" d="M706.79,33.222c-0.063,0.059-0.104,0.096-0.108,0.347c-0.008,0.421,0.159,2.104,2.587,5.561
		l4.983-4.984C712.555,33.087,708.928,31.244,706.79,33.222z"/>
	<path opacity="0.5" fill="#FAFBFB" d="M717.801,36.921l-5.74,5.741c0.938,1.082,2.048,2.278,3.341,3.586
		c0.913,0.138,1.793,0.543,2.496,1.246c1.75,1.747,1.75,4.582,0,6.331c-1.747,1.749-4.582,1.749-6.329,0
		c-0.709-0.71-1.115-1.601-1.249-2.523c-1.214-1.227-2.335-2.416-3.341-3.558l-10.513,10.512c-0.487,1.162,0.897,6.655,7.104,12.858
		c4.924,4.925,9.825,7.167,12.297,7.167c0.405,0,0.562-0.067,0.564-0.068l21.325-21.326c-3.678-1.142-8.06-3.915-12.053-7.908
		C721.707,44.984,718.941,40.603,717.801,36.921z"/>
	<path fill="#FAFBFB" d="M734.399,40.284c-4.934-4.936-9.842-7.184-12.316-7.184c-0.165,0-0.286,0.011-0.374,0.024
		c-0.005,0-0.011,0.001-0.015,0.001c-0.138,0.679,0.122,2.173,1.014,4.16c1.044,2.327,2.957,5.333,6.157,8.531
		c3.045,3.045,6.078,5.064,8.538,6.166c1.526,0.684,2.833,1.016,3.779,1.016c0.164,0,0.285-0.012,0.374-0.025
		c0.005-0.001,0.012-0.001,0.016-0.002C741.871,51.5,740.331,46.214,734.399,40.284z"/>
	<path opacity="0.75" fill="#FAFBFB" d="M737.562,37.121c-5.334-5.335-11.358-8.493-15.479-8.493c-0.936,0-1.757,0.184-2.465,0.521
		c0.001,0.001,0.002,0.001,0.003,0.002l-0.834,1.052l-1.383,1.742l-0.01,0.013l-2.215,2.815c-0.014-0.01-0.365-0.275-0.928-0.626
		l-4.983,4.984c0.39,0.556,0.838,1.156,1.354,1.807c0.43,0.541,0.909,1.117,1.438,1.726l5.74-5.741
		c1.141,3.681,3.906,8.062,7.902,12.058c3.993,3.993,8.375,6.766,12.053,7.908l-21.325,21.326c-0.002,0-0.159,0.068-0.564,0.068
		c-2.472,0-7.373-2.242-12.297-7.167c-6.206-6.203-7.591-11.697-7.104-12.858l10.513-10.512c-0.514-0.583-0.99-1.151-1.45-1.712
		c-0.494-0.603-0.958-1.194-1.39-1.772l-11.933,11.933l0.195,0.197c-1.758,3.847,1.493,11.375,8.005,17.887
		c5.329,5.33,11.344,8.478,15.46,8.478c0.911,0,1.728-0.155,2.426-0.474l0.199,0.199l26.283-26.286
		C748.049,52.919,744.821,44.378,737.562,37.121z M741.183,53c-0.946,0-2.253-0.333-3.779-1.016
		c-2.46-1.102-5.493-3.121-8.538-6.166c-3.2-3.199-5.113-6.204-6.157-8.531c-0.892-1.987-1.151-3.481-1.014-4.16
		c0.004,0,0.01-0.001,0.015-0.001c0.088-0.013,0.209-0.024,0.374-0.024c2.475,0,7.383,2.248,12.316,7.184
		c5.932,5.93,7.472,11.217,7.173,12.689c-0.004,0-0.011,0.001-0.016,0.002C741.468,52.987,741.347,53,741.183,53z"/>
	<path opacity="0.2" fill="#FAFBFB" d="M715.401,46.249c-1.293-1.308-2.403-2.504-3.341-3.586c-0.528-0.609-1.008-1.185-1.438-1.726
		c-0.517-0.65-0.965-1.251-1.354-1.807c-2.428-3.457-2.595-5.14-2.587-5.561c0.004-0.25,0.045-0.288,0.108-0.347
		c2.138-1.979,5.765-0.135,7.462,0.924c0.562,0.351,0.914,0.616,0.928,0.626l2.215-2.815l0.01-0.013l1.383-1.742l0.834-1.052
		c-0.001-0.001-0.002-0.001-0.003-0.002c-3.8-3.012-11.797-6.646-17.695-1.184c-1.535,1.42-2.367,3.313-2.405,5.476
		c-0.055,3.028,1.473,6.606,4.621,10.82c0.432,0.578,0.896,1.169,1.39,1.772c0.46,0.561,0.937,1.129,1.45,1.712
		c1.006,1.143,2.127,2.331,3.341,3.558c0.134,0.922,0.54,1.813,1.249,2.523c1.747,1.749,4.582,1.749,6.329,0
		c1.75-1.749,1.75-4.583,0-6.331C717.194,46.792,716.314,46.386,715.401,46.249z"/>
	<path fill="#FAFBFB" d="M736.414,79.497c0,3.949,3.201,7.154,7.153,7.154c3.953,0,7.152-3.205,7.152-7.154
		c0-3.952-7.152-13.287-7.152-13.287S736.414,75.545,736.414,79.497z"/>
	<polygon opacity="0.75" fill="#FAFBFB" points="756.087,145.091 760.297,145.076 760.297,141.276 756.087,141.276 	"/>
	<path opacity="0.2" fill="#FAFBFB" d="M776.19,101.61c-23.24,0-42.08,18.841-42.08,42.082c0,23.239,18.84,42.08,42.08,42.08
		c23.241,0,42.081-18.841,42.081-42.08C818.271,120.451,799.432,101.61,776.19,101.61z M776.941,133.302
		c0.9,0,1.634,0.73,1.634,1.634c0,0.901-0.733,1.633-1.634,1.633c-0.902,0-1.633-0.731-1.633-1.633
		C775.309,134.032,776.039,133.302,776.941,133.302z M780.867,132.221c-0.903,0-1.633-0.731-1.633-1.634
		c0-0.903,0.729-1.634,1.633-1.634c0.902,0,1.636,0.73,1.636,1.634C782.503,131.489,781.77,132.221,780.867,132.221z
		 M782.503,155.835c0,0.901-0.733,1.633-1.636,1.633c-0.903,0-1.633-0.731-1.633-1.633c0-0.905,0.729-1.634,1.633-1.634
		C781.77,154.201,782.503,154.93,782.503,155.835z M780.329,143.207c0,0.901-0.733,1.633-1.633,1.633
		c-0.905,0-1.638-0.731-1.638-1.633c0-0.902,0.732-1.634,1.638-1.634C779.596,141.573,780.329,142.305,780.329,143.207z
		 M769.53,143.711c0,0.843-0.685,1.526-1.525,1.526h-0.378v1.97c0,2.862-2.328,5.191-5.189,5.191l-7.191,0.026
		c-0.15,0.686-0.759,1.196-1.488,1.196h-2.833c-0.724,0-1.325-0.501-1.483-1.176l-0.685,0.003v-18.502h0.671
		c0.142-0.697,0.757-1.223,1.497-1.223h2.833c0.738,0,1.354,0.525,1.495,1.223h7.185c2.861,0,5.189,2.328,5.189,5.189v1.97h0.378
		c0.841,0,1.525,0.684,1.525,1.526V143.711z M773.017,148.77c-0.904,0-1.636-0.729-1.636-1.633s0.731-1.634,1.636-1.634
		c0.901,0,1.633,0.73,1.633,1.634S773.918,148.77,773.017,148.77z M773.017,140.918c-0.904,0-1.636-0.732-1.636-1.634
		s0.731-1.633,1.636-1.633c0.901,0,1.633,0.731,1.633,1.633S773.918,140.918,773.017,140.918z M776.941,153.121
		c-0.903,0-1.633-0.735-1.633-1.638c0-0.899,0.729-1.633,1.633-1.633c0.9,0,1.634,0.733,1.634,1.633
		C778.575,152.386,777.842,153.121,776.941,153.121z M806.605,143.133c0,0.013,0,0.026,0,0.039s0,0.026,0,0.039
		c0,0.023,0,0.047-0.001,0.071c-0.041,4.592-1.995,9.097-5.375,12.381c-1.588,1.544-3.379,2.705-5.217,3.415
		c0.113,3.397-1.219,6.716-3.792,9.005c-1.951,1.735-4.303,2.622-6.705,2.622c-1.713,0-3.45-0.45-5.087-1.366
		c-1.767-0.987-2.397-3.221-1.409-4.987c0.987-1.767,3.222-2.398,4.987-1.409c1.504,0.841,2.647,0.281,3.342-0.336
		c1.103-0.981,1.829-2.901,0.967-4.979c-0.477-1.148-0.339-2.46,0.366-3.483s1.881-1.604,3.123-1.585
		c1.272,0.017,2.935-0.81,4.316-2.151c1.995-1.938,3.144-4.574,3.154-7.235c-0.011-2.659-1.159-5.293-3.152-7.231
		c-1.355-1.317-3.011-2.157-4.246-2.157c-0.058,0-0.117,0.003-0.177,0.003c-1.204,0-2.334-0.592-3.02-1.588
		c-0.704-1.023-0.842-2.334-0.365-3.482c0.896-2.16,0.082-4.195-1.055-5.171c-0.958-0.819-2.014-0.892-3.141-0.207
		c-1.731,1.05-3.985,0.499-5.035-1.23c-1.051-1.73-0.5-3.984,1.23-5.035c3.85-2.339,8.34-1.989,11.719,0.911
		c2.722,2.336,4.128,5.767,3.991,9.287c1.835,0.712,3.622,1.873,5.207,3.414c3.378,3.284,5.331,7.788,5.372,12.377
		C806.605,143.085,806.605,143.109,806.605,143.133z M785.078,127.872c-0.904,0-1.634-0.732-1.634-1.635
		c0-0.903,0.729-1.635,1.634-1.635c0.901,0,1.635,0.731,1.635,1.635C786.713,127.14,785.979,127.872,785.078,127.872z
		 M786.713,160.181c0,0.905-0.733,1.637-1.635,1.637c-0.904,0-1.634-0.731-1.634-1.637c0-0.898,0.729-1.632,1.634-1.632
		C785.979,158.549,786.713,159.282,786.713,160.181z M784.557,141.573c0.903,0,1.633,0.731,1.633,1.634
		c0,0.901-0.729,1.633-1.633,1.633c-0.902,0-1.637-0.731-1.637-1.633C782.92,142.305,783.654,141.573,784.557,141.573z
		 M789.188,143.207c0-0.902,0.73-1.634,1.634-1.634c0.902,0,1.634,0.731,1.634,1.634c0,0.901-0.731,1.633-1.634,1.633
		C789.919,144.84,789.188,144.108,789.188,143.207z"/>
	<circle opacity="0.4" fill="#FAFBFB" cx="776.941" cy="134.935" r="1.633"/>
	<path opacity="0.4" fill="#FAFBFB" d="M776.941,149.851c-0.903,0-1.633,0.733-1.633,1.633c0,0.902,0.729,1.638,1.633,1.638
		c0.9,0,1.634-0.735,1.634-1.638C778.575,150.584,777.842,149.851,776.941,149.851z"/>
	<path opacity="0.4" fill="#FAFBFB" d="M777.059,143.207c0,0.901,0.732,1.633,1.638,1.633c0.899,0,1.633-0.731,1.633-1.633
		c0-0.902-0.733-1.634-1.633-1.634C777.791,141.573,777.059,142.305,777.059,143.207z"/>
	<g opacity="0.6">
		<circle fill="#FAFBFB" cx="780.867" cy="130.587" r="1.634"/>
		<circle fill="#FAFBFB" cx="785.078" cy="126.237" r="1.635"/>
		<path fill="#FAFBFB" d="M785.078,158.549c-0.904,0-1.634,0.733-1.634,1.632c0,0.905,0.729,1.637,1.634,1.637
			c0.901,0,1.635-0.731,1.635-1.637C786.713,159.282,785.979,158.549,785.078,158.549z"/>
		<path fill="#FAFBFB" d="M780.867,154.201c-0.903,0-1.633,0.729-1.633,1.634c0,0.901,0.729,1.633,1.633,1.633
			c0.902,0,1.636-0.731,1.636-1.633C782.503,154.93,781.77,154.201,780.867,154.201z"/>
		<circle fill="#FAFBFB" cx="784.555" cy="143.207" r="1.635"/>
		<circle fill="#FAFBFB" cx="790.822" cy="143.207" r="1.633"/>
	</g>
	<path opacity="0.75" fill="#FAFBFB" d="M796.025,127.271c0.137-3.521-1.27-6.951-3.991-9.287c-3.379-2.9-7.869-3.25-11.719-0.911
		c-1.73,1.051-2.281,3.305-1.23,5.035c1.05,1.729,3.304,2.28,5.035,1.23c1.127-0.685,2.183-0.612,3.141,0.207
		c1.137,0.976,1.951,3.011,1.055,5.171c-0.477,1.148-0.339,2.459,0.365,3.482c0.686,0.996,1.815,1.588,3.02,1.588
		c0.06,0,0.119-0.003,0.177-0.003c1.235,0,2.891,0.84,4.246,2.157c1.993,1.938,3.142,4.572,3.152,7.231
		c-0.011,2.661-1.159,5.297-3.154,7.235c-1.382,1.342-3.044,2.168-4.316,2.151c-1.242-0.02-2.418,0.562-3.123,1.585
		s-0.843,2.335-0.366,3.483c0.862,2.078,0.136,3.998-0.967,4.979c-0.694,0.617-1.838,1.177-3.342,0.336
		c-1.766-0.989-4-0.357-4.987,1.409c-0.988,1.767-0.357,4,1.409,4.987c1.637,0.916,3.374,1.366,5.087,1.366
		c2.402,0,4.754-0.887,6.705-2.622c2.573-2.289,3.905-5.607,3.792-9.005c1.838-0.71,3.629-1.871,5.217-3.415
		c3.38-3.284,5.334-7.789,5.375-12.381c0.001-0.024,0.001-0.048,0.001-0.071c0-0.013,0-0.026,0-0.039s0-0.026,0-0.039
		c0-0.023,0-0.048-0.001-0.071c-0.041-4.589-1.994-9.093-5.372-12.377C799.647,129.144,797.86,127.982,796.025,127.271z"/>
	<path fill="#FAFBFB" d="M765.401,143.711v-1.079c0-0.843-0.844-1.526,0-1.526h2.226v-1.97c0-2.861-2.328-5.189-5.189-5.189h-7.185
		c0.02,0.099,0.03,0.2,0.03,0.304v17.846c0,0.113-0.014,0.223-0.037,0.329l7.191-0.026c2.861,0,5.189-2.329,5.189-5.191v-1.97
		h-1.913C764.871,145.237,765.401,144.554,765.401,143.711z M760.297,145.076l-4.21,0.015v-3.814h4.21V145.076z"/>
	<path fill="#FAFBFB" d="M765.401,141.105c-0.844,0,0,0.684,0,1.526v1.079c0,0.843-0.53,1.526,0.312,1.526h1.913v-4.132H765.401z"/>
	<g opacity="0">
		<circle fill="#FAFBFB" cx="773.017" cy="139.285" r="1.633"/>
		<circle fill="#FAFBFB" cx="773.017" cy="147.136" r="1.633"/>
		<path fill="#FAFBFB" d="M768.005,141.105h-0.378v4.132h0.378c0.841,0,1.525-0.684,1.525-1.526v-1.079
			C769.53,141.789,768.846,141.105,768.005,141.105z"/>
		<path fill="#FAFBFB" d="M753.758,132.724h-2.833c-0.74,0-1.355,0.525-1.497,1.223h-0.671v18.502l0.685-0.003
			c0.158,0.675,0.76,1.176,1.483,1.176h2.833c0.729,0,1.338-0.511,1.488-1.196c0.023-0.106,0.037-0.216,0.037-0.329V134.25
			c0-0.104-0.011-0.205-0.03-0.304C755.111,133.249,754.496,132.724,753.758,132.724z"/>
	</g>
	<path opacity="0.46" fill="#FAFBFB" d="M829.252,16.807c-23.24,0-42.08,18.841-42.08,42.081c0,23.24,18.84,42.081,42.08,42.081
		c23.241,0,42.081-18.841,42.081-42.081C871.333,35.648,852.493,16.807,829.252,16.807z M853.215,51.273l-5.997,5.996
		c-1.039,1.038-2.423,1.812-4.133,2.325l1.388,1.387c1.399,1.399,1.399,3.667,0,5.066c-0.699,0.699-1.616,1.049-2.533,1.049
		s-1.833-0.35-2.533-1.049l-3.063-3.063l-13.006,13.371c-0.537,1.838-1.523,3.502-2.89,4.866c-2.223,2.222-5.145,3.333-8.065,3.333
		c-2.923,0-5.846-1.111-8.071-3.334c-4.448-4.449-4.449-11.689-0.003-16.143c1.363-1.358,3.009-2.335,4.816-2.871l13.04-13.399
		l-1.885-1.884c-1.399-1.399-1.399-3.667,0-5.066c1.398-1.398,3.666-1.399,5.066,0l0.602,0.602c0.512-1.708,1.273-3.105,2.31-4.144
		l6-5.997c2.5-2.5,5.825-3.878,9.362-3.878c3.536,0,6.861,1.377,9.362,3.879l0.229,0.229
		C858.372,37.709,858.372,46.109,853.215,51.273z"/>
	<path opacity="0" fill="#FAFBFB" d="M812.739,68.767l-1.129,0.204c-0.846,0.153-1.619,0.56-2.239,1.177
		c-1.65,1.652-1.65,4.35,0.005,6.005c1.657,1.655,4.354,1.655,6.009,0c0.614-0.613,1.021-1.388,1.18-2.245l0.197-1.067
		l14.514-14.922l-4.044-4.044L812.739,68.767z"/>
	<path opacity="0.2" fill="#FAFBFB" d="M816.762,72.841l-0.197,1.067c-0.158,0.856-0.565,1.632-1.18,2.245
		c-1.655,1.655-4.352,1.656-6.009,0c-1.655-1.656-1.655-4.353-0.005-6.005c0.62-0.617,1.394-1.024,2.239-1.177l1.129-0.204
		l14.492-14.892l-5.067-5.067l-13.04,13.399c-1.808,0.536-3.453,1.513-4.816,2.871c-4.446,4.453-4.445,11.694,0.003,16.143
		c2.226,2.223,5.148,3.334,8.071,3.334c2.921,0,5.843-1.111,8.065-3.333c1.366-1.363,2.353-3.028,2.89-4.866l13.006-13.371
		l-5.067-5.066L816.762,72.841z"/>
	<path opacity="0.72" fill="#FAFBFB" d="M848.781,46.843c2.716-2.719,2.716-7.144-0.001-9.861l-0.229-0.229
		c-1.319-1.32-3.07-2.045-4.933-2.045s-3.613,0.725-4.93,2.042l-5.998,5.995c-0.603,0.604-1.181,2.29-1.226,5.231l6.094,6.093
		c3.739-0.051,4.944-0.951,5.228-1.233L848.781,46.843z"/>
	<path fill="#FAFBFB" d="M853.211,32.547l-0.229-0.229c-2.501-2.501-5.826-3.879-9.362-3.879c-3.537,0-6.862,1.377-9.362,3.878
		l-6,5.997c-1.036,1.039-1.798,2.436-2.31,4.144l-0.602-0.602c-1.4-1.399-3.668-1.398-5.066,0c-1.399,1.399-1.399,3.667,0,5.066
		l1.885,1.884l5.067,5.067l4.044,4.044l5.067,5.066l3.063,3.063c0.7,0.7,1.616,1.049,2.533,1.049s1.834-0.35,2.533-1.049
		c1.399-1.399,1.399-3.667,0-5.066l-1.388-1.387c1.71-0.513,3.094-1.287,4.133-2.325l5.997-5.996
		C858.372,46.109,858.372,37.709,853.211,32.547z M848.781,46.843l-5.994,5.993c-0.283,0.282-1.488,1.183-5.228,1.233l-6.094-6.093
		c0.045-2.941,0.623-4.627,1.226-5.231l5.998-5.995c1.316-1.317,3.067-2.042,4.93-2.042s3.613,0.725,4.933,2.045l0.229,0.229
		C851.497,39.699,851.497,44.124,848.781,46.843z"/>
</g>
</svg>
