<?xml version="1.0" encoding="utf-8"?>
<!-- Generator: Adobe Illustrator 22.1.0, SVG Export Plug-In . SVG Version: 6.00 Build 0)  -->
<svg version="1.1" id="Layer_1" xmlns="http://www.w3.org/2000/svg" xmlns:xlink="http://www.w3.org/1999/xlink" x="0px" y="0px"
	 viewBox="0 0 200 400" style="enable-background:new 0 0 200 400;" xml:space="preserve">
<style type="text/css">
	.st0{opacity:0.6;fill:#FAFBFB;enable-background:new    ;}
	.st1{opacity:0.4;fill:#FAFBFB;enable-background:new    ;}
	.st2{opacity:0.5;fill:#FAFBFB;enable-background:new    ;}
	.st3{fill:#FAFBFB;}
	.st4{opacity:0.75;fill:#FAFBFB;enable-background:new    ;}
	.st5{opacity:0.2;fill:#FAFBFB;enable-background:new    ;}
	.st6{opacity:0.6;}
	.st7{opacity:0;}
	.st8{opacity:0.46;fill:#FAFBFB;enable-background:new    ;}
	.st9{fill:#FAFBFB;fill-opacity:0;}
	.st10{opacity:0.72;fill:#FAFBFB;enable-background:new    ;}
	.st11{opacity:0.6;fill:#666666;enable-background:new    ;}
	.st12{opacity:0.4;fill:#666666;enable-background:new    ;}
	.st13{opacity:0.5;fill:#666666;enable-background:new    ;}
	.st14{opacity:0.86;fill:#666666;enable-background:new    ;}
	.st15{opacity:0.71;fill:#666666;}
	.st16{opacity:0.2;fill:#666666;enable-background:new    ;}
	.st17{opacity:0.75;fill:#666666;enable-background:new    ;}
	.st18{fill:#666666;}
	.st19{opacity:0.56;fill:#666666;enable-background:new    ;}
	.st20{opacity:0.7;fill:#666666;}
	.st21{opacity:0.86;}
	.st22{fill:#666666;enable-background:new    ;}
	.st23{opacity:0.46;fill:#666666;enable-background:new    ;}
	.st24{opacity:0;fill:#666666;enable-background:new    ;}
	.st25{opacity:0.72;fill:#666666;enable-background:new    ;}
</style>
<g>
	<path class="st0" d="M87.7,260.5c0-23.2-18.8-42.1-42.1-42.1c-23.2,0-42.1,18.8-42.1,42.1c0,23.2,18.8,42.1,42.1,42.1
		C68.9,302.6,87.7,283.7,87.7,260.5z M41,284.1l-0.2-0.2c-0.7,0.3-1.5,0.5-2.4,0.5c-4.1,0-10.1-3.1-15.5-8.5c-6.5-6.5-9.8-14-8-17.9
		l-0.2-0.2l11.9-11.9c-3.1-4.2-4.7-7.8-4.6-10.8c0-2.2,0.9-4.1,2.4-5.5c5.9-5.5,13.9-1.8,17.7,1.2c0.7-0.3,1.5-0.5,2.5-0.5
		c4.1,0,10.1,3.2,15.5,8.5c7.3,7.3,10.5,15.8,7.2,19.1L41,284.1z M66.1,288.3c-4,0-7.2-3.2-7.2-7.2c0-4,7.2-13.3,7.2-13.3
		s7.2,9.3,7.2,13.3C73.2,285.1,70,288.3,66.1,288.3z"/>
	<path class="st1" d="M29.3,234.8c-0.1,0.1-0.1,0.1-0.1,0.3c0,0.4,0.2,2.1,2.6,5.6l5-5C35.1,234.7,31.4,232.9,29.3,234.8z"/>
	<path class="st2" d="M40.3,238.5l-5.7,5.7c0.9,1.1,2,2.3,3.3,3.6c0.9,0.1,1.8,0.5,2.5,1.2c1.8,1.7,1.8,4.6,0,6.3
		c-1.7,1.7-4.6,1.7-6.3,0c-0.7-0.7-1.1-1.6-1.2-2.5c-1.2-1.2-2.3-2.4-3.3-3.6L19,259.9c-0.5,1.2,0.9,6.7,7.1,12.9
		c4.9,4.9,9.8,7.2,12.3,7.2c0.4,0,0.6-0.1,0.6-0.1l21.3-21.3c-3.7-1.1-8.1-3.9-12.1-7.9C44.2,246.6,41.4,242.2,40.3,238.5z"/>
	<path class="st3" d="M56.9,241.9c-4.9-4.9-9.8-7.2-12.3-7.2c-0.2,0-0.3,0-0.4,0c0,0,0,0,0,0c-0.1,0.7,0.1,2.2,1,4.2
		c1,2.3,3,5.3,6.2,8.5c3,3,6.1,5.1,8.5,6.2c1.5,0.7,2.8,1,3.8,1c0.2,0,0.3,0,0.4,0c0,0,0,0,0,0C64.4,253.1,62.8,247.8,56.9,241.9z"
		/>
	<path class="st4" d="M60.1,238.7c-5.3-5.3-11.4-8.5-15.5-8.5c-0.9,0-1.8,0.2-2.5,0.5c0,0,0,0,0,0l-0.8,1.1l-1.4,1.7l0,0l-2.2,2.8
		c0,0-0.4-0.3-0.9-0.6l-5,5c0.4,0.6,0.8,1.2,1.4,1.8c0.4,0.5,0.9,1.1,1.4,1.7l5.7-5.7c1.1,3.7,3.9,8.1,7.9,12.1
		c4,4,8.4,6.8,12.1,7.9l-21.3,21.3c0,0-0.2,0.1-0.6,0.1c-2.5,0-7.4-2.2-12.3-7.2c-6.2-6.2-7.6-11.7-7.1-12.9l10.5-10.5
		c-0.5-0.6-1-1.2-1.5-1.7c-0.5-0.6-1-1.2-1.4-1.8l-11.9,11.9l0.2,0.2c-1.8,3.8,1.5,11.4,8,17.9c5.3,5.3,11.3,8.5,15.5,8.5
		c0.9,0,1.7-0.2,2.4-0.5l0.2,0.2l26.3-26.3C70.5,254.5,67.3,246,60.1,238.7z M63.7,254.6c-0.9,0-2.3-0.3-3.8-1
		c-2.5-1.1-5.5-3.1-8.5-6.2c-3.2-3.2-5.1-6.2-6.2-8.5c-0.9-2-1.2-3.5-1-4.2c0,0,0,0,0,0c0.1,0,0.2,0,0.4,0c2.5,0,7.4,2.2,12.3,7.2
		c5.9,5.9,7.5,11.2,7.2,12.7c0,0,0,0,0,0C64,254.6,63.8,254.6,63.7,254.6z"/>
	<path class="st5" d="M37.9,247.9c-1.3-1.3-2.4-2.5-3.3-3.6c-0.5-0.6-1-1.2-1.4-1.7c-0.5-0.6-1-1.3-1.4-1.8
		c-2.4-3.5-2.6-5.1-2.6-5.6c0-0.2,0-0.3,0.1-0.3c2.1-2,5.8-0.1,7.5,0.9c0.6,0.4,0.9,0.6,0.9,0.6l2.2-2.8l0,0l1.4-1.7l0.8-1.1
		c0,0,0,0,0,0c-3.8-3-11.8-6.6-17.7-1.2c-1.5,1.4-2.4,3.3-2.4,5.5c-0.1,3,1.5,6.6,4.6,10.8c0.4,0.6,0.9,1.2,1.4,1.8
		c0.5,0.6,0.9,1.1,1.5,1.7c1,1.1,2.1,2.3,3.3,3.6c0.1,0.9,0.5,1.8,1.2,2.5c1.7,1.7,4.6,1.7,6.3,0c1.8-1.7,1.8-4.6,0-6.3
		C39.7,248.4,38.8,248,37.9,247.9z"/>
	<path class="st3" d="M58.9,281.1c0,3.9,3.2,7.2,7.2,7.2c4,0,7.2-3.2,7.2-7.2c0-4-7.2-13.3-7.2-13.3S58.9,277.2,58.9,281.1z"/>
	<polygon class="st4" points="78.6,346.7 82.8,346.7 82.8,342.9 78.6,342.9 	"/>
	<path class="st5" d="M98.7,303.2c-23.2,0-42.1,18.8-42.1,42.1c0,23.2,18.8,42.1,42.1,42.1c23.2,0,42.1-18.8,42.1-42.1
		C140.8,322.1,121.9,303.2,98.7,303.2z M99.4,334.9c0.9,0,1.6,0.7,1.6,1.6c0,0.9-0.7,1.6-1.6,1.6c-0.9,0-1.6-0.7-1.6-1.6
		C97.8,335.6,98.5,334.9,99.4,334.9z M103.4,333.8c-0.9,0-1.6-0.7-1.6-1.6c0-0.9,0.7-1.6,1.6-1.6c0.9,0,1.6,0.7,1.6,1.6
		C105,333.1,104.3,333.8,103.4,333.8z M105,357.4c0,0.9-0.7,1.6-1.6,1.6s-1.6-0.7-1.6-1.6c0-0.9,0.7-1.6,1.6-1.6
		C104.3,355.8,105,356.5,105,357.4z M102.8,344.8c0,0.9-0.7,1.6-1.6,1.6c-0.9,0-1.6-0.7-1.6-1.6c0-0.9,0.7-1.6,1.6-1.6
		C102.1,343.2,102.8,343.9,102.8,344.8z M92,345.3c0,0.8-0.7,1.5-1.5,1.5h-0.4v2c0,2.9-2.3,5.2-5.2,5.2l-7.2,0
		c-0.2,0.7-0.8,1.2-1.5,1.2h-2.8c-0.7,0-1.3-0.5-1.5-1.2l-0.7,0v-18.5h0.7c0.1-0.7,0.8-1.2,1.5-1.2h2.8c0.7,0,1.4,0.5,1.5,1.2h7.2
		c2.9,0,5.2,2.3,5.2,5.2v2h0.4c0.8,0,1.5,0.7,1.5,1.5L92,345.3L92,345.3z M95.5,350.4c-0.9,0-1.6-0.7-1.6-1.6s0.7-1.6,1.6-1.6
		c0.9,0,1.6,0.7,1.6,1.6C97.2,349.6,96.4,350.4,95.5,350.4z M95.5,342.5c-0.9,0-1.6-0.7-1.6-1.6s0.7-1.6,1.6-1.6
		c0.9,0,1.6,0.7,1.6,1.6C97.2,341.8,96.4,342.5,95.5,342.5z M99.4,354.7c-0.9,0-1.6-0.7-1.6-1.6c0-0.9,0.7-1.6,1.6-1.6
		c0.9,0,1.6,0.7,1.6,1.6C101.1,354,100.3,354.7,99.4,354.7z M129.1,344.7C129.1,344.8,129.1,344.8,129.1,344.7
		C129.1,344.8,129.1,344.8,129.1,344.7c0,0.1,0,0.1,0,0.1c0,4.6-2,9.1-5.4,12.4c-1.6,1.5-3.4,2.7-5.2,3.4c0.1,3.4-1.2,6.7-3.8,9
		c-2,1.7-4.3,2.6-6.7,2.6c-1.7,0-3.5-0.4-5.1-1.4c-1.8-1-2.4-3.2-1.4-5c1-1.8,3.2-2.4,5-1.4c1.5,0.8,2.6,0.3,3.3-0.3
		c1.1-1,1.8-2.9,1-5c-0.5-1.1-0.3-2.5,0.4-3.5c0.7-1,1.9-1.6,3.1-1.6c1.3,0,2.9-0.8,4.3-2.2c2-1.9,3.1-4.6,3.2-7.2
		c0-2.7-1.2-5.3-3.2-7.2c-1.4-1.3-3-2.2-4.2-2.2c-0.1,0-0.1,0-0.2,0c-1.2,0-2.3-0.6-3-1.6c-0.7-1-0.8-2.3-0.4-3.5
		c0.9-2.2,0.1-4.2-1.1-5.2c-1-0.8-2-0.9-3.1-0.2c-1.7,1.1-4,0.5-5-1.2c-1.1-1.7-0.5-4,1.2-5c3.8-2.3,8.3-2,11.7,0.9
		c2.7,2.3,4.1,5.8,4,9.3c1.8,0.7,3.6,1.9,5.2,3.4C127.1,335.6,129.1,340.1,129.1,344.7C129.1,344.7,129.1,344.7,129.1,344.7z
		 M107.6,329.5c-0.9,0-1.6-0.7-1.6-1.6c0-0.9,0.7-1.6,1.6-1.6c0.9,0,1.6,0.7,1.6,1.6C109.2,328.7,108.5,329.5,107.6,329.5z
		 M109.2,361.8c0,0.9-0.7,1.6-1.6,1.6c-0.9,0-1.6-0.7-1.6-1.6c0-0.9,0.7-1.6,1.6-1.6C108.5,360.2,109.2,360.9,109.2,361.8z
		 M107.1,343.2c0.9,0,1.6,0.7,1.6,1.6c0,0.9-0.7,1.6-1.6,1.6c-0.9,0-1.6-0.7-1.6-1.6S106.2,343.2,107.1,343.2z M111.7,344.8
		c0-0.9,0.7-1.6,1.6-1.6c0.9,0,1.6,0.7,1.6,1.6c0,0.9-0.7,1.6-1.6,1.6S111.7,345.7,111.7,344.8z"/>
	<circle class="st1" cx="99.4" cy="336.5" r="1.6"/>
	<path class="st1" d="M99.4,351.5c-0.9,0-1.6,0.7-1.6,1.6c0,0.9,0.7,1.6,1.6,1.6c0.9,0,1.6-0.7,1.6-1.6
		C101.1,352.2,100.3,351.5,99.4,351.5z"/>
	<path class="st1" d="M99.6,344.8c0,0.9,0.7,1.6,1.6,1.6c0.9,0,1.6-0.7,1.6-1.6c0-0.9-0.7-1.6-1.6-1.6
		C100.3,343.2,99.6,343.9,99.6,344.8z"/>
	<g class="st6">
		<circle class="st3" cx="103.4" cy="332.2" r="1.6"/>
		<circle class="st3" cx="107.6" cy="327.8" r="1.6"/>
		<path class="st3" d="M107.6,360.2c-0.9,0-1.6,0.7-1.6,1.6c0,0.9,0.7,1.6,1.6,1.6c0.9,0,1.6-0.7,1.6-1.6
			C109.2,360.9,108.5,360.2,107.6,360.2z"/>
		<path class="st3" d="M103.4,355.8c-0.9,0-1.6,0.7-1.6,1.6c0,0.9,0.7,1.6,1.6,1.6c0.9,0,1.6-0.7,1.6-1.6
			C105,356.5,104.3,355.8,103.4,355.8z"/>
		<circle class="st3" cx="107.1" cy="344.8" r="1.6"/>
		<circle class="st3" cx="113.3" cy="344.8" r="1.6"/>
	</g>
	<path class="st4" d="M118.5,328.9c0.1-3.5-1.3-7-4-9.3c-3.4-2.9-7.9-3.2-11.7-0.9c-1.7,1.1-2.3,3.3-1.2,5c1,1.7,3.3,2.3,5,1.2
		c1.1-0.7,2.2-0.6,3.1,0.2c1.1,1,2,3,1.1,5.2c-0.5,1.1-0.3,2.5,0.4,3.5c0.7,1,1.8,1.6,3,1.6c0.1,0,0.1,0,0.2,0
		c1.2,0,2.9,0.8,4.2,2.2c2,1.9,3.1,4.6,3.2,7.2c0,2.7-1.2,5.3-3.2,7.2c-1.4,1.3-3,2.2-4.3,2.2c-1.2,0-2.4,0.6-3.1,1.6
		s-0.8,2.3-0.4,3.5c0.9,2.1,0.1,4-1,5c-0.7,0.6-1.8,1.2-3.3,0.3c-1.8-1-4-0.4-5,1.4c-1,1.8-0.4,4,1.4,5c1.6,0.9,3.4,1.4,5.1,1.4
		c2.4,0,4.8-0.9,6.7-2.6c2.6-2.3,3.9-5.6,3.8-9c1.8-0.7,3.6-1.9,5.2-3.4c3.4-3.3,5.3-7.8,5.4-12.4c0,0,0,0,0-0.1c0,0,0,0,0,0
		s0,0,0,0c0,0,0,0,0-0.1c0-4.6-2-9.1-5.4-12.4C122.1,330.8,120.4,329.6,118.5,328.9z"/>
	<path class="st3" d="M87.9,345.3v-1.1c0-0.8-0.8-1.5,0-1.5h2.2v-2c0-2.9-2.3-5.2-5.2-5.2h-7.2c0,0.1,0,0.2,0,0.3v17.8
		c0,0.1,0,0.2,0,0.3l7.2,0c2.9,0,5.2-2.3,5.2-5.2v-2h-1.9C87.4,346.8,87.9,346.2,87.9,345.3z M82.8,346.7l-4.2,0v-3.8h4.2V346.7z"/>
	<path class="st3" d="M87.9,342.7c-0.8,0,0,0.7,0,1.5v1.1c0,0.8-0.5,1.5,0.3,1.5h1.9v-4.1L87.9,342.7L87.9,342.7z"/>
	<g class="st7">
		<circle class="st3" cx="95.5" cy="340.9" r="1.6"/>
		<circle class="st3" cx="95.5" cy="348.7" r="1.6"/>
		<path class="st3" d="M90.5,342.7h-0.4v4.1h0.4c0.8,0,1.5-0.7,1.5-1.5v-1.1C92,343.4,91.3,342.7,90.5,342.7z"/>
		<path class="st3" d="M76.3,334.3h-2.8c-0.7,0-1.4,0.5-1.5,1.2h-0.7v18.5l0.7,0c0.2,0.7,0.8,1.2,1.5,1.2h2.8c0.7,0,1.3-0.5,1.5-1.2
			c0-0.1,0-0.2,0-0.3v-17.8c0-0.1,0-0.2,0-0.3C77.6,334.9,77,334.3,76.3,334.3z"/>
	</g>
	<path class="st8" d="M151.8,218.4c-23.2,0-42.1,18.8-42.1,42.1c0,23.2,18.8,42.1,42.1,42.1c23.2,0,42.1-18.8,42.1-42.1
		C193.8,237.3,175,218.4,151.8,218.4z M175.7,252.9l-6,6c-1,1-2.4,1.8-4.1,2.3l1.4,1.4c1.4,1.4,1.4,3.7,0,5.1c-0.7,0.7-1.6,1-2.5,1
		s-1.8-0.4-2.5-1l-3.1-3.1l-13,13.4c-0.5,1.8-1.5,3.5-2.9,4.9c-2.2,2.2-5.1,3.3-8.1,3.3c-2.9,0-5.8-1.1-8.1-3.3
		c-4.4-4.4-4.4-11.7,0-16.1c1.4-1.4,3-2.3,4.8-2.9l13-13.4l-1.9-1.9c-1.4-1.4-1.4-3.7,0-5.1c1.4-1.4,3.7-1.4,5.1,0l0.6,0.6
		c0.5-1.7,1.3-3.1,2.3-4.1l6-6c2.5-2.5,5.8-3.9,9.4-3.9c3.5,0,6.9,1.4,9.4,3.9l0.2,0.2C180.9,239.3,180.9,247.7,175.7,252.9z"/>
	<path class="st9" d="M135.2,270.4l-1.1,0.2c-0.8,0.2-1.6,0.6-2.2,1.2c-1.7,1.7-1.7,4.4,0,6c1.7,1.7,4.4,1.7,6,0
		c0.6-0.6,1-1.4,1.2-2.2l0.2-1.1l14.5-14.9l-4-4L135.2,270.4z"/>
	<path class="st5" d="M139.3,274.4l-0.2,1.1c-0.2,0.9-0.6,1.6-1.2,2.2c-1.7,1.7-4.4,1.7-6,0c-1.7-1.7-1.7-4.4,0-6
		c0.6-0.6,1.4-1,2.2-1.2l1.1-0.2l14.5-14.9l-5.1-5.1l-13,13.4c-1.8,0.5-3.5,1.5-4.8,2.9c-4.4,4.5-4.4,11.7,0,16.1
		c2.2,2.2,5.1,3.3,8.1,3.3c2.9,0,5.8-1.1,8.1-3.3c1.4-1.4,2.4-3,2.9-4.9l13-13.4l-5.1-5.1L139.3,274.4z"/>
	<path class="st10" d="M171.3,248.4c2.7-2.7,2.7-7.1,0-9.9l-0.2-0.2c-1.3-1.3-3.1-2-4.9-2s-3.6,0.7-4.9,2l-6,6
		c-0.6,0.6-1.2,2.3-1.2,5.2l6.1,6.1c3.7-0.1,4.9-1,5.2-1.2L171.3,248.4z"/>
	<path class="st3" d="M175.7,234.2l-0.2-0.2c-2.5-2.5-5.8-3.9-9.4-3.9c-3.5,0-6.9,1.4-9.4,3.9l-6,6c-1,1-1.8,2.4-2.3,4.1l-0.6-0.6
		c-1.4-1.4-3.7-1.4-5.1,0c-1.4,1.4-1.4,3.7,0,5.1l1.9,1.9l5.1,5.1l4,4l5.1,5.1l3.1,3.1c0.7,0.7,1.6,1,2.5,1s1.8-0.4,2.5-1
		c1.4-1.4,1.4-3.7,0-5.1l-1.4-1.4c1.7-0.5,3.1-1.3,4.1-2.3l6-6C180.9,247.7,180.9,239.3,175.7,234.2z M171.3,248.4l-6,6
		c-0.3,0.3-1.5,1.2-5.2,1.2l-6.1-6.1c0-2.9,0.6-4.6,1.2-5.2l6-6c1.3-1.3,3.1-2,4.9-2s3.6,0.7,4.9,2l0.2,0.2
		C174,241.3,174,245.7,171.3,248.4z"/>
</g>
<g>
	<path class="st11" d="M87.7,60.2c0-23.2-18.8-42.1-42.1-42.1c-23.2,0-42.1,18.8-42.1,42.1c0,23.2,18.8,42.1,42.1,42.1
		C68.9,102.3,87.7,83.4,87.7,60.2z M41,83.8l-0.2-0.2c-0.7,0.3-1.5,0.5-2.4,0.5c-4.1,0-10.1-3.1-15.5-8.5c-6.5-6.5-9.8-14-8-17.9
		l-0.2-0.2l11.9-11.9c-3.1-4.2-4.7-7.8-4.6-10.8c0-2.2,0.9-4.1,2.4-5.5c5.9-5.5,13.9-1.8,17.7,1.2c0.7-0.3,1.5-0.5,2.5-0.5
		c4.1,0,10.1,3.2,15.5,8.5c7.3,7.3,10.5,15.8,7.2,19.1L41,83.8z M66.1,87.9c-4,0-7.2-3.2-7.2-7.2c0-4,7.2-13.3,7.2-13.3
		s7.2,9.3,7.2,13.3C73.2,84.7,70,87.9,66.1,87.9z"/>
	<path class="st12" d="M29.3,34.5c-0.1,0.1-0.1,0.1-0.1,0.3c0,0.4,0.2,2.1,2.6,5.6l5-5C35.1,34.4,31.4,32.5,29.3,34.5z"/>
	<path class="st13" d="M40.3,38.2l-5.7,5.7c0.9,1.1,2,2.3,3.3,3.6c0.9,0.1,1.8,0.5,2.5,1.2c1.8,1.7,1.8,4.6,0,6.3
		c-1.7,1.7-4.6,1.7-6.3,0c-0.7-0.7-1.1-1.6-1.2-2.5c-1.2-1.2-2.3-2.4-3.3-3.6L19,59.5c-0.5,1.2,0.9,6.7,7.1,12.9
		c4.9,4.9,9.8,7.2,12.3,7.2c0.4,0,0.6-0.1,0.6-0.1l21.3-21.3c-3.7-1.1-8.1-3.9-12.1-7.9C44.2,46.3,41.4,41.9,40.3,38.2z"/>
	<path class="st14" d="M56.9,41.6c-4.9-4.9-9.8-7.2-12.3-7.2c-0.2,0-0.3,0-0.4,0c0,0,0,0,0,0c-0.1,0.7,0.1,2.2,1,4.2
		c1,2.3,3,5.3,6.2,8.5c3,3,6.1,5.1,8.5,6.2c1.5,0.7,2.8,1,3.8,1c0.2,0,0.3,0,0.4,0c0,0,0,0,0,0C64.4,52.8,62.8,47.5,56.9,41.6z"/>
	<path class="st15" d="M60.1,38.4c-5.3-5.3-11.4-8.5-15.5-8.5c-0.9,0-1.8,0.2-2.5,0.5c0,0,0,0,0,0l-0.8,1.1l-1.4,1.7l0,0l-2.2,2.8
		c0,0-0.4-0.3-0.9-0.6l-5,5c0.4,0.6,0.8,1.2,1.4,1.8c0.4,0.5,0.9,1.1,1.4,1.7l5.7-5.7c1.1,3.7,3.9,8.1,7.9,12.1
		c4,4,8.4,6.8,12.1,7.9L38.9,79.5c0,0-0.2,0.1-0.6,0.1c-2.5,0-7.4-2.2-12.3-7.2c-6.2-6.2-7.6-11.7-7.1-12.9L29.5,49
		c-0.5-0.6-1-1.2-1.5-1.7c-0.5-0.6-1-1.2-1.4-1.8L14.7,57.5l0.2,0.2c-1.8,3.8,1.5,11.4,8,17.9c5.3,5.3,11.3,8.5,15.5,8.5
		c0.9,0,1.7-0.2,2.4-0.5l0.2,0.2l26.3-26.3C70.5,54.2,67.3,45.7,60.1,38.4z M63.7,54.3c-0.9,0-2.3-0.3-3.8-1
		c-2.5-1.1-5.5-3.1-8.5-6.2c-3.2-3.2-5.1-6.2-6.2-8.5c-0.9-2-1.2-3.5-1-4.2c0,0,0,0,0,0c0.1,0,0.2,0,0.4,0c2.5,0,7.4,2.2,12.3,7.2
		c5.9,5.9,7.5,11.2,7.2,12.7c0,0,0,0,0,0C64,54.3,63.8,54.3,63.7,54.3z"/>
	<path class="st16" d="M37.9,47.5c-1.3-1.3-2.4-2.5-3.3-3.6c-0.5-0.6-1-1.2-1.4-1.7c-0.5-0.7-1-1.3-1.4-1.8
		c-2.4-3.5-2.6-5.1-2.6-5.6c0-0.2,0-0.3,0.1-0.3c2.1-2,5.8-0.1,7.5,0.9c0.6,0.4,0.9,0.6,0.9,0.6l2.2-2.8l0,0l1.4-1.7l0.8-1.1
		c0,0,0,0,0,0c-3.8-3-11.8-6.6-17.7-1.2c-1.5,1.4-2.4,3.3-2.4,5.5c-0.1,3,1.5,6.6,4.6,10.8c0.4,0.6,0.9,1.2,1.4,1.8
		c0.5,0.6,0.9,1.1,1.5,1.7c1,1.1,2.1,2.3,3.3,3.6c0.1,0.9,0.5,1.8,1.2,2.5c1.7,1.7,4.6,1.7,6.3,0c1.8-1.7,1.8-4.6,0-6.3
		C39.7,48.1,38.8,47.7,37.9,47.5z"/>
	<path class="st14" d="M58.9,80.8c0,3.9,3.2,7.2,7.2,7.2c4,0,7.2-3.2,7.2-7.2c0-4-7.2-13.3-7.2-13.3S58.9,76.8,58.9,80.8z"/>
	<polygon class="st17" points="78.6,146.4 82.8,146.4 82.8,142.6 78.6,142.6 	"/>
	<path class="st16" d="M98.7,102.9c-23.2,0-42.1,18.8-42.1,42.1c0,23.2,18.8,42.1,42.1,42.1c23.2,0,42.1-18.8,42.1-42.1
		C140.8,121.7,121.9,102.9,98.7,102.9z M99.4,134.6c0.9,0,1.6,0.7,1.6,1.6c0,0.9-0.7,1.6-1.6,1.6c-0.9,0-1.6-0.7-1.6-1.6
		C97.8,135.3,98.5,134.6,99.4,134.6z M103.4,133.5c-0.9,0-1.6-0.7-1.6-1.6s0.7-1.6,1.6-1.6c0.9,0,1.6,0.7,1.6,1.6
		C105,132.8,104.3,133.5,103.4,133.5z M105,157.1c0,0.9-0.7,1.6-1.6,1.6s-1.6-0.7-1.6-1.6c0-0.9,0.7-1.6,1.6-1.6
		C104.3,155.5,105,156.2,105,157.1z M102.8,144.5c0,0.9-0.7,1.6-1.6,1.6c-0.9,0-1.6-0.7-1.6-1.6s0.7-1.6,1.6-1.6
		C102.1,142.9,102.8,143.6,102.8,144.5z M92,145c0,0.8-0.7,1.5-1.5,1.5h-0.4v2c0,2.9-2.3,5.2-5.2,5.2l-7.2,0
		c-0.2,0.7-0.8,1.2-1.5,1.2h-2.8c-0.7,0-1.3-0.5-1.5-1.2l-0.7,0v-18.5h0.7c0.1-0.7,0.8-1.2,1.5-1.2h2.8c0.7,0,1.4,0.5,1.5,1.2h7.2
		c2.9,0,5.2,2.3,5.2,5.2v2h0.4c0.8,0,1.5,0.7,1.5,1.5L92,145L92,145z M95.5,150.1c-0.9,0-1.6-0.7-1.6-1.6s0.7-1.6,1.6-1.6
		c0.9,0,1.6,0.7,1.6,1.6S96.4,150.1,95.5,150.1z M95.5,142.2c-0.9,0-1.6-0.7-1.6-1.6s0.7-1.6,1.6-1.6c0.9,0,1.6,0.7,1.6,1.6
		S96.4,142.2,95.5,142.2z M99.4,154.4c-0.9,0-1.6-0.7-1.6-1.6c0-0.9,0.7-1.6,1.6-1.6c0.9,0,1.6,0.7,1.6,1.6
		C101.1,153.7,100.3,154.4,99.4,154.4z M129.1,144.4C129.1,144.4,129.1,144.4,129.1,144.4C129.1,144.5,129.1,144.5,129.1,144.4
		c0,0.1,0,0.1,0,0.1c0,4.6-2,9.1-5.4,12.4c-1.6,1.5-3.4,2.7-5.2,3.4c0.1,3.4-1.2,6.7-3.8,9c-2,1.7-4.3,2.6-6.7,2.6
		c-1.7,0-3.5-0.4-5.1-1.4c-1.8-1-2.4-3.2-1.4-5c1-1.8,3.2-2.4,5-1.4c1.5,0.8,2.6,0.3,3.3-0.3c1.1-1,1.8-2.9,1-5
		c-0.5-1.1-0.3-2.5,0.4-3.5s1.9-1.6,3.1-1.6c1.3,0,2.9-0.8,4.3-2.2c2-1.9,3.1-4.6,3.2-7.2c0-2.7-1.2-5.3-3.2-7.2
		c-1.4-1.3-3-2.2-4.2-2.2c-0.1,0-0.1,0-0.2,0c-1.2,0-2.3-0.6-3-1.6c-0.7-1-0.8-2.3-0.4-3.5c0.9-2.2,0.1-4.2-1.1-5.2
		c-1-0.8-2-0.9-3.1-0.2c-1.7,1.1-4,0.5-5-1.2c-1.1-1.7-0.5-4,1.2-5c3.8-2.3,8.3-2,11.7,0.9c2.7,2.3,4.1,5.8,4,9.3
		c1.8,0.7,3.6,1.9,5.2,3.4C127.1,135.3,129.1,139.8,129.1,144.4C129.1,144.4,129.1,144.4,129.1,144.4z M107.6,129.2
		c-0.9,0-1.6-0.7-1.6-1.6c0-0.9,0.7-1.6,1.6-1.6c0.9,0,1.6,0.7,1.6,1.6C109.2,128.4,108.5,129.2,107.6,129.2z M109.2,161.5
		c0,0.9-0.7,1.6-1.6,1.6c-0.9,0-1.6-0.7-1.6-1.6c0-0.9,0.7-1.6,1.6-1.6C108.5,159.8,109.2,160.6,109.2,161.5z M107.1,142.9
		c0.9,0,1.6,0.7,1.6,1.6c0,0.9-0.7,1.6-1.6,1.6c-0.9,0-1.6-0.7-1.6-1.6C105.4,143.6,106.2,142.9,107.1,142.9z M111.7,144.5
		c0-0.9,0.7-1.6,1.6-1.6c0.9,0,1.6,0.7,1.6,1.6c0,0.9-0.7,1.6-1.6,1.6S111.7,145.4,111.7,144.5z"/>
	<circle class="st12" cx="99.4" cy="136.2" r="1.6"/>
	<path class="st12" d="M99.4,151.1c-0.9,0-1.6,0.7-1.6,1.6c0,0.9,0.7,1.6,1.6,1.6c0.9,0,1.6-0.7,1.6-1.6
		C101.1,151.9,100.3,151.1,99.4,151.1z"/>
	<path class="st12" d="M99.6,144.5c0,0.9,0.7,1.6,1.6,1.6c0.9,0,1.6-0.7,1.6-1.6s-0.7-1.6-1.6-1.6
		C100.3,142.9,99.6,143.6,99.6,144.5z"/>
	<g class="st6">
		<circle class="st18" cx="103.4" cy="131.9" r="1.6"/>
		<circle class="st18" cx="107.6" cy="127.5" r="1.6"/>
		<path class="st18" d="M107.6,159.8c-0.9,0-1.6,0.7-1.6,1.6c0,0.9,0.7,1.6,1.6,1.6c0.9,0,1.6-0.7,1.6-1.6
			C109.2,160.6,108.5,159.8,107.6,159.8z"/>
		<path class="st18" d="M103.4,155.5c-0.9,0-1.6,0.7-1.6,1.6c0,0.9,0.7,1.6,1.6,1.6c0.9,0,1.6-0.7,1.6-1.6
			C105,156.2,104.3,155.5,103.4,155.5z"/>
		<circle class="st18" cx="107.1" cy="144.5" r="1.6"/>
		<circle class="st18" cx="113.3" cy="144.5" r="1.6"/>
	</g>
	<path class="st19" d="M118.5,128.6c0.1-3.5-1.3-7-4-9.3c-3.4-2.9-7.9-3.2-11.7-0.9c-1.7,1.1-2.3,3.3-1.2,5c1,1.7,3.3,2.3,5,1.2
		c1.1-0.7,2.2-0.6,3.1,0.2c1.1,1,2,3,1.1,5.2c-0.5,1.1-0.3,2.5,0.4,3.5c0.7,1,1.8,1.6,3,1.6c0.1,0,0.1,0,0.2,0
		c1.2,0,2.9,0.8,4.2,2.2c2,1.9,3.1,4.6,3.2,7.2c0,2.7-1.2,5.3-3.2,7.2c-1.4,1.3-3,2.2-4.3,2.2c-1.2,0-2.4,0.6-3.1,1.6
		s-0.8,2.3-0.4,3.5c0.9,2.1,0.1,4-1,5c-0.7,0.6-1.8,1.2-3.3,0.3c-1.8-1-4-0.4-5,1.4c-1,1.8-0.4,4,1.4,5c1.6,0.9,3.4,1.4,5.1,1.4
		c2.4,0,4.8-0.9,6.7-2.6c2.6-2.3,3.9-5.6,3.8-9c1.8-0.7,3.6-1.9,5.2-3.4c3.4-3.3,5.3-7.8,5.4-12.4c0,0,0,0,0-0.1c0,0,0,0,0,0
		s0,0,0,0c0,0,0,0,0-0.1c0-4.6-2-9.1-5.4-12.4C122.1,130.4,120.4,129.3,118.5,128.6z"/>
	<path class="st20" d="M90.1,140.4c0-2.9-2.3-5.2-5.2-5.2h-7.2c0,0.1,0,0.2,0,0.3v17.8c0,0.1,0,0.2,0,0.3l7.2,0
		c2.9,0,5.2-2.3,5.2-5.2v-2v0v-4.1h0V140.4z M82.8,146.4l-4.2,0v-3.8h4.2V146.4z"/>
	<g class="st21">
		<circle class="st18" cx="95.5" cy="140.6" r="1.6"/>
		<circle class="st18" cx="95.5" cy="148.4" r="1.6"/>
		<path class="st18" d="M90.5,142.4h-0.4v4.1h0.4c0.8,0,1.5-0.7,1.5-1.5v-1.1C92,143.1,91.3,142.4,90.5,142.4z"/>
		<path class="st22" d="M76.3,134h-2.8c-0.7,0-1.4,0.5-1.5,1.2h-0.7v18.5l0.7,0c0.2,0.7,0.8,1.2,1.5,1.2h2.8c0.7,0,1.3-0.5,1.5-1.2
			c0-0.1,0-0.2,0-0.3v-17.8c0-0.1,0-0.2,0-0.3C77.6,134.5,77,134,76.3,134z"/>
	</g>
	<path class="st23" d="M151.8,18.1c-23.2,0-42.1,18.8-42.1,42.1s18.8,42.1,42.1,42.1c23.2,0,42.1-18.8,42.1-42.1
		S175,18.1,151.8,18.1z M175.7,52.6l-6,6c-1,1-2.4,1.8-4.1,2.3l1.4,1.4c1.4,1.4,1.4,3.7,0,5.1c-0.7,0.7-1.6,1-2.5,1s-1.8-0.3-2.5-1
		l-3.1-3.1l-13,13.4c-0.5,1.8-1.5,3.5-2.9,4.9c-2.2,2.2-5.1,3.3-8.1,3.3c-2.9,0-5.8-1.1-8.1-3.3c-4.4-4.4-4.4-11.7,0-16.1
		c1.4-1.4,3-2.3,4.8-2.9l13-13.4l-1.9-1.9c-1.4-1.4-1.4-3.7,0-5.1c1.4-1.4,3.7-1.4,5.1,0l0.6,0.6c0.5-1.7,1.3-3.1,2.3-4.1l6-6
		c2.5-2.5,5.8-3.9,9.4-3.9c3.5,0,6.9,1.4,9.4,3.9l0.2,0.2C180.9,39,180.9,47.4,175.7,52.6z"/>
	<path class="st16" d="M135.2,70.1l-1.1,0.2c-0.8,0.2-1.6,0.6-2.2,1.2c-1.7,1.7-1.7,4.3,0,6c1.7,1.7,4.4,1.7,6,0
		c0.6-0.6,1-1.4,1.2-2.2l0.2-1.1l14.5-14.9l-4-4L135.2,70.1z"/>
	<path class="st24" d="M139.3,74.1l-0.2,1.1c-0.2,0.9-0.6,1.6-1.2,2.2c-1.7,1.7-4.4,1.7-6,0c-1.7-1.7-1.7-4.4,0-6
		c0.6-0.6,1.4-1,2.2-1.2l1.1-0.2l14.5-14.9l-5.1-5.1l-13,13.4c-1.8,0.5-3.5,1.5-4.8,2.9c-4.4,4.5-4.4,11.7,0,16.1
		c2.2,2.2,5.1,3.3,8.1,3.3c2.9,0,5.8-1.1,8.1-3.3c1.4-1.4,2.4-3,2.9-4.9l13-13.4l-5.1-5.1L139.3,74.1z"/>
	<path class="st25" d="M171.3,48.1c2.7-2.7,2.7-7.1,0-9.9L171,38c-1.3-1.3-3.1-2-4.9-2s-3.6,0.7-4.9,2l-6,6
		c-0.6,0.6-1.2,2.3-1.2,5.2l6.1,6.1c3.7-0.1,4.9-1,5.2-1.2L171.3,48.1z"/>
	<path class="st18" d="M175.7,33.8l-0.2-0.2c-2.5-2.5-5.8-3.9-9.4-3.9c-3.5,0-6.9,1.4-9.4,3.9l-6,6c-1,1-1.8,2.4-2.3,4.1l-0.6-0.6
		c-1.4-1.4-3.7-1.4-5.1,0c-1.4,1.4-1.4,3.7,0,5.1l1.9,1.9l5.1,5.1l4,4l5.1,5.1l3.1,3.1c0.7,0.7,1.6,1,2.5,1s1.8-0.3,2.5-1
		c1.4-1.4,1.4-3.7,0-5.1l-1.4-1.4c1.7-0.5,3.1-1.3,4.1-2.3l6-6C180.9,47.4,180.9,39,175.7,33.8z M171.3,48.1l-6,6
		c-0.3,0.3-1.5,1.2-5.2,1.2l-6.1-6.1c0-2.9,0.6-4.6,1.2-5.2l6-6c1.3-1.3,3.1-2,4.9-2s3.6,0.7,4.9,2l0.2,0.2
		C174,41,174,45.4,171.3,48.1z"/>
</g>
</svg>
