<?xml version="1.0" encoding="utf-8"?>
<!-- Generator: Adobe Illustrator 22.1.0, SVG Export Plug-In . SVG Version: 6.00 Build 0)  -->
<svg version="1.1" id="Layer_1" xmlns="http://www.w3.org/2000/svg" xmlns:xlink="http://www.w3.org/1999/xlink" x="0px" y="0px"
	 viewBox="0 0 200 400" style="enable-background:new 0 0 200 400;" xml:space="preserve">
<style type="text/css">
	.st0{fill:#FFFFFF;}
	.st1{opacity:0.62;enable-background:new    ;}
	.st2{fill:#FAFBFB;}
	.st3{fill:#666666;}
	.st4{opacity:0.4;enable-background:new    ;}
</style>
<g id="circle-logo">
	<g id="white">
		<g id="logo">
			<g id="ux">
				<path class="st0" d="M101.2,308.3c-2.5-2.7-3.7-6.6-3.7-11.8v-25.2h4.4v25.2c0,7.9,3.5,11.8,10.4,11.8c3.1,0,5.6-1,7.4-3.1
					c1.8-2,2.7-5,2.7-8.8v-25.2h4.4v25.2c0,5.1-1.3,9-3.8,11.7c-2.6,2.7-6.1,4.1-10.7,4.1C107.3,312.3,103.6,311,101.2,308.3z"/>
				<path class="st0" d="M112.3,312.9c-5.1,0-9-1.4-11.5-4.2c-2.6-2.8-3.9-6.9-3.9-12.2v-25.8h5.6v25.8c0,7.5,3.2,11.2,9.8,11.2
					c3,0,5.3-0.9,7-2.9c1.7-1.9,2.6-4.7,2.6-8.4v-25.8h5.6v25.8c0,5.2-1.3,9.3-4,12.1S117,312.9,112.3,312.9z M98,271.9v24.6
					c0,5,1.2,8.8,3.5,11.4l0,0c2.3,2.5,5.9,3.8,10.7,3.8c4.4,0,7.9-1.3,10.3-3.9s3.7-6.4,3.7-11.3v-24.6H123v24.6c0,3.9-1,7-2.9,9.1
					c-1.9,2.1-4.6,3.3-7.9,3.3c-7.3,0-11-4.2-11-12.4v-24.6L98,271.9z"/>
				<path class="st0" d="M163.5,311.4h-4.9l-10.1-16.7l-9.5,16.7h-4.9l11.6-19.8l-11.9-20.3h4.8l10,17.1l10.2-17.1h4.6l-12,19.9
					L163.5,311.4z"/>
				<path class="st0" d="M164.5,312h-6.3l-9.8-16.1l-9.1,16.1H133l11.9-20.4l-12.2-20.9h6.1l9.7,16.5l9.9-16.5h6L152,291.2
					L164.5,312z M158.9,310.8h3.6l-11.9-19.6l11.7-19.3h-3.2l-10.6,17.7l-10.3-17.7h-3.4l11.5,19.7l-11.2,19.2h3.6l9.8-17.3
					L158.9,310.8z"/>
			</g>
			<g id="m-colon">
				<path id="colon" class="st0" d="M83.1,289.9c-0.6-0.6-0.9-1.4-0.9-2.2c0-1.7,1.4-3.1,3.1-3.1c0.8,0,1.6,0.3,2.2,0.9
					c0.6,0.6,0.9,1.3,0.9,2.1c0,0.8-0.3,1.6-0.9,2.2c-1.1,1.2-3,1.2-4.2,0.1C83.2,290,83.1,290,83.1,289.9z M83.1,310.9
					c-0.6-0.6-0.9-1.4-0.9-2.2c0-1.7,1.4-3.1,3.1-3.1c0.8,0,1.6,0.3,2.2,0.9c0.6,0.6,0.9,1.4,0.9,2.2c0,0.8-0.3,1.6-0.9,2.1
					C86.2,312.1,84.3,312.1,83.1,310.9C83.1,311,83.1,310.9,83.1,310.9z"/>
				<path id="m" class="st0" d="M72.2,286.6c1.6,1.7,2.4,4.1,2.4,7.1v17.7h-3.8v-16c0-2.8-0.5-4.8-1.6-6c-1-1.2-2.5-1.9-4.1-1.8
					c-1.9-0.1-3.7,0.8-4.8,2.4c-1.1,1.6-1.8,3.8-2,6.5v14.9h-3.8v-16c0-2.8-0.5-4.8-1.6-6c-1-1.2-2.5-1.9-4.1-1.8
					c-2.1-0.1-4.1,1-5.2,2.9c-1.1,1.9-1.7,4.5-1.7,7.7v13.2H38v-26.4h3.8v4.1c0.8-1.5,1.9-2.8,3.3-3.7c3-1.8,6.7-1.7,9.6,0.3
					c1.5,1.1,2.5,2.7,3,4.4c0.7-1.7,1.9-3.3,3.4-4.4c1.4-1.1,3.2-1.6,5-1.6C68.4,284,70.6,284.9,72.2,286.6z"/>
			</g>
			<g id="ux-engineering" class="st1">
				<path class="st2" d="M38.8,333.7c-0.7-0.8-1.1-2-1.1-3.5v-7.5H39v7.5c0,2.3,1,3.5,3.1,3.5c0.8,0,1.6-0.3,2.2-0.9
					c0.6-0.7,0.9-1.7,0.8-2.6v-7.5h1.3v7.5c0,1.5-0.4,2.7-1.1,3.5c-0.8,0.8-2,1.3-3.2,1.2C40.7,334.9,39.6,334.5,38.8,333.7z"/>
				<path class="st2" d="M56.7,334.7h-1.5l-3-4.9l-2.8,4.9H48l3.4-5.9l-3.5-6h1.4l3,5.1l3-5.1h1.4l-3.6,5.9L56.7,334.7z"/>
				<path class="st2" d="M65.6,334.7v-11.9h6.7v1.1h-5.3v4.1h4.2v1.1h-4.2v4.5h5.4v1.1L65.6,334.7z"/>
				<path class="st2" d="M74.4,334.7v-11.9h1.4l6,9.9v-9.9h1.3v11.9h-1.4l-6-9.9v9.9H74.4z"/>
				<path class="st2" d="M87.3,334.2c-0.8-0.5-1.3-1.3-1.7-2.1c-0.4-1.1-0.6-2.2-0.6-3.3c0-1.1,0.2-2.3,0.6-3.3
					c0.3-0.9,0.9-1.6,1.7-2.1c0.8-0.5,1.7-0.8,2.6-0.7c0.8,0,1.7,0.2,2.4,0.6c0.7,0.5,1.3,1.1,1.7,1.8l-1,0.7c-0.7-1.3-1.8-2-3.1-2
					c-1,0-2,0.5-2.6,1.3c-0.6,0.9-0.9,2.1-0.9,3.7s0.3,2.8,0.9,3.7c0.6,0.9,1.5,1.4,2.5,1.3c0.6,0,1.1-0.1,1.6-0.4
					c0.5-0.3,0.9-0.8,1.1-1.3c0.3-0.7,0.4-1.4,0.4-2.1h-2.8v-1.1h4.1v1.1c0,0.9-0.2,1.9-0.6,2.7c-0.4,0.7-0.9,1.3-1.6,1.7
					c-0.7,0.4-1.5,0.6-2.3,0.6C88.9,335,88,334.7,87.3,334.2z"/>
				<path class="st2" d="M96,334.7v-1.2h1.2v-9.6H96v-1.2h3.6v1.2h-1.2v9.6h1.2v1.2H96z"/>
				<path class="st2" d="M102,334.7v-11.9h1.4l6,9.9v-9.9h1.3v11.9h-1.4l-6-9.9v9.9H102z"/>
				<path class="st2" d="M113.5,334.7v-11.9h6.7v1.1h-5.4v4.1h4.2v1.1h-4.2v4.5h5.4v1.1L113.5,334.7z"/>
				<path class="st2" d="M122.3,334.7v-11.9h6.7v1.1h-5.3v4.1h4.2v1.1h-4.2v4.5h5.4v1.1L122.3,334.7z"/>
				<path class="st2" d="M137.7,334.7l-3-5.2h-2.4v5.2H131v-11.9h4c0.7,0,1.3,0.1,1.9,0.4c0.5,0.3,1,0.7,1.3,1.2
					c0.3,0.5,0.4,1.1,0.4,1.7c0,0.7-0.2,1.5-0.7,2c-0.5,0.6-1.2,1-1.9,1.1l3.1,5.4L137.7,334.7z M132.3,328.3h2.5
					c0.6,0,1.3-0.2,1.8-0.6c0.4-0.4,0.6-1,0.6-1.6c0-0.6-0.2-1.2-0.6-1.6c-0.5-0.4-1.1-0.7-1.8-0.6h-2.5V328.3z"/>
				<path class="st2" d="M140.7,334.7v-1.2h1.2v-9.6h-1.2v-1.2h3.6v1.2h-1.2v9.6h1.2v1.2H140.7z"/>
				<path class="st2" d="M146.7,334.7v-11.9h1.4l6,9.9v-9.9h1.3v11.9H154l-6-9.9v9.9H146.7z"/>
				<path class="st2" d="M159.6,334.2c-0.8-0.5-1.3-1.3-1.7-2.1c-0.4-1.1-0.6-2.2-0.6-3.3c0-1.1,0.2-2.3,0.6-3.3
					c0.3-0.9,0.9-1.6,1.7-2.1c0.8-0.5,1.7-0.8,2.6-0.7c0.8,0,1.7,0.2,2.4,0.6c0.7,0.5,1.3,1.1,1.7,1.8l-1,0.7c-0.7-1.3-1.8-2-3.1-2
					c-1,0-2,0.5-2.6,1.3c-0.6,0.9-0.9,2.1-0.9,3.7s0.3,2.8,0.9,3.7c0.6,0.9,1.5,1.4,2.5,1.3c0.6,0,1.1-0.1,1.6-0.4
					c0.5-0.3,0.9-0.8,1.1-1.3c0.3-0.7,0.4-1.4,0.4-2.1h-2.8v-1.1h4.1v1.1c0,0.9-0.2,1.9-0.6,2.7c-0.4,0.7-0.9,1.3-1.6,1.7
					c-0.7,0.4-1.5,0.6-2.3,0.6C161.2,335,160.3,334.7,159.6,334.2z"/>
			</g>
			<g id="disney" class="st1">
				<path class="st2" d="M49.4,263.5c-8.5-6.1-14.9-3.4-14.9-3.4c-1,0.4-0.9,1.2-0.9,1.2c0.1,0.6,0.9,0.7,0.9,0.7
					c0.6,0,0.7-0.2,0.7-0.2c0.1-0.3-0.4-0.3-0.4-0.3c-0.5,0-0.4-0.1-0.4-0.1c0-0.2,0.2-0.3,0.2-0.3c2-0.3,4.1-0.3,6.2,0.1
					c6.8,1.7,9.3,5.1,9.3,5.1c2.4,2.9,1,5,1,5c-1.9,2.7-6.2,2.3-6.2,2.3c-0.7-0.1-1.3-0.1-2-0.3c0-1.2,0-2.9,0-4.5
					c2.9,0.1,4.3,0.8,4.3,0.8c0.5,0.3,0.1,0.6-0.2,0.8c-0.1,0.1-0.3,0.2-0.3,0.4c0,0.1,0.1,0.2,0.2,0.2c0.4,0.1,0.8,0,1.1-0.1
					c0.5-0.3,0.8-0.8,0.8-1.4c-0.1-1.6-2.9-2-2.9-2c-1-0.2-2.1-0.2-3.1-0.2c0-0.9-0.1-1.8-0.3-2.7c0,0-0.2-0.7-0.6-0.6
					c0,0-0.4,0.1-0.5,1.2c0,0-0.1,1-0.1,2.3c-2.8,0.4-4.2,1.6-4.2,1.6c-1,0.7,0,1.9,0,1.9c0.9,1.4,3.5,2.9,3.5,2.9
					c0.2,0.1,0.5,0.2,0.7,0.3c0,0.4,0.1,0.8,0.1,1.2c0,0.3,0.3,0.5,0.6,0.5c0,0,0.9,0.1,0.9-0.6c0,0,0-0.2,0-0.5c3.6,1,6.3,0,6.3,0
					c4.2-1.3,4.2-4.7,4.2-4.7C53.4,266.5,49.4,263.5,49.4,263.5z M37.2,270.3c-0.3-0.4-0.1-0.7-0.1-0.7c0.2-0.5,3.2-1,4.1-0.9
					c-0.1,1.3-0.1,2.7-0.1,4C38.3,271.7,37.2,270.3,37.2,270.3z"/>
				<path class="st2" d="M55.5,268.3c0.4,4.8,0.2,5.3,0.2,5.3C55.7,274,55,274,55,274c-0.5,0-0.6-0.3-0.6-0.3c-0.5-1.2,0-6,0-6
					s0.1-0.6,0.5-0.6C55,267.2,55.4,267.1,55.5,268.3"/>
				<path class="st2" d="M59.1,262.2c-0.2-0.4-0.7-0.7-1.2-0.7c0,0-0.4-0.7-1.6-0.7c-1.2,0.1-2.3,0.6-3.1,1.5
					c-0.4,0.5-0.7,1.1-0.7,1.7c0,0.5,0.2,0.9,0.5,1.2c0,0.2,0,0.4,0,0.6c0,0,0.1,0.6,0.5,0.7c0,0,0.4,0.1,0.6-0.6
					c1.5,0.6,3-0.4,3.6-0.7C57.7,265.1,59.8,263.7,59.1,262.2z M53.6,264.2c-0.3-0.5,0.3-1.2,0.3-1.2c0.5-0.5,1.1-0.8,1.7-0.8
					C54.8,262.7,54.1,263.4,53.6,264.2L53.6,264.2z M58.3,263.3c0,0-0.9,1.9-3.5,1.5c0,0,1.4-2.3,3-2.3
					C57.9,262.5,58.7,262.5,58.3,263.3z"/>
				<path class="st2" d="M62.7,268.5c0.6-0.2,0.7-0.5,0.7-0.5c0.1-0.4-0.9-0.6-0.9-0.6c-1.5-0.3-3.1-0.2-4.6,0.3
					c0,0-1.3,0.5-1.4,1.5c0,0-0.2,0.9,0.6,1.2c0.6,0.1,1.2,0.2,1.8,0.2c0,0,2.3,0.1,2.9,0.6c0.2,0.1,0.3,0.5,0.2,0.7
					c0,0-0.1,0.1-0.1,0.1c0,0-0.8,1-3.6,0.7c0,0-1.1-0.1-0.9-0.7c0,0,0.1-0.3,0.6-0.3c0.4,0,0.8,0.1,1.1,0.3
					c0.4,0.2,0.7,0.2,1.1,0.3c0.4,0,0.8-0.2,1.1-0.4c0,0,0.2-0.3-0.2-0.4c-0.6-0.2-1.2-0.4-1.9-0.4c0,0-1.5-0.1-2,0.4
					c-0.3,0.3-0.4,0.7-0.3,1.1c0,0,0.4,1.4,2.6,1.7c0,0,1.7,0.2,2.9-0.6s1.2-2.5,0.3-3.2c-0.3-0.2-0.7-0.4-1.1-0.5
					c-0.7-0.1-1.4-0.2-2.1-0.3c-0.5,0-1-0.1-1.6-0.2c0,0-0.5-0.2,0.1-0.3c1-0.2,1.9-0.3,2.9-0.3C61.5,268.7,62.1,268.6,62.7,268.5z"
					/>
				<path class="st2" d="M64.6,268.2c-0.6,1.5-0.9,3.2-0.8,4.8c0,0,0,0.8,0.6,1c0.3,0.1,0.6,0,0.7-0.3c0,0,0,0,0-0.1
					c0,0,0.1-0.1,0.3-3.4c0,0,0-0.3,0.1-0.4c0,0,0.1,0,0.1,0.1s0.5,1,0.7,1.3c0,0,0.8,1.6,1.5,2.2c0,0,0.7,0.7,1.5-0.5
					c0,0,0.7-1,0.3-3.1c0,0-0.3-2.2-1.7-3.5c0,0-0.5-0.5-0.6,0c0,0.3,0.1,0.6,0.2,0.9c0,0,0.7,2.5,0.8,4.1c0,0,0,0.5-0.2,0.2
					c0,0-0.7-1.1-0.9-1.5c-0.5-0.8-1-1.5-1.6-2.3c-0.1-0.1-0.3-0.1-0.4-0.1C65,267.7,64.8,267.8,64.6,268.2"/>
				<path class="st2" d="M73,267.1c0.6-0.1,1.3-0.2,1.9-0.2c0,0,0.6,0,1,0.9c0,0,0.2,0.3-0.1,0.5c0,0-0.4,0.3-2.9,0.2l-0.3,1
					c0.6,0,1.3,0,1.9,0.1c0,0,0.3,0.1,0.3,0.3c0,0.2,0,0.3,0,0.5c-0.1,0.2-0.2,0.3-0.4,0.3c-0.6,0.1-1.2,0.1-1.9,0.1h-0.4l-0.5,1.5
					c0,0,0.4-0.1,1.1-0.2c0.5-0.1,1.1-0.2,1.6-0.2c0.4,0,0.8,0.6,0.4,1c0,0-1.5,1.3-2.9,1.3c-0.6,0-1.1-0.2-1.5-0.6
					c-0.3-0.5-0.3-1.1-0.1-1.7c0.1-0.3,0.2-0.5,0.3-0.8c0-0.1,0.1-0.2,0.1-0.3c0-0.3-0.1-0.5-0.1-0.6c0-0.2,0.1-0.4,0.3-0.4
					c0,0,0.3,0,0.4-0.3l0.4-0.9c0,0-1.2-0.3-1.2-0.8c0,0-0.1-0.2,0.1-0.3L73,267.1z"/>
				<path class="st2" d="M82.7,270c0-0.7-0.3-1.4-0.8-1.9c-0.3-0.2-0.7-0.3-1.1-0.1c-1.7,0.9-3.6,3.8-3.6,3.8
					c-0.3-0.7,0.4-1.9,0.4-1.9c0.2-0.4,0.6-1,0.6-1c0.3-0.4,0.4-0.9,0.5-1.4c0.1-0.6-0.5,0-0.5,0c-0.7,0.8-1.3,1.6-1.7,2.6
					c-0.8,1.9,0.1,3.2,0.1,3.2c-0.9,1.7-1.4,5.3-1.4,5.3c0,0.4,0.1,0.7,0.3,1c0.2,0.4,0.7,0.6,1.1,0.6c0.4-1.9,0.9-3.8,1.5-5.7
					c2,0.1,3.4-1.5,3.4-1.5C82.8,271.5,82.7,270,82.7,270z M81.1,271.5c0,0-1,1.2-2.3,1.2c0,0,1.1-2.3,2.4-3.4c0,0,0.3-0.3,0.4,0.1
					C81.7,270.2,81.6,270.9,81.1,271.5L81.1,271.5z"/>
			</g>
		</g>
		<path id="circle" class="st0" d="M100.7,394.3v-0.8c2,0,4.1-0.1,6.1-0.3l0.1,0.8C104.9,394.2,102.8,394.3,100.7,394.3z
			 M96.1,394.2c-2.1-0.1-4.1-0.2-6.2-0.4L90,393c2,0.2,4.1,0.3,6.1,0.4L96.1,394.2z M111.5,393.5l-0.1-0.8c2-0.3,4.1-0.6,6.1-1
			l0.1,0.8C115.6,392.9,113.6,393.3,111.5,393.5L111.5,393.5z M85.3,393.2c-2-0.3-4.1-0.7-6.1-1.1l0.2-0.8c2,0.4,4,0.8,6,1.1
			L85.3,393.2z M122.2,391.5l-0.2-0.7c2-0.5,4-1.1,5.9-1.7l0.2,0.7C126.2,390.5,124.2,391.1,122.2,391.5L122.2,391.5z M74.7,390.9
			c-2-0.5-4-1.2-5.9-1.8l0.3-0.7c1.9,0.7,3.9,1.3,5.9,1.8L74.7,390.9z M132.5,388.3l-0.3-0.7c1.9-0.7,3.8-1.5,5.7-2.3l0.3,0.7
			C136.4,386.8,134.5,387.6,132.5,388.3L132.5,388.3z M64.5,387.5c-1.9-0.8-3.8-1.6-5.7-2.5l0.3-0.7c1.8,0.9,3.7,1.7,5.6,2.5
			L64.5,387.5z M142.5,384l-0.4-0.7c1.8-0.9,3.6-1.9,5.4-3l0.4,0.7C146.1,382,144.3,383,142.5,384L142.5,384z M54.7,382.9
			c-1.8-1-3.6-2-5.3-3.1l0.4-0.7c1.7,1.1,3.5,2.1,5.3,3.1L54.7,382.9z M151.8,378.5l-0.4-0.6c1.7-1.1,3.4-2.3,5-3.6l0.5,0.6
			C155.2,376.1,153.5,377.3,151.8,378.5L151.8,378.5z M45.5,377.2c-1.7-1.2-3.3-2.4-4.9-3.7l0.5-0.6c1.6,1.3,3.2,2.5,4.9,3.7
			L45.5,377.2z M160.5,371.9l-0.5-0.6c1.6-1.3,3.1-2.7,4.5-4.1l0.5,0.6C163.5,369.2,162,370.6,160.5,371.9L160.5,371.9z M37,370.4
			c-1.5-1.4-3-2.8-4.5-4.3l0.5-0.5c1.4,1.5,2.9,2.9,4.4,4.2L37,370.4z M168.3,364.5l-0.6-0.5c1.4-1.5,2.8-3,4-4.6l0.6,0.5
			C171,361.4,169.7,363,168.3,364.5z M29.4,362.8c-1.4-1.5-2.7-3.1-4-4.8l0.6-0.5c1.3,1.6,2.6,3.2,3.9,4.7L29.4,362.8z M175.2,356.2
			l-0.6-0.5c1.2-1.6,2.4-3.3,3.5-5l0.6,0.4C177.6,352.8,176.4,354.5,175.2,356.2L175.2,356.2z M22.7,354.3c-1.2-1.7-2.3-3.4-3.4-5.2
			l0.7-0.4c1.1,1.7,2.2,3.5,3.3,5.1L22.7,354.3z M181.1,347.1l-0.7-0.4c1-1.8,2-3.6,2.9-5.4l0.7,0.3
			C183.1,343.5,182.2,345.3,181.1,347.1L181.1,347.1z M16.9,345.1c-1-1.8-1.9-3.7-2.8-5.5l0.7-0.3c0.8,1.9,1.8,3.7,2.8,5.5
			L16.9,345.1z M186,337.4l-0.7-0.3c0.8-1.9,1.6-3.8,2.2-5.7l0.7,0.3C187.6,333.6,186.8,335.5,186,337.4L186,337.4z M12.3,335.3
			c-0.8-1.9-1.5-3.9-2.1-5.8l0.7-0.2c0.6,1.9,1.3,3.9,2.1,5.8L12.3,335.3z M189.7,327.3l-0.7-0.2c0.6-2,1.1-3.9,1.6-5.9l0.8,0.2
			C190.8,323.3,190.3,325.3,189.7,327.3z M8.9,325c-0.5-2-1-4-1.4-6l0.8-0.2c0.4,2,0.9,4,1.4,6L8.9,325z M192.2,316.7l-0.8-0.1
			c0.4-2,0.6-4,0.9-6.1l0.8,0.1C192.8,312.6,192.5,314.7,192.2,316.7z M6.7,314.4c-0.3-2-0.5-4.1-0.7-6.1l0.8-0.1
			c0.2,2,0.4,4.1,0.7,6.1L6.7,314.4z M193.4,306l-0.8,0c0.1-1.9,0.2-3.8,0.2-5.6c0-2-0.1-4.1-0.2-6.1l0.8-0.1c0.1,2,0.2,4.1,0.2,6.2
			C193.6,302.2,193.5,304.1,193.4,306z M5.6,303.6c0-1.1-0.1-2.2-0.1-3.3c0-1,0-1.9,0-2.8l0.8,0c0,0.9,0,1.9,0,2.8
			c0,1.1,0,2.2,0.1,3.3L5.6,303.6z M6.7,292.9l-0.8-0.1c0.2-2.1,0.4-4.1,0.7-6.2l0.8,0.1C7,288.8,6.8,290.8,6.7,292.9L6.7,292.9z
			 M192.2,289.6c-0.2-2-0.5-4.1-0.9-6.1l0.8-0.1c0.4,2,0.7,4.1,0.9,6.1L192.2,289.6z M8.1,282.2l-0.8-0.2c0.4-2,0.9-4,1.4-6l0.7,0.2
			C9,278.2,8.5,280.2,8.1,282.2L8.1,282.2z M190.4,279c-0.5-2-1-4-1.6-5.9l0.7-0.2c0.6,2,1.1,4,1.6,6L190.4,279z M10.8,271.8
			l-0.7-0.2c0.6-2,1.3-3.9,2.1-5.8l0.7,0.3C12.1,267.9,11.4,269.9,10.8,271.8z M187.3,268.7c-0.7-1.9-1.5-3.8-2.3-5.7l0.7-0.3
			c0.8,1.9,1.6,3.8,2.3,5.8L187.3,268.7z M14.6,261.8l-0.7-0.3c0.8-1.9,1.8-3.7,2.7-5.5l0.7,0.4C16.4,258.1,15.5,260,14.6,261.8z
			 M183.1,258.8c-0.9-1.8-1.9-3.6-2.9-5.4l0.7-0.4c1,1.8,2,3.6,2.9,5.4L183.1,258.8z M19.6,252.3l-0.7-0.4c1.1-1.8,2.2-3.5,3.3-5.2
			l0.6,0.4C21.8,248.8,20.7,250.6,19.6,252.3z M177.8,249.5c-1.1-1.7-2.3-3.4-3.5-5l0.6-0.5c1.2,1.6,2.4,3.3,3.5,5.1L177.8,249.5z
			 M25.7,243.5l-0.6-0.5c1.3-1.6,2.6-3.2,3.9-4.8l0.6,0.5C28.2,240.2,26.9,241.8,25.7,243.5z M171.4,240.8c-1.3-1.6-2.7-3.1-4.1-4.6
			l0.6-0.5c1.4,1.5,2.8,3.1,4.1,4.6L171.4,240.8z M32.7,235.3l-0.6-0.5c1.4-1.5,2.9-2.9,4.5-4.3l0.5,0.6
			C35.6,232.4,34.1,233.9,32.7,235.3z M164.1,233c-1.5-1.4-3-2.8-4.6-4.1l0.5-0.6c1.6,1.3,3.1,2.7,4.6,4.1L164.1,233z M40.6,228.1
			l-0.5-0.6c1.6-1.3,3.2-2.6,4.9-3.8l0.4,0.6C43.8,225.5,42.2,226.8,40.6,228.1z M155.9,226c-1.6-1.2-3.3-2.4-5-3.5l0.4-0.6
			c1.7,1.1,3.4,2.3,5,3.6L155.9,226z M49.3,221.8l-0.4-0.6c1.7-1.1,3.5-2.2,5.3-3.2l0.4,0.7C52.8,219.6,51,220.6,49.3,221.8z
			 M147,220c-1.8-1-3.6-2-5.4-2.9l0.3-0.7c1.8,0.9,3.7,1.9,5.4,3L147,220z M58.7,216.5l-0.3-0.7c1.9-0.9,3.8-1.8,5.7-2.5l0.3,0.7
			C62.4,214.7,60.5,215.6,58.7,216.5z M137.5,215.1c-1.9-0.8-3.8-1.6-5.7-2.3l0.3-0.7c1.9,0.7,3.8,1.5,5.7,2.3L137.5,215.1z
			 M68.6,212.3l-0.3-0.7c1.9-0.7,3.9-1.3,5.9-1.9l0.2,0.7C72.5,211,70.5,211.7,68.6,212.3z M127.4,211.3c-1.9-0.6-3.9-1.2-5.9-1.6
			l0.2-0.7c2,0.5,4,1,6,1.6L127.4,211.3z M78.9,209.3l-0.2-0.8c2-0.5,4-0.8,6.1-1.2l0.1,0.8C82.9,208.5,80.9,208.9,78.9,209.3z
			 M117,208.7c-2-0.4-4-0.7-6.1-0.9l0.1-0.8c2,0.2,4.1,0.6,6.1,0.9L117,208.7z M89.5,207.6l-0.1-0.8c2-0.2,4.1-0.4,6.2-0.5l0,0.8
			C93.6,207.2,91.5,207.4,89.5,207.6L89.5,207.6z M106.4,207.3c-2-0.1-4.1-0.2-6.1-0.2v-0.8c2.1,0,4.1,0.1,6.2,0.2L106.4,207.3z"/>
	</g>
</g>
<g id="circle-logo_1_">
	<g id="white_1_">
		<g id="logo_1_">
			<g id="ux_1_">
				<path class="st3" d="M101.2,108.3c-2.5-2.7-3.7-6.6-3.7-11.8V71.3h4.4v25.2c0,7.9,3.5,11.8,10.4,11.8c3.1,0,5.6-1,7.4-3.1
					c1.8-2,2.7-5,2.7-8.8V71.3h4.4v25.2c0,5.1-1.3,9-3.8,11.7c-2.6,2.7-6.1,4.1-10.7,4.1C107.3,112.3,103.6,111,101.2,108.3z"/>
				<path class="st3" d="M112.3,112.9c-5.1,0-9-1.4-11.5-4.2c-2.6-2.8-3.9-6.9-3.9-12.2V70.7h5.6v25.8c0,7.5,3.2,11.2,9.8,11.2
					c3,0,5.3-0.9,7-2.9c1.7-1.9,2.6-4.7,2.6-8.4V70.7h5.6v25.8c0,5.2-1.3,9.3-4,12.1C120.7,111.5,117,112.9,112.3,112.9z M98,71.9
					v24.6c0,5,1.2,8.8,3.5,11.4l0,0c2.3,2.5,5.9,3.8,10.7,3.8c4.4,0,7.9-1.3,10.3-3.9s3.7-6.4,3.7-11.3V71.9H123v24.6
					c0,3.9-1,7-2.9,9.1c-1.9,2.1-4.6,3.3-7.9,3.3c-7.3,0-11-4.2-11-12.4V71.9L98,71.9z"/>
				<path class="st3" d="M163.5,111.4h-4.9l-10.1-16.7l-9.5,16.7h-4.9l11.6-19.8l-11.9-20.3h4.8l10,17.1l10.2-17.1h4.6l-12,19.9
					L163.5,111.4z"/>
				<path class="st3" d="M164.5,112h-6.3l-9.8-16.1l-9.1,16.1H133L145,91.6l-12.2-20.9h6.1l9.7,16.5l9.9-16.5h6L152,91.2L164.5,112z
					 M158.9,110.8h3.6l-11.9-19.6l11.7-19.3h-3.2l-10.6,17.7l-10.3-17.7h-3.4l11.5,19.7l-11.2,19.2h3.6l9.8-17.3L158.9,110.8z"/>
			</g>
			<g id="m-colon_1_">
				<path id="colon_1_" class="st3" d="M83.1,89.9c-0.6-0.6-0.9-1.4-0.9-2.2c0-1.7,1.4-3.1,3.1-3.1c0.8,0,1.6,0.3,2.2,0.9
					c0.6,0.6,0.9,1.3,0.9,2.1c0,0.8-0.3,1.6-0.9,2.2c-1.1,1.2-3,1.2-4.2,0.1C83.2,90,83.1,90,83.1,89.9z M83.1,110.9
					c-0.6-0.6-0.9-1.4-0.9-2.2c0-1.7,1.4-3.1,3.1-3.1c0.8,0,1.6,0.3,2.2,0.9c0.6,0.6,0.9,1.4,0.9,2.2c0,0.8-0.3,1.6-0.9,2.1
					C86.2,112.1,84.3,112.1,83.1,110.9C83.1,111,83.1,110.9,83.1,110.9z"/>
				<path id="m_1_" class="st3" d="M72.2,86.6c1.6,1.7,2.4,4.1,2.4,7.1v17.7h-3.8v-16c0-2.8-0.5-4.8-1.6-6c-1-1.2-2.5-1.9-4.1-1.8
					c-1.9-0.1-3.7,0.8-4.8,2.4c-1.1,1.6-1.8,3.8-2,6.5v14.9h-3.8v-16c0-2.8-0.5-4.8-1.6-6c-1-1.2-2.5-1.9-4.1-1.8
					c-2.1-0.1-4.1,1-5.2,2.9c-1.1,1.9-1.7,4.5-1.7,7.7v13.2H38V84.9h3.8v4.1c0.8-1.5,1.9-2.8,3.3-3.7c3-1.8,6.7-1.7,9.6,0.3
					c1.5,1.1,2.5,2.7,3,4.4c0.7-1.7,1.9-3.3,3.4-4.4c1.4-1.1,3.2-1.6,5-1.6C68.4,84,70.6,84.9,72.2,86.6z"/>
			</g>
			<g id="ux-engineering_1_" class="st1">
				<path class="st3" d="M38.8,133.7c-0.7-0.8-1.1-2-1.1-3.5v-7.5H39v7.5c0,2.3,1,3.5,3.1,3.5c0.8,0,1.6-0.3,2.2-0.9
					c0.6-0.7,0.9-1.7,0.8-2.6v-7.5h1.3v7.5c0,1.5-0.4,2.7-1.1,3.5c-0.8,0.8-2,1.3-3.2,1.2C40.7,134.9,39.6,134.5,38.8,133.7z"/>
				<path class="st3" d="M56.7,134.7h-1.5l-3-4.9l-2.8,4.9H48l3.4-5.9l-3.5-6h1.4l3,5.1l3-5.1h1.4l-3.6,5.9L56.7,134.7z"/>
				<path class="st3" d="M65.6,134.7v-11.9h6.7v1.1h-5.3v4.1h4.2v1.1h-4.2v4.5h5.4v1.1L65.6,134.7z"/>
				<path class="st3" d="M74.4,134.7v-11.9h1.4l6,9.9v-9.9h1.3v11.9h-1.4l-6-9.9v9.9H74.4z"/>
				<path class="st3" d="M87.3,134.2c-0.8-0.5-1.3-1.3-1.7-2.1c-0.4-1.1-0.6-2.2-0.6-3.3c0-1.1,0.2-2.3,0.6-3.3
					c0.3-0.9,0.9-1.6,1.7-2.1c0.8-0.5,1.7-0.8,2.6-0.7c0.8,0,1.7,0.2,2.4,0.6c0.7,0.5,1.3,1.1,1.7,1.8l-1,0.7c-0.7-1.3-1.8-2-3.1-2
					c-1,0-2,0.5-2.6,1.3c-0.6,0.9-0.9,2.1-0.9,3.7s0.3,2.8,0.9,3.7c0.6,0.9,1.5,1.4,2.5,1.3c0.6,0,1.1-0.1,1.6-0.4
					c0.5-0.3,0.9-0.8,1.1-1.3c0.3-0.7,0.4-1.4,0.4-2.1h-2.8v-1.1h4.1v1.1c0,0.9-0.2,1.9-0.6,2.7c-0.4,0.7-0.9,1.3-1.6,1.7
					c-0.7,0.4-1.5,0.6-2.3,0.6C88.9,135,88,134.7,87.3,134.2z"/>
				<path class="st3" d="M96,134.7v-1.2h1.2v-9.6H96v-1.2h3.6v1.2h-1.2v9.6h1.2v1.2H96z"/>
				<path class="st3" d="M102,134.7v-11.9h1.4l6,9.9v-9.9h1.3v11.9h-1.4l-6-9.9v9.9H102z"/>
				<path class="st3" d="M113.5,134.7v-11.9h6.7v1.1h-5.4v4.1h4.2v1.1h-4.2v4.5h5.4v1.1L113.5,134.7z"/>
				<path class="st3" d="M122.3,134.7v-11.9h6.7v1.1h-5.3v4.1h4.2v1.1h-4.2v4.5h5.4v1.1L122.3,134.7z"/>
				<path class="st3" d="M137.7,134.7l-3-5.2h-2.4v5.2H131v-11.9h4c0.7,0,1.3,0.1,1.9,0.4c0.5,0.3,1,0.7,1.3,1.2
					c0.3,0.5,0.4,1.1,0.4,1.7c0,0.7-0.2,1.5-0.7,2c-0.5,0.6-1.2,1-1.9,1.1l3.1,5.4L137.7,134.7z M132.3,128.3h2.5
					c0.6,0,1.3-0.2,1.8-0.6c0.4-0.4,0.6-1,0.6-1.6c0-0.6-0.2-1.2-0.6-1.6c-0.5-0.4-1.1-0.7-1.8-0.6h-2.5V128.3z"/>
				<path class="st3" d="M140.7,134.7v-1.2h1.2v-9.6h-1.2v-1.2h3.6v1.2h-1.2v9.6h1.2v1.2H140.7z"/>
				<path class="st3" d="M146.7,134.7v-11.9h1.4l6,9.9v-9.9h1.3v11.9H154l-6-9.9v9.9H146.7z"/>
				<path class="st3" d="M159.6,134.2c-0.8-0.5-1.3-1.3-1.7-2.1c-0.4-1.1-0.6-2.2-0.6-3.3c0-1.1,0.2-2.3,0.6-3.3
					c0.3-0.9,0.9-1.6,1.7-2.1c0.8-0.5,1.7-0.8,2.6-0.7c0.8,0,1.7,0.2,2.4,0.6c0.7,0.5,1.3,1.1,1.7,1.8l-1,0.7c-0.7-1.3-1.8-2-3.1-2
					c-1,0-2,0.5-2.6,1.3c-0.6,0.9-0.9,2.1-0.9,3.7c0,1.6,0.3,2.8,0.9,3.7c0.6,0.9,1.5,1.4,2.5,1.3c0.6,0,1.1-0.1,1.6-0.4
					c0.5-0.3,0.9-0.8,1.1-1.3c0.3-0.7,0.4-1.4,0.4-2.1h-2.8v-1.1h4.1v1.1c0,0.9-0.2,1.9-0.6,2.7c-0.4,0.7-0.9,1.3-1.6,1.7
					c-0.7,0.4-1.5,0.6-2.3,0.6C161.2,135,160.3,134.7,159.6,134.2z"/>
			</g>
			<g id="disney_1_" class="st4">
				<path class="st3" d="M49.4,63.5C40.9,57.4,34.5,60,34.5,60c-1,0.4-0.9,1.2-0.9,1.2c0.1,0.6,0.9,0.7,0.9,0.7
					c0.6,0,0.7-0.2,0.7-0.2c0.1-0.3-0.4-0.3-0.4-0.3c-0.5,0-0.4-0.1-0.4-0.1c0-0.2,0.2-0.3,0.2-0.3c2-0.3,4.1-0.3,6.2,0.1
					c6.8,1.7,9.3,5.1,9.3,5.1c2.4,2.9,1,5,1,5c-1.9,2.7-6.2,2.3-6.2,2.3c-0.7-0.1-1.3-0.1-2-0.3c0-1.2,0-2.9,0-4.5
					c2.9,0.1,4.3,0.8,4.3,0.8c0.5,0.3,0.1,0.6-0.2,0.8c-0.1,0.1-0.3,0.2-0.3,0.4c0,0.1,0.1,0.2,0.2,0.2c0.4,0.1,0.8,0,1.1-0.1
					c0.5-0.3,0.8-0.8,0.8-1.4c-0.1-1.6-2.9-2-2.9-2c-1-0.2-2.1-0.2-3.1-0.2c0-0.9-0.1-1.8-0.3-2.7c0,0-0.2-0.7-0.6-0.6
					c0,0-0.4,0.1-0.5,1.2c0,0-0.1,1-0.1,2.3c-2.8,0.4-4.2,1.6-4.2,1.6c-1,0.7,0,1.9,0,1.9c0.9,1.4,3.5,2.9,3.5,2.9
					c0.2,0.1,0.5,0.2,0.7,0.3c0,0.4,0.1,0.8,0.1,1.2c0,0.3,0.3,0.5,0.6,0.5c0,0,0.9,0.1,0.9-0.6c0,0,0-0.2,0-0.5c3.6,1,6.3,0,6.3,0
					c4.2-1.3,4.2-4.7,4.2-4.7C53.4,66.5,49.4,63.5,49.4,63.5z M37.2,70.3c-0.3-0.4-0.1-0.7-0.1-0.7c0.2-0.5,3.2-1,4.1-0.9
					c-0.1,1.3-0.1,2.7-0.1,4C38.3,71.7,37.2,70.3,37.2,70.3z"/>
				<path class="st3" d="M55.5,68.3c0.4,4.8,0.2,5.3,0.2,5.3C55.7,74,55,74,55,74c-0.5,0-0.6-0.3-0.6-0.3c-0.5-1.2,0-6,0-6
					s0.1-0.6,0.5-0.6C55,67.2,55.4,67.1,55.5,68.3"/>
				<path class="st3" d="M59.1,62.2c-0.2-0.4-0.7-0.7-1.2-0.7c0,0-0.4-0.7-1.6-0.7c-1.2,0.1-2.3,0.6-3.1,1.5
					c-0.4,0.5-0.7,1.1-0.7,1.7c0,0.5,0.2,0.9,0.5,1.2c0,0.2,0,0.4,0,0.6c0,0,0.1,0.6,0.5,0.7c0,0,0.4,0.1,0.6-0.6
					c1.5,0.6,3-0.4,3.6-0.7C57.7,65.1,59.8,63.7,59.1,62.2z M53.6,64.2c-0.3-0.5,0.3-1.2,0.3-1.2c0.5-0.5,1.1-0.8,1.7-0.8
					C54.8,62.7,54.1,63.4,53.6,64.2L53.6,64.2z M58.3,63.3c0,0-0.9,1.9-3.5,1.5c0,0,1.4-2.3,3-2.3C57.9,62.5,58.7,62.5,58.3,63.3z"
					/>
				<path class="st3" d="M62.7,68.5c0.6-0.2,0.7-0.5,0.7-0.5c0.1-0.4-0.9-0.6-0.9-0.6c-1.5-0.3-3.1-0.2-4.6,0.3c0,0-1.3,0.5-1.4,1.5
					c0,0-0.2,0.9,0.6,1.2c0.6,0.1,1.2,0.2,1.8,0.2c0,0,2.3,0.1,2.9,0.6c0.2,0.1,0.3,0.5,0.2,0.7c0,0-0.1,0.1-0.1,0.1
					c0,0-0.8,1-3.6,0.7c0,0-1.1-0.1-0.9-0.7c0,0,0.1-0.3,0.6-0.3c0.4,0,0.8,0.1,1.1,0.3c0.4,0.2,0.7,0.2,1.1,0.3
					c0.4,0,0.8-0.2,1.1-0.4c0,0,0.2-0.3-0.2-0.4c-0.6-0.2-1.2-0.4-1.9-0.4c0,0-1.5-0.1-2,0.4c-0.3,0.3-0.4,0.7-0.3,1.1
					c0,0,0.4,1.4,2.6,1.7c0,0,1.7,0.2,2.9-0.6s1.2-2.5,0.3-3.2c-0.3-0.2-0.7-0.4-1.1-0.5c-0.7-0.1-1.4-0.2-2.1-0.3
					c-0.5,0-1-0.1-1.6-0.2c0,0-0.5-0.2,0.1-0.3c1-0.2,1.9-0.3,2.9-0.3C61.5,68.7,62.1,68.6,62.7,68.5z"/>
				<path class="st3" d="M64.6,68.2c-0.6,1.5-0.9,3.2-0.8,4.8c0,0,0,0.8,0.6,1c0.3,0.1,0.6,0,0.7-0.3c0,0,0,0,0-0.1
					c0,0,0.1-0.1,0.3-3.4c0,0,0-0.3,0.1-0.4c0,0,0.1,0,0.1,0.1s0.5,1,0.7,1.3c0,0,0.8,1.6,1.5,2.2c0,0,0.7,0.7,1.5-0.5
					c0,0,0.7-1,0.3-3.1c0,0-0.3-2.2-1.7-3.5c0,0-0.5-0.5-0.6,0c0,0.3,0.1,0.6,0.2,0.9c0,0,0.7,2.5,0.8,4.1c0,0,0,0.5-0.2,0.2
					c0,0-0.7-1.1-0.9-1.5c-0.5-0.8-1-1.5-1.6-2.3c-0.1-0.1-0.3-0.1-0.4-0.1C65,67.7,64.8,67.8,64.6,68.2"/>
				<path class="st3" d="M73,67.1c0.6-0.1,1.3-0.2,1.9-0.2c0,0,0.6,0,1,0.9c0,0,0.2,0.3-0.1,0.5c0,0-0.4,0.3-2.9,0.2l-0.3,1
					c0.6,0,1.3,0,1.9,0.1c0,0,0.3,0.1,0.3,0.3c0,0.2,0,0.3,0,0.5c-0.1,0.2-0.2,0.3-0.4,0.3c-0.6,0.1-1.2,0.1-1.9,0.1h-0.4l-0.5,1.5
					c0,0,0.4-0.1,1.1-0.2c0.5-0.1,1.1-0.2,1.6-0.2c0.4,0,0.8,0.6,0.4,1c0,0-1.5,1.3-2.9,1.3c-0.6,0-1.1-0.2-1.5-0.6
					c-0.3-0.5-0.3-1.1-0.1-1.7c0.1-0.3,0.2-0.5,0.3-0.8c0-0.1,0.1-0.2,0.1-0.3c0-0.3-0.1-0.5-0.1-0.6c0-0.2,0.1-0.4,0.3-0.4
					c0,0,0.3,0,0.4-0.3l0.4-0.9c0,0-1.2-0.3-1.2-0.8c0,0-0.1-0.2,0.1-0.3L73,67.1z"/>
				<path class="st3" d="M82.7,70c0-0.7-0.3-1.4-0.8-1.9c-0.3-0.2-0.7-0.3-1.1-0.1c-1.7,0.9-3.6,3.8-3.6,3.8
					c-0.3-0.7,0.4-1.9,0.4-1.9c0.2-0.4,0.6-1,0.6-1c0.3-0.4,0.4-0.9,0.5-1.4c0.1-0.6-0.5,0-0.5,0c-0.7,0.8-1.3,1.6-1.7,2.6
					c-0.8,1.9,0.1,3.2,0.1,3.2C75.5,75,75,78.5,75,78.5c0,0.4,0.1,0.7,0.3,1c0.2,0.4,0.7,0.6,1.1,0.6c0.4-1.9,0.9-3.8,1.5-5.7
					c2,0.1,3.4-1.5,3.4-1.5C82.8,71.5,82.7,70,82.7,70z M81.1,71.5c0,0-1,1.2-2.3,1.2c0,0,1.1-2.3,2.4-3.4c0,0,0.3-0.3,0.4,0.1
					C81.7,70.2,81.6,70.9,81.1,71.5L81.1,71.5z"/>
			</g>
		</g>
		<path id="circle_1_" class="st3" d="M100.7,194.3v-0.8c2,0,4.1-0.1,6.1-0.3l0.1,0.8C104.9,194.2,102.8,194.3,100.7,194.3z
			 M96.1,194.2c-2.1-0.1-4.1-0.2-6.2-0.4L90,193c2,0.2,4.1,0.3,6.1,0.4L96.1,194.2z M111.5,193.5l-0.1-0.8c2-0.3,4.1-0.6,6.1-1
			l0.1,0.8C115.6,192.9,113.6,193.3,111.5,193.5L111.5,193.5z M85.3,193.2c-2-0.3-4.1-0.7-6.1-1.1l0.2-0.8c2,0.4,4,0.8,6,1.1
			L85.3,193.2z M122.2,191.5l-0.2-0.7c2-0.5,4-1.1,5.9-1.7l0.2,0.7C126.2,190.5,124.2,191.1,122.2,191.5L122.2,191.5z M74.7,190.9
			c-2-0.5-4-1.2-5.9-1.8l0.3-0.7c1.9,0.7,3.9,1.3,5.9,1.8L74.7,190.9z M132.5,188.3l-0.3-0.7c1.9-0.7,3.8-1.5,5.7-2.3l0.3,0.7
			C136.4,186.8,134.5,187.6,132.5,188.3L132.5,188.3z M64.5,187.5c-1.9-0.8-3.8-1.6-5.7-2.5l0.3-0.7c1.8,0.9,3.7,1.7,5.6,2.5
			L64.5,187.5z M142.5,184l-0.4-0.7c1.8-0.9,3.6-1.9,5.4-3l0.4,0.7C146.1,182,144.3,183,142.5,184L142.5,184z M54.7,182.9
			c-1.8-1-3.6-2-5.3-3.1l0.4-0.7c1.7,1.1,3.5,2.1,5.3,3.1L54.7,182.9z M151.8,178.5l-0.4-0.6c1.7-1.1,3.4-2.3,5-3.6l0.5,0.6
			C155.2,176.1,153.5,177.3,151.8,178.5L151.8,178.5z M45.5,177.2c-1.7-1.2-3.3-2.4-4.9-3.7l0.5-0.6c1.6,1.3,3.2,2.5,4.9,3.7
			L45.5,177.2z M160.5,171.9l-0.5-0.6c1.6-1.3,3.1-2.7,4.5-4.1l0.5,0.6C163.5,169.2,162,170.6,160.5,171.9L160.5,171.9z M37,170.4
			c-1.5-1.4-3-2.8-4.5-4.3l0.5-0.5c1.4,1.5,2.9,2.9,4.4,4.2L37,170.4z M168.3,164.5l-0.6-0.5c1.4-1.5,2.8-3,4-4.6l0.6,0.5
			C171,161.4,169.7,163,168.3,164.5z M29.4,162.8c-1.4-1.5-2.7-3.1-4-4.8l0.6-0.5c1.3,1.6,2.6,3.2,3.9,4.7L29.4,162.8z M175.2,156.2
			l-0.6-0.5c1.2-1.6,2.4-3.3,3.5-5l0.6,0.4C177.6,152.8,176.4,154.5,175.2,156.2L175.2,156.2z M22.7,154.3c-1.2-1.7-2.3-3.4-3.4-5.2
			l0.7-0.4c1.1,1.7,2.2,3.5,3.3,5.1L22.7,154.3z M181.1,147.1l-0.7-0.4c1-1.8,2-3.6,2.9-5.4l0.7,0.3
			C183.1,143.5,182.2,145.3,181.1,147.1L181.1,147.1z M16.9,145.1c-1-1.8-1.9-3.7-2.8-5.5l0.7-0.3c0.8,1.9,1.8,3.7,2.8,5.5
			L16.9,145.1z M186,137.4l-0.7-0.3c0.8-1.9,1.6-3.8,2.2-5.7l0.7,0.3C187.6,133.6,186.8,135.5,186,137.4L186,137.4z M12.3,135.3
			c-0.8-1.9-1.5-3.9-2.1-5.8l0.7-0.2c0.6,1.9,1.3,3.9,2.1,5.8L12.3,135.3z M189.7,127.3l-0.7-0.2c0.6-2,1.1-3.9,1.6-5.9l0.8,0.2
			C190.8,123.3,190.3,125.3,189.7,127.3z M8.9,125c-0.5-2-1-4-1.4-6l0.8-0.2c0.4,2,0.9,4,1.4,6L8.9,125z M192.2,116.7l-0.8-0.1
			c0.4-2,0.6-4,0.9-6.1l0.8,0.1C192.8,112.6,192.5,114.7,192.2,116.7z M6.7,114.4c-0.3-2-0.5-4.1-0.7-6.1l0.8-0.1
			c0.2,2,0.4,4.1,0.7,6.1L6.7,114.4z M193.4,106l-0.8,0c0.1-1.9,0.2-3.8,0.2-5.6c0-2-0.1-4.1-0.2-6.1l0.8-0.1c0.1,2,0.2,4.1,0.2,6.2
			C193.6,102.2,193.5,104.1,193.4,106z M5.6,103.6c0-1.1-0.1-2.2-0.1-3.3c0-1,0-1.9,0-2.8l0.8,0c0,0.9,0,1.9,0,2.8
			c0,1.1,0,2.2,0.1,3.3L5.6,103.6z M6.7,92.9l-0.8-0.1c0.2-2.1,0.4-4.1,0.7-6.2l0.8,0.1C7,88.8,6.8,90.8,6.7,92.9L6.7,92.9z
			 M192.2,89.6c-0.2-2-0.5-4.1-0.9-6.1l0.8-0.1c0.4,2,0.7,4.1,0.9,6.1L192.2,89.6z M8.1,82.2l-0.8-0.2c0.4-2,0.9-4,1.4-6l0.7,0.2
			C9,78.2,8.5,80.2,8.1,82.2L8.1,82.2z M190.4,79c-0.5-2-1-4-1.6-5.9l0.7-0.2c0.6,2,1.1,4,1.6,6L190.4,79z M10.8,71.8l-0.7-0.2
			c0.6-2,1.3-3.9,2.1-5.8l0.7,0.3C12.1,67.9,11.4,69.9,10.8,71.8z M187.3,68.7c-0.7-1.9-1.5-3.8-2.3-5.7l0.7-0.3
			c0.8,1.9,1.6,3.8,2.3,5.8L187.3,68.7z M14.6,61.8l-0.7-0.3c0.8-1.9,1.8-3.7,2.7-5.5l0.7,0.4C16.4,58.1,15.5,60,14.6,61.8z
			 M183.1,58.8c-0.9-1.8-1.9-3.6-2.9-5.4l0.7-0.4c1,1.8,2,3.6,2.9,5.4L183.1,58.8z M19.6,52.3L19,51.9c1.1-1.8,2.2-3.5,3.3-5.2
			l0.6,0.4C21.8,48.8,20.7,50.6,19.6,52.3z M177.8,49.5c-1.1-1.7-2.3-3.4-3.5-5l0.6-0.5c1.2,1.6,2.4,3.3,3.5,5.1L177.8,49.5z
			 M25.7,43.5L25.1,43c1.3-1.6,2.6-3.2,3.9-4.8l0.6,0.5C28.2,40.2,26.9,41.8,25.7,43.5z M171.4,40.8c-1.3-1.6-2.7-3.1-4.1-4.6
			l0.6-0.5c1.4,1.5,2.8,3.1,4.1,4.6L171.4,40.8z M32.7,35.3l-0.6-0.5c1.4-1.5,2.9-2.9,4.5-4.3l0.5,0.6
			C35.6,32.4,34.1,33.9,32.7,35.3z M164.1,33c-1.5-1.4-3-2.8-4.6-4.1l0.5-0.6c1.6,1.3,3.1,2.7,4.6,4.1L164.1,33z M40.6,28.1
			l-0.5-0.6c1.6-1.3,3.2-2.6,4.9-3.8l0.4,0.6C43.8,25.5,42.2,26.8,40.6,28.1z M155.9,26c-1.6-1.2-3.3-2.4-5-3.5l0.4-0.6
			c1.7,1.1,3.4,2.3,5,3.6L155.9,26z M49.3,21.8l-0.4-0.6c1.7-1.1,3.5-2.2,5.3-3.2l0.4,0.7C52.8,19.6,51,20.6,49.3,21.8z M147,20
			c-1.8-1-3.6-2-5.4-2.9l0.3-0.7c1.8,0.9,3.7,1.9,5.4,3L147,20z M58.7,16.5l-0.3-0.7c1.9-0.9,3.8-1.8,5.7-2.5l0.3,0.7
			C62.4,14.7,60.5,15.6,58.7,16.5z M137.5,15.1c-1.9-0.8-3.8-1.6-5.7-2.3l0.3-0.7c1.9,0.7,3.8,1.5,5.7,2.3L137.5,15.1z M68.6,12.3
			l-0.3-0.7c1.9-0.7,3.9-1.3,5.9-1.9l0.2,0.7C72.5,11,70.5,11.7,68.6,12.3z M127.4,11.3c-1.9-0.6-3.9-1.2-5.9-1.6l0.2-0.7
			c2,0.5,4,1,6,1.6L127.4,11.3z M78.9,9.3l-0.2-0.8c2-0.5,4-0.8,6.1-1.2l0.1,0.8C82.9,8.5,80.9,8.9,78.9,9.3z M117,8.7
			c-2-0.4-4-0.7-6.1-0.9L111,7c2,0.2,4.1,0.6,6.1,0.9L117,8.7z M89.5,7.6l-0.1-0.8c2-0.2,4.1-0.4,6.2-0.5l0,0.8
			C93.6,7.2,91.5,7.4,89.5,7.6L89.5,7.6z M106.4,7.3c-2-0.1-4.1-0.2-6.1-0.2V6.3c2.1,0,4.1,0.1,6.2,0.2L106.4,7.3z"/>
	</g>
</g>
</svg>
