<?xml version="1.0" encoding="utf-8"?>
<!-- Generator: Adobe Illustrator 15.0.0, SVG Export Plug-In . SVG Version: 6.00 Build 0)  -->
<!DOCTYPE svg PUBLIC "-//W3C//DTD SVG 1.1//EN" "http://www.w3.org/Graphics/SVG/1.1/DTD/svg11.dtd">
<svg version="1.1" id="Layer_1" xmlns="http://www.w3.org/2000/svg" xmlns:xlink="http://www.w3.org/1999/xlink" x="0px" y="0px"
	 width="200px" height="200px" viewBox="677.5 -1.606 200 200" enable-background="new 677.5 -1.606 200 200" xml:space="preserve">
<g>
	<path fill="none" d="M742.129,85.494c0.647-0.398,1.302-0.787,1.964-1.16C743.431,84.708,742.776,85.096,742.129,85.494z"/>
	<path fill="none" d="M714.996,147.488L714.996,147.488c3.132,15.927,12.726,30.128,26.713,38.901c0-0.002,0.001-0.002,0.001-0.003
		C727.722,177.615,718.129,163.415,714.996,147.488z"/>
	<path fill="none" d="M739.533,87.181c0.748-0.515,1.507-1.014,2.277-1.495C741.04,86.167,740.281,86.666,739.533,87.181z"/>
	<path fill="none" d="M752.095,80.564c0.846-0.324,1.701-0.628,2.562-0.913C753.796,79.937,752.941,80.24,752.095,80.564z"/>
	<path fill="none" d="M755.153,79.496c0.68-0.218,1.362-0.427,2.05-0.621C756.516,79.069,755.833,79.277,755.153,79.496z"/>
	<path fill="none" d="M804.95,29.36c0.034,0.008,0.066,0.018,0.1,0.027c-0.032-0.011-0.065-0.02-0.1-0.03V29.36z"/>
	<path fill="none" d="M732.631,92.748c-0.074,0.07-0.152,0.136-0.226,0.207c0.003,0.002,0.005,0.003,0.008,0.005
		C732.487,92.891,732.557,92.817,732.631,92.748z"/>
	<path fill="none" d="M761.219,77.885c-0.183,0.038-0.363,0.084-0.546,0.125c0.187-0.042,0.374-0.074,0.562-0.113
		C761.229,77.893,761.225,77.888,761.219,77.885z"/>
	<path fill="none" d="M733.184,92.243c0.479-0.437,0.963-0.867,1.454-1.287C734.146,91.376,733.662,91.806,733.184,92.243z"/>
	<path fill="none" d="M737.386,88.74c0.604-0.458,1.218-0.904,1.839-1.338C738.604,87.835,737.99,88.282,737.386,88.74z"/>
	<path fill="none" d="M714.997,124.695L714.997,124.695c-0.975,4.965-1.297,9.927-1.016,14.794h0.001
		C713.701,134.622,714.023,129.66,714.997,124.695z"/>
	<path fill="none" d="M735.28,90.415c0.491-0.408,0.99-0.808,1.495-1.202C736.271,89.606,735.771,90.006,735.28,90.415z"/>
	<path fill="none" d="M832.621,132.857L832.621,132.857c0.183,3.368,0.088,6.781-0.323,10.21
		C832.709,139.638,832.804,136.226,832.621,132.857z"/>
	<path fill="none" d="M757.999,78.66c0.604-0.161,1.21-0.314,1.819-0.457C759.209,78.345,758.604,78.499,757.999,78.66z"/>
	<path fill="none" d="M800.316,188.969L800.316,188.969c4.633-2.368,8.95-5.339,12.83-8.842c0-0.001,0-0.001,0-0.001
		C809.267,183.63,804.949,186.601,800.316,188.969z"/>
	<path fill="none" d="M751.872,80.654c-0.077,0.03-0.152,0.063-0.229,0.092c0,0.001,0.002,0.001,0.002,0.002
		C751.721,80.718,751.795,80.683,751.872,80.654z"/>
	<path fill="none" d="M819,174.028c5.149-6.192,9.127-13.526,11.463-21.774C828.127,160.502,824.149,167.836,819,174.028
		L819,174.028z"/>
	<path fill="none" d="M757.111,193.234c-2.757-0.78-5.405-1.753-7.951-2.882c0,0.001,0,0.001,0,0.002
		c2.546,1.128,5.193,2.102,7.95,2.882c2.33,0.658,4.667,1.152,7.002,1.521c-0.001-0.001-0.001-0.001-0.001-0.001
		C761.777,194.388,759.441,193.895,757.111,193.234z"/>
	<path fill="none" d="M831.664,124.985L831.664,124.985c-0.916-4.81-2.422-9.461-4.46-13.86h-0.001
		C829.242,115.524,830.748,120.176,831.664,124.985z"/>
	<path fill="#FAFBFB" d="M814.58,112.096c-8.542-2.419-13.952-10.499-13.319-19.022c-4.101-0.659-8.717-1.687-13.921-3.132
		c0.008,0.002,0.017,0.005,0.024,0.007c0.159,0.042,0.318,0.085,0.479,0.13c0.454,0.132,0.884,0.266,1.351,0.398l-2.184-0.619
		c-1.007,7.08,0.311,14.257,3.858,20.606c4.196,7.513,11.015,12.975,19.235,15.446l1.312-6.818c0.401-2.086,2.42-3.457,4.502-3.051
		c2.085,0.402,3.451,2.417,3.05,4.503l-1.292,6.716c0.644,0.037,1.289,0.066,1.933,0.066c4.216,0,8.287-0.84,12.056-2.342
		c-0.916-4.81-2.422-9.461-4.461-13.86C823.379,112.872,818.943,113.332,814.58,112.096z"/>
	<path fill="#FAFBFB" d="M787.012,89.843c0,0.003-0.001,0.007-0.001,0.009c0.111,0.031,0.218,0.059,0.329,0.09
		C787.229,89.909,787.122,89.875,787.012,89.843z"/>
	<path fill="#FAFBFB" d="M796.47,161.24l-1.433,5.39c-0.458,1.722-2.014,2.859-3.714,2.859c-0.326,0-0.659-0.042-0.99-0.13
		c-2.053-0.546-3.273-2.652-2.729-4.704l1.583-5.958c-2.359-0.526-4.759-0.805-7.157-0.805c-12.78,0-24.317,7.513-29.693,18.808
		l5.555,1.712c2.028,0.626,3.166,2.778,2.541,4.809c-0.511,1.651-2.03,2.713-3.674,2.713c-0.375,0-0.756-0.056-1.135-0.172
		l-5.749-1.773c-0.451,2.128-0.687,4.257-0.715,6.364c2.546,1.129,5.194,2.102,7.951,2.882c2.33,0.66,4.666,1.153,7,1.521
		c-0.636-2.87-0.592-5.934,0.265-8.96c2.764-9.763,12.916-15.435,22.679-12.67c7.471,2.114,12.529,8.559,13.262,15.843
		c4.633-2.368,8.95-5.339,12.83-8.843C810.355,172.032,804.458,165.132,796.47,161.24z"/>
	<path fill="#FAFBFB" d="M832.621,132.857c-4.14,1.408-8.53,2.159-13.013,2.159c-3.662,0-7.384-0.499-11.08-1.546
		c-20.212-5.722-32.491-25.787-28.924-46.039c-8.446-3.022-14.373-6.214-18.37-9.535c-0.188,0.039-0.375,0.071-0.562,0.113
		c-0.285,0.062-0.57,0.127-0.854,0.193c-0.609,0.143-1.215,0.296-1.819,0.457c-0.266,0.071-0.531,0.14-0.796,0.215
		c-0.688,0.194-1.37,0.403-2.05,0.621c-0.164,0.053-0.332,0.101-0.496,0.156c-0.861,0.285-1.717,0.589-2.562,0.913
		c-0.074,0.028-0.148,0.061-0.223,0.089c-0.077,0.029-0.151,0.064-0.228,0.094c8.659,9.987,12.285,24.001,8.415,37.67
		c-5.061,17.871-21.33,29.538-39.029,29.538c-1.998,0-4.014-0.163-6.034-0.468c3.133,15.927,12.726,30.127,26.714,38.898
		c0.244-2.21,0.663-4.431,1.29-6.643c5.06-17.873,21.329-29.541,39.03-29.541c3.659,0,7.383,0.499,11.077,1.544
		c11.954,3.386,21.125,11.791,25.893,22.281c5.149-6.192,9.127-13.526,11.463-21.774c0.559-1.973,1.011-3.951,1.358-5.928
		c0.192-1.087,0.347-2.174,0.477-3.259C832.709,139.639,832.804,136.226,832.621,132.857z"/>
	<path fill="#FAFBFB" d="M738.685,112.365l9.537,2.7c-2.625,9.271-9.531,16.167-17.967,19.169l-4.365-9.184
		c-3.133,0.869-6.528,0.937-9.886-0.014c-0.345-0.098-0.672-0.225-1.007-0.342c-0.974,4.965-1.296,9.927-1.015,14.794
		c1.143,0.251,2.294,0.431,3.45,0.56l0.214-7.009c0.063-2.123,1.864-3.783,3.96-3.727c2.122,0.064,3.791,1.838,3.726,3.96
		l-0.204,6.707c12.908-1.643,23.92-10.895,27.533-23.658c0.646-2.281,1.032-4.593,1.182-6.904l-7.119,0.215
		c-0.039,0.002-0.079,0.003-0.117,0.003c-2.07,0-3.778-1.646-3.841-3.729c-0.065-2.122,1.604-3.896,3.727-3.959l6.941-0.21
		c-0.63-3.609-1.867-7.127-3.707-10.42c-1.479-2.646-3.289-5.033-5.363-7.13c-0.09,0.05-0.181,0.097-0.271,0.147
		c-0.662,0.374-1.316,0.762-1.964,1.16c-0.106,0.065-0.214,0.126-0.318,0.191c-0.771,0.481-1.529,0.98-2.277,1.495
		c-0.104,0.073-0.205,0.148-0.309,0.221c-0.621,0.434-1.234,0.88-1.839,1.338c-0.205,0.156-0.407,0.315-0.61,0.473
		c-0.505,0.394-1.004,0.793-1.495,1.202c-0.216,0.179-0.43,0.359-0.643,0.542c-0.491,0.42-0.976,0.85-1.454,1.287
		c-0.185,0.169-0.37,0.335-0.553,0.505c-0.074,0.069-0.144,0.143-0.218,0.212C738.054,97.431,740.767,105.007,738.685,112.365z"/>
	<path opacity="0.32" fill="#FAFBFB" d="M831.664,124.985c-3.769,1.502-7.84,2.342-12.056,2.342c-0.644,0-1.289-0.029-1.933-0.066
		l1.292-6.716c0.401-2.086-0.965-4.101-3.05-4.503c-2.082-0.406-4.101,0.965-4.502,3.051l-1.312,6.818
		c-8.221-2.472-15.039-7.934-19.235-15.446c-3.548-6.35-4.865-13.527-3.858-20.606l-0.522-0.148
		c0.179,0.051,0.346,0.092,0.523,0.142c0-0.002,0.001-0.005,0.001-0.009c-2.662-0.791-5.125-1.594-7.407-2.411
		c-3.567,20.252,8.712,40.317,28.924,46.039c3.696,1.047,7.418,1.546,11.08,1.546c4.482,0,8.873-0.751,13.013-2.159
		C832.478,130.199,832.158,127.57,831.664,124.985z"/>
	<path opacity="0.32" fill="#FAFBFB" d="M794.938,152.321c-0.025-0.007-0.046-0.02-0.07-0.026c-0.01-0.002-0.02-0.002-0.028-0.004
		c-0.572-0.19-1.146-0.377-1.732-0.544c-3.694-1.045-7.418-1.544-11.077-1.544c-17.701,0-33.971,11.668-39.03,29.541
		c-0.627,2.212-1.046,4.433-1.29,6.643c2.361,1.482,4.847,2.812,7.45,3.966c0.028-2.107,0.264-4.236,0.715-6.364l5.749,1.773
		c0.379,0.116,0.76,0.172,1.135,0.172c1.644,0,3.163-1.062,3.674-2.713c0.625-2.03-0.513-4.183-2.541-4.809l-5.555-1.712
		c5.376-11.295,16.913-18.808,29.693-18.808c2.398,0,4.798,0.278,7.157,0.805l-1.583,5.958c-0.545,2.052,0.676,4.158,2.729,4.704
		c0.331,0.088,0.664,0.13,0.99,0.13c1.7,0,3.256-1.138,3.714-2.859l1.433-5.39c7.988,3.892,13.886,10.792,16.677,18.886
		c2.085-1.882,4.042-3.919,5.854-6.098C814.479,164.082,805.995,156.018,794.938,152.321z"/>
	<path fill="#F4876B" d="M769.391,76.779c0.663-0.044,1.327-0.08,1.994-0.1C770.718,76.7,770.054,76.735,769.391,76.779z"/>
	<path fill="#F4876B" d="M827.923,88.613c0.005-0.006,0.012-0.013,0.018-0.019c0,0-0.001,0-0.002,0
		C827.934,88.601,827.928,88.607,827.923,88.613z"/>
	<path fill="#F4876B" d="M773.265,76.64c-0.317,0-0.634,0.014-0.952,0.02c0.667-0.011,1.334-0.013,2.002-0.001
		C773.965,76.652,773.613,76.64,773.265,76.64z"/>
	<path fill="#F4876B" d="M805.05,29.387c0.447,0.114,0.894,0.23,1.339,0.356l-1.432-0.406l-0.007,0.02
		C804.984,29.367,805.018,29.376,805.05,29.387z"/>
	<path fill="#F4876B" d="M762.562,77.631c-0.448,0.083-0.897,0.161-1.343,0.254c0.006,0.003,0.01,0.008,0.016,0.012
		C761.676,77.805,762.117,77.713,762.562,77.631z"/>
	<path fill="#F4876B" d="M830.778,84.6c-0.146,0.287-0.304,0.564-0.464,0.841C830.474,85.164,830.632,84.886,830.778,84.6z"/>
	<path fill="#F4876B" d="M828.759,87.687c-0.26,0.311-0.53,0.614-0.817,0.905C828.229,88.3,828.5,87.999,828.759,87.687z"/>
	<path fill="#F4876B" d="M827.88,88.657c-0.328,0.333-0.675,0.651-1.041,0.957C827.204,89.308,827.552,88.989,827.88,88.657z"/>
	<path fill="#F4876B" d="M828.869,87.55c0.216-0.266,0.426-0.537,0.623-0.817c-0.164,0.23-0.34,0.452-0.517,0.672
		C828.939,87.453,828.906,87.504,828.869,87.55z"/>
	<path fill="#F4876B" d="M763.32,77.49c0.835-0.143,1.674-0.27,2.517-0.377C764.994,77.22,764.155,77.348,763.32,77.49z"/>
	<path fill="#F4876B" d="M828.782,87.658c0.021-0.024,0.04-0.051,0.061-0.075c-0.006,0.008-0.015,0.016-0.021,0.024
		C828.808,87.624,828.797,87.641,828.782,87.658z"/>
	<path fill="#F4876B" d="M765.973,77.094c0.9-0.112,1.805-0.201,2.711-0.271C767.776,76.893,766.873,76.981,765.973,77.094z"/>
	<path fill="#F4876B" d="M829.704,86.418c-0.009,0.012-0.019,0.024-0.026,0.036c-0.031,0.046-0.059,0.094-0.09,0.14
		c0.197-0.289,0.393-0.579,0.573-0.881c-0.146,0.241-0.304,0.473-0.46,0.706H829.704z"/>
	<path fill="#F4876B" d="M804.95,29.357l0.007-0.02l-1.275-0.361C804.107,29.096,804.529,29.226,804.95,29.357z"/>
	<g opacity="0.2">
		<path fill="#FAFBFB" d="M810.281,10.531c0.193-0.681-0.202-1.389-0.884-1.582c-0.679-0.19-1.39,0.203-1.582,0.884l-5.368,18.961
			l-0.043,0.152c-0.194,0.681,0.201,1.389,0.883,1.582c0.117,0.033,0.235,0.049,0.351,0.049c0.559,0,1.073-0.369,1.231-0.933
			l0.081-0.285v-0.003c-0.421-0.131-0.843-0.261-1.269-0.381l1.275,0.361L810.281,10.531z"/>
		<path fill="#FAFBFB" d="M819.04,1.355c-0.677-0.192-1.39,0.203-1.581,0.884l-8.118,28.672c-0.002,0.009,0,0.018-0.002,0.026
			c-0.176,0.673,0.213,1.366,0.886,1.556c0.117,0.033,0.234,0.049,0.351,0.049c0.432,0,0.833-0.225,1.068-0.587
			c0.068-0.105,0.128-0.219,0.163-0.346l8.117-28.672C820.117,2.256,819.722,1.548,819.04,1.355z"/>
	</g>
	<path fill="#F4876B" d="M787.364,89.949c-0.008-0.002-0.017-0.005-0.024-0.007c-0.111-0.031-0.218-0.059-0.329-0.09v0.001
		C787.128,89.884,787.247,89.917,787.364,89.949z"/>
	<path fill="#F4876B" d="M810.412,89.656h-0.004c1.647,1.317,3.208,2.722,4.694,4.194h0.001
		C813.619,92.378,812.058,90.973,810.412,89.656z"/>
	<path fill="#F4876B" d="M786.163,78.073c-0.77-0.17-1.539-0.329-2.308-0.469l-0.002,0.001
		C784.624,77.744,785.394,77.902,786.163,78.073z"/>
	<path fill="#F4876B" d="M789.172,78.82c-0.781-0.216-1.563-0.413-2.346-0.596c0.782,0.184,1.563,0.383,2.345,0.601L789.172,78.82z"
		/>
	<path fill="#F4876B" d="M787.011,89.852c-0.178-0.05-0.345-0.091-0.523-0.142C786.666,89.761,786.837,89.805,787.011,89.852
		L787.011,89.852z"/>
	<g>
		<path fill="#FAFBFB" d="M810.412,89.656c1.646,1.317,3.207,2.722,4.691,4.194c4.507-0.392,7.919-1.566,10.513-3.323
			C821.503,90.653,816.459,90.458,810.412,89.656z"/>
		<path fill="#FAFBFB" d="M825.675,90.491c0.399-0.273,0.78-0.558,1.141-0.856C826.454,89.934,826.074,90.218,825.675,90.491z"/>
		<path fill="#FAFBFB" d="M825.625,90.528c0.018-0.012,0.033-0.026,0.05-0.037c-0.02,0.013-0.04,0.024-0.059,0.037
			C825.619,90.528,825.622,90.528,825.625,90.528z"/>
		<polygon fill="#FAFBFB" points="754.158,62.861 754.158,62.87 754.158,62.862 		"/>
		<path fill="#FAFBFB" d="M828.606,47.039l-0.027,0.646c-0.517-0.021-12.821-0.592-27.397-4.718
			c-14.576-4.126-25.354-10.092-25.805-10.343l0.32-0.58c-6.379,3.371-12.111,8.907-16.599,17.112
			c-2.53,4.627-4.556,9.222-4.94,13.707c0.004,0.005,0.01,0.012,0.014,0.017c0.049-0.574,0.114-1.148,0.213-1.726
			c1.772,2.01,5.696,5.506,13.901,9.5l-0.985,3.478l-0.711,2.511c-5.422-2.74-9.182-5.38-11.793-7.652
			c-0.271-0.86-0.442-1.726-0.556-2.596c-0.004-0.004-0.01-0.008-0.014-0.012c-0.009-0.064-0.009-0.129-0.017-0.193
			c-0.027-0.238-0.045-0.477-0.062-0.716c-0.015-0.224-0.029-0.447-0.034-0.672c-0.008-0.261-0.01-0.524-0.005-0.786
			c0.005-0.206,0.015-0.411,0.026-0.618c0.01-0.176,0.008-0.351,0.021-0.528c-0.443,5.192,1.317,10.238,7.061,15.015
			c0.445-0.093,0.895-0.171,1.343-0.254c-0.444,0.082-0.886,0.174-1.327,0.266c3.997,3.321,9.924,6.513,18.37,9.535
			c2.282,0.817,4.745,1.621,7.407,2.411c0.11,0.033,0.218,0.066,0.328,0.099c5.204,1.445,9.82,2.473,13.921,3.132
			c5.488,0.881,10.054,1.106,13.842,0.777c-1.486-1.473-3.047-2.877-4.694-4.194c-2.526-0.335-5.239-0.785-8.123-1.352
			c-4.001-0.789-8.339-1.814-13.049-3.147c-0.375-0.106-0.734-0.214-1.097-0.322c-0.205-0.061-0.413-0.121-0.62-0.182l0.697-2.46
			l0.954-3.369c-0.781-0.217-0.78-0.22,0.001-0.004l0.094-0.331c0.568,0.168,1.129,0.337,1.717,0.502
			c19.392,5.49,32.311,6.087,39.796,5.606c2.037-4.028,2.725-9.019,2.996-14.303C834.255,60.96,832.271,53.25,828.606,47.039z
			 M783.854,77.605l-0.488,1.728l-1.048,3.704c-0.52-0.171-1.02-0.345-1.523-0.516c-2.493-0.856-4.799-1.72-6.922-2.585l0.667-2.356
			l0.259-0.912l0.796-2.816c2.537,1.002,5.341,2.02,8.465,3.035l-0.203,0.72C784.624,77.744,784.624,77.744,783.854,77.605z
			 M793.558,74.896c-0.411,1.448-1.915,2.286-3.362,1.877c-1.448-0.41-2.289-1.915-1.879-3.364c0.409-1.446,1.915-2.286,3.362-1.875
			C793.125,71.943,793.967,73.449,793.558,74.896z M804.067,61.888c-1.397,4.938-6.535,7.807-11.473,6.408
			c-4.937-1.397-7.809-6.534-6.408-11.472c1.397-4.937,6.534-7.806,11.47-6.41C802.595,51.814,805.464,56.949,804.067,61.888z
			 M815.084,74.14c-0.664,2.341-3.098,3.704-5.44,3.04c-2.34-0.666-3.701-3.099-3.038-5.441c0.665-2.341,3.099-3.702,5.439-3.038
			S815.746,71.8,815.084,74.14z"/>
		<path fill="#FAFBFB" d="M828.431,46.747c-0.41-0.678-0.832-1.344-1.28-1.985C827.598,45.403,828.021,46.069,828.431,46.747z"/>
		<path fill="#FAFBFB" d="M828.431,46.747c0.058,0.098,0.118,0.193,0.176,0.292l0.001-0.016
			C828.551,46.927,828.486,46.841,828.431,46.747z"/>
	</g>
	<path opacity="0" fill="#FAFBFB" d="M792.595,68.296c4.938,1.399,10.075-1.47,11.473-6.408c1.396-4.939-1.473-10.074-6.411-11.474
		c-4.936-1.396-10.072,1.474-11.47,6.41C784.786,61.762,787.658,66.899,792.595,68.296z M798.06,52.916
		c3.009,0.548,5.376,6.403,4.636,6.362c-0.735-0.041-3.794-3.543-5.159-4.512C796.173,53.795,797.32,52.985,798.06,52.916z"/>
	<circle opacity="0.3" fill="#FAFBFB" cx="810.844" cy="72.941" r="4.406"/>
	<g opacity="0.32">
		<path fill="#FAFBFB" d="M787.055,173.126c-9.763-2.765-19.915,2.907-22.679,12.67c-0.856,3.026-0.9,6.09-0.265,8.96
			c0,0,0,0,0.001,0.001c12.709,2.003,25.318-0.225,36.204-5.788C799.584,181.685,794.525,175.24,787.055,173.126z"/>
		<path fill="#FAFBFB" d="M815.103,93.851c-3.788,0.329-8.354,0.104-13.842-0.777c-0.633,8.523,4.777,16.603,13.319,19.022
			c4.363,1.236,8.799,0.776,12.623-0.971h0.001C824.237,104.721,820.149,98.857,815.103,93.851L815.103,93.851z"/>
		<path fill="#FAFBFB" d="M749.639,81.572c-0.227,0.099-0.45,0.203-0.676,0.305c-0.59,0.265-1.176,0.538-1.756,0.822
			c-0.25,0.122-0.498,0.245-0.746,0.371c-0.571,0.291-1.138,0.59-1.699,0.898c-0.133,0.072-0.267,0.145-0.398,0.219
			c2.074,2.097,3.885,4.484,5.363,7.13c1.84,3.293,3.077,6.811,3.707,10.42l-6.941,0.21c-2.123,0.063-3.792,1.837-3.727,3.959
			c0.062,2.083,1.771,3.729,3.841,3.729c0.038,0,0.078-0.001,0.117-0.003l7.119-0.215c-0.149,2.312-0.536,4.623-1.182,6.904
			c-3.613,12.764-14.625,22.016-27.533,23.658l0.204-6.707c0.065-2.122-1.604-3.896-3.726-3.96c-2.096-0.057-3.896,1.604-3.96,3.727
			l-0.214,7.009c-1.156-0.129-2.308-0.309-3.45-0.56c0.155,2.703,0.497,5.372,1.014,7.999c2.021,0.305,4.036,0.468,6.034,0.468
			c17.699,0,33.969-11.667,39.029-29.538c3.87-13.669,0.244-27.683-8.415-37.67C750.971,81.012,750.301,81.284,749.639,81.572z"/>
		<path fill="#FAFBFB" d="M716.004,125.037c3.357,0.95,6.753,0.883,9.886,0.014l4.365,9.184c8.436-3.002,15.342-9.898,17.967-19.169
			l-9.537-2.7c2.082-7.358-0.631-14.935-6.271-19.405c-0.003-0.002-0.005-0.003-0.008-0.005c-0.513,0.485-1.015,0.983-1.511,1.488
			c-0.058,0.059-0.117,0.113-0.174,0.172c-0.636,0.651-1.256,1.32-1.861,2.002c-0.121,0.136-0.237,0.276-0.357,0.414
			c-0.468,0.536-0.928,1.08-1.377,1.634c-0.178,0.218-0.35,0.44-0.523,0.66c-0.389,0.495-0.771,0.995-1.146,1.503
			c-0.175,0.237-0.349,0.475-0.521,0.716c-0.377,0.529-0.745,1.067-1.106,1.611c-0.144,0.216-0.29,0.429-0.431,0.646
			c-0.476,0.736-0.938,1.481-1.383,2.242c-0.015,0.024-0.03,0.049-0.045,0.073c-0.464,0.799-0.909,1.612-1.339,2.437
			c-0.107,0.205-0.207,0.416-0.312,0.622c-0.312,0.614-0.614,1.233-0.904,1.859c-0.129,0.278-0.252,0.558-0.377,0.838
			c-0.258,0.58-0.507,1.166-0.747,1.757c-0.117,0.289-0.235,0.58-0.35,0.873c-0.244,0.631-0.477,1.27-0.701,1.912
			c-0.088,0.248-0.179,0.494-0.263,0.744c-0.301,0.898-0.587,1.806-0.849,2.728c-0.453,1.601-0.817,3.205-1.133,4.81h0.001
			C715.332,124.812,715.659,124.939,716.004,125.037z"/>
		<circle fill="#FAFBFB" cx="790.937" cy="74.153" r="2.724"/>
		<path fill="#FAFBFB" d="M821.617,38.553c-0.715-0.64-1.442-1.267-2.203-1.852c-4.387-0.674-9.782-1.716-15.514-3.337
			c-5.729-1.623-10.871-3.564-14.96-5.291c-0.958,0.102-1.91,0.244-2.856,0.416c4.31,1.935,10.414,4.396,17.394,6.371
			C810.471,36.839,816.939,37.943,821.617,38.553z"/>
		<path fill="#FAFBFB" d="M824.349,41.243c-0.111-0.123-0.237-0.23-0.351-0.352c0.106,0.113,0.207,0.232,0.311,0.348
			C824.321,41.24,824.336,41.242,824.349,41.243z"/>
		<path fill="#FAFBFB" d="M783.157,29.142c-0.267,0.072-0.535,0.136-0.801,0.213c0.011,0.005,0.022,0.011,0.034,0.017
			C782.646,29.297,782.899,29.211,783.157,29.142z"/>
		<path fill="#FAFBFB" d="M754.158,62.861c-0.015,0.18-0.012,0.358-0.021,0.537c0.009-0.173,0.021-0.346,0.035-0.52
			C754.168,62.874,754.162,62.867,754.158,62.861z"/>
		<path fill="#FAFBFB" d="M766.59,76.643l0.711-2.511l-0.083,0.292c-4.077-1.941-7.604-3.972-10.522-6.094
			c-0.932-0.68-1.742-1.323-2.454-1.935c0.113,0.87,0.285,1.736,0.556,2.596C757.408,71.263,761.168,73.902,766.59,76.643z"/>
		<path fill="#FAFBFB" d="M782.317,83.036l1.048-3.704l-0.356,1.26c-0.477-0.154-0.94-0.311-1.409-0.468
			c-2.476-0.827-4.83-1.676-7.061-2.546l-0.667,2.356c2.123,0.865,4.429,1.729,6.922,2.585
			C781.298,82.691,781.798,82.865,782.317,83.036z"/>
		<path fill="#FAFBFB" d="M828.843,87.583c0.009-0.011,0.018-0.022,0.026-0.033c0.037-0.046,0.07-0.097,0.106-0.145
			c-0.053,0.067-0.101,0.136-0.154,0.202C828.828,87.599,828.837,87.591,828.843,87.583z"/>
		<path fill="#FAFBFB" d="M829.701,86.418c-0.008,0.012-0.016,0.024-0.023,0.036c0.008-0.012,0.018-0.023,0.026-0.036H829.701z"/>
		<path fill="#FAFBFB" d="M806.083,86.511c-0.001,0-0.003,0-0.004-0.001c-0.915-0.169-1.85-0.353-2.805-0.549
			c-4.075-0.836-8.508-1.902-13.341-3.271c-0.323-0.092-0.638-0.184-0.955-0.276c-0.253-0.074-0.508-0.147-0.762-0.221l-0.697,2.46
			c0.207,0.061,0.415,0.121,0.62,0.182c0.362,0.108,0.722,0.216,1.097,0.322c4.71,1.333,9.048,2.358,13.049,3.147
			c2.884,0.567,5.597,1.017,8.123,1.352h0.004c6.052,0.803,11.1,0.997,15.213,0.872c0.419-0.283,0.814-0.581,1.19-0.893
			c0.007-0.007,0.015-0.014,0.023-0.021c0.366-0.306,0.713-0.625,1.041-0.957c0.015-0.014,0.028-0.029,0.043-0.043
			c0.005-0.006,0.011-0.013,0.016-0.019C822.588,88.697,815.367,88.24,806.083,86.511z"/>
	</g>
	<path fill="#FAFBFB" d="M797.536,54.766c1.365,0.969,4.424,4.471,5.159,4.512c0.74,0.041-1.627-5.814-4.636-6.362
		C797.32,52.985,796.173,53.795,797.536,54.766z"/>
	<g opacity="0.62">
		<path fill="#FAFBFB" d="M819.414,36.701c-0.01-0.002-0.021-0.003-0.03-0.005c0.085,0.066,0.173,0.129,0.257,0.196
			C819.563,36.831,819.493,36.762,819.414,36.701z"/>
		<path fill="#FAFBFB" d="M788.94,28.073c-0.02,0.002-0.038,0.006-0.058,0.008c0.022-0.002,0.044-0.002,0.066-0.004
			C788.946,28.075,788.942,28.074,788.94,28.073z"/>
		<path fill="#FAFBFB" d="M819.384,36.696c-2.386-1.838-4.978-3.426-7.74-4.74c-0.235,0.362-0.637,0.587-1.068,0.587
			c-0.116,0-0.233-0.016-0.351-0.049c-0.673-0.19-1.062-0.882-0.886-1.556c-1.399-0.578-2.829-1.097-4.289-1.552
			c-0.033-0.009-0.065-0.019-0.1-0.027l-0.081,0.285c-0.158,0.564-0.673,0.933-1.231,0.933c-0.115,0-0.233-0.016-0.351-0.049
			c-0.682-0.193-1.077-0.901-0.883-1.582l0.043-0.152c-4.499-0.907-9.05-1.185-13.498-0.718c4.086,1.726,9.225,3.666,14.951,5.288
			C809.619,34.981,815.003,36.022,819.384,36.696z"/>
		<path fill="#FAFBFB" d="M782.356,29.355c0.011,0.005,0.021,0.01,0.033,0.016c0.252-0.073,0.501-0.157,0.752-0.225
			C782.881,29.216,782.617,29.279,782.356,29.355z"/>
		<path fill="#FAFBFB" d="M824.349,41.243c-0.071-0.079-0.148-0.152-0.225-0.226c0.066,0.073,0.129,0.15,0.195,0.223
			C824.329,41.241,824.339,41.242,824.349,41.243z"/>
		<path fill="#FAFBFB" d="M783.157,29.142c-0.005,0.001-0.01,0.003-0.016,0.004c0.004-0.001,0.007-0.001,0.01-0.002
			C783.153,29.144,783.155,29.143,783.157,29.142z"/>
		<path fill="#FAFBFB" d="M788.883,28.081c-0.938,0.102-1.872,0.24-2.799,0.408c0,0,0.001,0,0.002,0
			C787.013,28.319,787.945,28.181,788.883,28.081z"/>
		<path fill="#FAFBFB" d="M828.579,47.685l0.028-0.662c-0.459-0.778-0.947-1.53-1.457-2.261c-0.035-0.049-0.068-0.099-0.104-0.147
			c-0.84-1.191-1.761-2.308-2.728-3.375c-0.003,0-0.008,0-0.011-0.001c-0.1-0.11-0.195-0.223-0.296-0.332
			c-0.709-0.763-1.442-1.5-2.211-2.198c0.001,0.001,0.002,0.001,0.003,0.003c-0.055-0.05-0.104-0.105-0.159-0.155
			c-0.007-0.001-0.015-0.001-0.021-0.002c-0.643-0.577-1.305-1.13-1.984-1.663c0.677,0.533,1.335,1.087,1.977,1.661
			c-4.678-0.61-11.146-1.714-18.14-3.694c-6.979-1.974-13.082-4.436-17.392-6.37c-0.015,0.003-0.031,0.004-0.046,0.007
			c0.015-0.002,0.028-0.005,0.044-0.007c-0.003-0.002-0.008-0.003-0.011-0.005c-0.046,0.008-0.09,0.021-0.135,0.029
			c0.011-0.002,0.022-0.003,0.033-0.006c-0.947,0.176-1.887,0.389-2.82,0.637c-0.255,0.068-0.508,0.154-0.761,0.228l-0.001-0.001
			c-0.528,0.153-1.059,0.294-1.58,0.472c-0.013,0.004-0.023,0.008-0.035,0.012c-0.823,0.281-1.639,0.597-2.447,0.941
			c-0.079,0.034-0.161,0.07-0.24,0.104c-0.804,0.35-1.601,0.727-2.387,1.142c-0.001,0.001-0.001,0.001-0.001,0.001l-0.322,0.58
			c0.451,0.25,11.229,6.217,25.805,10.343C815.758,47.093,828.062,47.663,828.579,47.685z"/>
		<path fill="#FAFBFB" d="M823.998,40.891c0.006,0.005,0.01,0.011,0.015,0.016c0.035,0.038,0.075,0.072,0.111,0.11
			C824.082,40.976,824.039,40.935,823.998,40.891z"/>
		<path fill="#FAFBFB" d="M754.385,61.153c-0.099,0.577-0.164,1.152-0.213,1.726c-0.014,0.173-0.026,0.347-0.035,0.52
			c-0.012,0.207-0.021,0.412-0.026,0.618c-0.005,0.262-0.003,0.524,0.005,0.786c0.006,0.225,0.019,0.449,0.034,0.672
			c0.017,0.239,0.034,0.478,0.062,0.716c0.008,0.064,0.008,0.129,0.017,0.193c0.004,0.003,0.01,0.008,0.014,0.012
			c0.712,0.612,1.522,1.255,2.454,1.935c2.918,2.122,6.445,4.153,10.522,6.094l0.083-0.292l0.985-3.478
			C760.081,66.659,756.157,63.163,754.385,61.153z"/>
		<path fill="#FAFBFB" d="M774.798,76.666l-0.259,0.912c2.23,0.871,4.585,1.72,7.061,2.546c0.469,0.157,0.933,0.313,1.409,0.468
			l0.356-1.26l0.488-1.728l0.002-0.001l0.203-0.72c-3.124-1.015-5.928-2.032-8.465-3.035L774.798,76.666z"/>
		<path fill="#FAFBFB" d="M787.01,89.858c0-0.002,0-0.004,0.001-0.006c-0.174-0.047-0.345-0.092-0.523-0.143L787.01,89.858z"/>
		<path fill="#FAFBFB" d="M790.982,78.992c-0.588-0.165-1.148-0.334-1.717-0.502l-0.094,0.331l-0.001,0.004l-0.954,3.369
			c0.254,0.074,0.509,0.147,0.762,0.221c0.317,0.093,0.632,0.185,0.955,0.276c4.833,1.368,9.266,2.435,13.341,3.271
			c0.955,0.196,1.89,0.379,2.805,0.549c0.001,0.001,0.003,0.001,0.004,0.001c9.284,1.729,16.505,2.186,21.855,2.083
			c0.001,0,0.001,0,0.001,0s0.002-0.001,0.002-0.002c0.287-0.292,0.558-0.594,0.817-0.905c0.009-0.01,0.017-0.02,0.023-0.028
			c0.015-0.017,0.025-0.034,0.039-0.051c0.054-0.066,0.102-0.135,0.154-0.202c0.177-0.221,0.353-0.442,0.517-0.672
			c0.032-0.046,0.062-0.094,0.096-0.14c0.031-0.045,0.059-0.093,0.09-0.14c0.008-0.012,0.016-0.023,0.023-0.036
			c0.156-0.232,0.314-0.464,0.46-0.706c0.053-0.088,0.102-0.181,0.153-0.272c0.16-0.277,0.317-0.554,0.464-0.841
			c0-0.001,0-0.001,0-0.001C823.293,85.08,810.374,84.482,790.982,78.992z"/>
	</g>
</g>
</svg>
