<?xml version="1.0" encoding="utf-8"?>
<!-- Generator: Adobe Illustrator 15.0.0, SVG Export Plug-In . SVG Version: 6.00 Build 0)  -->
<!DOCTYPE svg PUBLIC "-//W3C//DTD SVG 1.1//EN" "http://www.w3.org/Graphics/SVG/1.1/DTD/svg11.dtd">
<svg version="1.1" id="Layer_1" xmlns="http://www.w3.org/2000/svg" xmlns:xlink="http://www.w3.org/1999/xlink" x="0px" y="0px"
	 width="200px" height="200px" viewBox="903.5 -1.606 200 200" enable-background="new 903.5 -1.606 200 200" xml:space="preserve">
<path opacity="0.42" fill="#FAFBFB" d="M949.804,178.026c-3,0-6.001-1.2-8.401-3.601c-1.801-1.801-3.002-4.801-3.002-7.802
	l3.002-97.226c0-6.001,5.401-11.403,12.003-11.403h101.426c6.603,0,12.003,4.801,12.003,11.403l3.602,97.226
	c0,3.001-1.201,6.001-3.001,8.401c-2.4,2.4-5.401,3.602-8.402,3.602C1059.032,178.026,949.804,178.026,949.804,178.026z
	 M1041.628,88.003c-7.202-7.201-18.005-7.802-24.006-1.8c-3.602,3.601-4.802,8.403-4.202,13.204c-5.4-1.801-11.402-1.801-17.404,0
	c0.601-4.801-0.6-9.603-4.2-13.204c-6.003-6.001-16.805-5.401-24.007,1.8c-7.202,7.202-7.803,18.006-1.801,24.007
	c3.602,3.601,7.803,4.801,12.604,4.201c-5.401,14.403,1.801,30.008,16.204,35.409c14.404,5.401,30.008-1.801,35.409-16.204
	c2.401-6.002,2.401-12.604,0-19.205c4.802,0.6,9.603-0.601,12.604-4.201C1049.43,106.009,1048.83,95.205,1041.628,88.003z
	 M1046.429,57.996h-10.802c0-17.404-13.805-31.208-31.209-31.208S973.21,40.591,973.21,57.996h-10.803
	c0-23.406,18.604-42.011,42.011-42.011S1046.429,34.589,1046.429,57.996z"/>
<path fill="#FAFBFB" d="M1041.645,88.045c-7.203-7.201-18.005-7.802-24.007-1.8c-3.601,3.601-4.802,8.403-4.201,13.204
	c-5.401-1.801-11.403-1.801-17.404,0c0.6-4.801-0.601-9.603-4.201-13.204c-6.002-6.001-16.805-5.401-24.006,1.8
	c-7.202,7.202-7.803,18.005-1.802,24.007c3.602,3.6,7.803,4.801,12.604,4.2c-5.4,14.403,1.802,30.008,16.204,35.409
	c14.404,5.401,30.008-1.8,35.409-16.204c2.401-6.001,2.401-12.604,0-19.205c4.802,0.601,9.603-0.601,12.604-4.2
	C1049.446,106.051,1048.846,95.248,1041.645,88.045z"/>
</svg>
