<?xml version="1.0" encoding="utf-8"?>
<!-- Generator: Adobe Illustrator 15.0.0, SVG Export Plug-In . SVG Version: 6.00 Build 0)  -->
<!DOCTYPE svg PUBLIC "-//W3C//DTD SVG 1.1//EN" "http://www.w3.org/Graphics/SVG/1.1/DTD/svg11.dtd">
<svg version="1.1" id="Layer_1" xmlns="http://www.w3.org/2000/svg" xmlns:xlink="http://www.w3.org/1999/xlink" x="0px" y="0px"
	 width="200px" height="200px" viewBox="-0.473 0 200 200" enable-background="new -0.473 0 200 200" xml:space="preserve">
<g>
	<g opacity="0.25">
		<path fill="#FAFBFB" d="M95.948,20.095C82.83,20.534,71.32,25.63,62.396,34.926l5.08,13.872
			c7.714-7.492,17.451-11.613,28.472-12.024V20.095z"/>
		<path fill="#FAFBFB" d="M99.086,36.758c11.02,0.347,20.765,4.399,28.504,11.805l5.088-13.896
			c-8.957-9.203-20.481-14.214-33.602-14.583v16.646h0.009V36.758z"/>
		<path fill="#FAFBFB" d="M65.072,51.333L60.03,37.562c-9.599,11.424-15.112,27.299-15.857,44.624l8.785-7.654
			c2.334-8.542,6.178-16.231,11.418-22.417C64.603,51.847,64.84,51.595,65.072,51.333z"/>
		<path fill="#FAFBFB" d="M68.553,154.516c-1.856-2.825-3.596-5.857-5.221-9.045l-3.216,1.835c1.671,3.186,3.438,6.209,5.29,9.025
			c4.321,6.577,8.944,11.87,13.692,15.751l1.305-3.591C76.183,164.874,72.214,160.088,68.553,154.516z"/>
		<path fill="#FAFBFB" d="M50.327,115.818l-1.754,1.306c2.567,9.717,6.017,19.053,10.122,27.391l3.255-1.857
			c-2.52-5.324-4.706-11.051-6.507-17.038C53.412,122.652,51.674,119.37,50.327,115.818z"/>
		<path fill="#FAFBFB" d="M50.026,81.234l-5.942,5.178c0.008,5.113,0.421,10.325,1.268,15.566c0.641,3.979,1.445,7.944,2.392,11.862
			l1.524-1.134C46.481,103.486,46.266,92.714,50.026,81.234z"/>
		<path fill="#FAFBFB" d="M87.515,173.289h-5.526l-0.28,0.771c5.242,3.681,10.593,5.644,15.823,5.711l0.13,0.001l0.13-0.001
			c5.138-0.066,10.395-1.961,15.55-5.518l-0.349-0.965h-5.185c-3.27,1.627-6.658,2.525-10.145,2.525
			C94.175,175.814,90.787,174.916,87.515,173.289z"/>
		<path fill="#FAFBFB" d="M142.453,74.906l8.711,7.589c-0.696-17.535-6.269-33.607-16.015-45.113
			c-0.03-0.036-0.062-0.071-0.093-0.107l-5.051,13.793c0.312,0.347,0.627,0.687,0.932,1.046
			C136.253,58.39,140.13,66.215,142.453,74.906z"/>
		<path fill="#FAFBFB" d="M114.656,168.703l1.305,3.591c4.841-3.899,9.557-9.264,13.959-15.963c1.822-2.772,3.562-5.743,5.21-8.873
			l-3.224-1.84c-1.603,3.133-3.317,6.116-5.145,8.897C123.025,160.201,118.97,165.061,114.656,168.703z"/>
		<path fill="#FAFBFB" d="M145.712,112.707l1.815,1.35c0.971-3.988,1.793-8.027,2.445-12.078c0.831-5.141,1.241-10.252,1.265-15.269
			l-6.283-5.476C148.716,92.714,148.501,103.486,145.712,112.707z"/>
		<path fill="#FAFBFB" d="M140.147,124.7c-1.868,6.377-4.175,12.469-6.855,18.107l3.26,1.86c4.109-8.316,7.564-17.632,10.142-27.332
			l-2.039-1.518C143.445,119.008,141.917,121.978,140.147,124.7z"/>
	</g>
	<g opacity="0.5">
		<path fill="#FAFBFB" d="M124.06,96.607c0.383-0.273,0.771-0.536,1.165-0.786c10.792-6.834,15.212-13.232,17.11-16.869
			l-17.087-14.888l-9.62,26.272L124.06,96.607z"/>
		<path fill="#FAFBFB" d="M67.075,137.167c-4.389-2.884-8.388-6.81-11.632-11.548c1.801,5.987,3.987,11.714,6.507,17.038
			l7.401-4.223C68.603,138.091,67.844,137.672,67.075,137.167z"/>
		<path fill="#FAFBFB" d="M103.927,122.293c4.024-3.472,9.06-16.02,17.612-23.663l-7.034-5.229L103.927,122.293z"/>
		<path fill="#FAFBFB" d="M72.391,140.303l-9.059,5.168c1.625,3.188,3.364,6.22,5.221,9.045c3.661,5.572,7.63,10.358,11.85,13.976
			l5.289-14.556L72.391,140.303z"/>
		<path fill="#FAFBFB" d="M109.29,153.936l5.366,14.768c4.314-3.643,8.37-8.502,12.105-14.188c1.828-2.781,3.542-5.765,5.145-8.897
			l-9.315-5.315L109.29,153.936z"/>
		<polygon fill="#FAFBFB" points="88.593,155.109 83.125,170.161 111.856,170.161 106.389,155.109 		"/>
		<path fill="#FAFBFB" d="M65.072,51.333c-0.232,0.262-0.469,0.514-0.697,0.782c-5.24,6.186-9.083,13.875-11.418,22.417
			l15.625-13.614L65.072,51.333z"/>
		<path fill="#FAFBFB" d="M95.948,42.442v-5.668c-11.021,0.411-20.758,4.532-28.472,12.024l3.738,10.208L95.948,42.442z"/>
		<path fill="#FAFBFB" d="M97.663,175.814c3.487,0,6.875-0.898,10.145-2.525H87.515C90.787,174.916,94.175,175.814,97.663,175.814z"
			/>
		<path fill="#FAFBFB" d="M142.453,74.906c-2.323-8.691-6.2-16.516-11.516-22.791c-0.304-0.359-0.62-0.699-0.932-1.046l-3.606,9.849
			L142.453,74.906z"/>
		<path fill="#FAFBFB" d="M123.767,59.006l3.824-10.443c-7.74-7.406-17.485-11.458-28.504-11.805v-0.027h-0.009v5.741
			L123.767,59.006z"/>
		<path fill="#FAFBFB" d="M127.907,137.167c-0.769,0.505-1.528,0.924-2.276,1.268l7.662,4.373c2.68-5.639,4.987-11.73,6.855-18.107
			C136.8,129.85,132.575,134.1,127.907,137.167z"/>
		<path fill="#FAFBFB" d="M105.749,130.693l-3.739-2.136l-0.647,3.556l6.742,18.557l10.797-11.063
			C113.445,139.007,108.909,134.759,105.749,130.693z"/>
		<polygon fill="#FAFBFB" points="95.948,80.431 95.948,46.208 72.322,62.031 82.062,88.632 		"/>
		<path fill="#FAFBFB" d="M96.54,130.685h1.9l0.686-3.768l-1.635-0.928l-1.637,0.928L96.54,130.685z M97.532,126.267l-0.019,0.031
			l-0.019-0.031H97.532z"/>
		<polygon fill="#FAFBFB" points="96.33,133.814 89.73,151.981 105.252,151.981 98.652,133.814 		"/>
		<path fill="#FAFBFB" d="M93.62,132.113l-0.647-3.556l-3.741,2.136c-3.159,4.065-7.696,8.313-13.151,8.913l10.797,11.063
			L93.62,132.113z"/>
		<path fill="#FAFBFB" d="M69.756,95.821c0.395,0.25,0.782,0.513,1.165,0.786l8.432-6.271l-9.619-26.272L52.647,78.952
			C54.544,82.589,58.965,88.987,69.756,95.821z"/>
		<polygon fill="#FAFBFB" points="122.661,62.031 99.077,46.237 99.077,80.456 112.919,88.632 		"/>
		<path fill="#FAFBFB" d="M73.442,98.63c8.553,7.644,13.589,20.191,17.613,23.663L80.476,93.4L73.442,98.63z"/>
		<polygon fill="#FAFBFB" points="111.825,91.621 99.077,84.09 99.077,123.293 100.031,123.833 		"/>
		<polygon fill="#FAFBFB" points="95.948,123.268 95.948,84.063 83.157,91.621 94.951,123.833 		"/>
	</g>
	<path fill="#FAFBFB" d="M148.113,53.008c-0.54-1.314-1.114-2.604-1.721-3.867c-2.429-5.054-5.391-9.689-8.856-13.78
		c-0.613-0.724-1.24-1.427-1.879-2.11c-8.095-8.647-18.247-13.971-29.777-15.693c-2.125-0.317-4.29-0.526-6.504-0.596v-0.032
		l-1.679,0.001l-0.185-0.001l-1.564,0.004v0.028C80.767,17.44,67.6,23.78,57.788,35.361c-3.032,3.579-5.679,7.576-7.92,11.905
		c-8.004,15.46-10.839,35.161-7.604,55.211c1.257,7.799,3.068,15.448,5.362,22.757c3.824,12.181,8.988,23.416,15.166,32.816
		c3.119,4.747,6.407,8.863,9.805,12.306c2.038,2.065,4.116,3.889,6.219,5.46c5.609,4.189,11.403,6.588,17.134,7.017v0.075h1.564
		l0.166-0.002h0h0l0.088,0.001l0.044,0.001l1.564-0.007v-0.068c4.298-0.321,8.631-1.751,12.896-4.213
		c7.107-4.104,14.023-11.076,20.262-20.569c3.088-4.7,5.924-9.859,8.465-15.365c5.59-12.114,9.756-25.911,12.062-40.208
		C155.908,84.832,154.054,67.459,148.113,53.008z M135.056,37.276c0.031,0.036,0.062,0.071,0.093,0.107
		c9.747,11.505,15.319,27.578,16.015,45.113l-8.711-7.589l-16.054-13.988l3.606-9.849L135.056,37.276z M138.976,111.597
		c-1.348,9.045-5.729,15.848-9.728,18.418c-2.78,1.787-6.089,3.131-9.378,3.271c-1.496,0.063-2.987-0.122-4.423-0.627
		c-0.104-0.036-0.209-0.072-0.311-0.112c-0.166-0.064-0.331-0.132-0.495-0.205c-0.094-0.042-0.188-0.089-0.281-0.133
		c-0.098-0.047-0.194-0.095-0.292-0.145c-0.093-0.048-0.187-0.098-0.28-0.148c-0.108-0.06-0.213-0.123-0.321-0.187
		c-0.096-0.058-0.193-0.115-0.288-0.177c-0.149-0.096-0.296-0.195-0.443-0.299c-0.079-0.056-0.157-0.115-0.235-0.173
		c-0.107-0.081-0.214-0.163-0.321-0.248c-0.076-0.062-0.153-0.121-0.227-0.185c-1.185-0.997-2.288-2.306-3.271-3.985
		c0,0,2.104-13.202,17.123-24.856l0.001,0.001c0.839-0.651,1.718-1.297,2.639-1.937l-0.001,0c2.717-1.883,5.795-3.7,9.292-5.389
		c0,0,0,0.001,0,0.002c0.001-0.001,0.003-0.001,0.004-0.002c1.381,4.764,1.821,9.314,1.603,13.49l-0.003-0.001
		c-0.063,1.243-0.189,2.453-0.366,3.625L138.976,111.597z M97.512,124.204L97.512,124.204l-0.021,0.038h0l-0.023-0.038H97.512z
		 M97.491,125.989l1.635,0.928l-0.686,3.768h-1.9l-0.686-3.768L97.491,125.989z M112.919,88.632l-13.842-8.177V46.237l23.583,15.794
		L112.919,88.632z M114.505,93.4l7.034,5.229c-8.552,7.644-13.588,20.191-17.612,23.663L114.505,93.4z M99.077,84.09l12.748,7.531
		l-11.794,32.212l-0.954-0.54V84.09z M83.157,91.621l12.791-7.558v39.204l-0.997,0.565L83.157,91.621z M91.055,122.293
		c-4.024-3.472-9.06-16.02-17.613-23.663l7.034-5.229L91.055,122.293z M105.252,151.981H89.73l6.6-18.167h2.322L105.252,151.981z
		 M95.948,80.431l-13.886,8.202l-9.74-26.601l23.625-15.823V80.431z M79.353,90.336l-8.432,6.271
		c-0.382-0.273-0.77-0.536-1.165-0.786c-10.791-6.834-15.212-13.232-17.109-16.869l17.087-14.888L79.353,90.336z M57.235,94.48
		c0.001,0.001,0.003,0.001,0.005,0.002c0-0.001,0-0.001,0-0.002c3.497,1.688,6.576,3.506,9.292,5.389l-0.001,0.001
		c0.92,0.639,1.8,1.284,2.639,1.937l0.001-0.002c15.02,11.654,17.122,24.856,17.122,24.856c-0.977,1.671-2.075,2.974-3.252,3.969
		c-0.093,0.079-0.188,0.154-0.282,0.229c-0.083,0.066-0.166,0.13-0.25,0.194c-0.096,0.071-0.193,0.144-0.291,0.213
		c-0.09,0.063-0.182,0.123-0.274,0.184c-0.165,0.109-0.33,0.214-0.498,0.312c-0.08,0.046-0.16,0.094-0.24,0.139
		c-0.107,0.06-0.214,0.117-0.323,0.173c-0.076,0.038-0.152,0.076-0.229,0.112c-0.219,0.106-0.44,0.205-0.664,0.296
		c-0.046,0.019-0.092,0.039-0.139,0.058c-0.116,0.045-0.231,0.086-0.349,0.126c-1.148,0.4-2.332,0.597-3.524,0.626
		c-3.573,0.087-7.226-1.333-10.252-3.278c-4.003-2.572-8.387-9.383-9.731-18.439c-0.084-0.57-0.158-1.148-0.218-1.737
		c-0.001-0.014-0.003-0.026-0.004-0.039c-0.061-0.601-0.109-1.208-0.142-1.824C55.414,103.799,55.852,99.248,57.235,94.48z
		 M89.232,130.693l3.741-2.136l0.647,3.556l-6.742,18.557l-10.797-11.063C81.536,139.007,86.073,134.759,89.232,130.693z
		 M88.593,155.109h17.795l5.468,15.052H83.125L88.593,155.109z M101.362,132.113l0.647-3.556l3.739,2.136
		c3.16,4.065,7.696,8.313,13.152,8.913l-10.797,11.063L101.362,132.113z M125.225,95.821c-0.395,0.25-0.782,0.513-1.165,0.786
		l-8.433-6.271l9.62-26.272l17.087,14.888C140.437,82.589,136.017,88.987,125.225,95.821z M99.077,20.084
		c13.121,0.369,24.646,5.38,33.602,14.583l-5.088,13.896l-3.824,10.443l-24.69-16.534v-5.741V20.084z M95.948,20.095v16.679v5.668
		L71.214,59.006l-3.738-10.208l-5.08-13.872C71.32,25.63,82.83,20.534,95.948,20.095z M60.03,37.562l5.042,13.771l3.51,9.585
		L52.958,74.532l-8.785,7.654C44.918,64.861,50.431,48.986,60.03,37.562z M45.352,101.979c-0.846-5.242-1.26-10.454-1.268-15.566
		l5.942-5.178c-3.761,11.48-3.545,22.252-0.759,31.473l-1.524,1.134C46.797,109.923,45.993,105.957,45.352,101.979z M48.573,117.124
		l1.754-1.306c1.347,3.552,3.085,6.834,5.116,9.801c3.244,4.738,7.243,8.664,11.632,11.548c0.769,0.505,1.528,0.924,2.276,1.268
		l-7.401,4.223l-3.255,1.857C54.59,136.177,51.14,126.841,48.573,117.124z M79.098,172.082c-4.748-3.881-9.372-9.174-13.692-15.751
		c-1.852-2.816-3.619-5.84-5.29-9.025l3.216-1.835l9.059-5.168l13.301,13.633l-5.289,14.556L79.098,172.082z M97.792,179.771
		l-0.13,0.001l-0.13-0.001c-5.23-0.067-10.581-2.03-15.823-5.711l0.28-0.771h5.526h20.293h5.185l0.349,0.965
		C108.187,177.811,102.93,179.705,97.792,179.771z M129.92,156.331c-4.403,6.699-9.119,12.063-13.959,15.963l-1.305-3.591
		l-5.366-14.768l13.302-13.633l9.315,5.315l3.224,1.84C133.482,150.588,131.742,153.559,129.92,156.331z M136.552,144.668
		l-3.26-1.86l-7.662-4.373c0.748-0.344,1.507-0.763,2.276-1.268c4.668-3.067,8.893-7.317,12.241-12.467
		c1.769-2.723,3.298-5.692,4.508-8.882l2.039,1.518C144.117,127.036,140.661,136.352,136.552,144.668z M149.972,101.979
		c-0.652,4.051-1.474,8.09-2.445,12.078l-1.815-1.35c2.789-9.221,3.004-19.993-0.757-31.473l6.283,5.476
		C151.213,91.726,150.803,96.838,149.972,101.979z"/>
</g>
</svg>
