<?xml version="1.0" encoding="utf-8"?>
<!-- Generator: Adobe Illustrator 15.0.0, SVG Export Plug-In . SVG Version: 6.00 Build 0)  -->
<!DOCTYPE svg PUBLIC "-//W3C//DTD SVG 1.1//EN" "http://www.w3.org/Graphics/SVG/1.1/DTD/svg11.dtd">
<svg version="1.1" id="Layer_1" xmlns="http://www.w3.org/2000/svg" xmlns:xlink="http://www.w3.org/1999/xlink" x="0px" y="0px"
	 width="200px" height="200px" viewBox="229.5 0 200 200" enable-background="new 229.5 0 200 200" xml:space="preserve">
<g>
	
		<rect x="436.548" y="129.31" transform="matrix(-0.8526 0.5225 -0.5225 -0.8526 886.6541 13.3433)" fill="none" width="9.795" height="4.799"/>
</g>
<g>
	
		<rect x="433.714" y="124.229" transform="matrix(-0.8525 0.5227 -0.5227 -0.8525 878.73 5.3356)" fill="none" width="9.796" height="4.799"/>
</g>
<g>
	<defs>
		<rect id="SVGID_1_" x="231.016" width="199.042" height="199.042"/>
	</defs>
	<clipPath id="SVGID_2_">
		<use xlink:href="#SVGID_1_"  overflow="visible"/>
	</clipPath>
	<path clip-path="url(#SVGID_2_)" fill="#F9D22F" d="M291.01,49.061c0.645-0.679,1.309-1.336,1.982-1.981
		C292.318,47.725,291.655,48.382,291.01,49.061z"/>
	<path clip-path="url(#SVGID_2_)" fill="#F9D22F" d="M293.197,46.876c0.695-0.659,1.408-1.296,2.132-1.918
		C294.605,45.58,293.893,46.217,293.197,46.876z"/>
	<path clip-path="url(#SVGID_2_)" fill="#F9D22F" d="M288.926,51.371c0.593-0.693,1.205-1.364,1.825-2.025
		C290.131,50.007,289.519,50.678,288.926,51.371z"/>
	<path clip-path="url(#SVGID_2_)" fill="#F9D22F" d="M285.086,56.355c0.488-0.706,0.997-1.391,1.511-2.071
		C286.083,54.964,285.575,55.649,285.086,56.355z"/>
	<path clip-path="url(#SVGID_2_)" fill="#F9D22F" d="M295.487,44.817c0.747-0.637,1.511-1.253,2.288-1.851
		C296.998,43.564,296.234,44.18,295.487,44.817z"/>
	<path clip-path="url(#SVGID_2_)" fill="#F9D22F" d="M286.951,53.803c0.541-0.702,1.102-1.383,1.669-2.057
		C288.052,52.419,287.492,53.101,286.951,53.803z"/>
	<path clip-path="url(#SVGID_2_)" fill="#F9D22F" d="M376.155,157.408c-0.744,0.503-1.501,0.991-2.271,1.463
		C374.654,158.399,375.41,157.91,376.155,157.408z"/>
	<path clip-path="url(#SVGID_2_)" fill="#F9D22F" d="M373.702,158.979c-0.771,0.469-1.552,0.924-2.349,1.36
		C372.15,159.904,372.931,159.448,373.702,158.979z"/>
	<path clip-path="url(#SVGID_2_)" fill="#F9D22F" d="M283.337,59.026c0.439-0.708,0.898-1.396,1.361-2.082
		C284.235,57.629,283.776,58.317,283.337,59.026z"/>
	<path clip-path="url(#SVGID_2_)" fill="#F9D22F" d="M300.353,41.091c0.84-0.576,1.696-1.13,2.565-1.661
		C302.048,39.961,301.193,40.515,300.353,41.091z"/>
	<path clip-path="url(#SVGID_2_)" fill="#F9D22F" d="M297.872,42.889c0.795-0.609,1.607-1.196,2.432-1.763
		C299.479,41.692,298.667,42.279,297.872,42.889z"/>
	<path clip-path="url(#SVGID_2_)" fill="#F9D22F" d="M302.924,39.426c9.594-5.857,20.942-8.967,33.254-8.805
		C323.865,30.458,312.518,33.565,302.924,39.426z"/>
	<path clip-path="url(#SVGID_2_)" fill="#F9D22F" d="M274.619,80.837c0.138-0.626,0.3-1.235,0.453-1.852
		C274.92,79.602,274.758,80.211,274.619,80.837z"/>
	<path clip-path="url(#SVGID_2_)" fill="#F9D22F" d="M281.706,61.812c0.39-0.706,0.801-1.392,1.213-2.076
		C282.507,60.42,282.096,61.106,281.706,61.812z"/>
	<path clip-path="url(#SVGID_2_)" fill="#F9D22F" d="M273.922,84.372c0.105-0.607,0.235-1.199,0.354-1.797
		C274.158,83.173,274.028,83.764,273.922,84.372z"/>
	<path clip-path="url(#SVGID_2_)" fill="#F9D22F" d="M272.978,91.729c0.044-0.521,0.111-1.029,0.164-1.544
		C273.088,90.7,273.021,91.208,272.978,91.729z"/>
	<path clip-path="url(#SVGID_2_)" fill="#F9D22F" d="M272.656,99.457c0,3.523,0.321,7.159,0.932,10.829
		C272.977,106.616,272.656,102.98,272.656,99.457L272.656,99.457z"/>
	<path clip-path="url(#SVGID_2_)" fill="#F9D22F" d="M272.737,95.548c0.019-0.443,0.058-0.874,0.083-1.314
		C272.794,94.674,272.755,95.105,272.737,95.548z"/>
	<path clip-path="url(#SVGID_2_)" fill="#F9D22F" d="M371.301,160.367c-3.092,1.691-6.383,3.126-9.847,4.302
		C364.919,163.495,368.207,162.057,371.301,160.367z"/>
	<path clip-path="url(#SVGID_2_)" fill="#F9D22F" d="M273.374,88.002c0.074-0.572,0.171-1.129,0.255-1.695
		C273.545,86.873,273.448,87.43,273.374,88.002z"/>
	<path clip-path="url(#SVGID_2_)" fill="#F9D22F" d="M280.198,64.712c0.343-0.701,0.707-1.381,1.071-2.063
		C280.905,63.331,280.54,64.012,280.198,64.712z"/>
	<path clip-path="url(#SVGID_2_)" fill="#F9D22F" d="M278.815,67.724c0.297-0.692,0.618-1.366,0.935-2.042
		C279.433,66.358,279.113,67.031,278.815,67.724z"/>
	<path clip-path="url(#SVGID_2_)" fill="#F9D22F" d="M276.443,74.07c0.211-0.658,0.445-1.297,0.672-1.942
		C276.888,72.773,276.654,73.413,276.443,74.07z"/>
	<path clip-path="url(#SVGID_2_)" fill="#F9D22F" d="M277.562,70.844c0.253-0.678,0.53-1.338,0.802-2.001
		C278.093,69.506,277.816,70.166,277.562,70.844z"/>
	<path clip-path="url(#SVGID_2_)" fill="#F9D22F" d="M275.461,77.403c0.172-0.638,0.368-1.259,0.555-1.886
		C275.829,76.144,275.633,76.765,275.461,77.403z"/>
	<path clip-path="url(#SVGID_2_)" fill="#FAFBFB" d="M299.928,83.811c-0.412,2.861-0.638,5.775-0.638,8.737
		c0,34.398,28.705,63.102,63.103,63.102c7.15,0,14.049-1.256,20.501-3.53c-2.07,1.878-4.277,3.616-6.611,5.203
		c18.056-12.257,28.386-33.588,28.386-57.865c0-38.017-25.303-67.907-67.892-68.837c-0.186-0.004-0.367,0.004-0.552,0.001
		c-1.354,0.836-2.672,1.744-3.959,2.706C314.245,43.526,301.501,62.312,299.928,83.811z M348.723,140.426
		c-1.479-1.46-2.711-3.446-3.745-5.702c4.293,4.768,10.489,7.804,17.287,7.804c4.271,0,8.302-1.202,11.776-3.275
		C365.653,151.663,355.655,147.27,348.723,140.426z M376.561,67.684c1.525-0.34,3.317,1.861,4.001,4.914
		c0.684,3.052,0.003,5.803-1.523,6.142c-1.526,0.34-3.316-1.86-4-4.912C374.354,70.775,375.035,68.024,376.561,67.684z
		 M377.157,82.986c0.269,0.346,0.489,0.723,0.636,1.143c1.053,3.017-1.61,6.69-5.95,8.206c-4.342,1.516-8.715,0.301-9.771-2.712
		c-0.2-0.572-0.252-1.167-0.197-1.767C367.257,88.577,371.087,89.289,377.157,82.986z M343.077,73.248
		c1.526-0.341,3.317,1.86,4.001,4.912c0.685,3.053,0.003,5.803-1.522,6.143c-1.525,0.34-3.317-1.86-4-4.913
		C340.871,76.337,341.553,73.586,343.077,73.248z M343.689,101.651c1.257,0.628,10.214,3.072,18.701,2.759
		c8.486-0.314,19.96-7.159,23.731-10.93c0.943,3.458,1.573,13.531-7.856,31.118c-0.628,1.172-1.271,2.227-1.924,3.193
		c0.001,0.001,0.002,0.003,0.003,0.004c-0.031,0.042-0.06,0.079-0.09,0.12c-0.824,1.207-1.665,2.265-2.52,3.173
		c-3.034,3.449-5.816,4.952-10.873,5.216c-5.914,0.309-16.401-2.754-20.069-15.007c-0.034-0.104-0.07-0.207-0.103-0.311
		c-0.01-0.037-0.024-0.068-0.034-0.104l0.002-0.001c-2.125-6.732-2.469-14.212-3.053-15.771
		C339.604,105.109,342.746,104.167,343.689,101.651z"/>
	<path clip-path="url(#SVGID_2_)" fill="#F9D22F" d="M357.205,165.957c-0.534,0.142-1.075,0.271-1.616,0.4
		C356.131,166.229,356.671,166.098,357.205,165.957z"/>
	<path clip-path="url(#SVGID_2_)" fill="#F9D22F" d="M347.122,167.82c-0.466,0.052-0.93,0.108-1.4,0.151
		C346.192,167.929,346.655,167.872,347.122,167.82z"/>
	<path clip-path="url(#SVGID_2_)" fill="#F9D22F" d="M353.961,166.727c-0.515,0.109-1.034,0.212-1.555,0.311
		C352.928,166.939,353.446,166.836,353.961,166.727z"/>
	<path clip-path="url(#SVGID_2_)" fill="#F9D22F" d="M350.609,167.349c-0.497,0.08-0.994,0.159-1.497,0.229
		C349.615,167.508,350.112,167.429,350.609,167.349z"/>
	<path clip-path="url(#SVGID_2_)" fill="#F9D22F" d="M360.346,165.045c-0.564,0.18-1.138,0.344-1.711,0.51
		C359.208,165.389,359.782,165.225,360.346,165.045z"/>
	<path clip-path="url(#SVGID_2_)" fill="#F9D22F" d="M342.237,168.213c0.394-0.018,0.778-0.051,1.169-0.074
		C343.015,168.162,342.63,168.195,342.237,168.213z"/>
	<path clip-path="url(#SVGID_2_)" fill="#F2B721" d="M282.919,59.736c0.141-0.235,0.273-0.478,0.417-0.71
		C283.193,59.258,283.061,59.501,282.919,59.736z"/>
	<path clip-path="url(#SVGID_2_)" fill="#F2B721" d="M277.116,72.128c0.15-0.427,0.29-0.863,0.447-1.285
		C277.405,71.265,277.266,71.701,277.116,72.128z"/>
	<path clip-path="url(#SVGID_2_)" fill="#F2B721" d="M276.016,75.517c0.144-0.481,0.276-0.972,0.428-1.446
		C276.291,74.545,276.159,75.035,276.016,75.517z"/>
	<path clip-path="url(#SVGID_2_)" fill="#F2B721" d="M278.364,68.843c0.152-0.372,0.293-0.752,0.451-1.119
		C278.658,68.09,278.517,68.471,278.364,68.843z"/>
	<path clip-path="url(#SVGID_2_)" fill="#F2B721" d="M281.269,62.649c0.147-0.277,0.286-0.563,0.437-0.837
		C281.555,62.086,281.417,62.372,281.269,62.649z"/>
	<path clip-path="url(#SVGID_2_)" fill="#F2B721" d="M284.698,56.944c0.131-0.194,0.255-0.396,0.388-0.589
		C284.953,56.548,284.83,56.75,284.698,56.944z"/>
	<path clip-path="url(#SVGID_2_)" fill="#F2B721" d="M279.75,65.682c0.151-0.322,0.292-0.652,0.447-0.97
		C280.042,65.03,279.902,65.36,279.75,65.682z"/>
	<path clip-path="url(#SVGID_2_)" fill="#F2B721" d="M274.276,82.574c0.114-0.579,0.217-1.166,0.343-1.737
		C274.493,81.409,274.39,81.995,274.276,82.574z"/>
	<path clip-path="url(#SVGID_2_)" fill="#F2B721" d="M273.587,110.286c4.649,27.931,26.866,57.997,65.074,58.011
		C300.454,168.282,278.236,138.217,273.587,110.286z"/>
	<path clip-path="url(#SVGID_2_)" fill="#F2B721" d="M272.819,94.234c0.047-0.838,0.088-1.68,0.158-2.505
		C272.908,92.554,272.867,93.396,272.819,94.234z"/>
	<path clip-path="url(#SVGID_2_)" fill="#F2B721" d="M272.656,99.457L272.656,99.457c0-1.317,0.027-2.62,0.081-3.908
		C272.683,96.836,272.656,98.139,272.656,99.457z"/>
	<path clip-path="url(#SVGID_2_)" fill="#F2B721" d="M342.237,168.213c-1.179,0.054-2.369,0.084-3.575,0.084
		C339.868,168.297,341.058,168.267,342.237,168.213z"/>
	<path clip-path="url(#SVGID_2_)" fill="#F2B721" d="M275.072,78.986c0.13-0.527,0.249-1.063,0.389-1.583
		C275.321,77.923,275.202,78.458,275.072,78.986z"/>
	<path clip-path="url(#SVGID_2_)" fill="#F2B721" d="M286.597,54.284c0.12-0.159,0.232-0.324,0.354-0.481
		C286.83,53.96,286.717,54.125,286.597,54.284z"/>
	<path clip-path="url(#SVGID_2_)" fill="#F2B721" d="M273.629,86.308c0.097-0.646,0.182-1.299,0.293-1.936
		C273.812,85.009,273.726,85.662,273.629,86.308z"/>
	<path clip-path="url(#SVGID_2_)" fill="#F2B721" d="M273.142,90.185c0.075-0.729,0.14-1.464,0.232-2.182
		C273.282,88.721,273.216,89.456,273.142,90.185z"/>
	<path clip-path="url(#SVGID_2_)" fill="#F2B721" d="M361.454,164.669c-0.37,0.126-0.735,0.257-1.108,0.376
		C360.719,164.926,361.085,164.795,361.454,164.669z"/>
	<path clip-path="url(#SVGID_2_)" fill="#F2B721" d="M302.918,39.43c0.002-0.001,0.004-0.002,0.006-0.004
		C302.922,39.427,302.92,39.429,302.918,39.43z"/>
	<path clip-path="url(#SVGID_2_)" fill="#F2B721" d="M355.589,166.357c-0.539,0.129-1.081,0.253-1.627,0.369
		C354.508,166.61,355.05,166.486,355.589,166.357z"/>
	<path clip-path="url(#SVGID_2_)" fill="#F2B721" d="M300.304,41.125c0.017-0.011,0.032-0.023,0.049-0.035
		C300.336,41.102,300.32,41.114,300.304,41.125z"/>
	<path clip-path="url(#SVGID_2_)" fill="#F2B721" d="M352.406,167.037c-0.594,0.111-1.194,0.214-1.797,0.312
		C351.212,167.251,351.812,167.149,352.406,167.037z"/>
	<path clip-path="url(#SVGID_2_)" fill="#F2B721" d="M297.774,42.967c0.033-0.025,0.065-0.053,0.098-0.078
		C297.839,42.914,297.808,42.941,297.774,42.967z"/>
	<path clip-path="url(#SVGID_2_)" fill="#F2B721" d="M295.329,44.958c0.053-0.046,0.104-0.095,0.158-0.141
		C295.433,44.863,295.382,44.912,295.329,44.958z"/>
	<path clip-path="url(#SVGID_2_)" fill="#F2B721" d="M371.353,160.34c-0.017,0.01-0.035,0.019-0.052,0.027
		C371.318,160.358,371.336,160.35,371.353,160.34z"/>
	<path clip-path="url(#SVGID_2_)" fill="#F2B721" d="M373.884,158.871c-0.06,0.037-0.122,0.072-0.182,0.108
		C373.762,158.943,373.824,158.908,373.884,158.871z"/>
	<path clip-path="url(#SVGID_2_)" fill="#F2B721" d="M336.224,30.621c-0.016,0-0.031,0-0.046,0
		C336.193,30.621,336.208,30.621,336.224,30.621L336.224,30.621z"/>
	<path clip-path="url(#SVGID_2_)" fill="#F2B721" d="M376.282,157.322c-0.042,0.028-0.084,0.057-0.127,0.086
		C376.197,157.379,376.24,157.351,376.282,157.322z"/>
	<path clip-path="url(#SVGID_2_)" fill="#F2B721" d="M358.634,165.555c-0.475,0.137-0.948,0.275-1.429,0.402
		C357.686,165.829,358.16,165.691,358.634,165.555z"/>
	<path clip-path="url(#SVGID_2_)" fill="#F2B721" d="M288.62,51.746c0.104-0.123,0.202-0.253,0.307-0.375
		C288.821,51.493,288.723,51.623,288.62,51.746z"/>
	<path clip-path="url(#SVGID_2_)" fill="#F2B721" d="M290.751,49.346c0.087-0.093,0.17-0.192,0.258-0.285
		C290.921,49.154,290.839,49.252,290.751,49.346z"/>
	<path clip-path="url(#SVGID_2_)" fill="#F2B721" d="M292.992,47.08c0.069-0.066,0.136-0.138,0.206-0.204
		C293.127,46.942,293.062,47.014,292.992,47.08z"/>
	<path clip-path="url(#SVGID_2_)" fill="#F2B721" d="M345.721,167.972c-0.764,0.07-1.539,0.12-2.315,0.167
		C344.182,168.092,344.958,168.042,345.721,167.972z"/>
	<path clip-path="url(#SVGID_2_)" fill="#F2B721" d="M349.112,167.578c-0.658,0.092-1.324,0.168-1.991,0.242
		C347.789,167.746,348.455,167.67,349.112,167.578z"/>
	<path opacity="0.87" clip-path="url(#SVGID_2_)" fill="#FAFBFB" d="M345.721,167.972c0.471-0.043,0.934-0.1,1.4-0.151
		c0.667-0.074,1.333-0.15,1.991-0.242c0.503-0.07,1-0.149,1.497-0.229c0.603-0.098,1.203-0.2,1.797-0.312
		c0.521-0.099,1.04-0.201,1.555-0.311c0.547-0.116,1.088-0.24,1.627-0.369c0.542-0.129,1.083-0.259,1.616-0.4
		c0.481-0.127,0.955-0.266,1.429-0.402c0.573-0.166,1.147-0.33,1.711-0.51c0.374-0.119,0.739-0.25,1.108-0.376
		c3.464-1.176,6.755-2.61,9.847-4.302c0.017-0.009,0.035-0.018,0.052-0.027c0.796-0.437,1.578-0.892,2.349-1.36
		c0.061-0.036,0.122-0.071,0.182-0.108c0.77-0.472,1.527-0.96,2.271-1.463c0.042-0.029,0.085-0.058,0.127-0.086
		c2.334-1.587,4.541-3.325,6.611-5.203c-6.452,2.274-13.351,3.53-20.501,3.53c-34.398,0-63.103-28.704-63.103-63.102
		c0-2.961,0.226-5.875,0.638-8.737c1.574-21.498,14.317-40.285,32.336-50.483c1.288-0.962,2.605-1.87,3.959-2.706
		c-0.016,0-0.031,0-0.046,0c-12.312-0.163-23.66,2.947-33.254,8.805c-0.002,0.001-0.004,0.003-0.006,0.004
		c-0.87,0.531-1.725,1.085-2.565,1.661c-0.017,0.011-0.032,0.023-0.049,0.035c-0.825,0.567-1.636,1.154-2.432,1.763
		c-0.033,0.025-0.064,0.053-0.098,0.078c-0.777,0.598-1.541,1.213-2.288,1.851c-0.054,0.046-0.104,0.095-0.158,0.141
		c-0.724,0.622-1.437,1.259-2.132,1.918c-0.07,0.066-0.136,0.138-0.206,0.204c-0.673,0.645-1.337,1.302-1.982,1.981
		c-0.088,0.093-0.171,0.191-0.258,0.285c-0.621,0.661-1.232,1.333-1.825,2.025c-0.105,0.122-0.203,0.252-0.307,0.375
		c-0.567,0.673-1.128,1.354-1.669,2.057c-0.121,0.157-0.234,0.323-0.354,0.481c-0.514,0.68-1.022,1.365-1.511,2.071
		c-0.133,0.192-0.257,0.395-0.388,0.589c-0.463,0.685-0.922,1.373-1.361,2.082c-0.144,0.232-0.276,0.475-0.417,0.71
		c-0.412,0.685-0.823,1.371-1.213,2.076c-0.151,0.274-0.29,0.56-0.437,0.837c-0.364,0.682-0.729,1.362-1.071,2.063
		c-0.155,0.318-0.296,0.648-0.447,0.97c-0.317,0.676-0.638,1.349-0.935,2.042c-0.158,0.367-0.299,0.747-0.451,1.119
		c-0.271,0.663-0.548,1.323-0.802,2.001c-0.157,0.421-0.296,0.857-0.447,1.285c-0.228,0.645-0.461,1.284-0.672,1.942
		c-0.152,0.475-0.284,0.965-0.428,1.446c-0.187,0.627-0.383,1.248-0.555,1.886c-0.14,0.52-0.259,1.056-0.389,1.583
		c-0.152,0.616-0.314,1.226-0.453,1.852c-0.126,0.571-0.229,1.158-0.343,1.737c-0.118,0.599-0.248,1.19-0.354,1.797
		c-0.111,0.637-0.196,1.29-0.293,1.936c-0.084,0.565-0.182,1.123-0.255,1.695c-0.092,0.718-0.158,1.453-0.232,2.182
		c-0.053,0.516-0.12,1.023-0.164,1.544c-0.07,0.825-0.111,1.667-0.158,2.505c-0.025,0.44-0.064,0.871-0.083,1.314
		c-0.054,1.288-0.081,2.591-0.081,3.909c0,3.523,0.321,7.159,0.932,10.829c4.649,27.931,26.867,57.996,65.074,58.011
		c1.206,0,2.396-0.03,3.575-0.084c0.394-0.018,0.778-0.051,1.169-0.074C344.182,168.092,344.957,168.042,345.721,167.972z"/>
	<path opacity="0.55" clip-path="url(#SVGID_2_)" fill="#FAFBFB" d="M344.978,134.724c1.033,2.256,2.266,4.242,3.745,5.702
		c6.932,6.844,16.93,11.237,25.319-1.174c-3.474,2.073-7.505,3.275-11.776,3.275C355.467,142.527,349.271,139.491,344.978,134.724z"
		/>
	<path clip-path="url(#SVGID_2_)" fill="#443F41" d="M342.792,121.297c-0.032-0.106-0.072-0.203-0.103-0.311
		C342.722,121.09,342.758,121.193,342.792,121.297z"/>
	<path clip-path="url(#SVGID_2_)" fill="#FFFFFF" d="M378.55,104.409c-0.165-0.314-0.498-3.335-0.498-3.335
		c-7.857,4.4-21.092,7.426-33.613,2.077c-1.979,2.099-3.085,3.458-3.085,3.458C344.182,108.495,359.452,116.299,378.55,104.409z"/>
	<path clip-path="url(#SVGID_2_)" fill="#D3535D" d="M376.343,127.795c-0.001-0.001-0.002-0.003-0.003-0.004
		c-0.029,0.043-0.058,0.082-0.086,0.124C376.284,127.874,376.312,127.837,376.343,127.795z"/>
	<path clip-path="url(#SVGID_2_)" fill="#D3535D" d="M342.655,120.882c0.01,0.036,0.024,0.067,0.034,0.104
		c-0.011-0.035-0.021-0.07-0.032-0.105L342.655,120.882z"/>
	<path opacity="0.7" clip-path="url(#SVGID_2_)" fill="#FFFFFF" d="M353.688,120.235c2.798,0.95,9.952,5.895,10.078,6.541
		c0.38,1.975-2.434,0.188-2.434,0.188c-8.483-7.306-16.241-7.087-18.674-6.084c0.011,0.035,0.021,0.07,0.032,0.105
		c0.031,0.107,0.071,0.204,0.103,0.311c3.668,12.253,14.155,15.315,20.069,15.007c5.057-0.264,7.839-1.767,10.873-5.216
		c0.806-0.917,1.63-1.966,2.52-3.173c0.029-0.042,0.058-0.081,0.086-0.124C369.686,119.237,359.065,118.105,353.688,120.235z"/>
	<path opacity="0.55" clip-path="url(#SVGID_2_)" fill="#FAFBFB" d="M371.843,92.335c4.34-1.516,7.003-5.189,5.95-8.206
		c-0.147-0.42-0.367-0.797-0.636-1.143c-6.07,6.303-9.899,5.59-15.282,4.871c-0.055,0.6-0.002,1.194,0.197,1.767
		C363.128,92.637,367.501,93.852,371.843,92.335z"/>
	<path clip-path="url(#SVGID_2_)" fill="#E2A625" d="M404.667,99.423c0,0.01,0,0.02,0,0.03c0,0,0-0.001,0-0.002
		C404.668,99.442,404.667,99.433,404.667,99.423z"/>
	<g opacity="0.36" clip-path="url(#SVGID_2_)">
		<path fill="#FAFBFB" d="M272.656,99.457L272.656,99.457c0-1.318,0.027-2.621,0.081-3.909c0.019-0.443,0.058-0.874,0.083-1.314
			c0.043-0.768,0.085-1.536,0.145-2.293c-1.158-1.701-2.183-3.336-2.739-4.266c-0.52-0.865-1.654-1.666-2.967-2.358
			c-0.995,4.559-1.519,9.287-1.519,14.134c0,5.582,0.708,11,2.017,16.189c1.674-2.18,3.603-5.196,5.462-7.863
			C272.851,104.962,272.656,102.176,272.656,99.457z"/>
		<path fill="#FAFBFB" d="M297.774,42.967c0.033-0.025,0.065-0.053,0.098-0.078c0.497-0.38,1.009-0.737,1.518-1.101
			c0.017-0.133,0.037-0.271,0.056-0.408c-0.935,0.551-1.859,1.116-2.765,1.707c0.169,0.123,0.332,0.245,0.492,0.366
			C297.375,43.293,297.57,43.124,297.774,42.967z"/>
		<path fill="#FAFBFB" d="M303.125,157.703c-0.565-0.382-1.122-0.773-1.671-1.172c-0.062,0.121-0.142,0.229-0.269,0.299
			c-0.6,0.328-1.151,0.548-1.687,0.708c0.925,0.544,1.862,1.068,2.814,1.571c0.181-0.445,0.393-0.874,0.68-1.264
			C303.03,157.793,303.078,157.749,303.125,157.703z"/>
		<path fill="#FAFBFB" d="M278.815,67.724c0.297-0.692,0.618-1.366,0.935-2.042c0.151-0.322,0.292-0.652,0.447-0.97
			c0.315-0.644,0.65-1.27,0.984-1.896c-0.614-1.151-1.138-2.51-1.596-3.911c-2.929,3.812-5.452,7.932-7.515,12.301
			c2.109-0.966,4.32-1.802,6.343-2.489C278.548,68.386,278.675,68.05,278.815,67.724z"/>
		<path fill="#FAFBFB" d="M281.667,133.666c-1.521,0.848-3.364,1.514-5.2,1.907c1.94,2.988,4.106,5.825,6.488,8.476
			c0.718-2.039,1.167-4.04,1.443-5.756C283.427,136.779,282.518,135.234,281.667,133.666z"/>
	</g>
	<g opacity="0.64" clip-path="url(#SVGID_2_)">
		<path fill="#FAFBFB" d="M341.827,30.867c2.689-4.466-1.653-10.808-3.003-13.285c-1.414-2.592-12.494-14.144-15.088-15.087
			c0,0,1.648,13.438,1.474,16.498c-0.221,3.91-4.011,10.59-4.867,13.373c5.295-1.267,10.878-1.874,16.675-1.747
			C338.647,30.656,340.246,30.747,341.827,30.867"/>
		<path fill="#FAFBFB" d="M365.225,30.077c-0.943-3.121-2.593-10.608-5.185-15.087c-2.83,2.357-4.479,9.075-7.78,11.315
			c-3.003,2.038-3.667,2.714-5.182,5.127c6.503,0.902,12.531,2.527,18.038,4.8C365.468,34.35,365.754,31.825,365.225,30.077"/>
		<path fill="#FAFBFB" d="M385.617,49.806c0.194-0.579,0.345-1.194,0.416-1.836c0.362-3.241,1.79-10.773,1.167-15.911
			c-3.086,2.555-11.083,5.836-15.751,7.186C376.768,42.138,381.496,45.699,385.617,49.806"/>
		<path fill="#FAFBFB" d="M405.537,71.33c-0.501-2.003-5.37-5.063-8.926-6.684c1.435,2.69,2.698,5.494,3.77,8.41
			C402.007,72.625,403.904,72.045,405.537,71.33"/>
		<path fill="#FAFBFB" d="M410.015,89.247c-1.92-0.698-4.739-1.782-6.076-2.3c0.462,2.968,0.773,5.999,0.898,9.098
			C407.294,95.078,410.618,91.654,410.015,89.247"/>
		<path fill="#FAFBFB" d="M406.951,133.094l-4.453-13.966c-1.017,4.017-2.353,7.875-3.987,11.548
			C400.907,131.643,404.158,132.505,406.951,133.094"/>
		<path fill="#FAFBFB" d="M378.901,155.622c6.25,3.882,14.397,0.274,18.384-4.377c-3.843,0.35-5.742-4.216-6.565-7.374
			C387.334,148.307,383.377,152.256,378.901,155.622"/>
		<path fill="#FAFBFB" d="M354.381,167.04c8.487,5.657,10.608,14.379,11.787,16.266c1.179,1.886,1.179,1.179,3.065-0.473
			c4.589-6.257,6.587-17.674,5.192-24.143c-5.864,3.635-12.484,6.338-19.78,7.936C354.547,166.765,354.458,166.902,354.381,167.04"
			/>
		<path fill="#FAFBFB" d="M329.171,167.615c-1.126,4.892-4.267,16.804,13.187,27.713c0.708-4.479-1.653-5.187-0.473-10.372
			c1.182-5.187,3.775-7.072,6.368-10.845c1.81-2.633,2.926-4.92,2.716-6.783c-3.854,0.627-7.874,0.97-12.066,0.969
			C335.535,168.296,332.291,168.06,329.171,167.615"/>
		<path fill="#FAFBFB" d="M299.39,41.788c-0.008,0.06-0.018,0.125-0.025,0.184c5.617-4.071,11.935-7.128,18.782-9.036
			c-0.41-1.609-1.612-5.967-3.841-11.345c-1.84-4.443-12.965-7.779-22.394-8.723c-2.358-0.47,8.014,6.601,9.429,11.316
			c1.092,3.641-1.159,11.911-1.896,17.197C299.427,41.517,299.407,41.655,299.39,41.788z"/>
		<path fill="#FAFBFB" d="M323.642,166.575c-7.658-1.793-14.474-4.907-20.435-8.96c-0.028,0.028-0.054,0.06-0.083,0.088
			c-0.046,0.046-0.094,0.09-0.133,0.143c-0.287,0.39-0.499,0.818-0.68,1.264c-1.898,4.678,1.603,12.175,1.387,17.124
			c-0.236,5.422-4.951,16.501-3.772,16.737c1.179,0.236,4.715-0.472,8.722-5.422c4.009-4.951,9.43-6.601,14.144-11.787
			C326.618,171.555,325.013,168.745,323.642,166.575z"/>
		<path fill="#FAFBFB" d="M284.397,138.293c-0.276,1.716-0.725,3.717-1.443,5.756c-0.586,1.666-1.345,3.352-2.358,4.918
			c-3.457,5.344-4.4,10.399-0.785,21.465c4.4-2.292,3.771-7.635,9.9-10.464c5.065-2.338,7.235-1.667,9.786-2.43
			c0.536-0.16,1.087-0.38,1.687-0.708c0.127-0.069,0.207-0.178,0.269-0.299C294.542,151.522,288.846,145.232,284.397,138.293z"/>
		<path fill="#FAFBFB" d="M274.665,115.54c-0.427-1.754-0.787-3.508-1.077-5.254c-0.14-0.839-0.26-1.675-0.369-2.509
			c-1.859,2.667-3.788,5.684-5.462,7.863c-0.634,0.825-1.232,1.533-1.775,2.052c-3.458,3.3-11.317,9.115-18.231,11.63
			c1.258,2.515,4.558,4.243,8.958,4.399c4.4,0.158,10.373,1.729,15.402,2.2c1.308,0.123,2.827-0.021,4.355-0.349
			c1.836-0.394,3.68-1.06,5.2-1.907C278.506,127.844,276.163,121.69,274.665,115.54z"/>
		<path fill="#FAFBFB" d="M272.072,71.208c-0.849,0.389-1.683,0.794-2.475,1.224c-5.501,2.985-13.672,3.144-14.302,5.029
			c-0.629,1.886,4.087,5.029,5.814,5.5c1.094,0.298,3.886,1.164,6.148,2.357c1.312,0.692,2.447,1.493,2.967,2.358
			c0.557,0.93,1.581,2.565,2.739,4.266c0.005-0.07,0.007-0.142,0.013-0.212c0.044-0.521,0.111-1.029,0.164-1.544
			c0.075-0.729,0.14-1.464,0.232-2.182c0.074-0.572,0.171-1.129,0.255-1.695c0.097-0.646,0.182-1.299,0.293-1.936
			c0.105-0.607,0.235-1.199,0.354-1.797c0.114-0.579,0.217-1.166,0.343-1.737c0.138-0.626,0.3-1.235,0.453-1.852
			c0.13-0.527,0.249-1.063,0.389-1.583c0.172-0.638,0.368-1.259,0.555-1.886c0.144-0.481,0.276-0.972,0.428-1.446
			c0.211-0.658,0.445-1.297,0.672-1.942c0.15-0.427,0.29-0.863,0.447-1.285c0.253-0.678,0.53-1.338,0.802-2.001
			c0.017-0.042,0.034-0.083,0.05-0.125C276.392,69.406,274.181,70.241,272.072,71.208z"/>
		<path fill="#FAFBFB" d="M296.681,43.087c-3.458-2.508-8.809-5.354-12.039-5.703c-4.359-0.472-10.175-9.43-10.018-11.315
			c0.159-1.886-1.414-0.942-1.414-0.942c-1.886,2.671-4.714,9.587-2.671,13.829c2.042,4.244,5.186,8.958,6.601,11.946
			c0.704,1.486,1.411,4.837,2.446,8.004c0.458,1.4,0.981,2.759,1.596,3.911c0.03-0.056,0.058-0.112,0.087-0.167
			c0.147-0.277,0.286-0.563,0.437-0.837c0.39-0.706,0.801-1.392,1.213-2.076c0.141-0.235,0.273-0.478,0.417-0.71
			c0.439-0.708,0.898-1.396,1.361-2.082c0.131-0.194,0.255-0.396,0.388-0.589c0.488-0.706,0.997-1.391,1.511-2.071
			c0.12-0.159,0.232-0.324,0.354-0.481c0.541-0.702,1.102-1.383,1.669-2.057c0.104-0.123,0.202-0.253,0.307-0.375
			c0.593-0.693,1.205-1.364,1.825-2.025c0.087-0.093,0.17-0.192,0.258-0.285c0.645-0.679,1.309-1.336,1.982-1.981
			c0.069-0.066,0.136-0.138,0.206-0.204c0.695-0.659,1.408-1.296,2.132-1.918c0.053-0.046,0.104-0.095,0.158-0.141
			c0.551-0.47,1.119-0.917,1.687-1.364C297.013,43.332,296.851,43.21,296.681,43.087z"/>
	</g>
</g>
</svg>
