<?xml version="1.0" encoding="utf-8"?>
<!-- Generator: Adobe Illustrator 22.1.0, SVG Export Plug-In . SVG Version: 6.00 Build 0)  -->
<svg version="1.1" id="Layer_1" xmlns="http://www.w3.org/2000/svg" xmlns:xlink="http://www.w3.org/1999/xlink" x="0px" y="0px"
	 viewBox="0 0 200 397.1" style="enable-background:new 0 0 200 397.1;" xml:space="preserve">
<style type="text/css">
	.st0{fill:none;}
	.st1{fill:#FAFBFB;}
	.st2{opacity:0.32;fill:#FAFBFB;enable-background:new    ;}
	.st3{fill:#F4876B;}
	.st4{opacity:0.2;}
	.st5{fill:#FAFBFB;fill-opacity:0;}
	.st6{opacity:0.3;fill:#FAFBFB;enable-background:new    ;}
	.st7{opacity:0.32;}
	.st8{opacity:0.62;}
	.st9{opacity:0.2;fill:#666666;enable-background:new    ;}
	.st10{fill:#666666;}
	.st11{opacity:0.8;fill:#666666;enable-background:new    ;}
	.st12{opacity:0.2;enable-background:new    ;}
	.st13{opacity:0.6;fill:#666666;enable-background:new    ;}
	.st14{opacity:0.8;}
	.st15{opacity:0.47;}
</style>
<g>
	<path class="st0" d="M64.6,284.2c0.6-0.4,1.3-0.8,2-1.2C65.9,283.4,65.3,283.8,64.6,284.2z"/>
	<path class="st0" d="M37.5,346.2L37.5,346.2c3.1,15.9,12.7,30.1,26.7,38.9l0,0C50.2,376.3,40.6,362.1,37.5,346.2z"/>
	<path class="st0" d="M62,285.9c0.7-0.5,1.5-1,2.3-1.5C63.5,284.9,62.8,285.4,62,285.9z"/>
	<path class="st0" d="M74.6,279.3c0.8-0.3,1.7-0.6,2.6-0.9C76.3,278.6,75.4,278.9,74.6,279.3z"/>
	<path class="st0" d="M77.7,278.2c0.7-0.2,1.4-0.4,2-0.6C79,277.8,78.3,278,77.7,278.2z"/>
	<path class="st0" d="M127.5,228.1L127.5,228.1L127.5,228.1L127.5,228.1z"/>
	<path class="st0" d="M55.1,291.4c-0.1,0.1-0.2,0.1-0.2,0.2l0,0C55,291.6,55.1,291.5,55.1,291.4z"/>
	<path class="st0" d="M83.7,276.6c-0.2,0-0.4,0.1-0.5,0.1C83.4,276.7,83.5,276.6,83.7,276.6L83.7,276.6z"/>
	<path class="st0" d="M55.7,290.9c0.5-0.4,1-0.9,1.5-1.3C56.6,290.1,56.2,290.5,55.7,290.9z"/>
	<path class="st0" d="M59.9,287.4c0.6-0.5,1.2-0.9,1.8-1.3C61.1,286.5,60.5,287,59.9,287.4z"/>
	<path class="st0" d="M37.5,323.4L37.5,323.4c-1,5-1.3,9.9-1,14.8l0,0C36.2,333.3,36.5,328.4,37.5,323.4z"/>
	<path class="st0" d="M57.8,289.1c0.5-0.4,1-0.8,1.5-1.2C58.8,288.3,58.3,288.7,57.8,289.1z"/>
	<path class="st0" d="M155.1,331.5L155.1,331.5c0.2,3.4,0.1,6.8-0.3,10.2C155.2,338.3,155.3,334.9,155.1,331.5z"/>
	<path class="st0" d="M80.5,277.4c0.6-0.2,1.2-0.3,1.8-0.5C81.7,277,81.1,277.2,80.5,277.4z"/>
	<path class="st0" d="M122.8,387.7L122.8,387.7c4.6-2.4,9-5.3,12.8-8.8l0,0C131.8,382.3,127.4,385.3,122.8,387.7z"/>
	<path class="st0" d="M74.4,279.3c-0.1,0-0.2,0.1-0.2,0.1l0,0C74.2,279.4,74.3,279.4,74.4,279.3z"/>
	<path class="st0" d="M141.5,372.7c5.1-6.2,9.1-13.5,11.5-21.8C150.6,359.2,146.6,366.5,141.5,372.7L141.5,372.7z"/>
	<path class="st0" d="M79.6,391.9c-2.8-0.8-5.4-1.8-8-2.9l0,0C74.2,390.2,76.9,391.1,79.6,391.9c2.3,0.7,4.7,1.2,7,1.5l0,0
		C84.3,393.1,81.9,392.6,79.6,391.9z"/>
	<path class="st0" d="M154.2,323.7L154.2,323.7c-0.9-4.8-2.4-9.5-4.5-13.9l0,0C151.7,314.2,153.2,318.9,154.2,323.7z"/>
	<path class="st1" d="M137.1,310.8c-8.5-2.4-14-10.5-13.3-19c-4.1-0.7-8.7-1.7-13.9-3.1l0,0c0.2,0,0.3,0.1,0.5,0.1
		c0.5,0.1,0.9,0.3,1.4,0.4l-2.2-0.6c-1,7.1,0.3,14.3,3.9,20.6c4.2,7.5,11,13,19.2,15.4l1.3-6.8c0.4-2.1,2.4-3.5,4.5-3.1
		s3.5,2.4,3,4.5l-1.3,6.7c0.6,0,1.3,0.1,1.9,0.1c4.2,0,8.3-0.8,12.1-2.3c-0.9-4.8-2.4-9.5-4.5-13.9
		C145.9,311.6,141.4,312,137.1,310.8z"/>
	<path class="st1" d="M109.5,288.5L109.5,288.5c0.1,0,0.2,0.1,0.3,0.1C109.7,288.6,109.6,288.6,109.5,288.5z"/>
	<path class="st1" d="M119,359.9l-1.4,5.4c-0.5,1.7-2,2.9-3.7,2.9c-0.3,0-0.7,0-1-0.1c-2.1-0.5-3.3-2.7-2.7-4.7l1.6-6
		c-2.4-0.5-4.8-0.8-7.2-0.8c-12.8,0-24.3,7.5-29.7,18.8l5.6,1.7c2,0.6,3.2,2.8,2.5,4.8c-0.5,1.7-2,2.7-3.7,2.7
		c-0.4,0-0.8-0.1-1.1-0.2l-5.7-1.8c-0.5,2.1-0.7,4.3-0.7,6.4c2.5,1.1,5.2,2.1,8,2.9c2.3,0.7,4.7,1.2,7,1.5c-0.6-2.9-0.6-5.9,0.3-9
		c2.8-9.8,12.9-15.4,22.7-12.7c7.5,2.1,12.5,8.6,13.3,15.8c4.6-2.4,9-5.3,12.8-8.8C132.9,370.7,127,363.8,119,359.9z"/>
	<path class="st1" d="M155.1,331.5c-4.1,1.4-8.5,2.2-13,2.2c-3.7,0-7.4-0.5-11.1-1.5c-20.2-5.7-32.5-25.8-28.9-46
		c-8.4-3-14.4-6.2-18.4-9.5c-0.2,0-0.4,0.1-0.6,0.1c-0.3,0.1-0.6,0.1-0.9,0.2c-0.6,0.1-1.2,0.3-1.8,0.5c-0.3,0.1-0.5,0.1-0.8,0.2
		c-0.7,0.2-1.4,0.4-2,0.6c-0.2,0.1-0.3,0.1-0.5,0.2c-0.9,0.3-1.7,0.6-2.6,0.9c-0.1,0-0.1,0.1-0.2,0.1s-0.2,0.1-0.2,0.1
		c8.7,10,12.3,24,8.4,37.7c-5.1,17.9-21.3,29.5-39,29.5c-2,0-4-0.2-6-0.5c3.1,15.9,12.7,30.1,26.7,38.9c0.2-2.2,0.7-4.4,1.3-6.6
		c5.1-17.9,21.3-29.5,39-29.5c3.7,0,7.4,0.5,11.1,1.5c12,3.4,21.1,11.8,25.9,22.3c5.1-6.2,9.1-13.5,11.5-21.8c0.6-2,1-4,1.4-5.9
		c0.2-1.1,0.3-2.2,0.5-3.3C155.2,338.3,155.3,334.9,155.1,331.5z"/>
	<path class="st1" d="M61.2,311.1l9.5,2.7c-2.6,9.3-9.5,16.2-18,19.2l-4.4-9.2c-3.1,0.9-6.5,0.9-9.9,0c-0.3-0.1-0.7-0.2-1-0.3
		c-1,5-1.3,9.9-1,14.8c1.1,0.3,2.3,0.4,3.5,0.6l0.2-7c0.1-2.1,1.9-3.8,4-3.7c2.1,0.1,3.8,1.8,3.7,4l-0.2,6.7
		c12.9-1.6,23.9-10.9,27.5-23.7c0.6-2.3,1-4.6,1.2-6.9l-7.1,0.2h-0.1c-2.1,0-3.8-1.6-3.8-3.7c-0.1-2.1,1.6-3.9,3.7-4l6.9-0.2
		c-0.6-3.6-1.9-7.1-3.7-10.4c-1.5-2.6-3.3-5-5.4-7.1c-0.1,0-0.2,0.1-0.3,0.1c-0.7,0.4-1.3,0.8-2,1.2c-0.1,0.1-0.2,0.1-0.3,0.2
		c-0.8,0.5-1.5,1-2.3,1.5c-0.1,0.1-0.2,0.1-0.3,0.2c-0.6,0.4-1.2,0.9-1.8,1.3c-0.2,0.2-0.4,0.3-0.6,0.5c-0.5,0.4-1,0.8-1.5,1.2
		c-0.2,0.2-0.4,0.4-0.6,0.5c-0.5,0.4-1,0.8-1.5,1.3c-0.2,0.2-0.4,0.3-0.6,0.5c-0.1,0.1-0.1,0.1-0.2,0.2
		C60.6,296.1,63.3,303.7,61.2,311.1z"/>
	<path class="st2" d="M154.2,323.7c-3.8,1.5-7.8,2.3-12.1,2.3c-0.6,0-1.3,0-1.9-0.1l1.3-6.7c0.4-2.1-1-4.1-3-4.5
		c-2.1-0.4-4.1,1-4.5,3.1l-1.3,6.8c-8.2-2.5-15-7.9-19.2-15.4c-3.5-6.4-4.9-13.5-3.9-20.6l-0.5-0.1c0.2,0.1,0.3,0.1,0.5,0.1l0,0
		c-2.7-0.8-5.1-1.6-7.4-2.4c-3.6,20.3,8.7,40.3,28.9,46c3.7,1,7.4,1.5,11.1,1.5c4.5,0,8.9-0.8,13-2.2
		C155,328.9,154.7,326.3,154.2,323.7z"/>
	<path class="st2" d="M117.4,351L117.4,351C117.4,351,117.3,351,117.4,351c-0.7-0.2-1.2-0.4-1.8-0.6c-3.7-1-7.4-1.5-11.1-1.5
		c-17.7,0-34,11.7-39,29.5c-0.6,2.2-1,4.4-1.3,6.6c2.4,1.5,4.8,2.8,7.5,4c0-2.1,0.3-4.2,0.7-6.4l5.7,1.8c0.4,0.1,0.8,0.2,1.1,0.2
		c1.6,0,3.2-1.1,3.7-2.7c0.6-2-0.5-4.2-2.5-4.8l-5.6-1.7c5.4-11.3,16.9-18.8,29.7-18.8c2.4,0,4.8,0.3,7.2,0.8l-1.6,6
		c-0.5,2.1,0.7,4.2,2.7,4.7c0.3,0.1,0.7,0.1,1,0.1c1.7,0,3.3-1.1,3.7-2.9l1.4-5.4c8,3.9,13.9,10.8,16.7,18.9c2.1-1.9,4-3.9,5.9-6.1
		C137,362.8,128.5,354.7,117.4,351z"/>
	<path class="st3" d="M91.9,275.5c0.7,0,1.3-0.1,2-0.1C93.2,275.4,92.6,275.4,91.9,275.5z"/>
	<path class="st3" d="M150.4,287.3L150.4,287.3L150.4,287.3L150.4,287.3z"/>
	<path class="st3" d="M95.8,275.3c-0.3,0-0.6,0-1,0c0.7,0,1.3,0,2,0C96.5,275.3,96.1,275.3,95.8,275.3z"/>
	<path class="st3" d="M127.5,228.1c0.4,0.1,0.9,0.2,1.3,0.4L127.5,228.1L127.5,228.1C127.5,228.1,127.5,228.1,127.5,228.1z"/>
	<path class="st3" d="M85.1,276.3c-0.4,0.1-0.9,0.2-1.3,0.3l0,0C84.2,276.5,84.6,276.4,85.1,276.3z"/>
	<path class="st3" d="M153.3,283.3c-0.1,0.3-0.3,0.6-0.5,0.8C153,283.9,153.1,283.6,153.3,283.3z"/>
	<path class="st3" d="M151.3,286.4c-0.3,0.3-0.5,0.6-0.8,0.9C150.7,287,151,286.7,151.3,286.4z"/>
	<path class="st3" d="M150.4,287.3c-0.3,0.3-0.7,0.7-1,1C149.7,288,150.1,287.7,150.4,287.3z"/>
	<path class="st3" d="M151.4,286.2c0.2-0.3,0.4-0.5,0.6-0.8c-0.2,0.2-0.3,0.5-0.5,0.7C151.4,286.1,151.4,286.2,151.4,286.2z"/>
	<path class="st3" d="M85.8,276.2c0.8-0.1,1.7-0.3,2.5-0.4C87.5,275.9,86.7,276,85.8,276.2z"/>
	<path class="st3" d="M151.3,286.4C151.3,286.3,151.3,286.3,151.3,286.4C151.3,286.3,151.3,286.3,151.3,286.4
		C151.3,286.3,151.3,286.3,151.3,286.4z"/>
	<path class="st3" d="M88.5,275.8c0.9-0.1,1.8-0.2,2.7-0.3C90.3,275.6,89.4,275.7,88.5,275.8z"/>
	<path class="st3" d="M152.2,285.1L152.2,285.1c-0.1,0.1-0.1,0.1-0.1,0.2c0.2-0.3,0.4-0.6,0.6-0.9
		C152.5,284.6,152.4,284.9,152.2,285.1L152.2,285.1L152.2,285.1z"/>
	<path class="st3" d="M127.5,228L127.5,228l-1.3-0.4C126.6,227.8,127,227.9,127.5,228z"/>
	<g class="st4">
		<path class="st1" d="M132.8,209.2c0.2-0.7-0.2-1.4-0.9-1.6c-0.7-0.2-1.4,0.2-1.6,0.9l-5.4,19v0.2c-0.2,0.7,0.2,1.4,0.9,1.6
			c0.1,0,0.2,0,0.4,0c0.6,0,1.1-0.4,1.2-0.9l0.1-0.3l0,0c-0.4-0.1-0.8-0.3-1.3-0.4l1.3,0.4L132.8,209.2z"/>
		<path class="st1" d="M141.5,200c-0.7-0.2-1.4,0.2-1.6,0.9l-8.1,28.7l0,0c-0.2,0.7,0.2,1.4,0.9,1.6c0.1,0,0.2,0,0.4,0
			c0.4,0,0.8-0.2,1.1-0.6c0.1-0.1,0.1-0.2,0.2-0.3l8.1-28.7C142.6,200.9,142.2,200.2,141.5,200z"/>
	</g>
	<path class="st3" d="M109.9,288.6C109.9,288.6,109.8,288.6,109.9,288.6c-0.1,0-0.2-0.1-0.4-0.1l0,0
		C109.6,288.6,109.7,288.6,109.9,288.6z"/>
	<path class="st3" d="M132.9,288.3L132.9,288.3c1.6,1.3,3.2,2.7,4.7,4.2l0,0C136.1,291.1,134.6,289.7,132.9,288.3z"/>
	<path class="st3" d="M108.7,276.8c-0.8-0.2-1.5-0.3-2.3-0.5l0,0C107.1,276.4,107.9,276.6,108.7,276.8z"/>
	<path class="st3" d="M111.7,277.5c-0.8-0.2-1.6-0.4-2.3-0.6C110.1,277.1,110.9,277.3,111.7,277.5L111.7,277.5z"/>
	<path class="st3" d="M109.5,288.5c-0.2-0.1-0.3-0.1-0.5-0.1C109.2,288.5,109.3,288.5,109.5,288.5L109.5,288.5z"/>
	<g>
		<path class="st1" d="M132.9,288.3c1.6,1.3,3.2,2.7,4.7,4.2c4.5-0.4,7.9-1.6,10.5-3.3C144,289.3,139,289.2,132.9,288.3z"/>
		<path class="st1" d="M148.2,289.2c0.4-0.3,0.8-0.6,1.1-0.9C149,288.6,148.6,288.9,148.2,289.2z"/>
		<path class="st1" d="M148.1,289.2C148.1,289.2,148.2,289.2,148.1,289.2C148.2,289.2,148.1,289.2,148.1,289.2L148.1,289.2z"/>
		<path class="st1" d="M76.7,261.6L76.7,261.6L76.7,261.6z"/>
		<path class="st1" d="M151.1,245.7v0.6c-0.5,0-12.8-0.6-27.4-4.7c-14.6-4.1-25.4-10.1-25.8-10.3l0.3-0.6
			c-6.4,3.4-12.1,8.9-16.6,17.1c-2.5,4.6-4.6,9.2-4.9,13.7l0,0c0-0.6,0.1-1.1,0.2-1.7c1.8,2,5.7,5.5,13.9,9.5l-1,3.5l-0.7,2.5
			c-5.4-2.7-9.2-5.4-11.8-7.7c-0.3-0.9-0.4-1.7-0.6-2.6l0,0c0-0.1,0-0.1,0-0.2c0-0.2,0-0.5-0.1-0.7c0-0.2,0-0.4,0-0.7
			c0-0.3,0-0.5,0-0.8c0-0.2,0-0.4,0-0.6s0-0.4,0-0.5c-0.4,5.2,1.3,10.2,7.1,15c0.4-0.1,0.9-0.2,1.3-0.3c-0.4,0.1-0.9,0.2-1.3,0.3
			c4,3.3,9.9,6.5,18.4,9.5c2.3,0.8,4.7,1.6,7.4,2.4c0.1,0,0.2,0.1,0.3,0.1c5.2,1.4,9.8,2.5,13.9,3.1c5.5,0.9,10.1,1.1,13.8,0.8
			c-1.5-1.5-3-2.9-4.7-4.2c-2.5-0.3-5.2-0.8-8.1-1.4c-4-0.8-8.3-1.8-13-3.1c-0.4-0.1-0.7-0.2-1.1-0.3c-0.2-0.1-0.4-0.1-0.6-0.2
			l0.7-2.5l1-3.4c-0.8-0.2-0.8-0.2,0,0l0.1-0.3c0.6,0.2,1.1,0.3,1.7,0.5c19.4,5.5,32.3,6.1,39.8,5.6c2-4,2.7-9,3-14.3
			C156.8,259.7,154.8,251.9,151.1,245.7z M106.4,276.3l-0.5,1.7l-1,3.7c-0.5-0.2-1-0.3-1.5-0.5c-2.5-0.9-4.8-1.7-6.9-2.6l0.7-2.4
			l0.3-0.9l0.8-2.8c2.5,1,5.3,2,8.5,3L106.4,276.3C107.1,276.4,107.1,276.4,106.4,276.3z M116.1,273.6c-0.4,1.4-1.9,2.3-3.4,1.9
			c-1.4-0.4-2.3-1.9-1.9-3.4c0.4-1.4,1.9-2.3,3.4-1.9C115.6,270.6,116.5,272.1,116.1,273.6z M126.6,260.6c-1.4,4.9-6.5,7.8-11.5,6.4
			c-4.9-1.4-7.8-6.5-6.4-11.5c1.4-4.9,6.5-7.8,11.5-6.4C125.1,250.5,128,255.6,126.6,260.6z M137.6,272.8c-0.7,2.3-3.1,3.7-5.4,3
			c-2.3-0.7-3.7-3.1-3-5.4s3.1-3.7,5.4-3S138.2,270.5,137.6,272.8z"/>
		<path class="st1" d="M150.9,245.4c-0.4-0.7-0.8-1.3-1.3-2C150.1,244.1,150.5,244.8,150.9,245.4z"/>
		<path class="st1" d="M150.9,245.4c0.1,0.1,0.1,0.2,0.2,0.3l0,0C151.1,245.6,151,245.5,150.9,245.4z"/>
	</g>
	<path class="st5" d="M115.1,267c4.9,1.4,10.1-1.5,11.5-6.4s-1.5-10.1-6.4-11.5s-10.1,1.5-11.5,6.4
		C107.3,260.5,110.2,265.6,115.1,267z M120.6,251.6c3,0.5,5.4,6.4,4.6,6.4c-0.7,0-3.8-3.5-5.2-4.5
		C118.7,252.5,119.8,251.7,120.6,251.6z"/>
	<circle class="st6" cx="133.3" cy="271.6" r="4.4"/>
	<g class="st7">
		<path class="st1" d="M109.6,371.8c-9.8-2.8-19.9,2.9-22.7,12.7c-0.9,3-0.9,6.1-0.3,9l0,0c12.7,2,25.3-0.2,36.2-5.8
			C122.1,380.4,117,373.9,109.6,371.8z"/>
		<path class="st1" d="M137.6,292.5c-3.8,0.3-8.4,0.1-13.8-0.8c-0.6,8.5,4.8,16.6,13.3,19c4.4,1.2,8.8,0.8,12.6-1l0,0
			C146.7,303.4,142.6,297.5,137.6,292.5L137.6,292.5z"/>
		<path class="st1" d="M72.1,280.3c-0.2,0.1-0.5,0.2-0.7,0.3c-0.6,0.3-1.2,0.5-1.8,0.8c-0.2,0.1-0.5,0.2-0.7,0.4
			c-0.6,0.3-1.1,0.6-1.7,0.9c-0.1,0.1-0.3,0.1-0.4,0.2c2.1,2.1,3.9,4.5,5.4,7.1c1.8,3.3,3.1,6.8,3.7,10.4l-6.9,0.2
			c-2.1,0.1-3.8,1.8-3.7,4c0.1,2.1,1.8,3.7,3.8,3.7h0.1l7.1-0.2c-0.1,2.3-0.5,4.6-1.2,6.9c-3.6,12.8-14.6,22-27.5,23.7l0.2-6.7
			c0.1-2.1-1.6-3.9-3.7-4c-2.1-0.1-3.9,1.6-4,3.7l-0.2,7c-1.2-0.1-2.3-0.3-3.5-0.6c0.2,2.7,0.5,5.4,1,8c2,0.3,4,0.5,6,0.5
			c17.7,0,34-11.7,39-29.5c3.9-13.7,0.2-27.7-8.4-37.7C73.5,279.7,72.8,280,72.1,280.3z"/>
		<path class="st1" d="M38.5,323.7c3.4,1,6.8,0.9,9.9,0l4.4,9.2c8.4-3,15.3-9.9,18-19.2l-9.5-2.7c2.1-7.4-0.6-14.9-6.3-19.4l0,0
			c-0.5,0.5-1,1-1.5,1.5c-0.1,0.1-0.1,0.1-0.2,0.2c-0.6,0.7-1.3,1.3-1.9,2c-0.1,0.1-0.2,0.3-0.4,0.4c-0.5,0.5-0.9,1.1-1.4,1.6
			c-0.2,0.2-0.3,0.4-0.5,0.7c-0.4,0.5-0.8,1-1.1,1.5c-0.2,0.2-0.3,0.5-0.5,0.7c-0.4,0.5-0.7,1.1-1.1,1.6c-0.1,0.2-0.3,0.4-0.4,0.6
			c-0.5,0.7-0.9,1.5-1.4,2.2c0,0,0,0,0,0.1c-0.5,0.8-0.9,1.6-1.3,2.4c-0.1,0.2-0.2,0.4-0.3,0.6c-0.3,0.6-0.6,1.2-0.9,1.9
			c-0.1,0.3-0.3,0.6-0.4,0.8c-0.3,0.6-0.5,1.2-0.7,1.8c-0.1,0.3-0.2,0.6-0.3,0.9c-0.2,0.6-0.5,1.3-0.7,1.9c-0.1,0.2-0.2,0.5-0.3,0.7
			c-0.3,0.9-0.6,1.8-0.8,2.7c-0.5,1.6-0.8,3.2-1.1,4.8l0,0C37.8,323.5,38.2,323.6,38.5,323.7z"/>
		<circle class="st1" cx="113.4" cy="272.8" r="2.7"/>
		<path class="st1" d="M144.1,237.2c-0.7-0.6-1.4-1.3-2.2-1.9c-4.4-0.7-9.8-1.7-15.5-3.3s-10.9-3.6-15-5.3c-1,0.1-1.9,0.2-2.9,0.4
			c4.3,1.9,10.4,4.4,17.4,6.4C133,235.5,139.4,236.6,144.1,237.2z"/>
		<path class="st1" d="M146.8,239.9c-0.1-0.1-0.2-0.2-0.4-0.4C146.6,239.7,146.7,239.8,146.8,239.9L146.8,239.9z"/>
		<path class="st1" d="M105.7,227.8c-0.3,0.1-0.5,0.1-0.8,0.2l0,0C105.1,228,105.4,227.9,105.7,227.8z"/>
		<path class="st1" d="M76.7,261.6c0,0.2,0,0.4,0,0.5C76.6,261.9,76.7,261.7,76.7,261.6L76.7,261.6z"/>
		<path class="st1" d="M89.1,275.3l0.7-2.5l-0.1,0.3c-4.1-1.9-7.6-4-10.5-6.1c-0.9-0.7-1.7-1.3-2.5-1.9c0.1,0.9,0.3,1.7,0.6,2.6
			C79.9,270,83.7,272.6,89.1,275.3z"/>
		<path class="st1" d="M104.8,281.7l1-3.7l-0.4,1.3c-0.5-0.2-0.9-0.3-1.4-0.5c-2.5-0.8-4.8-1.7-7.1-2.5l-0.7,2.4
			c2.1,0.9,4.4,1.7,6.9,2.6C103.8,281.4,104.3,281.6,104.8,281.7z"/>
		<path class="st1" d="M151.3,286.3C151.4,286.3,151.4,286.3,151.3,286.3c0.1-0.1,0.1-0.1,0.1-0.2
			C151.4,286.2,151.4,286.2,151.3,286.3L151.3,286.3z"/>
		<path class="st1" d="M152.2,285.1L152.2,285.1L152.2,285.1L152.2,285.1z"/>
		<path class="st1" d="M128.6,285.2L128.6,285.2c-0.9-0.2-1.9-0.4-2.8-0.5c-4.1-0.8-8.5-1.9-13.3-3.3c-0.3-0.1-0.6-0.2-1-0.3
			c-0.3-0.1-0.5-0.1-0.8-0.2l-0.7,2.5c0.2,0.1,0.4,0.1,0.6,0.2c0.4,0.1,0.7,0.2,1.1,0.3c4.7,1.3,9,2.4,13,3.1c2.9,0.6,5.6,1,8.1,1.4
			l0,0c6.1,0.8,11.1,1,15.2,0.9c0.4-0.3,0.8-0.6,1.2-0.9l0,0c0.4-0.3,0.7-0.6,1-1l0,0l0,0C145.1,287.4,137.9,286.9,128.6,285.2z"/>
	</g>
	<path class="st1" d="M120,253.5c1.4,1,4.4,4.5,5.2,4.5c0.7,0-1.6-5.8-4.6-6.4C119.8,251.7,118.7,252.5,120,253.5z"/>
	<g class="st8">
		<path class="st1" d="M141.9,235.4L141.9,235.4c0.1,0.1,0.1,0.1,0.2,0.2C142.1,235.5,142,235.5,141.9,235.4z"/>
		<path class="st1" d="M111.4,226.8L111.4,226.8L111.4,226.8L111.4,226.8z"/>
		<path class="st1" d="M141.9,235.4c-2.4-1.8-5-3.4-7.7-4.7c-0.2,0.4-0.6,0.6-1.1,0.6c-0.1,0-0.2,0-0.4,0c-0.7-0.2-1.1-0.9-0.9-1.6
			c-1.4-0.6-2.8-1.1-4.3-1.6h-0.1l-0.1,0.3c-0.2,0.6-0.7,0.9-1.2,0.9c-0.1,0-0.2,0-0.4,0c-0.7-0.2-1.1-0.9-0.9-1.6v-0.2
			c-4.5-0.9-9-1.2-13.5-0.7c4.1,1.7,9.2,3.7,15,5.3S137.5,234.7,141.9,235.4z"/>
		<path class="st1" d="M104.9,228C104.9,228.1,104.9,228.1,104.9,228c0.3-0.1,0.5-0.1,0.8-0.2C105.4,227.9,105.1,228,104.9,228z"/>
		<path class="st1" d="M146.8,239.9c-0.1-0.1-0.1-0.2-0.2-0.2C146.7,239.8,146.8,239.9,146.8,239.9L146.8,239.9z"/>
		<path class="st1" d="M105.7,227.8C105.7,227.8,105.6,227.8,105.7,227.8C105.6,227.8,105.6,227.8,105.7,227.8L105.7,227.8z"/>
		<path class="st1" d="M111.4,226.8c-0.9,0.1-1.9,0.2-2.8,0.4l0,0C109.5,227,110.4,226.9,111.4,226.8z"/>
		<path class="st1" d="M151.1,246.4v-0.7c-0.5-0.8-0.9-1.5-1.5-2.3l-0.1-0.1c-0.8-1.2-1.8-2.3-2.7-3.4l0,0c-0.1-0.1-0.2-0.2-0.3-0.3
			c-0.7-0.8-1.4-1.5-2.2-2.2l0,0c-0.1-0.1-0.1-0.1-0.2-0.2l0,0c-0.6-0.6-1.3-1.1-2-1.7c0.7,0.5,1.3,1.1,2,1.7
			c-4.7-0.6-11.1-1.7-18.1-3.7c-7-2-13.1-4.4-17.4-6.4l0,0l0,0l0,0h-0.1l0,0c-0.9,0.2-1.9,0.4-2.8,0.6c-0.3,0.1-0.5,0.2-0.8,0.2l0,0
			c-0.5,0.2-1.1,0.3-1.6,0.5l0,0c-0.8,0.3-1.6,0.6-2.4,0.9c-0.1,0-0.2,0.1-0.2,0.1c-0.8,0.4-1.6,0.7-2.4,1.1l0,0l-0.3,0.6
			c0.5,0.2,11.2,6.2,25.8,10.3C138.3,245.8,150.6,246.4,151.1,246.4z"/>
		<path class="st1" d="M146.5,239.6L146.5,239.6c0,0.1,0.1,0.1,0.1,0.1C146.6,239.7,146.5,239.6,146.5,239.6z"/>
		<path class="st1" d="M76.9,259.8c-0.1,0.6-0.2,1.2-0.2,1.7c0,0.2,0,0.3,0,0.5s0,0.4,0,0.6c0,0.3,0,0.5,0,0.8c0,0.2,0,0.4,0,0.7
			c0,0.2,0,0.5,0.1,0.7c0,0.1,0,0.1,0,0.2l0,0c0.7,0.6,1.5,1.3,2.5,1.9c2.9,2.1,6.4,4.2,10.5,6.1l0.1-0.3l1-3.5
			C82.6,265.4,78.7,261.9,76.9,259.8z"/>
		<path class="st1" d="M97.3,275.4l-0.3,0.9c2.2,0.9,4.6,1.7,7.1,2.5c0.5,0.2,0.9,0.3,1.4,0.5l0.4-1.3l0.5-1.7l0,0l0.2-0.7
			c-3.1-1-5.9-2-8.5-3L97.3,275.4z"/>
		<path class="st1" d="M109.5,288.6C109.5,288.5,109.5,288.5,109.5,288.6c-0.2-0.1-0.3-0.1-0.5-0.1L109.5,288.6z"/>
		<path class="st1" d="M113.5,277.7c-0.6-0.2-1.1-0.3-1.7-0.5l-0.1,0.3l0,0l-1,3.4c0.3,0.1,0.5,0.1,0.8,0.2s0.6,0.2,1,0.3
			c4.8,1.4,9.3,2.4,13.3,3.3c1,0.2,1.9,0.4,2.8,0.5l0,0c9.3,1.7,16.5,2.2,21.9,2.1l0,0l0,0c0.3-0.3,0.6-0.6,0.8-0.9l0,0
			c0,0,0,0,0-0.1c0.1-0.1,0.1-0.1,0.2-0.2c0.2-0.2,0.4-0.4,0.5-0.7l0.1-0.1l0.1-0.1l0,0c0.2-0.2,0.3-0.5,0.5-0.7
			c0.1-0.1,0.1-0.2,0.2-0.3c0.2-0.3,0.3-0.6,0.5-0.8l0,0C145.8,283.8,132.9,283.2,113.5,277.7z"/>
	</g>
</g>
<g>
	<path class="st0" d="M64.6,87.1c0.6-0.4,1.3-0.8,2-1.2C65.9,86.3,65.3,86.7,64.6,87.1z"/>
	<path class="st0" d="M37.5,149.1L37.5,149.1c3.1,15.9,12.7,30.1,26.7,38.9l0,0C50.2,179.2,40.6,165,37.5,149.1z"/>
	<path class="st0" d="M62,88.8c0.7-0.5,1.5-1,2.3-1.5C63.5,87.8,62.8,88.3,62,88.8z"/>
	<path class="st0" d="M74.6,82.2c0.8-0.3,1.7-0.6,2.6-0.9C76.3,81.5,75.4,81.8,74.6,82.2z"/>
	<path class="st0" d="M77.7,81.1c0.7-0.2,1.4-0.4,2-0.6C79,80.7,78.3,80.9,77.7,81.1z"/>
	<path class="st0" d="M127.5,31L127.5,31L127.5,31L127.5,31z"/>
	<path class="st0" d="M55.1,94.4c-0.1,0.1-0.2,0.1-0.2,0.2l0,0C55,94.5,55.1,94.4,55.1,94.4z"/>
	<path class="st0" d="M83.7,79.5c-0.2,0-0.4,0.1-0.5,0.1C83.4,79.6,83.5,79.5,83.7,79.5L83.7,79.5z"/>
	<path class="st0" d="M55.7,93.8c0.5-0.4,1-0.9,1.5-1.3C56.6,93,56.2,93.4,55.7,93.8z"/>
	<path class="st0" d="M59.9,90.3c0.6-0.5,1.2-0.9,1.8-1.3C61.1,89.4,60.5,89.9,59.9,90.3z"/>
	<path class="st0" d="M37.5,126.3L37.5,126.3c-1,5-1.3,9.9-1,14.8l0,0C36.2,136.2,36.5,131.3,37.5,126.3z"/>
	<path class="st0" d="M57.8,92c0.5-0.4,1-0.8,1.5-1.2C58.8,91.2,58.3,91.6,57.8,92z"/>
	<path class="st0" d="M155.1,134.5L155.1,134.5c0.2,3.4,0.1,6.8-0.3,10.2C155.2,141.2,155.3,137.8,155.1,134.5z"/>
	<path class="st0" d="M80.5,80.3c0.6-0.2,1.2-0.3,1.8-0.5C81.7,80,81.1,80.1,80.5,80.3z"/>
	<path class="st0" d="M122.8,190.6L122.8,190.6c4.6-2.4,9-5.3,12.8-8.8l0,0C131.8,185.2,127.4,188.2,122.8,190.6z"/>
	<path class="st0" d="M74.4,82.3c-0.1,0-0.2,0.1-0.2,0.1l0,0C74.2,82.3,74.3,82.3,74.4,82.3z"/>
	<path class="st0" d="M141.5,175.6c5.1-6.2,9.1-13.5,11.5-21.8C150.6,162.1,146.6,169.4,141.5,175.6L141.5,175.6z"/>
	<path class="st0" d="M79.6,194.8c-2.8-0.8-5.4-1.8-8-2.9l0,0C74.2,193.1,76.9,194.1,79.6,194.8c2.3,0.7,4.7,1.2,7,1.5l0,0
		C84.3,196,81.9,195.5,79.6,194.8z"/>
	<path class="st0" d="M154.2,126.6L154.2,126.6c-0.9-4.8-2.4-9.5-4.5-13.9l0,0C151.7,117.1,153.2,121.8,154.2,126.6z"/>
	<path class="st9" d="M137.1,113.7c-8.5-2.4-14-10.5-13.3-19c-4.1-0.7-8.7-1.7-13.9-3.1l0,0c0.2,0,0.3,0.1,0.5,0.1
		c0.5,0.1,0.9,0.3,1.4,0.4l-2.2-0.6c-1,7.1,0.3,14.3,3.9,20.6c4.2,7.5,11,13,19.2,15.4l1.3-6.8c0.4-2.1,2.4-3.5,4.5-3.1
		s3.5,2.4,3,4.5l-1.3,6.7c0.6,0,1.3,0.1,1.9,0.1c4.2,0,8.3-0.8,12.1-2.3c-0.9-4.8-2.4-9.5-4.5-13.9
		C145.9,114.5,141.4,114.9,137.1,113.7z"/>
	<path class="st10" d="M109.5,91.4C109.5,91.5,109.5,91.5,109.5,91.4c0.1,0,0.2,0.1,0.3,0.1C109.7,91.5,109.6,91.5,109.5,91.4z"/>
	<path class="st9" d="M119,162.8l-1.4,5.4c-0.5,1.7-2,2.9-3.7,2.9c-0.3,0-0.7,0-1-0.1c-2.1-0.5-3.3-2.7-2.7-4.7l1.6-6
		c-2.4-0.5-4.8-0.8-7.2-0.8c-12.8,0-24.3,7.5-29.7,18.8l5.6,1.7c2,0.6,3.2,2.8,2.5,4.8c-0.5,1.7-2,2.7-3.7,2.7
		c-0.4,0-0.8-0.1-1.1-0.2l-5.7-1.8c-0.5,2.1-0.7,4.3-0.7,6.4c2.5,1.1,5.2,2.1,8,2.9c2.3,0.7,4.7,1.2,7,1.5c-0.6-2.9-0.6-5.9,0.3-9
		c2.8-9.8,12.9-15.4,22.7-12.7c7.5,2.1,12.5,8.6,13.3,15.8c4.6-2.4,9-5.3,12.8-8.8C132.9,173.6,127,166.7,119,162.8z"/>
	<path class="st9" d="M155.1,134.5c-4.1,1.4-8.5,2.2-13,2.2c-3.7,0-7.4-0.5-11.1-1.5c-20.2-5.7-32.5-25.8-28.9-46
		c-8.4-3-14.4-6.2-18.4-9.5c-0.2,0-0.4,0.1-0.6,0.1c-0.3,0.1-0.6,0.1-0.9,0.2c-0.6,0.1-1.2,0.3-1.8,0.5c-0.3,0.1-0.5,0.1-0.8,0.2
		c-0.7,0.2-1.4,0.4-2,0.6c-0.2,0.1-0.3,0.1-0.5,0.2c-0.9,0.3-1.7,0.6-2.6,0.9c-0.1,0-0.1,0.1-0.2,0.1s-0.2,0.1-0.2,0.1
		c8.7,10,12.3,24,8.4,37.7c-5.1,17.9-21.3,29.5-39,29.5c-2,0-4-0.2-6-0.5c3.1,15.9,12.7,30.1,26.7,38.9c0.2-2.2,0.7-4.4,1.3-6.6
		c5.1-17.9,21.3-29.5,39-29.5c3.7,0,7.4,0.5,11.1,1.5c12,3.4,21.1,11.8,25.9,22.3c5.1-6.2,9.1-13.5,11.5-21.8c0.6-2,1-4,1.4-5.9
		c0.2-1.1,0.3-2.2,0.5-3.3C155.2,141.2,155.3,137.8,155.1,134.5z"/>
	<path class="st9" d="M61.2,114l9.5,2.7c-2.6,9.3-9.5,16.2-18,19.2l-4.4-9.2c-3.1,0.9-6.5,0.9-9.9,0c-0.3-0.1-0.7-0.2-1-0.3
		c-1,5-1.3,9.9-1,14.8c1.1,0.3,2.3,0.4,3.5,0.6l0.2-7c0.1-2.1,1.9-3.8,4-3.7s3.8,1.8,3.7,4l-0.2,6.7c12.9-1.6,23.9-10.9,27.5-23.7
		c0.6-2.3,1-4.6,1.2-6.9l-7.1,0.2h-0.1c-2.1,0-3.8-1.6-3.8-3.7c-0.1-2.1,1.6-3.9,3.7-4l6.9-0.2c-0.6-3.6-1.9-7.1-3.7-10.4
		c-1.5-2.6-3.3-5-5.4-7.1c-0.1,0.1-0.2,0.1-0.3,0.1c-0.7,0.4-1.3,0.8-2,1.2c-0.1,0.1-0.2,0.1-0.3,0.2c-0.8,0.5-1.5,1-2.3,1.5
		c-0.1,0.1-0.2,0.1-0.3,0.2c-0.6,0.4-1.2,0.9-1.8,1.3c-0.2,0.2-0.4,0.3-0.6,0.5c-0.5,0.4-1,0.8-1.5,1.2c-0.2,0.2-0.4,0.4-0.6,0.5
		c-0.5,0.4-1,0.8-1.5,1.3c-0.2,0.2-0.4,0.3-0.6,0.5c-0.1,0.1-0.1,0.1-0.2,0.2C60.6,99,63.3,106.6,61.2,114z"/>
	<path class="st11" d="M154.2,126.6c-3.8,1.5-7.8,2.3-12.1,2.3c-0.6,0-1.3,0-1.9-0.1l1.3-6.7c0.4-2.1-1-4.1-3-4.5
		c-2.1-0.4-4.1,1-4.5,3.1l-1.3,6.8c-8.2-2.5-15-7.9-19.2-15.4c-3.5-6.3-4.9-13.5-3.9-20.6l-0.5-0.1c0.2,0.1,0.3,0.1,0.5,0.1l0,0
		c-2.7-0.8-5.1-1.6-7.4-2.4c-3.6,20.3,8.7,40.3,28.9,46c3.7,1,7.4,1.5,11.1,1.5c4.5,0,8.9-0.8,13-2.2
		C155,131.8,154.7,129.2,154.2,126.6z"/>
	<path class="st11" d="M117.4,153.9L117.4,153.9C117.4,153.9,117.3,153.9,117.4,153.9c-0.7-0.2-1.2-0.4-1.8-0.6
		c-3.7-1-7.4-1.5-11.1-1.5c-17.7,0-34,11.7-39,29.5c-0.6,2.2-1,4.4-1.3,6.6c2.4,1.5,4.8,2.8,7.5,4c0-2.1,0.3-4.2,0.7-6.4l5.7,1.8
		c0.4,0.1,0.8,0.2,1.1,0.2c1.6,0,3.2-1.1,3.7-2.7c0.6-2-0.5-4.2-2.5-4.8l-5.6-1.7c5.4-11.3,16.9-18.8,29.7-18.8
		c2.4,0,4.8,0.3,7.2,0.8l-1.6,6c-0.5,2.1,0.7,4.2,2.7,4.7c0.3,0.1,0.7,0.1,1,0.1c1.7,0,3.3-1.1,3.7-2.9l1.4-5.4
		c8,3.9,13.9,10.8,16.7,18.9c2.1-1.9,4-3.9,5.9-6.1C137,165.7,128.5,157.6,117.4,153.9z"/>
	<path class="st3" d="M91.9,78.4c0.7,0,1.3-0.1,2-0.1C93.2,78.3,92.6,78.3,91.9,78.4z"/>
	<path class="st3" d="M150.4,90.2L150.4,90.2L150.4,90.2L150.4,90.2z"/>
	<path class="st3" d="M95.8,78.2c-0.3,0-0.6,0-1,0c0.7,0,1.3,0,2,0C96.5,78.3,96.1,78.2,95.8,78.2z"/>
	<path class="st3" d="M127.5,31c0.4,0.1,0.9,0.2,1.3,0.4L127.5,31L127.5,31C127.5,31,127.5,31,127.5,31z"/>
	<path class="st3" d="M85.1,79.2c-0.4,0.1-0.9,0.2-1.3,0.3l0,0C84.2,79.4,84.6,79.3,85.1,79.2z"/>
	<path class="st3" d="M153.3,86.2c-0.1,0.3-0.3,0.6-0.5,0.8C153,86.8,153.1,86.5,153.3,86.2z"/>
	<path class="st3" d="M151.3,89.3c-0.3,0.3-0.5,0.6-0.8,0.9C150.7,89.9,151,89.6,151.3,89.3z"/>
	<path class="st3" d="M150.4,90.3c-0.3,0.3-0.7,0.7-1,1C149.7,90.9,150.1,90.6,150.4,90.3z"/>
	<path class="st3" d="M151.4,89.2c0.2-0.3,0.4-0.5,0.6-0.8c-0.2,0.2-0.3,0.5-0.5,0.7C151.4,89.1,151.4,89.1,151.4,89.2z"/>
	<path class="st3" d="M85.8,79.1c0.8-0.1,1.7-0.3,2.5-0.4C87.5,78.8,86.7,79,85.8,79.1z"/>
	<path class="st3" d="M151.3,89.3C151.3,89.2,151.3,89.2,151.3,89.3C151.3,89.2,151.3,89.2,151.3,89.3
		C151.3,89.2,151.3,89.2,151.3,89.3z"/>
	<path class="st3" d="M88.5,78.7c0.9-0.1,1.8-0.2,2.7-0.3C90.3,78.5,89.4,78.6,88.5,78.7z"/>
	<path class="st3" d="M152.2,88L152.2,88c-0.1,0.1-0.1,0.1-0.1,0.2c0.2-0.3,0.4-0.6,0.6-0.9C152.5,87.6,152.4,87.8,152.2,88
		L152.2,88L152.2,88z"/>
	<path class="st3" d="M127.5,31L127.5,31l-1.3-0.4C126.6,30.7,127,30.8,127.5,31z"/>
	<g class="st4">
		<path class="st10" d="M132.8,12.1c0.2-0.7-0.2-1.4-0.9-1.6c-0.7-0.2-1.4,0.2-1.6,0.9l-5.4,19v0.2c-0.2,0.7,0.2,1.4,0.9,1.6
			c0.1,0,0.2,0,0.4,0c0.6,0,1.1-0.4,1.2-0.9l0.1-0.3l0,0c-0.4-0.1-0.8-0.3-1.3-0.4l1.3,0.4L132.8,12.1z"/>
		<path class="st10" d="M141.5,3c-0.7-0.2-1.4,0.2-1.6,0.9l-8.1,28.7l0,0c-0.2,0.7,0.2,1.4,0.9,1.6c0.1,0,0.2,0,0.4,0
			c0.4,0,0.8-0.2,1.1-0.6c0.1-0.1,0.1-0.2,0.2-0.3l8.1-28.7C142.6,3.9,142.2,3.2,141.5,3z"/>
	</g>
	<path class="st3" d="M109.9,91.6C109.9,91.6,109.8,91.6,109.9,91.6c-0.1,0-0.2-0.1-0.4-0.1l0,0C109.6,91.5,109.7,91.5,109.9,91.6z"
		/>
	<path class="st3" d="M132.9,91.3L132.9,91.3c1.6,1.3,3.2,2.7,4.7,4.2l0,0C136.1,94,134.6,92.6,132.9,91.3z"/>
	<path class="st3" d="M108.7,79.7c-0.8-0.2-1.5-0.3-2.3-0.5l0,0C107.1,79.4,107.9,79.5,108.7,79.7z"/>
	<path class="st3" d="M111.7,80.4c-0.8-0.2-1.6-0.4-2.3-0.6C110.1,80,110.9,80.2,111.7,80.4L111.7,80.4z"/>
	<path class="st3" d="M109.5,91.5c-0.2-0.1-0.3-0.1-0.5-0.1C109.2,91.4,109.3,91.4,109.5,91.5L109.5,91.5z"/>
	<g class="st12">
		<path class="st10" d="M132.9,91.3c1.6,1.3,3.2,2.7,4.7,4.2c4.5-0.4,7.9-1.6,10.5-3.3C144,92.3,139,92.1,132.9,91.3z"/>
		<path class="st10" d="M148.2,92.1c0.4-0.3,0.8-0.6,1.1-0.9C149,91.5,148.6,91.8,148.2,92.1z"/>
		<path class="st10" d="M148.1,92.1C148.1,92.1,148.2,92.1,148.1,92.1C148.2,92.1,148.1,92.1,148.1,92.1L148.1,92.1z"/>
		<path class="st10" d="M76.7,64.5L76.7,64.5L76.7,64.5z"/>
		<path class="st10" d="M151.1,48.6v0.6c-0.5,0-12.8-0.6-27.4-4.7s-25.4-10-25.8-10.3l0.3-0.6c-6.4,3.4-12.1,8.9-16.6,17.1
			c-2.5,4.6-4.6,9.2-4.9,13.7l0,0c0-0.6,0.1-1.1,0.2-1.7c1.8,2,5.7,5.5,13.9,9.5l-1,3.5l-0.7,2.5c-5.4-2.7-9.2-5.4-11.8-7.7
			c-0.3-0.9-0.4-1.7-0.6-2.6l0,0c0-0.1,0-0.1,0-0.2c0-0.2,0-0.5-0.1-0.7c0-0.2,0-0.4,0-0.7c0-0.3,0-0.5,0-0.8c0-0.2,0-0.4,0-0.6
			s0-0.4,0-0.5c-0.4,5.2,1.3,10.2,7.1,15c0.4-0.1,0.9-0.2,1.3-0.3c-0.4,0.1-0.9,0.2-1.3,0.3c4,3.3,9.9,6.5,18.4,9.5
			c2.3,0.8,4.7,1.6,7.4,2.4c0.1,0,0.2,0.1,0.3,0.1c5.2,1.4,9.8,2.5,13.9,3.1c5.5,0.9,10.1,1.1,13.8,0.8c-1.5-1.5-3-2.9-4.7-4.2
			c-2.5-0.3-5.2-0.8-8.1-1.4c-4-0.8-8.3-1.8-13-3.1c-0.4-0.1-0.7-0.2-1.1-0.3c-0.2-0.1-0.4-0.1-0.6-0.2l0.7-2.5l1-3.4
			c-0.8-0.2-0.8-0.2,0,0l0.1-0.3c0.6,0.2,1.1,0.3,1.7,0.5c19.4,5.5,32.3,6.1,39.8,5.6c2-4,2.7-9,3-14.3
			C156.8,62.6,154.8,54.9,151.1,48.6z M106.4,79.2l-0.5,1.7l-1,3.7c-0.5-0.2-1-0.3-1.5-0.5c-2.5-0.9-4.8-1.7-6.9-2.6l0.7-2.4
			l0.3-0.9l0.8-2.8c2.5,1,5.3,2,8.5,3L106.4,79.2C107.1,79.4,107.1,79.4,106.4,79.2z M116.1,76.5c-0.4,1.4-1.9,2.3-3.4,1.9
			c-1.4-0.4-2.3-1.9-1.9-3.4c0.4-1.4,1.9-2.3,3.4-1.9C115.6,73.5,116.5,75.1,116.1,76.5z M126.6,63.5c-1.4,4.9-6.5,7.8-11.5,6.4
			c-4.9-1.4-7.8-6.5-6.4-11.5c1.4-4.9,6.5-7.8,11.5-6.4C125.1,53.4,128,58.6,126.6,63.5z M137.6,75.7c-0.7,2.3-3.1,3.7-5.4,3
			c-2.3-0.7-3.7-3.1-3-5.4s3.1-3.7,5.4-3S138.2,73.4,137.6,75.7z"/>
		<path class="st10" d="M150.9,48.4c-0.4-0.7-0.8-1.3-1.3-2C150.1,47,150.5,47.7,150.9,48.4z"/>
		<path class="st10" d="M150.9,48.4c0.1,0.1,0.1,0.2,0.2,0.3l0,0C151.1,48.5,151,48.4,150.9,48.4z"/>
	</g>
	<circle class="st13" cx="133.3" cy="74.5" r="4.4"/>
	<g class="st14">
		<path class="st10" d="M109.6,174.7c-9.8-2.8-19.9,2.9-22.7,12.7c-0.9,3-0.9,6.1-0.3,9l0,0c12.7,2,25.3-0.2,36.2-5.8
			C122.1,183.3,117,176.8,109.6,174.7z"/>
		<path class="st10" d="M137.6,95.5c-3.8,0.3-8.4,0.1-13.8-0.8c-0.6,8.5,4.8,16.6,13.3,19c4.4,1.2,8.8,0.8,12.6-1l0,0
			C146.7,106.3,142.6,100.5,137.6,95.5L137.6,95.5z"/>
		<path class="st10" d="M72.1,83.2c-0.2,0.1-0.5,0.2-0.7,0.3c-0.6,0.3-1.2,0.5-1.8,0.8c-0.2,0.1-0.5,0.2-0.7,0.4
			c-0.6,0.3-1.1,0.6-1.7,0.9c-0.1,0.1-0.3,0.1-0.4,0.2c2.1,2.1,3.9,4.5,5.4,7.1c1.8,3.3,3.1,6.8,3.7,10.4l-6.9,0.2
			c-2.1,0.1-3.8,1.8-3.7,4c0.1,2.1,1.8,3.7,3.8,3.7h0.1l7.1-0.2c-0.1,2.3-0.5,4.6-1.2,6.9c-3.6,12.8-14.6,22-27.5,23.7l0.2-6.7
			c0.1-2.1-1.6-3.9-3.7-4c-2.1-0.1-3.9,1.6-4,3.7l-0.2,7c-1.2-0.1-2.3-0.3-3.5-0.6c0.2,2.7,0.5,5.4,1,8c2,0.3,4,0.5,6,0.5
			c17.7,0,34-11.7,39-29.5c3.9-13.7,0.2-27.7-8.4-37.7C73.5,82.6,72.8,82.9,72.1,83.2z"/>
		<path class="st10" d="M38.5,126.6c3.4,0.9,6.8,0.9,9.9,0l4.4,9.2c8.4-3,15.3-9.9,18-19.2l-9.5-2.7c2.1-7.4-0.6-14.9-6.3-19.4l0,0
			c-0.5,0.5-1,1-1.5,1.5c-0.1,0.1-0.1,0.1-0.2,0.2c-0.6,0.7-1.3,1.3-1.9,2c-0.1,0.1-0.2,0.3-0.4,0.4c-0.5,0.5-0.9,1.1-1.4,1.6
			c-0.2,0.2-0.3,0.4-0.5,0.7c-0.4,0.5-0.8,1-1.1,1.5c-0.2,0.2-0.3,0.5-0.5,0.7c-0.4,0.5-0.7,1.1-1.1,1.6c-0.1,0.2-0.3,0.4-0.4,0.6
			c-0.5,0.7-0.9,1.5-1.4,2.2c0,0,0,0,0,0.1c-0.5,0.8-0.9,1.6-1.3,2.4c-0.1,0.2-0.2,0.4-0.3,0.6c-0.3,0.6-0.6,1.2-0.9,1.9
			c-0.1,0.3-0.3,0.6-0.4,0.8c-0.3,0.6-0.5,1.2-0.7,1.8c-0.1,0.3-0.2,0.6-0.3,0.9c-0.2,0.6-0.5,1.3-0.7,1.9c-0.1,0.2-0.2,0.5-0.3,0.7
			c-0.3,0.9-0.6,1.8-0.8,2.7c-0.5,1.6-0.8,3.2-1.1,4.8l0,0C37.8,126.4,38.2,126.5,38.5,126.6z"/>
		<circle class="st10" cx="113.4" cy="75.8" r="2.7"/>
		<path class="st10" d="M144.1,40.2c-0.7-0.6-1.4-1.3-2.2-1.9c-4.4-0.7-9.8-1.7-15.5-3.3s-10.9-3.6-15-5.3c-1,0.1-1.9,0.2-2.9,0.4
			c4.3,1.9,10.4,4.4,17.4,6.4C133,38.4,139.4,39.5,144.1,40.2z"/>
		<path class="st10" d="M146.8,42.8c-0.1-0.1-0.2-0.2-0.4-0.4C146.6,42.6,146.7,42.7,146.8,42.8L146.8,42.8z"/>
		<path class="st10" d="M105.7,30.7c-0.3,0.1-0.5,0.1-0.8,0.2l0,0C105.1,30.9,105.4,30.8,105.7,30.7z"/>
		<path class="st10" d="M76.7,64.5c0,0.2,0,0.4,0,0.5C76.6,64.8,76.7,64.7,76.7,64.5L76.7,64.5z"/>
		<path class="st10" d="M89.1,78.2l0.7-2.5L89.7,76c-4.1-1.9-7.6-4-10.5-6.1c-0.9-0.7-1.7-1.3-2.5-1.9c0.1,0.9,0.3,1.7,0.6,2.6
			C79.9,72.9,83.7,75.5,89.1,78.2z"/>
		<path class="st10" d="M104.8,84.6l1-3.7l-0.4,1.3c-0.5-0.2-0.9-0.3-1.4-0.5c-2.5-0.8-4.8-1.7-7.1-2.5l-0.7,2.4
			c2.1,0.9,4.4,1.7,6.9,2.6C103.8,84.3,104.3,84.5,104.8,84.6z"/>
		<path class="st10" d="M151.3,89.2C151.4,89.2,151.4,89.2,151.3,89.2c0.1-0.1,0.1-0.1,0.1-0.2C151.4,89.1,151.4,89.1,151.3,89.2
			L151.3,89.2z"/>
		<path class="st10" d="M152.2,88L152.2,88L152.2,88L152.2,88z"/>
		<path class="st10" d="M128.6,88.1L128.6,88.1c-0.9-0.2-1.9-0.4-2.8-0.6c-4.1-0.8-8.5-1.9-13.3-3.3c-0.3-0.1-0.6-0.2-1-0.3
			c-0.3-0.1-0.5-0.1-0.8-0.2l-0.7,2.5c0.2,0.1,0.4,0.1,0.6,0.2c0.4,0.1,0.7,0.2,1.1,0.3c4.7,1.3,9,2.4,13,3.1c2.9,0.6,5.6,1,8.1,1.4
			l0,0c6.1,0.8,11.1,1,15.2,0.9c0.4-0.3,0.8-0.6,1.2-0.9l0,0c0.4-0.3,0.7-0.6,1-1l0,0l0,0C145.1,90.3,137.9,89.8,128.6,88.1z"/>
	</g>
	<path class="st10" d="M120.2,52c-4.9-1.4-10.1,1.5-11.5,6.4s1.5,10.1,6.4,11.5s10.1-1.5,11.5-6.4S125.1,53.4,120.2,52z M125.2,60.9
		L125.2,60.9L125.2,60.9c-0.7,0-3.8-3.5-5.2-4.5c-1.4-1-0.2-1.8,0.5-1.9l0,0l0,0C123.6,55.1,125.9,60.9,125.2,60.9z"/>
	<g class="st15">
		<path class="st10" d="M141.9,38.3L141.9,38.3c0.1,0.1,0.1,0.1,0.2,0.2C142.1,38.4,142,38.4,141.9,38.3z"/>
		<path class="st10" d="M111.4,29.7L111.4,29.7L111.4,29.7L111.4,29.7z"/>
		<path class="st10" d="M141.9,38.3c-2.4-1.8-5-3.4-7.7-4.7c-0.2,0.4-0.6,0.6-1.1,0.6c-0.1,0-0.2,0-0.4,0c-0.7-0.2-1.1-0.9-0.9-1.6
			c-1.4-0.6-2.8-1.1-4.3-1.6h-0.1l-0.1,0.3c-0.2,0.6-0.7,0.9-1.2,0.9c-0.1,0-0.2,0-0.4,0c-0.7-0.2-1.1-0.9-0.9-1.6v-0.2
			c-4.5-0.9-9-1.2-13.5-0.7c4.1,1.7,9.2,3.7,15,5.3S137.5,37.6,141.9,38.3z"/>
		<path class="st10" d="M104.9,31L104.9,31c0.3-0.1,0.5-0.1,0.8-0.2C105.4,30.8,105.1,30.9,104.9,31z"/>
		<path class="st10" d="M146.8,42.8c-0.1-0.1-0.1-0.2-0.2-0.2C146.7,42.7,146.8,42.8,146.8,42.8L146.8,42.8z"/>
		<path class="st10" d="M105.7,30.7C105.7,30.7,105.6,30.8,105.7,30.7C105.6,30.8,105.6,30.8,105.7,30.7
			C105.7,30.8,105.7,30.7,105.7,30.7z"/>
		<path class="st10" d="M151.1,49.3v-0.7c-0.5-0.8-0.9-1.5-1.5-2.3l-0.1-0.1c-0.8-1.2-1.8-2.3-2.7-3.4l0,0c-0.1-0.1-0.2-0.2-0.3-0.3
			c-0.7-0.8-1.4-1.5-2.2-2.2l0,0c-0.1-0.1-0.1-0.1-0.2-0.2l0,0c-0.6-0.6-1.3-1.1-2-1.7c0.7,0.5,1.3,1.1,2,1.7
			c-4.7-0.6-11.1-1.7-18.1-3.7c-7-2-13.1-4.4-17.4-6.4l0,0l0,0l0,0h-0.1l0,0c-0.9,0.2-1.9,0.4-2.8,0.6c-0.3,0.1-0.5,0.2-0.8,0.2l0,0
			c-0.5,0.2-1.1,0.3-1.6,0.5l0,0c-0.8,0.3-1.6,0.6-2.4,0.9c-0.1,0-0.2,0.1-0.2,0.1c-0.8,0.3-1.6,0.7-2.4,1.1l0,0L98,34
			c0.5,0.2,11.2,6.2,25.8,10.3C138.3,48.7,150.6,49.3,151.1,49.3z"/>
		<path class="st10" d="M146.5,42.5L146.5,42.5c0,0.1,0.1,0.1,0.1,0.1L146.5,42.5z"/>
		<path class="st10" d="M76.9,62.8c-0.1,0.6-0.2,1.2-0.2,1.7c0,0.2,0,0.3,0,0.5s0,0.4,0,0.6c0,0.3,0,0.5,0,0.8c0,0.2,0,0.4,0,0.7
			c0,0.2,0,0.5,0.1,0.7c0,0.1,0,0.1,0,0.2l0,0c0.7,0.6,1.5,1.3,2.5,1.9c2.9,2.1,6.4,4.2,10.5,6.1l0.1-0.3l1-3.5
			C82.6,68.3,78.7,64.8,76.9,62.8z"/>
		<path class="st10" d="M97.3,78.3L97,79.2c2.2,0.9,4.6,1.7,7.1,2.5c0.5,0.2,0.9,0.3,1.4,0.5l0.4-1.3l0.5-1.7l0,0l0.2-0.7
			c-3.1-1-5.9-2-8.5-3L97.3,78.3z"/>
		<path class="st10" d="M109.5,91.5L109.5,91.5c-0.2-0.1-0.3-0.1-0.5-0.1L109.5,91.5z"/>
		<path class="st10" d="M113.5,80.6c-0.6-0.2-1.1-0.3-1.7-0.5l-0.1,0.3l0,0l-1,3.4c0.3,0.1,0.5,0.1,0.8,0.2s0.6,0.2,1,0.3
			c4.8,1.4,9.3,2.4,13.3,3.3c1,0.2,1.9,0.4,2.8,0.5l0,0c9.3,1.7,16.5,2.2,21.9,2.1l0,0l0,0c0.3-0.3,0.6-0.6,0.8-0.9l0,0
			c0,0,0,0,0-0.1c0.1-0.1,0.1-0.1,0.2-0.2c0.2-0.2,0.4-0.4,0.5-0.7l0.1-0.1l0.1-0.1l0,0c0.2-0.2,0.3-0.5,0.5-0.7
			c0.1-0.1,0.1-0.2,0.2-0.3c0.2-0.3,0.3-0.6,0.5-0.8l0,0C145.8,86.7,132.9,86.1,113.5,80.6z"/>
	</g>
</g>
</svg>
