<?xml version="1.0" encoding="utf-8"?>
<!-- Generator: Adobe Illustrator 15.0.0, SVG Export Plug-In . SVG Version: 6.00 Build 0)  -->
<!DOCTYPE svg PUBLIC "-//W3C//DTD SVG 1.1//EN" "http://www.w3.org/Graphics/SVG/1.1/DTD/svg11.dtd">
<svg version="1.1" id="Layer_1" xmlns="http://www.w3.org/2000/svg" xmlns:xlink="http://www.w3.org/1999/xlink" x="0px" y="0px"
	 width="200px" height="200px" viewBox="903.5 -1.606 200 200" enable-background="new 903.5 -1.606 200 200" xml:space="preserve">
<path opacity="0.62" fill="#FAFBFB" d="M1004.418,26.787c17.404,0,31.209,13.804,31.209,31.208h10.802
	c0-23.406-18.604-42.011-42.011-42.011s-42.011,18.605-42.011,42.011h10.803C973.21,40.591,987.014,26.787,1004.418,26.787z"/>
<path fill="#FAFBFB" d="M976.725,129.343c0,2.283,3.888,5.074,6.256,6.848c2.706,2.2,6.765,4.229,10.654,5.074l0.761-16.403
	C986.024,125.538,976.725,126.383,976.725,129.343z"/>
<path fill="#FAFBFB" d="M1066.834,69.398c0-6.602-5.4-11.403-12.003-11.403h-8.402h-10.802H973.21h-10.803h-9.002
	c-6.602,0-12.003,5.401-12.003,11.403l-3.002,97.226c0,3.001,1.201,6.001,3.002,7.802c2.4,2.4,5.401,3.601,8.401,3.601
	c0,0,109.229,0,109.229,0.601c3.001,0,6.002-1.201,8.402-3.602c1.8-2.4,3.001-5.4,3.001-8.401L1066.834,69.398z M1014.183,150.988
	c-3.891,0-8.542-0.676-12.347-1.268c-0.254,0.931-0.423,1.605-1.014,3.551c-1.016,0.169-1.86,0.338-2.96,0.338l-1.945-0.169
	c-1.268-1.521-1.69-3.974-2.198-6.596c-7.694-4.481-12.684-8.286-14.965-10.906c-1.946-2.029-4.145-4.735-4.145-7.357
	c0-1.353,0.846-2.535,2.791-3.889c3.974-2.959,9.046-4.566,17.334-6.004l0.169-3.467c0.085-0.845,0.93-9.893,2.874-11.583
	c3.128,2.537,3.468,5.157,3.722,9.047c0.083,1.691,0.168,3.467,0.422,5.326h1.185c5.917,0,24.013,1.522,24.013,10.062
	c0,2.031-2.96,5.836-5.834,5.836c-1.016,0-2.875-0.425-3.722-1.099c1.27-1.438,3.13-2.706,3.637-3.806
	c-1.69-2.03-10.823-4.397-17.503-4.397c-1.099,0-1.521,0-2.197,0.085l0.083,18.517c2.706,1.691,6.005,1.86,8.117,1.86
	c9.302,0,28.581-1.606,28.581-16.657c0-14.881-19.025-26.381-33.23-31.792c-9.979-3.805-19.448-5.75-30.525-5.75
	c-2.281,0-4.649,0.169-6.933,0.761c-1.438,0.339-1.944,0.676-1.944,1.016c0,0.591,2.874,0.929,3.212,1.099
	c0.254,0.169,0.424,0.423,0.424,0.677c0,0.168-0.085,0.422-0.339,0.676c-0.338,0-1.099,0.084-2.029,0.084
	c-1.86,0-4.059-0.254-4.059-1.353c0-7.779,13.697-8.117,19.531-8.117c7.611,0,17.336,2.368,25.621,5.327
	c12.599,4.565,38.135,19.786,38.135,37.205C1046.144,143.633,1029.57,150.988,1014.183,150.988z"/>
<path opacity="0.2" fill="#FAFBFB" d="M1008.009,91.04c-8.285-2.959-18.01-5.327-25.621-5.327c-5.834,0-19.531,0.338-19.531,8.117
	c0,1.099,2.198,1.353,4.059,1.353c0.931,0,1.691-0.084,2.029-0.084c0.254-0.254,0.339-0.508,0.339-0.676
	c0-0.254-0.17-0.508-0.424-0.677c-0.338-0.169-3.212-0.507-3.212-1.099c0-0.339,0.506-0.677,1.944-1.016
	c2.283-0.591,4.651-0.761,6.933-0.761c11.077,0,20.547,1.945,30.525,5.75c14.205,5.412,33.23,16.912,33.23,31.792
	c0,15.051-19.279,16.657-28.581,16.657c-2.112,0-5.411-0.169-8.117-1.86l-0.083-18.517c0.676-0.085,1.099-0.085,2.197-0.085
	c6.68,0,15.812,2.367,17.503,4.397c-0.507,1.1-2.367,2.367-3.637,3.806c0.847,0.674,2.706,1.099,3.722,1.099
	c2.874,0,5.834-3.805,5.834-5.836c0-8.539-18.096-10.062-24.013-10.062h-1.185c-0.254-1.859-0.339-3.635-0.422-5.326
	c-0.254-3.89-0.594-6.51-3.722-9.047c-1.944,1.69-2.789,10.738-2.874,11.583l-0.169,3.467c-8.288,1.438-13.36,3.045-17.334,6.004
	c-1.945,1.354-2.791,2.536-2.791,3.889c0,2.622,2.198,5.328,4.145,7.357c2.281,2.62,7.271,6.425,14.965,10.906
	c0.508,2.622,0.931,5.074,2.198,6.596l1.945,0.169c1.1,0,1.944-0.169,2.96-0.338c0.591-1.945,0.76-2.62,1.014-3.551
	c3.805,0.592,8.456,1.268,12.347,1.268c15.388,0,31.961-7.355,31.961-22.744C1046.144,110.825,1020.607,95.605,1008.009,91.04z
	 M993.635,141.265c-3.89-0.845-7.948-2.874-10.654-5.074c-2.368-1.773-6.256-4.564-6.256-6.848c0-2.96,9.3-3.805,17.671-4.481
	L993.635,141.265z"/>
</svg>
