<?xml version="1.0" encoding="utf-8"?>
<!-- Generator: Adobe Illustrator 15.0.0, SVG Export Plug-In . SVG Version: 6.00 Build 0)  -->
<!DOCTYPE svg PUBLIC "-//W3C//DTD SVG 1.1//EN" "http://www.w3.org/Graphics/SVG/1.1/DTD/svg11.dtd">
<svg version="1.1" id="Layer_1" xmlns="http://www.w3.org/2000/svg" xmlns:xlink="http://www.w3.org/1999/xlink" x="0px" y="0px"
	 width="200px" height="200px" viewBox="903.5 -1.606 200 200" enable-background="new 903.5 -1.606 200 200" xml:space="preserve">
<g id="BUUh2i_1_">
	<g>
		<path fill-rule="evenodd" clip-rule="evenodd" fill="#FAFBFB" d="M989.411,28.394c7.53,0,15.06,0,22.589,0
			c0,11.63,0,23.258,0,34.889c11.181,0.521,23.334,0.075,34.887,0.223c0,8.723,0,17.445,0,26.167c-11.553,0-23.109,0-34.664,0
			c-0.406,7.45-0.223,15.482-0.223,23.705c0,7.912-1.35,17.062,0.67,23.259c1.671,5.121,8.121,8.39,13.643,8.946
			c8.446,0.852,15.759-2.239,20.574-5.145c0,6.934,0,13.866,0,20.8c-7.896,3.509-16.568,6.243-27.059,7.156
			c-2.834,0-5.666,0-8.499,0c-7.334-0.917-13.62-2.776-19.01-6.04c-4.874-2.946-10.01-7.363-12.077-12.969
			c-3.252-8.823-1.789-22.39-1.789-34.889c0-9.627,0-19.359,0-28.627c-5.748-0.663-13.04,0.219-18.785-0.446
			c0-6.486,0-12.972,0-19.457C977.052,60.911,987.27,48.688,989.411,28.394z"/>
	</g>
</g>
</svg>
