<?xml version="1.0" encoding="utf-8"?>
<!-- Generator: Adobe Illustrator 22.1.0, SVG Export Plug-In . SVG Version: 6.00 Build 0)  -->
<svg version="1.1" id="Layer_1" xmlns="http://www.w3.org/2000/svg" xmlns:xlink="http://www.w3.org/1999/xlink" x="0px" y="0px"
	 viewBox="0 0 200 400" style="enable-background:new 0 0 200 400;" xml:space="preserve">
<style type="text/css">
	.st0{fill:#FAFBFB;}
	.st1{opacity:0.7;}
	.st2{fill:#666666;}
</style>
<g id="BUUh2i_1_">
	<g>
		<path class="st0" d="M85.9,230c7.5,0,15.1,0,22.6,0c0,11.6,0,23.3,0,34.9c11.2,0.5,23.3,0.1,34.9,0.2c0,8.7,0,17.4,0,26.2
			c-11.6,0-23.1,0-34.7,0c-0.4,7.5-0.2,15.5-0.2,23.7c0,7.9-1.3,17.1,0.7,23.3c1.7,5.1,8.1,8.4,13.6,8.9c8.4,0.9,15.8-2.2,20.6-5.1
			c0,6.9,0,13.9,0,20.8c-7.9,3.5-16.6,6.2-27.1,7.2c-2.8,0-5.7,0-8.5,0c-7.3-0.9-13.6-2.8-19-6c-4.9-2.9-10-7.4-12.1-13
			c-3.3-8.8-1.8-22.4-1.8-34.9c0-9.6,0-19.4,0-28.6c-5.7-0.7-13,0.2-18.8-0.4c0-6.5,0-13,0-19.5C73.6,262.5,83.8,250.3,85.9,230z"/>
	</g>
</g>
<g id="BUUh2i_2_" class="st1">
	<g>
		<path class="st2" d="M85.9,30c7.5,0,15.1,0,22.6,0c0,11.6,0,23.3,0,34.9c11.2,0.5,23.3,0.1,34.9,0.2c0,8.7,0,17.4,0,26.2
			c-11.6,0-23.1,0-34.7,0c-0.4,7.4-0.2,15.5-0.2,23.7c0,7.9-1.3,17.1,0.7,23.3c1.7,5.1,8.1,8.4,13.6,8.9c8.4,0.9,15.8-2.2,20.6-5.1
			c0,6.9,0,13.9,0,20.8c-7.9,3.5-16.6,6.2-27.1,7.2c-2.8,0-5.7,0-8.5,0c-7.3-0.9-13.6-2.8-19-6c-4.9-2.9-10-7.4-12.1-13
			c-3.3-8.8-1.8-22.4-1.8-34.9c0-9.6,0-19.4,0-28.6c-5.7-0.7-13,0.2-18.8-0.4c0-6.5,0-13,0-19.5C73.6,62.5,83.8,50.3,85.9,30z"/>
	</g>
</g>
</svg>
