<?xml version="1.0" encoding="utf-8"?>
<!-- Generator: Adobe Illustrator 15.0.0, SVG Export Plug-In . SVG Version: 6.00 Build 0)  -->
<!DOCTYPE svg PUBLIC "-//W3C//DTD SVG 1.1//EN" "http://www.w3.org/Graphics/SVG/1.1/DTD/svg11.dtd">
<svg version="1.1" id="Layer_1" xmlns="http://www.w3.org/2000/svg" xmlns:xlink="http://www.w3.org/1999/xlink" x="0px" y="0px"
	 width="200px" height="200px" viewBox="677.5 -1.606 200 200" enable-background="new 677.5 -1.606 200 200" xml:space="preserve">
<g>
	
		<rect x="836.028" y="129.306" transform="matrix(0.8526 0.5226 -0.5226 0.8526 192.7969 -420.0475)" fill="none" width="9.796" height="4.798"/>
</g>
<g>
	
		<rect x="832.661" y="133.945" transform="matrix(0.8526 0.5225 -0.5225 0.8526 194.6674 -417.5375)" fill="none" width="9.797" height="4.799"/>
</g>
<g>
	<defs>
		<rect id="SVGID_1_" x="680.166" y="42.954" width="194.667" height="110.88"/>
	</defs>
	<clipPath id="SVGID_2_">
		<use xlink:href="#SVGID_1_"  overflow="visible"/>
	</clipPath>
	<path opacity="0.35" clip-path="url(#SVGID_2_)" fill="#FAFBFB" d="M775.015,127.211l-15.358,0.458l-6.459,21.231l-18.405-12.778
		l-12.42,8.63l-5.945-15.796l-22.68,0.676l6.053-17.808l-14.141-9.82l16.128-11.947l-6.604-17.548h17.984l6.291-18.513
		l16.513,10.732l14.218-10.537l6.228,18.317h6.691c-0.007,0.024-0.02,0.047-0.029,0.069h13.345l-4.688,15.397l0.07,0.044
		l-0.011,0.027l16.652,10.82l-18.661,12.957L775.015,127.211z"/>
	<path clip-path="url(#SVGID_2_)" fill="#FAFBFB" d="M816.93,76.686c-0.162-0.61-0.326-1.228-0.502-1.857
		c-0.182-0.628-0.375-1.292-0.581-1.991c-0.209,0.699-0.402,1.363-0.578,1.991c-0.182,0.629-0.346,1.247-0.503,1.857
		c-0.153,0.608-0.303,1.222-0.438,1.841c-0.137,0.618-0.265,1.256-0.393,1.915h3.792c-0.129-0.659-0.251-1.297-0.379-1.915
		C817.227,77.908,817.084,77.294,816.93,76.686"/>
	<path clip-path="url(#SVGID_2_)" fill="#FAFBFB" d="M847.435,87.477c-0.534,0.44-1.134,0.659-1.801,0.659
		c-0.668,0-1.271-0.219-1.801-0.659c-0.534-0.439-0.798-1.047-0.798-1.824c0-0.759,0.264-1.356,0.798-1.797
		c0.53-0.439,1.133-0.658,1.801-0.658c0.667,0,1.267,0.219,1.801,0.658c0.533,0.441,0.796,1.039,0.796,1.797
		C848.23,86.43,847.968,87.038,847.435,87.477 M843.408,69.247h4.45v4.91c0,0.716-0.016,1.361-0.049,1.928
		c-0.028,0.571-0.073,1.12-0.125,1.649c-0.051,0.527-0.116,1.053-0.188,1.57c-0.073,0.519-0.153,1.099-0.235,1.736h-3.195
		c-0.104-0.638-0.194-1.222-0.266-1.752c-0.074-0.525-0.141-1.051-0.205-1.57c-0.062-0.519-0.11-1.062-0.139-1.634
		c-0.033-0.567-0.049-1.212-0.049-1.928V69.247z M837.802,72.209c-0.395,0.958-0.813,1.908-1.251,2.844
		c-0.439,0.939-0.908,1.872-1.411,2.8c-0.5,0.927-1.043,1.881-1.628,2.859v7.064h-3.885v-7.034c-1.146-1.937-2.157-3.828-3.02-5.673
		c-0.868-1.847-1.699-3.788-2.493-5.822h4.136c0.48,1.437,1.011,2.898,1.599,4.385c0.584,1.486,1.19,2.85,1.814,4.087
		c0.231-0.459,0.496-1.037,0.8-1.737c0.301-0.699,0.605-1.437,0.906-2.214c0.304-0.78,0.599-1.568,0.88-2.366
		c0.279-0.798,0.538-1.517,0.769-2.155h3.977C838.598,70.263,838.198,71.251,837.802,72.209 M819.292,87.776l-0.908-4.279h-5.17
		l-0.875,4.279h-4.01c0.918-3.653,1.849-6.979,2.788-9.985c0.938-3.002,1.85-5.851,2.725-8.544h4.194
		c0.921,2.714,1.836,5.594,2.745,8.637c0.906,3.043,1.788,6.341,2.646,9.893H819.292z M804.414,87.776h-3.101
		c-0.877-2.056-1.833-4.107-2.864-6.15c-1.036-2.047-2.146-4.096-3.336-6.152v12.302h-3.479v-18.53h3.101
		c0.582,0.878,1.168,1.832,1.755,2.859c0.587,1.028,1.153,2.051,1.706,3.067c0.554,1.019,1.065,2.006,1.531,2.964
		c0.472,0.959,0.878,1.798,1.211,2.515V69.247h3.476V87.776z M775.015,126.961l-15.358,0.458l-6.459,21.231l-18.405-12.778
		l-12.42,8.63l-5.945-15.796l-22.68,0.676l6.053-17.808l-14.141-9.82l16.128-11.947l-6.604-17.548h17.984l6.291-18.513
		l16.513,10.732l14.218-10.537l6.228,18.317h6.691c-0.007,0.024-0.02,0.047-0.029,0.069h13.345l-4.688,15.397l0.07,0.044
		l-0.011,0.027l16.652,10.821l-18.661,12.957L775.015,126.961z M818.218,42.954c-25.153,0-46.431,10.981-53.799,26.154h-5.606
		l-6.936-20.402l-16.03,11.88l-18.163-11.807l-6.909,20.329h-20.279l7.38,19.61l-17.709,13.121l15.758,10.94l-6.762,19.892
		l24.972-0.742l6.621,17.59l14.037-9.75l20.261,14.066l7.101-23.338l17.355-0.518l-5.847-17.2l6.149-4.272
		c10.096,6.269,23.548,10.146,38.406,10.146c7.614,0,14.867-1.02,21.501-2.843c2.543,2.85,4.377,6.822,2.684,11.899
		c6.651-5.103,8.087-12.453,8.386-15.979c14.529-6.853,24.045-18.136,24.045-30.928C874.833,59.899,849.486,42.954,818.218,42.954"
		/>
	<path clip-path="url(#SVGID_2_)" fill="#FAFBFB" d="M718.817,93.023c-0.284,0.797-0.577,1.586-0.88,2.364s-0.605,1.516-0.908,2.215
		c-0.302,0.701-0.57,1.279-0.798,1.736c-0.628-1.236-1.233-2.599-1.82-4.086c-0.582-1.485-1.112-2.948-1.596-4.385h-4.135
		c0.796,2.036,1.623,3.976,2.492,5.822c0.864,1.846,1.873,3.737,3.02,5.673v7.035h3.886v-7.066c0.584-0.976,1.128-1.931,1.627-2.858
		c0.501-0.928,0.972-1.859,1.411-2.797c0.438-0.938,0.855-1.888,1.254-2.844c0.394-0.959,0.793-1.948,1.192-2.964h-3.979
		C719.352,91.506,719.097,92.225,718.817,93.023"/>
	<path clip-path="url(#SVGID_2_)" fill="#FAFBFB" d="M729.825,102.064c0.125-0.658,0.253-1.298,0.39-1.917
		c0.134-0.618,0.282-1.232,0.438-1.839c0.162-0.609,0.325-1.229,0.503-1.858c0.181-0.628,0.372-1.29,0.579-1.992
		c0.209,0.702,0.402,1.364,0.579,1.992c0.18,0.63,0.345,1.249,0.504,1.858c0.153,0.607,0.294,1.221,0.421,1.839
		c0.125,0.619,0.25,1.259,0.375,1.917H729.825z M733.926,90.868h-4.194c-0.875,2.694-1.787,5.541-2.725,8.546
		c-0.939,3.005-1.87,6.331-2.788,9.985h4.007l0.878-4.28h5.169l0.906,4.28h4.135c-0.855-3.554-1.738-6.851-2.647-9.896
		C735.759,96.46,734.845,93.583,733.926,90.868"/>
	<path clip-path="url(#SVGID_2_)" fill="#FAFBFB" d="M750.139,93.023c-0.283,0.797-0.576,1.586-0.88,2.364
		c-0.301,0.778-0.605,1.516-0.906,2.215c-0.305,0.701-0.571,1.279-0.799,1.736c-0.629-1.236-1.234-2.599-1.818-4.086
		c-0.586-1.485-1.115-2.948-1.599-4.385h-4.135c0.796,2.036,1.624,3.976,2.492,5.822c0.867,1.846,1.874,3.737,3.02,5.673v7.035
		h3.887v-7.066c0.583-0.976,1.129-1.931,1.626-2.858c0.503-0.928,0.972-1.859,1.411-2.797c0.438-0.938,0.856-1.888,1.254-2.844
		c0.394-0.959,0.793-1.948,1.193-2.964h-3.98C750.673,91.506,750.418,92.225,750.139,93.023"/>
	<path clip-path="url(#SVGID_2_)" fill="#FAFBFB" d="M761.054,99.34c0.061,0.519,0.128,1.043,0.202,1.572
		c0.074,0.529,0.162,1.11,0.267,1.75h3.194c0.084-0.64,0.162-1.216,0.236-1.736c0.073-0.519,0.135-1.043,0.185-1.57
		c0.057-0.53,0.097-1.08,0.128-1.648c0.031-0.567,0.045-1.213,0.045-1.93v-4.91h-4.444v4.91c0,0.716,0.012,1.363,0.046,1.93
		C760.943,98.276,760.989,98.822,761.054,99.34"/>
	<path clip-path="url(#SVGID_2_)" fill="#FAFBFB" d="M763.089,104.817c-0.671,0-1.271,0.221-1.803,0.659
		c-0.529,0.44-0.801,1.039-0.801,1.798c0,0.776,0.271,1.386,0.801,1.824c0.532,0.44,1.132,0.659,1.803,0.659
		c0.668,0,1.268-0.219,1.802-0.659c0.528-0.438,0.798-1.048,0.798-1.824c0-0.759-0.27-1.357-0.798-1.798
		C764.356,105.038,763.757,104.817,763.089,104.817"/>
</g>
</svg>
