<?xml version="1.0" encoding="utf-8"?>
<!-- Generator: Adobe Illustrator 15.0.0, SVG Export Plug-In . SVG Version: 6.00 Build 0)  -->
<!DOCTYPE svg PUBLIC "-//W3C//DTD SVG 1.1//EN" "http://www.w3.org/Graphics/SVG/1.1/DTD/svg11.dtd">
<svg version="1.1" id="Layer_1" xmlns="http://www.w3.org/2000/svg" xmlns:xlink="http://www.w3.org/1999/xlink" x="0px" y="0px"
	 width="200px" height="200px" viewBox="-0.473 0 200 200" enable-background="new -0.473 0 200 200" xml:space="preserve">
<g>
	<defs>
		<rect id="SVGID_1_" width="199.055" height="199.055"/>
	</defs>
	<clipPath id="SVGID_2_">
		<use xlink:href="#SVGID_1_"  overflow="visible"/>
	</clipPath>
	<path opacity="0.45" clip-path="url(#SVGID_2_)" fill="#FAFBFB" d="M174.181,28.043c-16.336-14.107-38.935-14.708-50.479-1.344
		c-11.542,13.366-7.657,35.637,8.678,49.745c0.121,0.104,0.245,0.201,0.366,0.303c-8.479-4.383-18.223-6.884-28.594-6.884
		c-12.2,0-23.537,3.456-32.961,9.373c12.363-14.006,14.447-33.188,4.082-45.19C63.729,20.68,41.13,21.282,24.793,35.389
		C8.458,49.498,4.574,71.769,16.116,85.135c9.963,11.535,28.158,12.657,43.458,3.681c-9.123,9.753-14.664,22.516-14.664,36.499
		c0,5.469,0.86,10.679,2.436,15.559c0.857,6.371,4.518,18.098,19.013,29.165c5.022,10.208,14.175,16.178,27.208,17.744
		c1.146,0.138,2.3,0.207,3.431,0.207c11.213,0,18.92-6.627,22.716-10.891c8.877-0.629,27.468-10.945,34.423-22.662
		c5.852-8.247,9.256-18.173,9.256-29.122c0-16.839-8.029-31.912-20.686-42.082c14.542,7,30.898,5.271,40.151-5.444
		C194.401,64.424,190.518,42.151,174.181,28.043z M137.091,137.873c0,0,9.953-8.296,16.189,0
		c11.536,16.823-22.586,37.676-34.199,37.914c-2.452,2.846-11.36,12.345-25.354,10.665c-9.891-1.188-20.617-5.452-26.303-17.287
		c-21.237-16.062-21.826-36.455-15.403-42.191c6.102-5.452,14.692,5.213,14.692,5.213s-16.262-36.803,10.898-52.37
		c20.614-11.812,28.674,10.189,28.674,10.189s8.461-17.666,22.512-12.084C163.393,91.665,137.091,137.873,137.091,137.873z"/>
	<path clip-path="url(#SVGID_2_)" fill="#FAFBFB" d="M128.797,77.921c-14.051-5.582-22.512,12.084-22.512,12.084
		s-8.06-22.001-28.674-10.189c-27.16,15.567-10.898,52.37-10.898,52.37s-8.59-10.665-14.692-5.213
		c-6.423,5.736-5.833,26.129,15.403,42.191C73.11,181,83.836,185.264,93.727,186.452c13.995,1.68,22.902-7.819,25.354-10.665
		c11.612-0.238,45.734-21.091,34.199-37.914c-6.236-8.296-16.189,0-16.189,0S163.393,91.665,128.797,77.921z M114.72,114.72
		c0.452-10.854,4.233-19.509,8.444-19.335c4.212,0.176,7.259,9.117,6.806,19.97c-0.451,10.854-4.233,19.51-8.445,19.334
		c-2.953-0.123-5.333-4.562-6.333-10.943l10.353-3.971l-10.849-4.306C114.703,115.22,114.709,114.971,114.72,114.72z
		 M86.123,126.168l9.576-5.591l-11.401-2.496c-0.033-0.247-0.067-0.494-0.097-0.743c-1.308-10.784,1.025-19.937,5.21-20.445
		c4.185-0.505,8.635,7.824,9.942,18.608c1.185,9.765-0.622,18.169-4.08,20.052c9.949-2.717,24.516-4.065,37.818,4.758l-1.48,2.232
		c-21.571-14.306-46.854-0.1-47.107,0.046l-1.334-2.324c0.105-0.06,4.284-2.4,10.696-4.312
		C91.016,136.033,88.08,132.111,86.123,126.168z M123.812,145.469c0.145,4.187-5.673,7.785-12.998,8.04
		c-7.325,0.255-13.38-2.932-13.526-7.118c-0.146-4.185,5.675-7.785,12.999-8.038C117.611,138.098,123.667,141.283,123.812,145.469z
		 M138.12,146.766l-0.639-1.668c0.182-0.07,3.689-1.365,7.807,0.533l0.217,0.019c-0.002,0.026-0.009,0.053-0.011,0.079
		c0.931,0.451,1.89,1.062,2.848,1.896l-1.173,1.348c-0.683-0.595-1.364-1.048-2.03-1.41c-2.213,7.922-13.672,16.867-27.362,21.676
		c-5.573,6.116-16.307,15.283-28.079,11.525c-13.194-4.213-15.417-12.491-16.846-19.863c-8.088-8.576-12.588-19.069-13.547-21.458
		c-1.81,0.675-2.684,2.364-2.694,2.384l-1.598-0.799c0.06-0.119,1.498-2.931,4.626-3.539c2.538-0.499,5.357,0.605,8.376,3.269
		l-1.182,1.34c-1.234-1.089-2.404-1.868-3.505-2.353c1.588,3.521,5.335,10.979,11.102,17.499c4.343,3.471,13.295,9.29,25.287,10.092
		c7.128,0.288,12.234-0.253,15.728-0.956c13.595-4.436,24.677-13.249,26.309-19.926C139.693,146.198,138.226,146.727,138.12,146.766
		z"/>
	<path opacity="0.8" clip-path="url(#SVGID_2_)" fill="#FAFBFB" d="M92.779,173.181c0,0-4.851-6.208-8.943-5.828
		c-4.091,0.378-6.907,0.638-1.922,5.828c4.984,5.191,16.077,6.634,20.343,4.502C106.523,175.551,100.334,170.687,92.779,173.181z"/>
</g>
</svg>
