<?xml version="1.0" encoding="utf-8"?>
<!-- Generator: Adobe Illustrator 15.0.0, SVG Export Plug-In . SVG Version: 6.00 Build 0)  -->
<!DOCTYPE svg PUBLIC "-//W3C//DTD SVG 1.1//EN" "http://www.w3.org/Graphics/SVG/1.1/DTD/svg11.dtd">
<svg version="1.1" id="Layer_1" xmlns="http://www.w3.org/2000/svg" xmlns:xlink="http://www.w3.org/1999/xlink" x="0px" y="0px"
	 width="200px" height="200px" viewBox="903.5 -1.606 200 200" enable-background="new 903.5 -1.606 200 200" xml:space="preserve">
<g>
	
		<rect x="1062.028" y="129.306" transform="matrix(0.8526 0.5226 -0.5226 0.8526 226.1135 -538.154)" fill="none" width="9.796" height="4.798"/>
</g>
<rect x="1018.989" y="50.24" transform="matrix(0.7042 0.71 -0.71 0.7042 347.1869 -728.243)" fill="#FAFBFB" width="57.058" height="4.557"/>
<rect x="1023.9" y="45.37" transform="matrix(0.7042 0.71 -0.71 0.7042 345.191 -733.1787)" fill="#FAFBFB" width="57.057" height="4.557"/>
<path opacity="0.62" fill="#FAFBFB" d="M1088.867,51.691c2.712-2.689,2.73-7.068,0.041-9.78l-30.438-30.692
	c-2.688-2.712-7.068-2.73-9.78-0.041l-13.095,12.986l40.178,40.514L1088.867,51.691z"/>
<polygon fill="#FAFBFB" points="978.484,160.56 979.449,159.201 979.471,154.44 970.825,154.406 970.862,145.76 962.215,145.724 
	962.252,137.078 953.605,137.042 953.641,128.396 944.995,128.36 945.032,119.715 939.879,119.692 938.606,120.348 926.656,160.625 
	938.406,172.25 "/>
<g>
	<polygon opacity="0.75" fill="#FAFBFB" points="947.004,126.368 955.253,126.401 1035.455,46.865 1024.174,35.489 941.278,117.698 
		947.041,117.724 	"/>
</g>
<g>
	<polygon opacity="0.88" fill="#FAFBFB" points="955.613,135.05 964.261,135.086 964.224,143.731 972.665,143.767 1052.771,64.325 
		1035.455,46.865 955.253,126.401 955.648,126.403 	"/>
</g>
<g>
	<polygon opacity="0.75" fill="#FAFBFB" points="972.834,152.414 981.479,152.448 981.453,158.214 1064.352,76.003 1052.771,64.325 
		972.665,143.767 972.871,143.768 	"/>
</g>
<polygon opacity="0.4" fill="#FAFBFB" points="935.863,172.689 926.121,162.865 922.086,176.611 "/>
</svg>
